<?xml version="1.0" encoding="UTF-8"?>
<svg width="170px" height="110px" viewBox="0 0 170 110" version="1.1" xmlns="http://www.w3.org/2000/svg" xmlns:xlink="http://www.w3.org/1999/xlink">
    <!-- Generator: Sketch 39 (31667) - http://www.bohemiancoding.com/sketch -->
    <title>about-vision</title>
    <desc>Created with Sketch.</desc>
    <defs></defs>
    <g id="Symbols" stroke="none" stroke-width="1" fill="none" fill-rule="evenodd">
        <g id="about-vision">
            <g id="3" transform="translate(14.000000, 15.000000)">
                <g id="Layer_1">
                    <g id="Group">
                        <path d="M113.99581,28.7670528 C113.257053,28.7670528 113.029743,28.1441441 112.916088,27.7477477 C112.916088,27.6344916 112.859261,27.5778636 112.859261,27.4646075 C112.631951,26.8416988 112.404642,26.5019305 112.063677,26.3886744 C111.77954,26.2754183 111.381748,26.4453024 110.813474,26.7850708 L109.79058,27.5212355 L109.620098,27.4079794 C109.506443,27.2947233 109.392788,27.1814672 109.222306,27.1248391 C108.994996,26.954955 108.767687,26.7284427 108.540377,26.6151866 C107.858448,26.1621622 107.233346,25.4826255 107.972103,24.2368082 C108.142585,23.953668 108.199412,23.6705277 108.085758,23.4440154 C107.972103,23.1608752 107.631138,22.9343629 107.176519,22.8211068 C106.03997,22.5379665 105.585351,21.9150579 105.528524,20.6692407 C105.471696,19.6499356 105.869488,19.2535393 106.665072,18.970399 C107.233346,18.7438867 107.517483,18.4607465 107.631138,18.1776062 C107.687966,17.8944659 107.574311,17.5546976 107.290174,17.1583012 C106.437762,15.969112 107.119691,15.2329472 107.631138,14.7232947 C107.80162,14.5534106 107.972103,14.3835264 108.085758,14.2136422 C108.710859,13.3075933 109.449616,13.7606178 109.847408,13.98713 C109.904235,14.043758 110.01789,14.1003861 110.074717,14.1570142 C110.472509,14.3835264 110.870301,14.3835264 111.154438,14.2702703 C111.381748,14.1570142 111.495403,13.98713 111.55223,13.7039897 C111.893195,11.8918919 113.086571,11.7220077 114.336774,11.7786358 C114.450429,11.7786358 114.564084,11.7786358 114.677739,11.7220077 C114.791393,11.7220077 114.848221,11.7220077 114.961876,11.6653797 L115.189185,11.6653797 L115.416495,12.1750322 C115.53015,12.4581725 115.643805,12.6846847 115.75746,12.967825 C115.871114,13.3075933 116.098424,13.7039897 116.496216,13.8738739 C116.780353,13.98713 117.121318,13.8738739 117.462282,13.6473616 C118.087384,13.2509653 118.769313,12.967825 119.50807,13.8172458 C119.621724,13.9305019 119.735379,14.043758 119.905861,14.1570142 C120.360481,14.5534106 120.985582,15.0630631 120.360481,16.1956242 C120.189999,16.5353925 120.019516,16.988417 120.189999,17.3848134 C120.360481,17.7245817 120.8151,17.8944659 121.156065,17.951094 L121.156065,17.951094 C122.519923,18.1776062 122.633578,19.1969112 122.747233,19.989704 C122.747233,20.1029601 122.747233,20.2162162 122.80406,20.3294723 C122.917715,21.009009 121.781166,21.6885457 121.781166,21.6885457 C120.417308,22.5379665 120.417308,22.7078507 121.099237,24.010296 C121.610684,24.972973 120.985582,25.4826255 120.587791,25.8223938 C120.417308,25.9356499 120.303653,26.048906 120.189999,26.1621622 C119.905861,26.5585586 119.110278,26.5585586 118.769313,26.5019305 C118.542003,26.5019305 118.314694,26.3886744 118.144211,26.2754183 C117.973729,26.2187902 117.860074,26.1055341 117.746419,26.1055341 C116.894008,26.2187902 116.553044,26.5019305 116.553044,27.1814672 C116.496216,28.5405405 115.53015,28.6537967 114.791393,28.7104247 C114.620911,28.7104247 114.450429,28.7670528 114.279947,28.7670528 C114.223119,28.7670528 114.109464,28.7670528 113.99581,28.7670528 L113.99581,28.7670528 Z M111.893195,25.8223938 C112.00685,25.8223938 112.120505,25.8223938 112.234159,25.8790219 C112.688779,26.048906 113.086571,26.5019305 113.370708,27.2947233 C113.427535,27.4079794 113.427535,27.5212355 113.484363,27.5778636 C113.654845,28.0875161 113.711672,28.3140283 114.223119,28.2007722 C114.393601,28.1441441 114.620911,28.1441441 114.791393,28.0875161 C115.586977,27.97426 115.984769,27.9176319 116.041597,27.1248391 C116.098424,25.7091377 117.348627,25.5392535 117.746419,25.4826255 C118.030557,25.4259974 118.257866,25.5958816 118.485176,25.7091377 C118.655658,25.7657658 118.769313,25.8790219 118.882968,25.8790219 C119.394415,25.9356499 119.735379,25.8223938 119.792207,25.7657658 C119.905861,25.5958816 120.133171,25.4259974 120.303653,25.3127413 C120.758273,24.9163449 120.985582,24.7464607 120.701445,24.1801802 C119.849034,22.5379665 120.076344,22.0849421 121.553857,21.1222651 C122.008476,20.8391248 122.349441,20.4427284 122.349441,20.2728443 C122.349441,20.1595882 122.349441,20.046332 122.292613,19.9330759 C122.178958,19.0836551 122.122131,18.5740026 121.212892,18.4041184 C120.360481,18.2908623 119.962689,17.8378378 119.792207,17.5546976 C119.621724,17.2149292 119.564897,16.7052767 120.019516,15.8558559 C120.417308,15.1763192 120.133171,14.9498069 119.678552,14.5534106 C119.50807,14.4401544 119.394415,14.2702703 119.223932,14.1570142 C118.82614,13.7039897 118.542003,13.6473616 117.916902,14.1003861 C117.234973,14.5534106 116.723526,14.4967825 116.439389,14.3835264 C115.984769,14.2136422 115.586977,13.8172458 115.30284,13.1377091 C115.189185,12.8545689 115.075531,12.6280566 114.961876,12.3449163 L114.905048,12.1750322 L114.848221,12.1750322 C114.677739,12.1750322 114.564084,12.2316602 114.393601,12.2316602 C113.143398,12.1750322 112.404642,12.4015444 112.177332,13.7039897 C112.120505,14.1570142 111.836367,14.4967825 111.495403,14.6666667 C111.040784,14.8931789 110.472509,14.8365508 109.904235,14.5534106 C109.79058,14.4967825 109.733753,14.4401544 109.620098,14.3835264 C109.108651,14.043758 108.938169,13.98713 108.654032,14.4401544 C108.540377,14.6666667 108.313067,14.8365508 108.142585,15.006435 C107.631138,15.5727156 107.290174,15.9124839 107.858448,16.7619048 C108.25624,17.3281853 108.369895,17.8378378 108.25624,18.2908623 C108.142585,18.8005148 107.687966,19.1402831 107.006037,19.4800515 C106.380935,19.7631918 106.210453,19.9330759 106.210453,20.6126126 C106.26728,21.5752896 106.551417,22.028314 107.460656,22.2548263 C108.085758,22.4247104 108.540377,22.7644788 108.710859,23.2175032 C108.824514,23.5006435 108.881341,23.953668 108.540377,24.5199485 C108.085758,25.2561133 108.199412,25.6525097 108.938169,26.1621622 C109.165479,26.3320463 109.392788,26.5019305 109.676925,26.7284427 C109.733753,26.7850708 109.79058,26.8416988 109.847408,26.8983269 L110.529337,26.4453024 C111.040784,25.992278 111.495403,25.8223938 111.893195,25.8223938 L111.893195,25.8223938 Z M114.279947,24.0669241 L114.279947,24.0669241 C113.143398,24.0669241 112.120505,23.6138996 111.381748,22.8211068 C110.586164,22.028314 110.188372,21.009009 110.188372,19.9330759 C110.188372,18.9137709 110.642992,17.951094 111.381748,17.2715573 C112.120505,16.5920206 113.086571,16.1956242 114.052637,16.1956242 C116.268906,16.2522523 118.144211,18.1209781 118.087384,20.3294723 C118.087384,22.4813385 116.439389,24.0669241 114.279947,24.0669241 L114.279947,24.0669241 Z M113.99581,16.7619048 C113.200226,16.7619048 112.404642,17.1016731 111.77954,17.6679537 C111.154438,18.2908623 110.813474,19.0836551 110.756646,19.9330759 C110.756646,20.8391248 111.097611,21.7451737 111.77954,22.4247104 C112.461469,23.1042471 113.31388,23.5006435 114.279947,23.5006435 L114.279947,23.5006435 C116.098424,23.5006435 117.51911,22.1415701 117.51911,20.3861004 C117.51911,18.4607465 115.927942,16.8185328 113.99581,16.7619048 L113.99581,16.7619048 L113.99581,16.7619048 Z" id="Shape" fill="#78909C"></path>
                        <path d="M131.214519,17.045045 C130.759899,16.988417 130.646244,16.7052767 130.873554,16.3088803 C131.100864,15.9124839 130.759899,15.7992278 130.589417,15.5727156 C130.418935,15.3462033 130.248452,15.3462033 129.964315,15.5160875 C129.623351,15.7425997 129.339214,15.6293436 129.168731,15.2329472 C129.111904,15.1196911 129.055076,14.9498069 128.998249,14.8365508 C128.884594,14.8365508 128.827767,14.8931789 128.770939,14.8365508 C128.31632,14.8365508 127.975355,14.8931789 127.861701,15.4594595 C127.804873,15.7425997 127.520736,15.8558559 127.179772,15.6859717 C127.009289,15.5727156 126.78198,15.4028314 126.611497,15.6859717 C126.441015,15.969112 125.986396,16.1389961 126.32736,16.6486486 C126.611497,16.988417 126.497842,17.2715573 126.043223,17.4414414 C125.815913,17.5546976 125.702259,17.6679537 125.702259,17.951094 C125.702259,18.3474903 125.872741,18.5173745 126.213705,18.6306306 C126.55467,18.7438867 126.725152,18.970399 126.55467,19.3101673 C126.32736,19.6499356 126.441015,19.8198198 126.725152,20.046332 C126.838807,20.1595882 126.952462,20.2162162 127.122944,20.3294723 C127.236599,20.2162162 127.350254,20.1595882 127.407081,20.1029601 C127.861701,19.8198198 128.08901,19.8764479 128.259493,20.3861004 C128.31632,20.5559846 128.31632,20.8391248 128.657285,20.7824968 C128.998249,20.7258687 129.396041,20.7824968 129.396041,20.3294723 C129.396041,19.989704 129.623351,19.8764479 129.907488,19.8198198 C130.021143,19.8198198 130.134798,19.9330759 130.30528,19.9330759 C130.418935,19.9330759 130.646244,19.9330759 130.703072,19.8198198 C130.873554,19.6499356 131.214519,19.5366795 131.044036,19.1402831 C130.759899,18.6306306 130.816727,18.5173745 131.328173,18.1776062 C131.441828,18.0643501 131.669138,17.8944659 131.669138,17.7812098 C131.669138,17.4980695 131.669138,17.1583012 131.214519,17.045045 L131.214519,17.045045 Z M128.714112,19.0836551 C127.975355,19.0836551 127.350254,18.4607465 127.350254,17.7245817 C127.350254,17.045045 127.918528,16.4787645 128.600457,16.4787645 C129.339214,16.4787645 129.964315,17.1016731 129.964315,17.8378378 C129.964315,18.5740026 129.452868,19.0836551 128.714112,19.0836551 L128.714112,19.0836551 Z" id="Shape" fill="#FBAE37"></path>
                        <path d="M119.110278,54.7027027 C118.428348,54.5894466 118.201039,54.1364221 118.542003,53.5135135 C118.882968,52.8906049 118.371521,52.7207207 118.087384,52.3809524 C117.803247,52.041184 117.51911,52.041184 117.178145,52.3243243 C116.666698,52.6640927 116.212079,52.4942085 115.984769,51.8712999 C115.927942,51.6447876 115.814287,51.4749035 115.700632,51.2483912 C115.53015,51.2483912 115.416495,51.3050193 115.30284,51.3050193 C114.620911,51.2483912 114.052637,51.3616474 113.938982,52.2110682 C113.882155,52.6640927 113.427535,52.8339768 112.916088,52.5508366 C112.631951,52.3809524 112.347814,52.0978121 112.00685,52.5508366 C111.722713,53.003861 111.040784,53.2870013 111.609058,54.023166 C112.00685,54.5894466 111.836367,54.985843 111.211266,55.2689833 C110.813474,55.4388674 110.642992,55.5521236 110.699819,56.0617761 C110.699819,56.6846847 110.927129,56.967825 111.495403,57.0810811 C112.00685,57.1943372 112.290987,57.5907336 112.00685,58.1003861 C111.665885,58.6100386 111.836367,58.8931789 112.290987,59.2329472 C112.461469,59.3462033 112.631951,59.5160875 112.859261,59.6859717 C113.029743,59.5727156 113.200226,59.4594595 113.31388,59.3462033 C113.99581,58.8931789 114.393601,59.006435 114.620911,59.7992278 C114.734566,60.0823681 114.734566,60.5353925 115.246013,60.4221364 C115.700632,60.3088803 116.325734,60.4221364 116.382561,59.6859717 C116.382561,59.1196911 116.780353,59.006435 117.178145,58.9498069 C117.348627,58.9498069 117.575937,59.1196911 117.746419,59.1196911 C117.973729,59.1196911 118.257866,59.1196911 118.371521,59.006435 C118.598831,58.7232947 119.167105,58.5534106 118.882968,57.98713 C118.485176,57.1943372 118.542003,57.024453 119.337587,56.5148005 C119.564897,56.4015444 119.849034,56.0617761 119.849034,55.8918919 C119.792207,55.3822394 119.849034,54.8159588 119.110278,54.7027027 L119.110278,54.7027027 Z M115.30284,57.8172458 C114.166292,57.8172458 113.200226,56.8545689 113.257053,55.7220077 C113.257053,54.6460746 114.166292,53.7966538 115.189185,53.7966538 C116.325734,53.7966538 117.2918,54.8159588 117.234973,55.8918919 C117.234973,57.024453 116.382561,57.8172458 115.30284,57.8172458 L115.30284,57.8172458 Z" id="Shape" fill="#FBAE37"></path>
                        <path d="M34.0396261,60.4787645 C33.5850067,60.4221364 33.4713518,60.1389961 33.6986615,59.6859717 C33.9259712,59.2895753 33.5850067,59.1763192 33.4145244,58.9498069 C33.1872147,58.7232947 33.0167325,58.7232947 32.7894228,58.8931789 C32.4484582,59.1196911 32.1643211,59.006435 31.9938389,58.6100386 C31.9370114,58.4967825 31.880184,58.3268983 31.8233566,58.2136422 C31.7097018,58.2136422 31.6528743,58.2702703 31.5960469,58.2136422 C31.1414275,58.2136422 30.800463,58.2702703 30.6868081,58.8365508 C30.6299807,59.1196911 30.3458436,59.2329472 30.0048791,59.0630631 C29.8343968,58.9498069 29.6070871,58.7799228 29.4366049,59.0630631 C29.2661226,59.3462033 28.8115032,59.5160875 29.1524677,60.02574 C29.4366049,60.4221364 29.32295,60.6486486 28.8683306,60.8185328 C28.6410209,60.9317889 28.5273661,61.045045 28.5273661,61.3281853 C28.5273661,61.7245817 28.6978484,61.8944659 29.0388129,62.007722 C29.3797774,62.1209781 29.5502597,62.3474903 29.3797774,62.6872587 C29.1524677,63.027027 29.2661226,63.1969112 29.5502597,63.4234234 C29.6639145,63.5366795 29.7775694,63.5933076 29.9480517,63.7065637 C30.0617065,63.5933076 30.1753613,63.5366795 30.2890162,63.4800515 C30.7436356,63.1969112 30.9709453,63.2535393 31.1414275,63.7631918 C31.1982549,63.9330759 31.1982549,64.2162162 31.5960469,64.1595882 C31.9370114,64.1029601 32.3348034,64.1595882 32.3348034,63.6499356 C32.3348034,63.3101673 32.5621131,63.1969112 32.8462502,63.1402831 C32.959905,63.1402831 33.1303873,63.2535393 33.2440422,63.2535393 C33.357697,63.2535393 33.5850067,63.2535393 33.6418341,63.1402831 C33.8123164,62.9137709 34.1532809,62.8571429 33.9827987,62.4607465 C33.6986615,61.951094 33.755489,61.8378378 34.2669358,61.4980695 C34.437418,61.3848134 34.6079003,61.2149292 34.6079003,61.1016731 C34.4942455,60.9317889 34.4942455,60.5353925 34.0396261,60.4787645 L34.0396261,60.4787645 Z M31.4823921,62.5173745 C30.7436356,62.5173745 30.1185339,61.8944659 30.1185339,61.1583012 C30.1185339,60.4787645 30.7436356,59.9124839 31.4255646,59.9124839 C32.1643211,59.9124839 32.7894228,60.5920206 32.7894228,61.3281853 C32.7894228,62.007722 32.2211486,62.5173745 31.4823921,62.5173745 L31.4823921,62.5173745 Z" id="Shape" fill="#FBAE37"></path>
                        <g transform="translate(111.950022, 18.687259)" id="Shape" fill="#78909C">
                            <path d="M0.170482267,19.8764479 L0.0568274225,19.3101673 C2.21626948,18.7438867 13.5249266,13.3642214 15.4002315,12.4581725 L12.6156878,7.36164736 L27.4476451,0.792792793 L27.6749548,1.3024453 L13.4112717,7.64478764 L16.1958154,12.7413127 L15.9116783,12.8545689 C15.3434041,13.1377091 2.55723401,19.2535393 0.170482267,19.8764479 L0.170482267,19.8764479 Z"></path>
                            <polygon points="27.6749548 2.20849421 29.0388129 0.396396396 26.765716 0.16988417"></polygon>
                        </g>
                        <path d="M68.5338715,63.1402831 C55.690874,63.1402831 45.2914557,52.7207207 45.2914557,39.979408 C45.2914557,27.1814672 55.7477015,16.8185328 68.5338715,16.8185328 C81.376869,16.8185328 91.7762873,27.2380952 91.7762873,39.979408 C91.7762873,52.7207207 81.3200416,63.1402831 68.5338715,63.1402831 L68.5338715,63.1402831 Z M68.5338715,17.951094 C56.3159757,17.951094 46.4280042,27.8610039 46.4280042,39.979408 C46.4280042,52.1544402 56.3728031,62.007722 68.5338715,62.007722 C80.7517674,62.007722 90.6397389,52.0978121 90.6397389,39.979408 C90.6397389,27.8043758 80.6949399,17.951094 68.5338715,17.951094 L68.5338715,17.951094 Z" id="Shape" fill="#78909C"></path>
                        <g opacity="0.62" transform="translate(45.461938, 16.988417)" id="Oval" fill="#AFC3C9">
                            <ellipse cx="23.0719335" cy="22.990991" rx="22.6741416" ry="22.5945946"></ellipse>
                        </g>
                        <ellipse id="Oval" fill="#78909C" cx="68.4770441" cy="40.0926641" rx="9.6038344" ry="9.57014157"></ellipse>
                        <g transform="translate(0.000000, 48.700129)">
                            <g>
                                <path d="M17.2755364,13.4774775 C14.8887847,13.4774775 12.6156878,12.1750322 11.4223119,9.96653797 C10.626728,8.43758044 10.4562457,6.62548263 10.9676925,4.98326898 C11.4791393,3.28442728 12.6156878,1.92535393 14.2068556,1.13256113 C17.4460187,-0.566280566 21.4239383,0.67953668 23.0719335,3.90733591 C23.8675174,5.43629344 24.0379997,7.24839125 23.5265529,8.89060489 C23.0151061,10.5894466 21.8785577,11.9485199 20.2873898,12.7413127 C19.3781511,13.2509653 18.29843,13.4774775 17.2755364,13.4774775 L17.2755364,13.4774775 Z M17.2755364,0.906048906 C16.3094703,0.906048906 15.4002315,1.13256113 14.4909927,1.58558559 C13.0703072,2.32175032 12.0474136,3.56756757 11.5359668,5.0965251 C11.0813474,6.62548263 11.1950022,8.26769627 11.9337587,9.68339768 C12.6725152,11.0990991 13.9227185,12.1184041 15.4570589,12.6280566 C16.9913993,13.0810811 18.6393946,12.967825 20.0600801,12.2316602 C21.4807657,11.4954955 22.5036593,10.2496782 23.0151061,8.72072072 C23.4697255,7.19176319 23.3560706,5.54954955 22.6173142,4.13384813 C21.5375931,2.0952381 19.4349785,0.906048906 17.2755364,0.906048906 L17.2755364,0.906048906 Z" id="Shape" fill="#1C75BC"></path>
                                <path d="M17.2755364,13.4774775 C14.8887847,13.4774775 12.6156878,12.1750322 11.4223119,9.96653797 C10.626728,8.43758044 10.4562457,6.62548263 10.9676925,4.98326898 C11.4791393,3.28442728 12.6156878,1.92535393 14.2068556,1.13256113 C17.4460187,-0.566280566 21.4239383,0.67953668 23.0719335,3.90733591 C23.8675174,5.43629344 24.0379997,7.24839125 23.5265529,8.89060489 C23.0151061,10.5894466 21.8785577,11.9485199 20.2873898,12.7413127 C19.3781511,13.2509653 18.29843,13.4774775 17.2755364,13.4774775 L17.2755364,13.4774775 Z M17.2755364,0.906048906 C16.3094703,0.906048906 15.4002315,1.13256113 14.4909927,1.58558559 C13.0703072,2.32175032 12.0474136,3.56756757 11.5359668,5.0965251 C11.0813474,6.62548263 11.1950022,8.26769627 11.9337587,9.68339768 C12.6725152,11.0990991 13.9227185,12.1184041 15.4570589,12.6280566 C16.9913993,13.0810811 18.6393946,12.967825 20.0600801,12.2316602 C21.4807657,11.4954955 22.5036593,10.2496782 23.0151061,8.72072072 C23.4697255,7.19176319 23.3560706,5.54954955 22.6173142,4.13384813 C21.5375931,2.0952381 19.4349785,0.906048906 17.2755364,0.906048906 L17.2755364,0.906048906 Z" id="Shape" fill="#78909C"></path>
                                <rect id="Rectangle-path" fill="#FBB040" transform="translate(5.535002, 12.843676) rotate(62.297230) translate(-5.535002, -12.843676) " x="4.17109974" y="7.94518994" width="2.72780516" height="9.79697302"></rect>
                            </g>
                            <g opacity="0.42" transform="translate(11.933759, 1.698842)" id="Shape" fill="#738E98">
                                <path d="M4.034747,10.1364221 L4.034747,10.1364221 C1.30703072,9.4002574 -0.340964535,6.62548263 0.397791957,3.90733591 L0.397791957,3.90733591 C1.13654845,1.18918919 3.92109215,-0.453024453 6.64880843,0.283140283 L6.64880843,0.283140283 C9.37652471,1.01930502 11.02452,3.79407979 10.2857635,6.51222651 L10.2857635,6.51222651 C9.6038344,9.23037323 6.76246328,10.8725869 4.034747,10.1364221 L4.034747,10.1364221 Z"></path>
                            </g>
                        </g>
                        <rect id="Rectangle-path" fill="#78909C" transform="translate(30.939354, 68.256194) rotate(69.346715) translate(-30.939354, -68.256194) " x="30.4949081" y="51.6652446" width="0.568254841" height="33.1829093"></rect>
                        <polyline id="Rectangle-path" fill="#78909C" points="122.887976 29.3766912 123.133868 29.8889904 111.034973 35.6961919 110.78908 35.1838927 122.887976 29.3766912"></polyline>
                        <rect id="Rectangle-path" fill="#78909C" transform="translate(37.089552, 69.899488) rotate(69.348736) translate(-37.089552, -69.899488) " x="36.6451065" y="53.306989" width="0.568308016" height="33.1860144"></rect>
                        <g opacity="0.62" transform="translate(65.351536, 3.397683)" id="Rectangle-path" fill="#1C75BC">
                            <g>
                                <rect x="0.170482267" y="0" width="0.568274225" height="6.05920206"></rect>
                            </g>
                        </g>
                        <g opacity="0.62" transform="translate(31.502742, 2.831403)" id="Rectangle-path" fill="#1C75BC">
                            <g>
                                <rect transform="translate(1.420295, 11.457616) rotate(89.294919) translate(-1.420295, -11.457616) " x="-9.71804198" y="11.0131709" width="22.2758087" height="0.566266815"></rect>
                            </g>
                        </g>
                        <g opacity="0.62" transform="translate(32.391631, 2.831403)" id="Rectangle-path" fill="#1C75BC">
                            <g>
                                <rect x="0.511446802" y="0.0566280566" width="33.1303873" height="0.566280566"></rect>
                            </g>
                        </g>
                        <g opacity="0.62" transform="translate(38.074373, 5.096525)" id="Rectangle-path" fill="#1C75BC">
                            <g>
                                <rect x="0.170482267" y="0.226512227" width="32.9030776" height="0.566280566"></rect>
                            </g>
                        </g>
                        <rect id="Rectangle-path" fill="#78909C" x="84.6160321" y="12.3449163" width="18.8098768" height="0.566280566"></rect>
                        <rect id="Rectangle-path" fill="#78909C" x="79.9561834" y="9.4002574" width="18.8098768" height="0.566280566"></rect>
                        <g opacity="0.62" transform="translate(56.259148, 75.881596)" id="Rectangle-path" fill="#1C75BC">
                            <g>
                                <rect x="0.0568274225" y="0.283140283" width="33.5281793" height="0.566280566"></rect>
                            </g>
                        </g>
                        <g opacity="0.62" transform="translate(110.813474, 47.567568)" id="Rectangle-path" fill="#1C75BC">
                            <g>
                                <rect x="0.511446802" y="0.0566280566" width="13.4680991" height="0.566280566"></rect>
                            </g>
                        </g>
                        <g opacity="0.62" transform="translate(76.148746, 78.146718)" id="Rectangle-path" fill="#1C75BC">
                            <g>
                                <rect x="0.0568274225" y="0.396396396" width="13.4680991" height="0.566280566"></rect>
                            </g>
                        </g>
                        <g opacity="0.62" transform="translate(113.086571, 45.302445)" id="Rectangle-path" fill="#1C75BC">
                            <g>
                                <rect x="0.397791957" y="0.16988417" width="16.1958154" height="0.566280566"></rect>
                            </g>
                        </g>
                        <g opacity="0.62" transform="translate(73.875649, 73.050193)" id="Rectangle-path" fill="#1C75BC">
                            <g>
                                <rect x="0.284137112" y="0" width="32.9030776" height="0.566280566"></rect>
                            </g>
                        </g>
                        <g opacity="0.62" transform="translate(73.875649, 69.652510)" id="Rectangle-path" fill="#1C75BC">
                            <g>
                                <rect x="0.22730969" y="0.113256113" width="0.568274225" height="3.62419562"></rect>
                            </g>
                        </g>
                        <g opacity="0.62" transform="translate(106.835554, 49.832690)" id="Rectangle-path" fill="#1C75BC">
                            <g>
                                <rect x="0" y="0" width="0.568274225" height="23.5006435"></rect>
                            </g>
                        </g>
                        <g opacity="0.62" transform="translate(3.977920, 31.145431)" id="Rectangle-path" fill="#1C75BC">
                            <g>
                                <rect x="0.0568274225" y="0.113256113" width="20.173735" height="0.566280566"></rect>
                            </g>
                        </g>
                        <g opacity="0.62" transform="translate(11.933759, 28.314028)" id="Rectangle-path" fill="#1C75BC">
                            <g>
                                <rect x="0.397791957" y="0.226512227" width="15.5138863" height="0.566280566"></rect>
                            </g>
                        </g>
                        <g opacity="0.62" transform="translate(25.572340, 25.482625)" id="Rectangle-path" fill="#1C75BC">
                            <g>
                                <rect x="0.397791957" y="0.50965251" width="4.77350349" height="0.566280566"></rect>
                            </g>
                        </g>
                        <g opacity="0.62" transform="translate(18.753049, 25.482625)" id="Rectangle-path" fill="#1C75BC">
                            <g>
                                <rect x="0.0568274225" y="0.50965251" width="4.77350349" height="0.566280566"></rect>
                            </g>
                        </g>
                        <g opacity="0.62" transform="translate(56.259148, 73.050193)" id="Rectangle-path" fill="#1C75BC">
                            <g>
                                <rect x="0.0568274225" y="0.16988417" width="4.77350349" height="0.566280566"></rect>
                            </g>
                        </g>
                        <g opacity="0.62" transform="translate(64.214987, 73.050193)" id="Rectangle-path" fill="#1C75BC">
                            <g>
                                <rect x="0.170482267" y="0.16988417" width="4.77350349" height="0.566280566"></rect>
                            </g>
                        </g>
                        <g opacity="0.62" transform="translate(114.791393, 43.037323)" id="Rectangle-path" fill="#1C75BC">
                            <g>
                                <rect x="0.22730969" y="0.283140283" width="4.77350349" height="0.566280566"></rect>
                            </g>
                        </g>
                        <g opacity="0.62" transform="translate(122.178958, 43.037323)" id="Rectangle-path" fill="#1C75BC">
                            <g>
                                <rect x="0.170482267" y="0.283140283" width="4.77350349" height="0.566280566"></rect>
                            </g>
                        </g>
                        <g opacity="0.62" transform="translate(15.911678, 33.976834)" id="Rectangle-path" fill="#1C75BC">
                            <g>
                                <rect x="0.45461938" y="0.0566280566" width="4.77350349" height="0.566280566"></rect>
                            </g>
                        </g>
                        <path d="M68.4770441,50.2857143 C66.4880843,50.2857143 64.555952,49.7194337 62.9079567,48.5868726 C58.2481081,45.5289575 56.9410773,39.1866152 60.0097582,34.5431145 C63.078439,29.8996139 69.4431103,28.5971686 74.1029589,31.6550837 L74.1029589,31.6550837 C78.7628076,34.7129987 80.0698383,41.0553411 77.0011575,45.6988417 C75.5236445,47.963964 73.1937202,49.4929215 70.5228313,50.0592021 C69.8409022,50.1724582 69.1589732,50.2857143 68.4770441,50.2857143 L68.4770441,50.2857143 Z M68.4770441,31.0888031 C65.5220181,31.0888031 62.6238196,32.5045045 60.9189969,35.1093951 C59.6119662,37.0913771 59.1005194,39.5263835 59.6119662,41.9047619 C60.123413,44.2831403 61.4872711,46.2651223 63.4762309,47.6241956 C65.4651907,48.9266409 67.9087699,49.4362934 70.2955216,48.9266409 C72.6822734,48.4169884 74.6712332,47.0579151 76.0350913,45.0759331 C78.7628076,40.9420849 77.6262591,35.3359073 73.4778573,32.6177606 L73.4778573,32.6177606 C71.9435169,31.5984556 70.1818668,31.0888031 68.4770441,31.0888031 L68.4770441,31.0888031 Z" id="Shape" fill="#78909C"></path>
                        <path d="M68.0224247,67.1608752 C37.3356166,67.1608752 22.9582787,41.4517375 22.8446238,41.1685972 L22.730969,40.9420849 L22.8446238,40.6589447 C22.9582787,40.3758044 25.9701321,33.9202059 33.1303873,27.1814672 C39.7791957,21.009009 51.3719899,13.4774775 68.9884909,12.9111969 C87.96885,13.7039897 99.0501974,21.2355212 104.960249,27.3513514 C111.438576,34.033462 113.370708,40.4324324 113.427535,40.7155727 L113.484363,40.9420849 L113.370708,41.1119691 C113.257053,41.3951094 110.131545,47.6808237 102.97129,54.1364221 C96.436136,60.0823681 85.013824,67.1608752 68.0224247,67.1608752 L68.0224247,67.1608752 Z M23.9811723,40.8854569 C25.5155127,43.4903475 39.6087135,66.028314 68.0224247,66.028314 C98.3114409,66.028314 111.040784,43.2638353 112.290987,40.8854569 C111.893195,39.7528958 109.733753,33.976834 104.107838,28.1441441 C98.3114409,22.1415701 87.5142306,14.8931789 68.9884909,14.1003861 C51.7697819,14.6666667 40.4042974,22.028314 33.9259712,28.030888 C27.6749548,33.8635779 24.6062739,39.6396396 23.9811723,40.8854569 L23.9811723,40.8854569 Z" id="Shape" fill="#78909C"></path>
                        <path d="M68.0224247,70.6718147 C51.9402642,70.6718147 40.5179522,62.5740026 33.755489,55.7786358 C26.4247515,48.4169884 22.8446238,40.998713 22.8446238,40.8854569 L22.730969,40.6589447 L22.8446238,40.4324324 C22.9014513,40.3758044 25.9701321,32.7310167 33.1303873,25.029601 C39.7791957,17.951094 51.3719899,9.34362934 69.0453183,8.66409266 C88.0256774,9.57014157 99.1070248,18.1776062 105.073904,25.1994852 C111.495403,32.8442728 113.427535,40.1492921 113.54119,40.4890605 L113.598018,40.6589447 L113.54119,40.8288288 C113.484363,40.8854569 110.358854,48.3603604 103.198599,55.7220077 C96.4929634,62.6306306 85.0706515,70.6718147 68.0224247,70.6718147 L68.0224247,70.6718147 Z M23.9811723,40.7155727 C25.3450304,43.4337194 39.4382312,69.5958816 68.0224247,69.5958816 C98.5387506,69.5958816 111.211266,43.1505792 112.290987,40.7155727 C111.950022,39.5263835 109.847408,32.8442728 104.107838,26.048906 C98.3114409,19.1402831 87.5142306,10.7593308 68.9884909,9.85328185 C37.5629263,11.0990991 25.1745482,37.9407979 23.9811723,40.7155727 L23.9811723,40.7155727 Z" id="Shape" fill="#78909C"></path>
                        <g opacity="0.37" transform="translate(99.447989, 3.963964)" id="Shape" fill="#F3C674">
                            <path d="M0.170482267,0.113256113 C2.58171262e-12,0.67953668 0.340964535,8.38095238 0.340964535,8.38095238 L8.06949399,1.41570142 L0.170482267,0.113256113 L0.170482267,0.113256113 Z"></path>
                        </g>
                        <g opacity="0.37" transform="translate(23.299243, 65.688546)" id="Shape" fill="#F3C674">
                            <path d="M0.45461938,0.0566280566 C0.68192907,1.01930502 4.88715833,12.5148005 4.88715833,12.5148005 L20.5715269,6.90862291 L0.45461938,0.0566280566 L0.45461938,0.0566280566 Z"></path>
                        </g>
                        <polygon id="Shape" fill="#78909C" points="38.0175456 12.5148005 36.1990681 8.94723295 36.7105149 8.66409266 37.9038908 10.985843 41.0862265 0.33976834 41.5976733 0.50965251"></polygon>
                    </g>
                </g>
            </g>
        </g>
    </g>
</svg>