<?xml version="1.0" encoding="UTF-8"?>
<svg width="60px" height="60px" viewBox="0 0 60 60" version="1.1" xmlns="http://www.w3.org/2000/svg" xmlns:xlink="http://www.w3.org/1999/xlink">
    <!-- Generator: Sketch 39 (31667) - http://www.bohemiancoding.com/sketch -->
    <title>about-lang</title>
    <desc>Created with Sketch.</desc>
    <defs></defs>
    <g id="Symbols" stroke="none" stroke-width="1" fill="none" fill-rule="evenodd">
        <g id="about-lang">
            <g id="9" transform="translate(-1.000000, 0.000000)">
                <g id="Layer_1">
                    <g id="Group">
                        <path d="M11.5207135,53.2245043 C11.0329086,52.8331477 10.5451037,52.3439519 10.0572989,51.8547561 L10.7402257,51.1698819 C11.2280306,51.6590777 11.7158355,52.0504344 12.2036403,52.441791 L11.5207135,53.2245043 L11.5207135,53.2245043 Z M50.2524208,53.2245043 L49.667055,52.441791 C50.1548598,52.0504344 50.6426647,51.5612386 51.1304696,51.1698819 L51.8133964,51.8547561 C51.2280306,52.3439519 50.7402257,52.8331477 50.2524208,53.2245043 L50.2524208,53.2245043 Z M8.69144521,50.4850078 C8.20364033,49.995812 7.81339643,49.5066162 7.42315253,48.9195812 L8.20364033,48.3325462 C8.59388424,48.821742 8.98412814,49.3109378 9.47193302,49.8001337 L8.69144521,50.4850078 L8.69144521,50.4850078 Z M53.1792501,50.3871686 L52.4963233,49.7022945 C52.8865672,49.2130987 53.374372,48.7239029 53.7646159,48.2347071 L54.5451037,48.821742 C54.0572989,49.408777 53.569494,49.8979728 53.1792501,50.3871686 L53.1792501,50.3871686 Z M6.15485985,47.3541546 C5.76461594,46.7671196 5.37437204,46.2779238 5.08168912,45.6908888 L5.9597379,45.201693 C6.25242082,45.788728 6.64266473,46.2779238 7.03290863,46.8649588 L6.15485985,47.3541546 L6.15485985,47.3541546 Z M55.6182745,47.2563154 L54.8377867,46.6692805 C55.2280306,46.1800847 55.5207135,45.5930497 55.9109574,45.0060147 L56.7890062,45.4952105 C56.3987623,46.1800847 56.0085184,46.7671196 55.6182745,47.2563154 L55.6182745,47.2563154 Z M4.10607936,43.8319448 C3.81339643,43.2449098 3.52071351,42.6578748 3.22803058,41.9730007 L4.10607936,41.581644 C4.39876229,42.168679 4.59388424,42.755714 4.88656716,43.3427489 L4.10607936,43.8319448 L4.10607936,43.8319448 Z M57.667055,43.8319448 L56.7890062,43.3427489 C57.0816891,42.755714 57.374372,42.168679 57.569494,41.581644 L58.4475428,41.9730007 C58.2524208,42.6578748 57.9597379,43.2449098 57.667055,43.8319448 L57.667055,43.8319448 Z M2.54510375,40.2118957 C2.3499818,39.6248608 2.15485985,38.9399866 1.9597379,38.2551125 L2.93534765,37.961595 C3.1304696,38.54863 3.32559155,39.2335041 3.52071351,39.8205391 L2.54510375,40.2118957 L2.54510375,40.2118957 Z M59.2280306,40.1140566 L58.3499818,39.8205391 C58.5451037,39.2335041 58.7402257,38.54863 58.9353477,37.961595 L59.9109574,38.2551125 C59.6182745,38.8421475 59.4231525,39.5270216 59.2280306,40.1140566 L59.2280306,40.1140566 Z M1.47193302,36.2983292 C1.37437204,35.6134551 1.17925009,34.928581 1.17925009,34.341546 L2.15485985,34.2437068 C2.25242082,34.928581 2.3499818,35.515616 2.44754277,36.2004901 L1.47193302,36.2983292 L1.47193302,36.2983292 Z M60.3012013,36.2983292 L59.3255916,36.1026509 C59.4231525,35.515616 59.5207135,34.8307418 59.6182745,34.1458677 L60.5938842,34.2437068 C60.4963233,34.928581 60.3987623,35.6134551 60.3012013,36.2983292 L60.3012013,36.2983292 Z M0.98412814,32.2869236 C0.98412814,31.6020495 0.886567164,30.9171753 0.886567164,30.2323012 L1.86217692,30.2323012 C1.86217692,30.9171753 1.86217692,31.5042103 1.9597379,32.1890844 L0.98412814,32.2869236 L0.98412814,32.2869236 Z M60.7890062,32.2869236 L59.8133964,32.1890844 C59.8133964,31.5042103 59.9109574,30.9171753 59.9109574,30.2323012 L59.9109574,30.134462 L60.8865672,30.134462 L60.8865672,30.2323012 C60.8865672,30.9171753 60.8865672,31.6020495 60.7890062,32.2869236 L60.7890062,32.2869236 Z M1.9597379,28.3733571 L0.98412814,28.2755179 C0.98412814,27.5906438 1.08168912,26.9057697 1.17925009,26.3187347 L2.15485985,26.4165738 C2.05729887,27.101448 1.9597379,27.7863221 1.9597379,28.3733571 L1.9597379,28.3733571 Z M59.8133964,28.1776788 C59.8133964,27.4928046 59.7158355,26.9057697 59.6182745,26.2208955 L60.5938842,26.1230564 C60.6914452,26.8079305 60.7890062,27.4928046 60.7890062,28.0798396 L59.8133964,28.1776788 L59.8133964,28.1776788 Z M2.44754277,24.5576298 L1.47193302,24.3619514 C1.56949399,23.6770773 1.76461594,23.0900423 1.9597379,22.4051682 L2.93534765,22.6986857 C2.7402257,23.2857207 2.54510375,23.8727556 2.44754277,24.5576298 L2.44754277,24.5576298 Z M59.3255916,24.3619514 C59.2280306,23.7749165 59.0329086,23.0900423 58.8377867,22.5030074 L59.8133964,22.2094899 C60.0085184,22.894364 60.1060794,23.481399 60.3012013,24.1662731 L59.3255916,24.3619514 L59.3255916,24.3619514 Z M3.42315253,20.7419024 L2.54510375,20.4483849 C2.7402257,19.86135 3.03290863,19.1764758 3.22803058,18.5894409 L4.10607936,18.9807975 C3.91095741,19.5678325 3.61827448,20.1548675 3.42315253,20.7419024 L3.42315253,20.7419024 Z M58.2524208,20.6440633 C58.0572989,20.0570283 57.7646159,19.4699933 57.569494,18.8829583 L58.4475428,18.4916017 C58.7402257,19.0786367 58.9353477,19.7635108 59.1304696,20.3505458 L58.2524208,20.6440633 L58.2524208,20.6440633 Z M4.98412814,17.2196926 L4.10607936,16.7304968 C4.39876229,16.1434618 4.69144521,15.5564268 5.08168912,14.9693918 L5.9597379,15.4585877 C5.56949399,16.0456226 5.27681107,16.6326576 4.98412814,17.2196926 L4.98412814,17.2196926 Z M56.6914452,17.0240143 C56.3987623,16.4369793 56.1060794,15.8499443 55.7158355,15.3607485 L56.5938842,14.8715527 C56.8865672,15.4585877 57.2768111,16.0456226 57.569494,16.6326576 L56.6914452,17.0240143 L56.6914452,17.0240143 Z M6.93534765,13.8931611 L6.15485985,13.3061261 C6.54510375,12.7190911 6.93534765,12.2298953 7.32559155,11.6428603 L8.10607936,12.2298953 C7.71583546,12.8169303 7.32559155,13.3061261 6.93534765,13.8931611 L6.93534765,13.8931611 Z M54.7402257,13.6974827 C54.3499818,13.2082869 53.9597379,12.6212519 53.569494,12.1320561 L54.3499818,11.5450212 C54.7402257,12.034217 55.1304696,12.6212519 55.5207135,13.1104478 L54.7402257,13.6974827 L54.7402257,13.6974827 Z M9.37437204,10.7623079 L8.69144521,10.0774337 C9.17925009,9.58823791 9.56949399,9.0990421 10.0572989,8.60984629 L10.7402257,9.29472043 C10.2524208,9.8817554 9.76461594,10.2731121 9.37437204,10.7623079 L9.37437204,10.7623079 Z M52.3012013,10.6644687 C51.9109574,10.1752729 51.4231525,9.68607708 50.9353477,9.29472043 L51.6182745,8.60984629 C52.1060794,9.0990421 52.5938842,9.58823791 52.9841281,10.0774337 L52.3012013,10.6644687 L52.3012013,10.6644687 Z M12.1060794,8.12065048 L11.5207135,7.33793718 C12.0085184,6.94658053 12.5938842,6.45738472 13.0816891,6.06602807 L13.667055,6.84874137 C13.0816891,7.24009802 12.5938842,7.63145467 12.1060794,8.12065048 L12.1060794,8.12065048 Z M49.569494,8.02281132 C49.0816891,7.63145467 48.5938842,7.24009802 48.0085184,6.84874137 L48.5938842,6.06602807 C49.1792501,6.45738472 49.667055,6.84874137 50.1548598,7.33793718 L49.569494,8.02281132 L49.569494,8.02281132 Z M15.2280306,5.77251058 L14.7402257,4.98979728 C15.3255916,4.59844063 15.9109574,4.30492315 16.4963233,3.9135665 L16.9841281,4.79411896 C16.3012013,5.08763644 15.7158355,5.38115393 15.2280306,5.77251058 L15.2280306,5.77251058 Z M46.4475428,5.67467142 C45.8621769,5.28331477 45.374372,4.98979728 44.7890062,4.6962798 L45.2768111,3.81572733 C45.8621769,4.10924482 46.4475428,4.50060147 47.0329086,4.79411896 L46.4475428,5.67467142 L46.4475428,5.67467142 Z M18.6426647,3.9135665 L18.2524208,3.03301403 C18.8377867,2.73949655 19.5207135,2.44597906 20.1060794,2.25030074 L20.4963233,3.1308532 C19.8133964,3.32653152 19.2280306,3.62004901 18.6426647,3.9135665 L18.6426647,3.9135665 Z M43.0329086,3.81572733 C42.4475428,3.52220985 41.8621769,3.32653152 41.2768111,3.03301403 L41.667055,2.15246157 C42.2524208,2.3481399 42.9353477,2.64165738 43.5207135,2.93517487 L43.0329086,3.81572733 L43.0329086,3.81572733 Z M22.2524208,2.54381822 L21.9597379,1.5654266 C22.6426647,1.36974827 23.2280306,1.17406995 23.9109574,1.07623079 L24.1060794,2.05462241 C23.4231525,2.15246157 22.8377867,2.3481399 22.2524208,2.54381822 L22.2524208,2.54381822 Z M39.4231525,2.44597906 C38.8377867,2.25030074 38.1548598,2.05462241 37.569494,1.95678325 L37.7646159,0.978391624 C38.4475428,1.17406995 39.0329086,1.27190911 39.7158355,1.46758744 L39.4231525,2.44597906 L39.4231525,2.44597906 Z M25.9597379,1.5654266 L25.7646159,0.587034974 C26.4475428,0.489195812 27.1304696,0.39135665 27.7158355,0.293517487 L27.8133964,1.27190911 C27.2280306,1.36974827 26.6426647,1.46758744 25.9597379,1.5654266 L25.9597379,1.5654266 Z M35.6182745,1.5654266 C35.0329086,1.46758744 34.3499818,1.36974827 33.667055,1.27190911 L33.7646159,0.293517487 C34.4475428,0.39135665 35.1304696,0.489195812 35.7158355,0.587034974 L35.6182745,1.5654266 L35.6182745,1.5654266 Z M29.8621769,1.17406995 L29.8621769,0.195678325 L31.9109574,0.195678325 L31.9109574,1.17406995 L29.8621769,1.17406995 L29.8621769,1.17406995 Z" id="Shape" fill="#D9DDE0"></path>
                        <path d="M31.6358209,42.5600356 C26.4149254,42.5600356 22.1791045,37.8637558 22.1791045,32.0912453 C22.1791045,26.3187347 26.4149254,21.6224549 31.6358209,21.6224549 C36.8567164,21.6224549 41.0925373,26.3187347 41.0925373,32.0912453 C41.0925373,37.8637558 36.8567164,42.5600356 31.6358209,42.5600356 L31.6358209,42.5600356 Z M31.6358209,22.6986857 C27.0059701,22.6986857 23.1641791,26.9057697 23.1641791,32.1890844 C23.1641791,37.4723992 26.9074627,41.6794832 31.6358209,41.6794832 C36.2656716,41.6794832 40.1074627,37.4723992 40.1074627,32.1890844 C40.1074627,26.9057697 36.2656716,22.6986857 31.6358209,22.6986857 L31.6358209,22.6986857 Z" id="Shape" fill="#1C75BC"></path>
                        <path d="M30.8477612,59.8775674 C21.3910448,59.8775674 15.0865672,55.3769659 14.7910448,55.1812876 L14.5940299,55.0834484 L14.5940299,54.8877701 C14.5940299,54.5942526 13.7074627,48.821742 15.8746269,46.1800847 C16.5641791,45.3973714 17.3522388,44.9081755 18.4358209,44.8103364 C21.3910448,44.6146581 23.558209,43.7341056 24.641791,42.4621965 C25.5283582,41.3859657 25.4298507,40.4075741 25.4298507,40.4075741 L25.3313433,39.6248608 L26.119403,39.9183783 C28.4835821,40.7989307 30.3552239,42.6578748 31.6358209,45.2995322 C32.9164179,42.6578748 34.6895522,40.7989307 37.1522388,39.9183783 L37.9402985,39.6248608 L37.841791,40.4075741 C37.841791,40.4075741 37.7432836,41.3859657 38.6298507,42.4621965 C39.7134328,43.7341056 41.880597,44.5168189 44.8358209,44.8103364 L44.8358209,44.8103364 C45.919403,44.9081755 46.7074627,45.3973714 47.3970149,46.1800847 C49.5641791,48.9195812 48.6776119,54.6920918 48.6776119,54.8877701 L48.6776119,54.9856093 L48.5791045,55.0834484 C48.3820896,55.2791268 44.441791,59.6818891 31.3402985,59.8775674 L30.8477612,59.8775674 L30.8477612,59.8775674 Z M15.480597,54.5942526 C16.5641791,55.2791268 22.6716418,59.0948541 31.1432836,58.9970149 C42.6686567,58.8991758 46.9044776,55.2791268 47.5940299,54.6920918 C47.6925373,53.8115393 48.1850746,49.0174204 46.5104478,46.8649588 C46.0179104,46.2779238 45.4268657,45.8865672 44.638806,45.8865672 C41.3880597,45.5930497 39.0238806,44.7124972 37.7432836,43.1470706 C37.1522388,42.4621965 36.8567164,41.6794832 36.758209,41.1902874 C34.5910448,42.168679 33.0149254,44.1254622 32.0298507,46.8649588 L31.5373134,48.0390287 L31.0447761,46.8649588 C29.961194,44.1254622 28.3850746,42.2665182 26.3164179,41.1902874 C26.2179104,41.6794832 26.0208955,42.4621965 25.3313433,43.1470706 C24.0507463,44.7124972 21.6865672,45.5930497 18.4358209,45.8865672 C17.6477612,45.9844063 17.0567164,46.2779238 16.5641791,46.8649588 C14.8895522,48.9195812 15.3820896,53.5180218 15.480597,54.5942526 L15.480597,54.5942526 Z" id="Shape" fill="#1C75BC"></path>
                        <g transform="translate(1.985075, 7.827133)" fill="#1C75BC">
                            <path d="M9.85074627,18.3937625 C4.82686567,18.3937625 0.788059701,14.480196 0.788059701,9.58823791 C0.788059701,4.6962798 4.82686567,0.782713299 9.85074627,0.782713299 C14.8746269,0.782713299 18.9134328,4.6962798 18.9134328,9.58823791 C18.8149254,14.3823569 14.7761194,18.3937625 9.85074627,18.3937625 L9.85074627,18.3937625 Z M9.85074627,1.66326576 C5.41791045,1.66326576 1.77313433,5.18547561 1.77313433,9.49039875 C1.77313433,13.7953219 5.41791045,17.3175317 9.85074627,17.3175317 C14.2835821,17.3175317 17.9283582,13.7953219 17.9283582,9.49039875 C17.8298507,5.18547561 14.2835821,1.66326576 9.85074627,1.66326576 L9.85074627,1.66326576 Z" id="Shape"></path>
                            <path d="M9.85074627,18.0024059 C7.78208955,18.0024059 6.79701493,13.6974827 6.79701493,9.49039875 C6.79701493,5.28331477 7.88059701,0.978391624 9.85074627,0.978391624 C11.8208955,0.978391624 12.9044776,5.28331477 12.9044776,9.49039875 C12.9044776,13.6974827 11.8208955,18.0024059 9.85074627,18.0024059 L9.85074627,18.0024059 Z M9.85074627,2.05462241 C8.9641791,2.05462241 7.78208955,4.98979728 7.78208955,9.58823791 C7.78208955,14.1866785 9.06268657,17.1218534 9.85074627,17.1218534 C10.638806,17.1218534 11.919403,14.1866785 11.919403,9.58823791 C11.919403,4.98979728 10.638806,2.05462241 9.85074627,2.05462241 L9.85074627,2.05462241 Z" id="Shape"></path>
                            <path d="M9.65373134,18.3937625 C6.10746269,18.3937625 3.15223881,14.3823569 3.15223881,9.49039875 C3.15223881,4.59844063 6.00895522,0.587034974 9.65373134,0.587034974 C13.2,0.587034974 16.1552239,4.59844063 16.1552239,9.49039875 C16.1552239,14.480196 13.2985075,18.3937625 9.65373134,18.3937625 L9.65373134,18.3937625 Z M9.65373134,1.66326576 C6.6,1.66326576 4.13731343,5.18547561 4.13731343,9.58823791 C4.13731343,13.9910002 6.6,17.5132101 9.65373134,17.5132101 C12.7074627,17.5132101 15.1701493,13.9910002 15.1701493,9.58823791 C15.1701493,5.18547561 12.7074627,1.66326576 9.65373134,1.66326576 L9.65373134,1.66326576 Z" id="Shape"></path>
                            <rect id="Rectangle-path" x="1.87164179" y="11.7406995" width="16.2537313" height="0.978391624"></rect>
                            <rect id="Rectangle-path" x="1.77313433" y="6.84874137" width="16.2537313" height="0.978391624"></rect>
                        </g>
                        <g opacity="0.54" transform="translate(13.805970, 23.481399)" id="Shape" fill="#1A6185">
                            <path d="M3.94029851,0.587034974 C3.94029851,0.587034974 5.22089552,3.62004901 7.28955224,4.50060147 C3.54626866,5.87034974 0.295522388,2.3481399 0.295522388,2.3481399 L3.94029851,0.587034974 L3.94029851,0.587034974 Z"></path>
                        </g>
                        <g transform="translate(38.343284, 13.783916)" fill="#1C75BC">
                            <path d="M11.2298507,22.6986857 C5.0238806,22.6986857 0,17.8067276 0,11.7406995 C0,5.67467142 5.0238806,0.782713299 11.2298507,0.782713299 C17.4358209,0.782713299 22.4597015,5.67467142 22.4597015,11.7406995 C22.4597015,17.8067276 17.3373134,22.6986857 11.2298507,22.6986857 L11.2298507,22.6986857 Z M11.2298507,1.85894409 C5.61492537,1.85894409 0.985074627,6.35954556 0.985074627,11.8385387 C0.985074627,17.3175317 5.61492537,21.8181332 11.2298507,21.8181332 C16.8447761,21.8181332 21.4746269,17.3175317 21.4746269,11.8385387 C21.3761194,6.35954556 16.8447761,1.85894409 11.2298507,1.85894409 L11.2298507,1.85894409 Z" id="Shape"></path>
                            <path d="M11.1313433,22.307329 C8.66865672,22.307329 7.3880597,16.8283359 7.3880597,11.7406995 C7.3880597,6.65306304 8.66865672,1.17406995 11.1313433,1.17406995 C13.5940299,1.17406995 14.8746269,6.65306304 14.8746269,11.7406995 C14.8746269,16.9261751 13.5940299,22.307329 11.1313433,22.307329 L11.1313433,22.307329 Z M11.1313433,2.25030074 C9.94925373,2.25030074 8.37313433,5.87034974 8.37313433,11.8385387 C8.37313433,17.8067276 9.94925373,21.4267766 11.1313433,21.4267766 C12.3134328,21.4267766 13.8895522,17.8067276 13.8895522,11.8385387 C13.8895522,5.87034974 12.3134328,2.25030074 11.1313433,2.25030074 L11.1313433,2.25030074 Z" id="Shape"></path>
                            <path d="M11.3283582,22.7965248 C6.89552239,22.7965248 3.34925373,17.8067276 3.34925373,11.7406995 C3.34925373,5.67467142 6.89552239,0.684874137 11.3283582,0.684874137 C15.761194,0.684874137 19.3074627,5.67467142 19.3074627,11.7406995 C19.3074627,17.9045667 15.761194,22.7965248 11.3283582,22.7965248 L11.3283582,22.7965248 Z M11.3283582,1.76110492 C7.48656716,1.76110492 4.33432836,6.26170639 4.33432836,11.8385387 C4.33432836,17.4153709 7.48656716,21.9159724 11.3283582,21.9159724 C15.1701493,21.9159724 18.3223881,17.4153709 18.3223881,11.8385387 C18.3223881,6.26170639 15.1701493,1.76110492 11.3283582,1.76110492 L11.3283582,1.76110492 Z" id="Shape"></path>
                            <rect id="Rectangle-path" x="0.689552239" y="14.6758744" width="20.3910448" height="0.978391624"></rect>
                            <rect id="Rectangle-path" x="0.886567164" y="8.60984629" width="20.3910448" height="0.978391624"></rect>
                        </g>
                        <g opacity="0.54" transform="translate(36.373134, 32.373357)" id="Shape" fill="#1A6185">
                            <path d="M5.0238806,0.195678325 C5.0238806,0.195678325 3.84179104,3.03301403 0.591044776,4.79411896 C6.00895522,4.89195812 8.1761194,2.54381822 8.1761194,2.54381822 L5.0238806,0.195678325 L5.0238806,0.195678325 Z"></path>
                        </g>
                        <path d="M15.5791045,38.54863 L11.638806,38.54863 C9.76716418,38.54863 8.28955224,37.0810425 8.28955224,35.2220985 C8.28955224,33.3631544 9.76716418,31.8955669 11.638806,31.8955669 L15.5791045,31.8955669 C17.4507463,31.8955669 18.9283582,33.3631544 18.9283582,35.2220985 C19.0268657,37.0810425 17.4507463,38.54863 15.5791045,38.54863 L15.5791045,38.54863 Z M11.638806,32.8739586 C10.358209,32.8739586 9.27462687,33.9501894 9.27462687,35.2220985 C9.27462687,36.4940076 10.358209,37.5702384 11.638806,37.5702384 L15.5791045,37.5702384 C16.8597015,37.5702384 17.9432836,36.4940076 17.9432836,35.2220985 C17.9432836,33.9501894 16.8597015,32.8739586 15.5791045,32.8739586 L11.638806,32.8739586 L11.638806,32.8739586 Z" id="Shape" fill="#1C75BC"></path>
                        <path d="M42.1761194,16.5348184 L38.038806,16.5348184 C36.0686567,16.5348184 34.4925373,14.9693918 34.4925373,13.0126086 C34.4925373,11.0558254 36.0686567,9.49039875 38.038806,9.49039875 L42.1761194,9.49039875 C44.1462687,9.49039875 45.7223881,11.0558254 45.7223881,13.0126086 C45.7223881,14.9693918 44.1462687,16.5348184 42.1761194,16.5348184 L42.1761194,16.5348184 Z M37.9402985,10.3709512 C36.561194,10.3709512 35.3791045,11.5450212 35.3791045,12.9147694 C35.3791045,14.2845177 36.561194,15.4585877 37.9402985,15.4585877 L42.0776119,15.4585877 C43.4567164,15.4585877 44.638806,14.2845177 44.638806,12.9147694 C44.638806,11.5450212 43.4567164,10.3709512 42.0776119,10.3709512 L37.9402985,10.3709512 L37.9402985,10.3709512 Z" id="Shape" fill="#1C75BC"></path>
                        <path d="M29.3701493,12.4255736 L22.7701493,12.4255736 C20.8,12.4255736 19.1253731,10.860147 19.1253731,8.80552462 L19.1253731,7.43577634 C19.1253731,5.47899309 20.7014925,3.81572733 22.7701493,3.81572733 L29.3701493,3.81572733 C31.3402985,3.81572733 33.0149254,5.38115393 33.0149254,7.43577634 L33.0149254,8.80552462 C33.0149254,10.7623079 31.438806,12.4255736 29.3701493,12.4255736 L29.3701493,12.4255736 Z M22.8686567,4.79411896 C21.3910448,4.79411896 20.2089552,5.96818891 20.2089552,7.43577634 L20.2089552,8.80552462 C20.2089552,10.2731121 21.3910448,11.447182 22.8686567,11.447182 L29.4686567,11.447182 C30.9462687,11.447182 32.1283582,10.2731121 32.1283582,8.80552462 L32.1283582,7.43577634 C32.1283582,5.96818891 30.9462687,4.79411896 29.4686567,4.79411896 L22.8686567,4.79411896 L22.8686567,4.79411896 Z" id="Shape" fill="#1C75BC"></path>
                        <path d="M50.8447761,42.755714 C49.958209,42.755714 49.1701493,42.4621965 48.5791045,41.8751615 C47.8895522,41.2881265 47.4955224,40.4075741 47.4955224,39.5270216 C47.4955224,38.6464691 47.7910448,37.7659167 48.3820896,37.0810425 C48.9731343,36.3961684 49.8597015,36.0048118 50.7462687,36.0048118 L54.6865672,35.8091334 C56.558209,35.7112943 58.1343284,37.1788817 58.2328358,39.0378258 C58.2328358,39.9183783 57.9373134,40.7989307 57.3462687,41.4838049 C56.7552239,42.168679 55.8686567,42.5600356 54.9820896,42.5600356 L51.041791,42.755714 C50.9432836,42.755714 50.8447761,42.755714 50.8447761,42.755714 L50.8447761,42.755714 Z M54.7850746,36.8853642 L54.6865672,36.8853642 L50.7462687,37.0810425 C50.0567164,37.0810425 49.4656716,37.37456 49.0716418,37.8637558 C48.6776119,38.3529517 48.3820896,38.9399866 48.480597,39.6248608 C48.480597,40.3097349 48.7761194,40.8967699 49.2686567,41.2881265 C49.761194,41.6794832 50.3522388,41.9730007 51.041791,41.8751615 L54.9820896,41.6794832 C55.6716418,41.6794832 56.2626866,41.3859657 56.6567164,40.8967699 C57.0507463,40.4075741 57.3462687,39.8205391 57.2477612,39.135665 C57.1492537,37.8637558 56.0656716,36.8853642 54.7850746,36.8853642 L54.7850746,36.8853642 Z" id="Shape" fill="#1C75BC"></path>
                        <g transform="translate(36.462687, 10.762308)" id="Shape" fill="#E4B465">
                            <polygon points="1.5761194 2.3481399 0.394029851 2.3481399 0.394029851 3.42437068 1.67462687 3.42437068 1.67462687 3.71788817 0 3.71788817 0 0.782713299 1.5761194 0.782713299 1.5761194 1.07623079 0.394029851 1.07623079 0.394029851 2.05462241 1.5761194 2.05462241"></polygon>
                            <path d="M2.16716418,3.81572733 L2.16716418,0.880552462 L2.56119403,0.880552462 L3.54626866,2.3481399 C3.74328358,2.73949655 3.94029851,3.03301403 4.03880597,3.32653152 L4.03880597,3.32653152 L4.03880597,2.15246157 L4.03880597,0.880552462 L4.43283582,0.880552462 L4.43283582,3.81572733 L4.03880597,3.81572733 L3.05373134,2.3481399 C2.85671642,2.05462241 2.65970149,1.66326576 2.46268657,1.36974827 L2.46268657,1.36974827 L2.46268657,2.64165738 L2.46268657,3.9135665 L2.16716418,3.9135665 L2.16716418,3.81572733 Z"></path>
                            <path d="M7.3880597,3.62004901 C7.19104478,3.71788817 6.89552239,3.81572733 6.50149254,3.81572733 C6.00895522,3.81572733 5.71343284,3.71788817 5.41791045,3.42437068 C5.12238806,3.1308532 5.0238806,2.73949655 5.0238806,2.3481399 C5.0238806,1.46758744 5.61492537,0.782713299 6.6,0.782713299 C6.99402985,0.782713299 7.19104478,0.880552462 7.3880597,0.880552462 L7.28955224,1.17406995 C7.09253731,1.07623079 6.89552239,1.07623079 6.6,1.07623079 C5.91044776,1.07623079 5.41791045,1.5654266 5.41791045,2.25030074 C5.41791045,3.03301403 5.91044776,3.42437068 6.6,3.42437068 C6.89552239,3.42437068 6.99402985,3.42437068 7.09253731,3.32653152 L7.09253731,2.44597906 L6.50149254,2.44597906 L6.50149254,2.15246157 L7.48656716,2.15246157 L7.48656716,3.62004901 L7.3880597,3.62004901 Z"></path>
                        </g>
                        <g transform="translate(21.686567, 4.891958)" id="Shape" fill="#E4B465">
                            <path d="M1.37910448,0.782713299 L1.37910448,3.42437068 C1.37910448,4.40276231 1.87164179,4.89195812 2.46268657,4.89195812 C3.15223881,4.89195812 3.54626866,4.40276231 3.54626866,3.42437068 L3.54626866,0.782713299 L4.13731343,0.782713299 L4.13731343,3.42437068 C4.13731343,4.79411896 3.44776119,5.38115393 2.3641791,5.38115393 C1.47761194,5.38115393 0.689552239,4.89195812 0.689552239,3.42437068 L0.689552239,0.782713299 L1.37910448,0.782713299 L1.37910448,0.782713299 Z"></path>
                            <path d="M5.71343284,3.9135665 L5.22089552,5.38115393 L4.62985075,5.38115393 L6.20597015,0.880552462 L6.89552239,0.880552462 L8.47164179,5.38115393 L7.88059701,5.38115393 L7.3880597,3.9135665 L5.71343284,3.9135665 L5.71343284,3.9135665 Z M7.19104478,3.52220985 L6.69850746,2.25030074 C6.6,1.95678325 6.50149254,1.66326576 6.50149254,1.46758744 L6.50149254,1.46758744 C6.40298507,1.76110492 6.40298507,2.05462241 6.30447761,2.25030074 L5.8119403,3.52220985 L7.19104478,3.52220985 L7.19104478,3.52220985 Z"></path>
                        </g>
                        <g transform="translate(9.865672, 33.265315)" id="Shape" fill="#E4B465">
                            <path d="M0.492537313,0.587034974 C0.689552239,0.587034974 0.985074627,0.489195812 1.18208955,0.489195812 C1.5761194,0.489195812 1.87164179,0.587034974 2.06865672,0.684874137 C2.26567164,0.782713299 2.26567164,0.978391624 2.26567164,1.27190911 C2.26567164,1.66326576 2.06865672,1.95678325 1.67462687,2.05462241 L1.67462687,2.05462241 C1.87164179,2.15246157 2.06865672,2.3481399 2.06865672,2.64165738 C2.16716418,3.03301403 2.26567164,3.32653152 2.26567164,3.42437068 L1.97014925,3.42437068 C1.97014925,3.32653152 1.87164179,3.1308532 1.77313433,2.73949655 C1.67462687,2.3481399 1.5761194,2.15246157 1.18208955,2.15246157 L0.788059701,2.15246157 L0.788059701,3.42437068 L0.394029851,3.42437068 L0.394029851,0.587034974 L0.492537313,0.587034974 Z M0.886567164,1.95678325 L1.28059701,1.95678325 C1.67462687,1.95678325 1.97014925,1.76110492 1.97014925,1.36974827 C1.97014925,0.978391624 1.67462687,0.782713299 1.28059701,0.782713299 L0.886567164,0.782713299 L0.886567164,1.95678325 L0.886567164,1.95678325 Z"></path>
                            <path d="M3.25074627,0.587034974 L3.25074627,2.3481399 C3.25074627,3.03301403 3.54626866,3.32653152 3.94029851,3.32653152 C4.33432836,3.32653152 4.62985075,3.03301403 4.62985075,2.3481399 L4.62985075,0.587034974 L5.0238806,0.587034974 L5.0238806,2.25030074 C5.0238806,3.1308532 4.53134328,3.52220985 3.94029851,3.52220985 C3.34925373,3.52220985 2.85671642,3.22869236 2.85671642,2.25030074 L2.85671642,0.489195812 L3.25074627,0.489195812 L3.25074627,0.587034974 Z"></path>
                            <path d="M5.61492537,3.03301403 C5.8119403,3.1308532 6.00895522,3.22869236 6.30447761,3.22869236 C6.69850746,3.22869236 6.89552239,3.03301403 6.89552239,2.73949655 C6.89552239,2.44597906 6.69850746,2.3481399 6.30447761,2.15246157 C5.8119403,1.95678325 5.51641791,1.76110492 5.51641791,1.36974827 C5.51641791,0.880552462 5.91044776,0.587034974 6.50149254,0.587034974 C6.79701493,0.587034974 6.99402985,0.684874137 7.19104478,0.684874137 L7.09253731,0.978391624 C6.99402985,0.880552462 6.79701493,0.880552462 6.50149254,0.880552462 C6.10746269,0.880552462 5.91044776,1.07623079 5.91044776,1.27190911 C5.91044776,1.5654266 6.10746269,1.66326576 6.50149254,1.85894409 C6.99402985,2.05462241 7.28955224,2.25030074 7.28955224,2.73949655 C7.28955224,3.22869236 6.99402985,3.62004901 6.30447761,3.62004901 C6.00895522,3.62004901 5.71343284,3.52220985 5.51641791,3.42437068 L5.61492537,3.03301403 L5.61492537,3.03301403 Z"></path>
                        </g>
                        <g transform="translate(49.268657, 37.178882)" id="Shape" fill="#E4B465">
                            <path d="M2.3641791,3.42437068 C2.16716418,3.52220985 1.87164179,3.62004901 1.47761194,3.62004901 C1.08358209,3.62004901 0.689552239,3.52220985 0.492537313,3.22869236 C0.295522388,3.03301403 0.0985074627,2.64165738 0.0985074627,2.25030074 C0.0985074627,1.46758744 0.689552239,0.880552462 1.5761194,0.880552462 C1.87164179,0.880552462 2.16716418,0.978391624 2.26567164,0.978391624 L2.16716418,1.27190911 C2.06865672,1.17406995 1.87164179,1.17406995 1.5761194,1.17406995 C0.886567164,1.17406995 0.492537313,1.5654266 0.492537313,2.25030074 C0.492537313,2.93517487 0.886567164,3.32653152 1.5761194,3.32653152 C1.77313433,3.32653152 1.97014925,3.32653152 2.06865672,3.22869236 L2.06865672,2.44597906 L1.47761194,2.44597906 L1.47761194,2.15246157 L2.3641791,2.15246157 L2.3641791,3.42437068 L2.3641791,3.42437068 Z"></path>
                            <polygon points="4.33432836 2.3481399 3.25074627 2.3481399 3.25074627 3.32653152 4.43283582 3.32653152 4.43283582 3.62004901 2.85671642 3.62004901 2.85671642 0.880552462 4.33432836 0.880552462 4.33432836 1.17406995 3.25074627 1.17406995 3.25074627 2.05462241 4.33432836 2.05462241 4.33432836 2.3481399"></polygon>
                            <path d="M4.92537313,0.880552462 C5.12238806,0.880552462 5.31940299,0.782713299 5.61492537,0.782713299 C6.00895522,0.782713299 6.20597015,0.880552462 6.40298507,0.978391624 C6.50149254,1.07623079 6.6,1.27190911 6.6,1.46758744 C6.6,1.85894409 6.40298507,2.05462241 6.10746269,2.15246157 L6.10746269,2.15246157 C6.30447761,2.25030074 6.40298507,2.44597906 6.50149254,2.73949655 C6.6,3.1308532 6.69850746,3.42437068 6.69850746,3.52220985 L6.30447761,3.52220985 C6.30447761,3.42437068 6.20597015,3.22869236 6.10746269,2.83733571 C6.00895522,2.44597906 5.91044776,2.3481399 5.51641791,2.3481399 L5.22089552,2.3481399 L5.22089552,3.52220985 L4.92537313,3.52220985 L4.92537313,0.880552462 L4.92537313,0.880552462 Z M5.22089552,2.15246157 L5.61492537,2.15246157 C6.00895522,2.15246157 6.20597015,1.95678325 6.20597015,1.66326576 C6.20597015,1.27190911 5.91044776,1.17406995 5.61492537,1.17406995 L5.22089552,1.17406995 L5.22089552,2.15246157 L5.22089552,2.15246157 Z"></path>
                        </g>
                        <ellipse id="Oval" fill="#E4B465" cx="15.3820896" cy="40.7010916" rx="1.28059701" ry="1.27190911"></ellipse>
                        <ellipse id="Oval" fill="#E4B465" cx="51.6328358" cy="44.7124972" rx="1.28059701" ry="1.27190911"></ellipse>
                        <ellipse id="Oval" fill="#E4B465" cx="25.6268657" cy="14.1866785" rx="1.28059701" ry="1.27190911"></ellipse>
                        <ellipse id="Oval" fill="#E4B465" cx="40.1074627" cy="18.2959234" rx="1.28059701" ry="1.27190911"></ellipse>
                        <ellipse id="Oval" fill="#E4B465" cx="17.5492537" cy="42.755714" rx="0.689552239" ry="0.684874137"></ellipse>
                        <ellipse id="Oval" fill="#E4B465" cx="50.1552239" cy="47.1584763" rx="0.689552239" ry="0.684874137"></ellipse>
                        <ellipse id="Oval" fill="#E4B465" cx="26.2179104" cy="17.2196926" rx="0.689552239" ry="0.684874137"></ellipse>
                        <ellipse id="Oval" fill="#E4B465" cx="37.9402985" cy="21.0354199" rx="0.689552239" ry="0.684874137"></ellipse>
                    </g>
                </g>
            </g>
        </g>
    </g>
</svg>