<?xml version="1.0" encoding="UTF-8"?>
<svg width="170px" height="110px" viewBox="0 0 170 110" version="1.1" xmlns="http://www.w3.org/2000/svg" xmlns:xlink="http://www.w3.org/1999/xlink">
    <!-- Generator: Sketch 39 (31667) - http://www.bohemiancoding.com/sketch -->
    <title>about-mission</title>
    <desc>Created with Sketch.</desc>
    <defs></defs>
    <g id="Symbols" stroke="none" stroke-width="1" fill="none" fill-rule="evenodd">
        <g id="about-mission">
            <g id="4" transform="translate(25.000000, 0.000000)">
                <g id="Layer_1">
                    <g id="Group" opacity="0.62" transform="translate(86.976744, 72.267442)" fill="#1C75BC">
                        <g id="Rectangle-path">
                            <rect x="0.319767442" y="0.191860465" width="12.3430233" height="0.639534884"></rect>
                        </g>
                    </g>
                    <g id="Group" opacity="0.62" transform="translate(86.976744, 69.709302)" fill="#1C75BC">
                        <g id="Rectangle-path">
                            <rect x="0.575581395" y="0.319767442" width="17.6511628" height="0.639534884"></rect>
                        </g>
                    </g>
                    <g id="Group" opacity="0.62" transform="translate(86.976744, 67.151163)" fill="#1C75BC">
                        <g id="Rectangle-path">
                            <rect x="0.575581395" y="0.38372093" width="6.52325581" height="0.639534884"></rect>
                        </g>
                    </g>
                    <g id="Group" opacity="0.62" transform="translate(96.569767, 67.151163)" fill="#1C75BC">
                        <g id="Rectangle-path">
                            <rect x="0.38372093" y="0.38372093" width="5.37209302" height="0.639534884"></rect>
                        </g>
                    </g>
                    <g id="Group" opacity="0.62" transform="translate(35.813953, 23.023256)" fill="#1C75BC">
                        <g id="Rectangle-path">
                            <rect x="0.447674419" y="0.127906977" width="22.7034884" height="0.639534884"></rect>
                        </g>
                    </g>
                    <g id="Group" opacity="0.62" transform="translate(44.127907, 19.825581)" fill="#1C75BC">
                        <g id="Rectangle-path">
                            <rect x="0.319767442" y="0.255813953" width="17.4593023" height="0.639534884"></rect>
                        </g>
                    </g>
                    <g id="Group" opacity="0.62" transform="translate(57.558140, 16.627907)" fill="#1C75BC">
                        <g id="Rectangle-path">
                            <rect x="0.191860465" y="0.511627907" width="5.37209302" height="0.639534884"></rect>
                        </g>
                    </g>
                    <g id="Group" opacity="0.62" transform="translate(49.883721, 26.220930)" fill="#1C75BC">
                        <g id="Rectangle-path">
                            <rect x="0.255813953" y="0" width="5.37209302" height="0.639534884"></rect>
                        </g>
                    </g>
                    <g id="Group" opacity="0.62" transform="translate(36.453488, 51.162791)" fill="#AFC3C9">
                        <ellipse id="Oval" cx="11.4476744" cy="11.4476744" rx="11" ry="11"></ellipse>
                    </g>
                    <g id="Group" transform="translate(111.918605, 47.325581)" fill="#FBAE37">
                        <ellipse id="Oval" cx="1.0872093" cy="2.49418605" rx="0.639534884" ry="0.639534884"></ellipse>
                        <ellipse id="Oval" cx="4.34883721" cy="1.6627907" rx="0.639534884" ry="0.639534884"></ellipse>
                        <ellipse id="Oval" cx="7.41860465" cy="0.895348837" rx="0.639534884" ry="0.639534884"></ellipse>
                    </g>
                    <g id="Group" transform="translate(67.790698, 18.546512)" fill="#FBAE37">
                        <ellipse id="Oval" cx="1.02325581" cy="6.39534884" rx="0.639534884" ry="0.639534884"></ellipse>
                        <ellipse id="Oval" cx="2.62209302" cy="3.45348837" rx="0.639534884" ry="0.639534884"></ellipse>
                        <ellipse id="Oval" cx="4.15697674" cy="0.703488372" rx="0.639534884" ry="0.639534884"></ellipse>
                    </g>
                    <ellipse id="Oval" fill="#78909C" cx="48.1569767" cy="62.9302326" rx="1.40697674" ry="1.40697674"></ellipse>
                    <path d="M47.9011628,79.8139535 C38.4360465,79.8139535 30.6976744,72.0755814 30.6976744,62.6104651 C30.6976744,53.1453488 38.4360465,45.4069767 47.9011628,45.4069767 C57.3662791,45.4069767 65.1046512,53.1453488 65.1046512,62.6104651 C65.1046512,72.0755814 57.4302326,79.8139535 47.9011628,79.8139535 L47.9011628,79.8139535 Z M47.9011628,46.6860465 C39.1395349,46.6860465 31.9767442,53.8488372 31.9767442,62.6104651 C31.9767442,71.372093 39.1395349,78.5348837 47.9011628,78.5348837 C56.6627907,78.5348837 63.8255814,71.372093 63.8255814,62.6104651 C63.8255814,53.7848837 56.7267442,46.6860465 47.9011628,46.6860465 L47.9011628,46.6860465 Z" id="Shape" fill="#78909C"></path>
                    <path d="M47.9011628,84.994186 C35.5581395,84.994186 25.5174419,74.9534884 25.5174419,62.6104651 C25.5174419,50.2674419 35.5581395,40.2267442 47.9011628,40.2267442 C60.244186,40.2267442 70.2848837,50.2674419 70.2848837,62.6104651 C70.3488372,74.9534884 60.3081395,84.994186 47.9011628,84.994186 L47.9011628,84.994186 Z M47.9011628,41.4418605 C36.2616279,41.4418605 26.7965116,50.9069767 26.7965116,62.5465116 C26.7965116,74.1860465 36.2616279,83.6511628 47.9011628,83.6511628 C59.5406977,83.6511628 69.005814,74.1860465 69.005814,62.5465116 C69.0697674,50.9709302 59.5406977,41.4418605 47.9011628,41.4418605 L47.9011628,41.4418605 Z" id="Shape" fill="#78909C"></path>
                    <path d="M47.9011628,90.6860465 C32.4244186,90.6860465 19.8255814,78.0872093 19.8255814,62.6104651 C19.8255814,47.1337209 32.4244186,34.5348837 47.9011628,34.5348837 C63.377907,34.5348837 75.9767442,47.1337209 75.9767442,62.6104651 C75.9767442,78.0872093 63.377907,90.6860465 47.9011628,90.6860465 L47.9011628,90.6860465 Z M47.9011628,35.8139535 C33.127907,35.8139535 21.1046512,47.8372093 21.1046512,62.6104651 C21.1046512,77.3837209 33.127907,89.4069767 47.9011628,89.4069767 C62.6744186,89.4069767 74.6976744,77.3837209 74.6976744,62.6104651 C74.6976744,47.8372093 62.6744186,35.8139535 47.9011628,35.8139535 L47.9011628,35.8139535 Z" id="Shape" fill="#78909C"></path>
                    <rect id="Rectangle-path" fill="#78909C" transform="translate(72.973476, 44.390810) rotate(52.921542) translate(-72.973476, -44.390810) " x="72.3339493" y="13.0220437" width="1.27905266" height="62.737533"></rect>
                    <rect id="Rectangle-path" fill="#78909C" transform="translate(100.422860, 44.202787) rotate(66.816455) translate(-100.422860, -44.202787) " x="100.103074" y="27.0303122" width="0.639570754" height="34.3449495"></rect>
                    <rect id="Rectangle-path" fill="#78909C" transform="translate(98.951136, 53.222266) rotate(76.621038) translate(-98.951136, -53.222266) " x="98.631356" y="41.1025927" width="0.639560583" height="24.2393461"></rect>
                    <rect id="Rectangle-path" fill="#78909C" transform="translate(102.977518, 61.642403) rotate(85.687128) translate(-102.977518, -61.642403) " x="102.65774" y="45.8453884" width="0.639555238" height="31.5940287"></rect>
                    <rect id="Rectangle-path" fill="#78909C" transform="translate(79.668610, 17.349808) rotate(34.854959) translate(-79.668610, -17.349808) " x="79.3488427" y="-1.54841622" width="0.6395338" height="37.7964476"></rect>
                    <rect id="Rectangle-path" fill="#78909C" transform="translate(66.783050, 19.261323) rotate(26.008998) translate(-66.783050, -19.261323) " x="66.4632912" y="8.03780036" width="0.639516957" height="22.4470452"></rect>
                    <rect id="Rectangle-path" fill="#78909C" transform="translate(88.339823, 12.419684) rotate(39.049947) translate(-88.339823, -12.419684) " x="88.0200546" y="-1.17048335" width="0.639537301" height="27.1803353"></rect>
                    <polygon id="Shape" fill="#FBAE37" points="83.6511628 33.8313953 83.2674419 26.2848837 95.994186 12.9186047 96.8255814 23.4069767"></polygon>
                    <polygon id="Shape" fill="#FBAE37" points="108.912791 30.377907 99.7674419 26.6686047 85.122093 37.6686047 93.8837209 39.6511628"></polygon>
                    <g id="Group" opacity="0.37" transform="translate(85.697674, 79.302326)" fill="#F3C674">
                        <path d="M13.1744186,0.0639534884 C12.5988372,-0.319767442 0.447674419,1.34302326 0.447674419,1.34302326 L10.6162791,7.41860465 L13.1744186,0.0639534884 L13.1744186,0.0639534884 Z" id="Shape"></path>
                    </g>
                    <g id="Group" opacity="0.37" transform="translate(85.697674, 85.697674)" fill="#F3C674">
                        <path d="M6.84302326,3.64534884 C6.71511628,3.3255814 0.38372093,0.38372093 0.38372093,0.38372093 L3.38953488,6.39534884 L6.84302326,3.64534884 L6.84302326,3.64534884 Z" id="Shape"></path>
                    </g>
                    <g id="Group" opacity="0.37" transform="translate(76.104651, 0.000000)" fill="#F3C674">
                        <path d="M1.79069767,0 C1.34302326,0.447674419 0.447674419,12.7267442 0.447674419,12.7267442 L8.44186047,3.96511628 L1.79069767,0 L1.79069767,0 Z" id="Shape"></path>
                    </g>
                    <rect id="Rectangle-path" fill="#78909C" x="0.127906977" y="63.122093" width="14.1976744" height="0.639534884"></rect>
                    <rect id="Rectangle-path" fill="#1C75BC" x="32.4883721" y="29.994186" width="0.639534884" height="2.94186047"></rect>
                    <rect id="Rectangle-path" fill="#AFC3C9" x="32.4883721" y="97.4011628" width="0.639534884" height="12.4709302"></rect>
                    <rect id="Rectangle-path" fill="#AFC3C9" x="29.2267442" y="95.5465116" width="0.639534884" height="9.40116279"></rect>
                    <rect id="Rectangle-path" fill="#AFC3C9" x="25.4534884" y="91.7732558" width="0.639534884" height="9.40116279"></rect>
                    <rect id="Rectangle-path" fill="#78909C" x="3.70930233" y="30.6976744" width="0.639534884" height="58.9011628"></rect>
                    <rect id="Rectangle-path" fill="#78909C" x="0.959302326" y="85.1860465" width="18.6104651" height="0.639534884"></rect>
                    <g id="Group" opacity="0.62" transform="translate(14.709302, 69.069767)" fill="#738E98">
                        <path d="M0.0639534884,0.0639534884 C0.0639534884,0.0639534884 1.85465116,30.8255814 33.7674419,31.5290698 C61.3953488,30.505814 66.255814,2.81395349 66.255814,2.81395349 C66.255814,2.81395349 55.9593023,29.5465116 31.2732558,27.627907 C13.4302326,23.9186047 6.65116279,18.0988372 0.0639534884,0.0639534884 L0.0639534884,0.0639534884 Z" id="Shape"></path>
                    </g>
                    <rect id="Rectangle-path" fill="#78909C" x="1.34302326" y="37.7965116" width="24.75" height="0.639534884"></rect>
                    <path d="M80.4534884,67.0872093 L80.4534884,67.5348837 C80.4534884,85.505814 65.872093,100.087209 47.9011628,100.087209 C29.9302326,100.087209 15.3488372,85.505814 15.3488372,67.5348837 L15.3488372,67.0232558 C14.9011628,66.9593023 14.5174419,66.8953488 14.0697674,66.7674419 L14.0697674,67.5348837 C14.0697674,86.2093023 29.2267442,101.366279 47.9011628,101.366279 C66.5755814,101.366279 81.7325581,86.2093023 81.7325581,67.5348837 L81.7325581,66.8313953 C81.2848837,66.8313953 80.9011628,66.9593023 80.4534884,67.0872093 L80.4534884,67.0872093 Z" id="Shape" fill="#78909C"></path>
                    <path d="M47.9011628,97.0813953 C29.2267442,97.0813953 14.0697674,81.9244186 14.0697674,63.25 C14.0697674,44.5755814 29.2267442,29.4186047 47.9011628,29.4186047 C66.5755814,29.4186047 81.7325581,44.5755814 81.7325581,63.25 C81.7325581,81.9244186 66.5755814,97.0813953 47.9011628,97.0813953 L47.9011628,97.0813953 Z M47.9011628,30.7616279 C29.9302326,30.7616279 15.3488372,45.3430233 15.3488372,63.3139535 C15.3488372,81.2848837 29.9302326,95.8662791 47.9011628,95.8662791 C65.872093,95.8662791 80.4534884,81.2848837 80.4534884,63.3139535 C80.4534884,45.3430233 65.872093,30.7616279 47.9011628,30.7616279 L47.9011628,30.7616279 Z" id="Shape" fill="#78909C"></path>
                </g>
            </g>
        </g>
    </g>
</svg>