<?xml version="1.0" encoding="UTF-8"?>
<svg width="110px" height="100px" viewBox="0 0 110 100" version="1.1" xmlns="http://www.w3.org/2000/svg" xmlns:xlink="http://www.w3.org/1999/xlink">
    <!-- Generator: Sketch 39 (31667) - http://www.bohemiancoding.com/sketch -->
    <title>agriculture</title>
    <desc>Created with Sketch.</desc>
    <defs></defs>
    <g id="Symbols" stroke="none" stroke-width="1" fill="none" fill-rule="evenodd">
        <g id="agriculture">
            <g id="6" transform="translate(0.000000, 7.000000)">
                <g id="Layer_1">
                    <g id="Group">
                        <g opacity="0.62" transform="translate(0.000000, 48.558559)" id="Shape" fill="#E4B465">
                            <g transform="translate(0.000000, 21.801802)">
                                <path d="M0.0990990991,10.2072072 C0.297297297,10.1081081 0.396396396,10.009009 0.396396396,10.009009 C5.25225225,6.83783784 10.009009,3.66666667 14.8648649,0.495495495 C15.2612613,0.297297297 15.2612613,0.297297297 15.4594595,0.594594595 C15.6576577,0.891891892 15.7567568,1.18918919 15.954955,1.48648649 C16.0540541,1.68468468 16.2522523,1.78378378 16.4504505,1.78378378 C17.4414414,1.68468468 18.4324324,1.58558559 19.4234234,1.48648649 C20.4144144,1.38738739 21.5045045,1.28828829 22.4954955,1.18918919 C22.6936937,1.18918919 22.8918919,1.18918919 23.0900901,1.09009009 C23.2882883,1.09009009 23.3873874,1.18918919 23.2882883,1.38738739 C23.0900901,2.47747748 23.0900901,3.46846847 23.2882883,4.55855856 C23.2882883,4.75675676 23.3873874,4.85585586 23.3873874,5.05405405 C23.4864865,5.35135135 23.3873874,5.45045045 23.1891892,5.54954955 C21.9009009,6.04504505 20.7117117,6.54054054 19.4234234,7.03603604 C18.4324324,7.33333333 17.6396396,7.92792793 17.1441441,8.81981982 C16.8468468,9.31531532 16.5495495,9.71171171 16.1531532,10.1081081 C16.0540541,10.2072072 15.8558559,10.3063063 15.6576577,10.3063063 L0.297297297,10.3063063 C0.297297297,10.2072072 0.297297297,10.2072072 0.0990990991,10.2072072 L0.0990990991,10.2072072 Z"></path>
                            </g>
                            <g transform="translate(22.792793, 16.846847)">
                                <path d="M10.9009009,1.09009009 C13.7747748,2.27927928 15.6576577,5.15315315 15.4594595,8.32432432 C15.2612613,11.4954955 12.8828829,14.5675676 9.21621622,15.0630631 C5.35135135,15.6576577 1.58558559,12.8828829 0.990990991,9.01801802 C0.396396396,5.15315315 2.77477477,1.58558559 6.54054054,0.693693694 C7.03603604,0.693693694 9.21621622,0.396396396 10.9009009,1.09009009 L10.9009009,1.09009009 Z M4.75675676,6.04504505 C4.36036036,6.83783784 4.16216216,7.72972973 4.36036036,8.62162162 C4.75675676,10.6036036 6.54054054,12.0900901 8.72072072,11.7927928 C11,11.4954955 12.3873874,9.31531532 12.0900901,7.33333333 C11.7927928,5.15315315 9.90990991,3.56756757 7.43243243,3.96396396 C7.03603604,4.06306306 6.34234234,4.16216216 5.64864865,4.75675676 C5.64864865,4.85585586 4.95495495,5.54954955 4.75675676,6.04504505 L4.75675676,6.04504505 Z"></path>
                            </g>
                            <g transform="translate(54.504505, 19.819820)">
                                <path d="M2.57657658,10.8018018 C1.58558559,9.81081081 0.891891892,8.72072072 0.693693694,7.33333333 C0.297297297,4.65765766 1.78378378,2.08108108 4.26126126,1.09009009 C7.72972973,-0.297297297 11.5945946,1.98198198 12.0900901,5.54954955 C12.5855856,8.72072072 10.5045045,11.5945946 7.33333333,12.1891892 C6.34234234,12.3873874 5.35135135,12.2882883 4.36036036,11.8918919 C3.86486486,11.6936937 3.46846847,11.4954955 2.97297297,11.1981982 C3.07207207,11.1981982 2.77477477,10.9009009 2.57657658,10.8018018 L2.57657658,10.8018018 Z M9.51351351,6.44144144 C9.51351351,4.65765766 8.12612613,3.36936937 6.34234234,3.36936937 C4.65765766,3.36936937 3.27027027,4.75675676 3.36936937,6.44144144 C3.36936937,8.12612613 4.75675676,9.51351351 6.54054054,9.51351351 C8.22522523,9.51351351 9.51351351,8.12612613 9.51351351,6.44144144 L9.51351351,6.44144144 Z"></path>
                            </g>
                            <g transform="translate(12.882883, 0.000000)">
                                <path d="M73.8288288,7.33333333 C73.036036,6.04504505 72.1441441,4.85585586 71.3513514,3.56756757 C71.0540541,3.17117117 70.6576577,3.07207207 70.2612613,3.27027027 C70.0630631,3.36936937 69.8648649,3.46846847 69.5675676,3.46846847 L29.036036,3.46846847 C27.7477477,3.46846847 26.5585586,4.36036036 26.1621622,5.64864865 C26.0630631,5.94594595 25.963964,6.34234234 25.8648649,6.63963964 C25.7657658,6.93693694 25.7657658,7.23423423 25.5675676,7.43243243 C25.3693694,7.63063063 25.0720721,7.53153153 24.7747748,7.53153153 C24.4774775,7.63063063 24.4774775,7.53153153 24.4774775,7.23423423 C24.7747748,5.84684685 25.0720721,4.36036036 25.3693694,2.97297297 C25.4684685,2.67567568 25.5675676,2.57657658 25.8648649,2.57657658 L36.5675676,2.57657658 C37.4594595,2.57657658 37.3603604,2.67567568 37.6576577,1.78378378 C37.7567568,1.48648649 37.8558559,1.18918919 38.0540541,0.792792793 L37.6576577,0.792792793 L16.9459459,0.792792793 C16.6486486,0.792792793 16.5495495,0.891891892 16.4504505,1.18918919 C16.1531532,2.77477477 15.8558559,4.26126126 15.5585586,5.84684685 C15.0630631,8.52252252 14.5675676,11.2972973 14.0720721,13.972973 C13.972973,14.4684685 13.972973,14.4684685 13.3783784,14.4684685 C13.1801802,14.4684685 13.0810811,14.3693694 13.0810811,14.1711712 C13.2792793,13.0810811 13.4774775,12.0900901 13.6756757,11 C14.0720721,8.81981982 14.4684685,6.54054054 14.8648649,4.36036036 C14.963964,4.06306306 15.0630631,3.76576577 15.1621622,3.36936937 L15.1621622,2.67567568 C15.1621622,1.98198198 14.963964,1.88288288 14.3693694,1.88288288 L2.18018018,1.88288288 L1.68468468,1.88288288 C1.09009009,1.98198198 0.792792793,2.37837838 0.891891892,2.97297297 C0.891891892,3.56756757 1.18918919,3.76576577 1.78378378,3.76576577 L1.98198198,3.76576577 C2.27927928,3.76576577 2.37837838,4.45945946 2.37837838,4.55855856 C2.67567568,6.73873874 3.56756757,11.0990991 4.16216216,14.3693694 C4.26126126,14.7657658 4.16216216,14.963964 4.06306306,15.2612613 C3.86486486,15.5585586 3.86486486,16.4504505 4.16216216,16.6486486 C4.16216216,16.6486486 5.35135135,16.7477477 5.74774775,16.7477477 L16.3513514,16.7477477 L16.9459459,16.7477477 C18.1351351,16.7477477 19.3243243,16.7477477 20.5135135,17.1441441 C20.6126126,17.1441441 21.1081081,17.3423423 21.5045045,17.4414414 C24.0810811,18.4324324 25.6666667,20.3153153 26.2612613,22.990991 C26.5585586,24.3783784 26.6576577,25.6666667 26.5585586,27.0540541 C26.5585586,27.5495495 26.5585586,27.5495495 27.0540541,27.5495495 L37.2612613,27.5495495 L41.3243243,27.5495495 C41.6216216,27.5495495 41.7207207,27.4504505 41.7207207,27.2522523 C41.7207207,26.7567568 41.7207207,26.1621622 41.8198198,25.6666667 C41.9189189,24.4774775 42.3153153,23.3873874 42.9099099,22.4954955 C43.9009009,21.1081081 45.3873874,20.3153153 46.972973,19.8198198 C49.3513514,19.2252252 51.6306306,19.3243243 54.009009,19.6216216 C54.3063063,19.6216216 54.4054054,19.6216216 54.5045045,19.3243243 C55,18.2342342 55.2972973,17.1441441 55.3963964,15.954955 C55.5945946,14.0720721 55.3963964,12.3873874 54.5045045,10.7027027 C54.3063063,10.4054054 54.2072072,10.3063063 53.8108108,10.3063063 L50.8378378,10.3063063 C50.8378378,10.2072072 50.8378378,10.2072072 50.9369369,10.1081081 C51.036036,9.71171171 50.9369369,9.01801802 50.3423423,8.91891892 C50.045045,8.81981982 49.2522523,8.62162162 48.5585586,8.42342342 C48.5585586,8.02702703 48.1621622,7.43243243 47.8648649,7.13513514 C47.6666667,6.93693694 47.1711712,6.73873874 46.7747748,6.63963964 L43.3063063,6.63963964 C40.4324324,6.73873874 28.9369369,7.53153153 28.5405405,7.53153153 C28.4414414,6.34234234 30.027027,6.04504505 30.7207207,6.04504505 L48.0630631,6.04504505 L51.8288288,6.04504505 L52.8198198,6.04504505 L55.0990991,6.04504505 L67.4864865,6.04504505 C67.7837838,6.04504505 67.981982,6.14414414 68.1801802,6.34234234 C69.2702703,7.63063063 70.3603604,9.01801802 71.4504505,10.3063063 C71.6486486,10.5045045 71.7477477,10.5045045 72.045045,10.4054054 C72.5405405,10.2072072 73.036036,10.009009 73.5315315,9.81081081 C73.8288288,9.71171171 73.9279279,9.51351351 73.9279279,9.21621622 C73.9279279,8.72072072 74.027027,8.32432432 74.027027,7.82882883 C73.9279279,7.72972973 73.9279279,7.53153153 73.8288288,7.33333333 L73.8288288,7.33333333 Z M12.4864865,11.7927928 C12.3873874,12.1891892 12.1891892,12.4864865 11.7927928,12.7837838 C10.2072072,13.6756757 8.52252252,14.2702703 6.73873874,14.5675676 C6.24324324,14.6666667 5.94594595,14.6666667 5.54954955,14.6666667 C5.05405405,14.6666667 4.75675676,14.4684685 4.65765766,13.972973 C4.36036036,12.5855856 3.27027027,6.34234234 2.97297297,4.55855856 L2.97297297,4.36036036 C2.97297297,3.96396396 3.07207207,3.76576577 3.56756757,3.76576577 L8.32432432,3.76576577 L13.2792793,3.76576577 C13.7747748,3.76576577 13.972973,3.96396396 13.8738739,4.45945946 C13.5765766,6.44144144 13.1801802,8.42342342 12.7837838,10.4054054 C12.5855856,10.8018018 12.4864865,11.2972973 12.4864865,11.7927928 L12.4864865,11.7927928 Z"></path>
                            </g>
                            <g transform="translate(29.729730, 22.792793)">
                                <path d="M0.198198198,1.98198198 C0.198198198,2.57657658 0.693693694,3.07207207 1.28828829,3.07207207 C1.88288288,3.07207207 2.37837838,2.57657658 2.37837838,1.98198198 C2.37837838,1.38738739 1.88288288,0.891891892 1.28828829,0.891891892 C0.693693694,0.792792793 0.198198198,1.28828829 0.198198198,1.98198198 L0.198198198,1.98198198 Z"></path>
                            </g>
                            <g transform="translate(57.477477, 22.792793)">
                                <path d="M6.54054054,3.46846847 C6.54054054,5.15315315 5.15315315,6.54054054 3.56756757,6.54054054 C1.78378378,6.54054054 0.396396396,5.25225225 0.396396396,3.46846847 C0.396396396,1.78378378 1.78378378,0.396396396 3.36936937,0.396396396 C5.15315315,0.396396396 6.54054054,1.68468468 6.54054054,3.46846847 L6.54054054,3.46846847 Z M4.65765766,3.46846847 C4.65765766,2.87387387 4.16216216,2.37837838 3.46846847,2.37837838 C2.87387387,2.37837838 2.37837838,2.87387387 2.37837838,3.56756757 C2.37837838,4.16216216 2.87387387,4.65765766 3.56756757,4.65765766 C4.16216216,4.55855856 4.65765766,4.06306306 4.65765766,3.46846847 L4.65765766,3.46846847 Z"></path>
                            </g>
                            <g transform="translate(29.729730, 22.792793)">
                                <path d="M0.198198198,1.98198198 C0.198198198,1.38738739 0.693693694,0.891891892 1.28828829,0.891891892 C1.88288288,0.891891892 2.37837838,1.38738739 2.37837838,1.98198198 C2.37837838,2.57657658 1.88288288,3.07207207 1.28828829,3.07207207 C0.693693694,3.07207207 0.198198198,2.57657658 0.198198198,1.98198198 L0.198198198,1.98198198 Z"></path>
                            </g>
                            <g transform="translate(59.459459, 24.774775)">
                                <path d="M2.67567568,1.48648649 C2.67567568,2.08108108 2.18018018,2.57657658 1.58558559,2.67567568 C0.990990991,2.67567568 0.495495495,2.18018018 0.396396396,1.58558559 C0.396396396,0.990990991 0.891891892,0.495495495 1.48648649,0.396396396 C2.08108108,0.297297297 2.57657658,0.891891892 2.67567568,1.48648649 L2.67567568,1.48648649 Z"></path>
                            </g>
                        </g>
                        <path d="M64.7117117,78.7837838 L62.7297297,78.4864865 C62.7297297,78.3873874 64.6126126,65.8018018 58.8648649,53.5135135 C54.8018018,44.7927928 55.990991,34.8828829 55.990991,34.3873874 L57.972973,34.5855856 C57.972973,34.6846847 56.8828829,44.3963964 60.6486486,52.6216216 C66.6936937,65.5045045 64.8108108,78.1891892 64.7117117,78.7837838 L64.7117117,78.7837838 Z" id="Shape" fill="#1C75BC"></path>
                        <path d="M62.2342342,78.6846847 C61.5405405,63.027027 51.1351351,60.2522523 50.6396396,60.1531532 L51.1351351,58.2702703 C51.2342342,58.2702703 63.4234234,61.4414414 64.2162162,78.5855856 L62.2342342,78.6846847 L62.2342342,78.6846847 Z" id="Shape" fill="#1C75BC"></path>
                        <path d="M65.7027027,78.981982 L63.7207207,78.7837838 C64.7117117,66.8918919 71.8468468,61.4414414 72.1441441,61.1441441 L73.3333333,62.7297297 C73.3333333,62.8288288 66.6936937,67.981982 65.7027027,78.981982 L65.7027027,78.981982 Z" id="Shape" fill="#1C75BC"></path>
                        <path d="M44.3963964,29.9279279 L38.3513514,26.4594595 L38.8468468,19.2252252 L42.4144144,19.3243243 L42.6126126,19.3243243 L42.6126126,19.027027 L43.009009,11.1981982 L42.1171171,11.1981982 L41.7207207,18.5315315 L39.9369369,18.5315315 L40.2342342,11.1981982 L39.3423423,11.1981982 L39.045045,18.5315315 L37.5585586,18.5315315 L37.7567568,11.0990991 L36.8648649,11.0990991 L36.6666667,18.5315315 L34.981982,18.5315315 L35.0810811,11.1981982 L34.1891892,11.1981982 L33.990991,19.1261261 L33.990991,19.4234234 L34.0900901,19.4234234 L37.8558559,19.5225225 L37.4594595,26.2612613 L31.3153153,22.6936937 L33.1981982,19.6216216 C33.1981982,19.6216216 24.8738739,12.7837838 22,17.6396396 C19.1261261,22.4954955 28.9369369,26.7567568 28.9369369,26.7567568 L30.8198198,23.5855856 L37.3603604,27.3513514 L36.8648649,34.4864865 L37.7567568,34.5855856 L38.1531532,27.9459459 L43.8018018,31.2162162 L44.3963964,29.9279279 L44.3963964,29.9279279 Z" id="Shape" fill="#738E98"></path>
                        <path d="M84.5315315,67.5855856 C84.5315315,67.5855856 86.6126126,60.7477477 96.7207207,64.8108108 C90.4774775,72.7387387 84.5315315,67.5855856 84.5315315,67.5855856 L84.5315315,67.5855856 Z" id="Shape" fill="#E4B465"></path>
                        <path d="M75.6126126,22.6936937 C75.6126126,22.6936937 71.3513514,16.9459459 80.5675676,11.2972973 C83.2432432,21.009009 75.6126126,22.6936937 75.6126126,22.6936937 L75.6126126,22.6936937 Z" id="Shape" fill="#E4B465"></path>
                        <path d="M21.8018018,38.6486486 C21.8018018,38.6486486 15.5585586,42.2162162 11.0990991,32.3063063 C21.009009,30.9189189 21.8018018,38.6486486 21.8018018,38.6486486 L21.8018018,38.6486486 Z" id="Shape" fill="#E4B465"></path>
                        <g opacity="0.62" transform="translate(56.486486, 1.981982)" id="Shape" fill="#738E98">
                            <path d="M8.52252252,0.594594595 C8.52252252,0.594594595 2.47747748,5.05405405 2.97297297,16.6486486 C3.56756757,30.1261261 0.495495495,32.5045045 0.495495495,32.5045045 C0.495495495,32.5045045 10.3063063,30.027027 10.8018018,21.1081081 C11,17.4414414 10.1081081,13.4774775 9.51351351,10.009009 C8.81981982,4.95495495 8.32432432,0.891891892 8.52252252,0.594594595 L8.52252252,0.594594595 Z"></path>
                        </g>
                        <g opacity="0.62" transform="translate(72.342342, 28.738739)" id="Shape" fill="#738E98">
                            <path d="M10.9009009,0.297297297 C10.9009009,0.297297297 14.1711712,12.5855856 7.53153153,18.4324324 C0.495495495,24.6756757 0.693693694,32.3063063 0.693693694,32.3063063 C0.693693694,32.3063063 12.5855856,30.6216216 15.1621622,22.0990991 C18.8288288,9.41441441 11.7927928,1.78378378 10.9009009,0.297297297 L10.9009009,0.297297297 Z"></path>
                        </g>
                        <g opacity="0.62" transform="translate(27.747748, 35.675676)" id="Shape" fill="#738E98">
                            <path d="M0.693693694,0 C0.693693694,0 2.77477477,11.5945946 11.1981982,14.0720721 C20.2162162,16.7477477 23.2882883,23.7837838 23.2882883,23.7837838 C23.2882883,23.7837838 11.2972973,27.7477477 5.45045045,21.009009 C-2.08108108,12.0900901 0.495495495,1.78378378 0.693693694,0 L0.693693694,0 Z"></path>
                        </g>
                        <path d="M56.8828829,35.972973 L56.4864865,35.5765766 C48.2612613,27.7477477 48.3603604,15.3603604 52.027027,10.6036036 C56.7837838,4.45945946 65.6036036,0.990990991 66,0.891891892 L68.1801802,0.0990990991 L67.2882883,2.18018018 C65.6036036,6.24324324 66.4954955,11.1981982 67.3873874,15.6576577 C67.981982,18.7297297 68.4774775,21.5045045 68.1801802,23.8828829 C67.2882883,29.6306306 63.7207207,33.6936937 57.5765766,35.8738739 L56.8828829,35.972973 L56.8828829,35.972973 Z M64.7117117,3.66666667 C61.9369369,5.05405405 56.6846847,7.82882883 53.5135135,11.8918919 C50.3423423,16.0540541 50.5405405,26.8558559 57.2792793,33.6936937 C62.3333333,31.7117117 65.2072072,28.3423423 66,23.4864865 C66.2972973,21.5045045 65.8018018,18.8288288 65.3063063,15.954955 C64.6126126,12.0900901 63.8198198,7.72972973 64.7117117,3.66666667 L64.7117117,3.66666667 Z" id="Shape" fill="#1C75BC"></path>
                        <path d="M45.4864865,61.5405405 C42.7117117,61.5405405 40.036036,61.045045 37.4594595,59.954955 C33.4954955,58.3693694 30.3243243,55.5945946 29.036036,52.6216216 C26.0630631,45.3873874 27.4504505,36.0720721 27.4504505,35.6756757 L27.8468468,33.3963964 L29.2342342,35.1801802 C31.8108108,38.5495495 36.6666667,39.7387387 40.8288288,40.8288288 C43.9009009,41.6216216 46.8738739,42.3153153 48.7567568,43.9009009 C52.6216216,46.972973 53.8108108,52.2252252 52.4234234,59.8558559 L52.3243243,60.4504505 L51.7297297,60.6486486 C49.7477477,61.1441441 47.5675676,61.5405405 45.4864865,61.5405405 L45.4864865,61.5405405 Z M29.2342342,38.0540541 C29.036036,41.1261261 28.9369369,47.0720721 30.9189189,51.8288288 C32.9009009,56.5855856 41.2252252,61.3423423 50.6396396,58.8648649 C51.7297297,52.3243243 50.7387387,47.8648649 47.5675676,45.3873874 C45.981982,44.0990991 43.2072072,43.4054054 40.3333333,42.7117117 C36.5675676,41.7207207 32.3063063,40.7297297 29.2342342,38.0540541 L29.2342342,38.0540541 Z" id="Shape" fill="#1C75BC"></path>
                        <path d="M72.3423423,63.027027 L71.9459459,62.5315315 C66.7927928,55.8918919 65.3063063,50.2432432 67.4864865,45.3873874 C68.5765766,43.009009 71.0540541,40.8288288 73.6306306,38.4504505 C77.1981982,35.2792793 81.1621622,31.8108108 81.954955,27.1531532 L82.2522523,25.2702703 L83.5405405,26.5585586 C83.8378378,26.8558559 90.8738739,33.8918919 89.5855856,46.3783784 C88.6936937,54.8018018 82.4504505,60.9459459 72.8378378,62.7297297 L72.3423423,63.027027 L72.3423423,63.027027 Z M83.4414414,29.5315315 C81.954955,33.7927928 78.2882883,37.0630631 74.9189189,40.036036 C72.4414414,42.2162162 70.1621622,44.1981982 69.2702703,46.2792793 C67.4864865,50.2432432 68.7747748,55.0990991 73.1351351,60.9459459 C85.1261261,58.3693694 87.3063063,49.9459459 87.7027027,46.3783784 C88.5945946,37.8558559 85.2252252,32.009009 83.4414414,29.5315315 L83.4414414,29.5315315 Z" id="Shape" fill="#1C75BC"></path>
                        <g opacity="0.62" transform="translate(7.927928, 85.225225)" id="Rectangle-path" fill="#1C75BC">
                            <g>
                                <rect x="0.792792793" y="0.297297297" width="34.2882883" height="0.990990991"></rect>
                            </g>
                        </g>
                        <g opacity="0.62" transform="translate(7.927928, 87.207207)" id="Rectangle-path" fill="#1C75BC">
                            <g>
                                <rect x="0.792792793" y="0.594594595" width="33" height="0.990990991"></rect>
                            </g>
                        </g>
                        <g opacity="0.62" transform="translate(7.927928, 90.180180)" id="Rectangle-path" fill="#1C75BC">
                            <g>
                                <rect x="0.792792793" y="0.0990990991" width="31.8108108" height="0.990990991"></rect>
                            </g>
                        </g>
                        <path d="M41.3243243,90.8738739 L39.3423423,90.8738739 C39.3423423,89.4864865 40.9279279,87.4054054 42.5135135,85.9189189 C45.0900901,83.4414414 52.3243243,77.6936937 64.8108108,77.8918919 C81.0630631,78.1891892 88.5945946,88.4954955 88.8918919,88.8918919 L87.3063063,90.0810811 C87.2072072,89.981982 79.972973,80.1711712 64.8108108,79.8738739 C48.8558559,79.5765766 41.3243243,89.2882883 41.3243243,90.8738739 L41.3243243,90.8738739 Z" id="Shape" fill="#1C75BC"></path>
                        <g opacity="0.62" transform="translate(96.126126, 39.639640)" id="Shape" fill="#738E98">
                            <polygon points="2.67567568 0.792792793 0.198198198 11.2972973 7.03603604 14.4684685 13.2792793 5.74774775"></polygon>
                        </g>
                        <path d="M108.315315,44.5945946 L107.423423,44.0990991 C107.423423,44.0990991 109.306306,40.9279279 108.513514,38.6486486 C108.216216,37.7567568 107.621622,37.1621622 106.630631,36.7657658 C105.738739,36.3693694 104.846847,36.3693694 104.054054,36.7657658 C101.873874,37.8558559 100.882883,41.5225225 100.882883,41.6216216 L99.8918919,41.3243243 C99.8918919,41.1261261 100.981982,37.1621622 103.657658,35.8738739 C104.747748,35.3783784 105.837838,35.3783784 107.027027,35.8738739 C108.216216,36.3693694 109.108108,37.2612613 109.405405,38.4504505 C110.396396,41.1261261 108.414414,44.4954955 108.315315,44.5945946 L108.315315,44.5945946 Z" id="Shape" fill="#1C75BC"></path>
                        <path d="M87.3063063,80.2702703 C86.018018,80.2702703 85.027027,79.2792793 85.027027,77.990991 C85.027027,76.7027027 86.018018,75.7117117 87.3063063,75.7117117 C88.5945946,75.7117117 89.5855856,76.7027027 89.5855856,77.990991 C89.6846847,79.1801802 88.5945946,80.2702703 87.3063063,80.2702703 L87.3063063,80.2702703 Z M87.3063063,76.6036036 C86.6126126,76.6036036 86.018018,77.1981982 86.018018,77.8918919 C86.018018,78.5855856 86.6126126,79.1801802 87.3063063,79.1801802 C88,79.1801802 88.5945946,78.5855856 88.5945946,77.8918919 C88.6936937,77.1981982 88.0990991,76.6036036 87.3063063,76.6036036 L87.3063063,76.6036036 Z" id="Shape" fill="#1C75BC"></path>
                        <path d="M13.7747748,25.5675676 C12.4864865,25.5675676 11.4954955,24.5765766 11.4954955,23.2882883 C11.4954955,22 12.4864865,21.009009 13.7747748,21.009009 C15.0630631,21.009009 16.0540541,22 16.0540541,23.2882883 C16.0540541,24.5765766 15.0630631,25.5675676 13.7747748,25.5675676 L13.7747748,25.5675676 Z M13.7747748,22 C13.0810811,22 12.4864865,22.5945946 12.4864865,23.2882883 C12.4864865,23.981982 13.0810811,24.5765766 13.7747748,24.5765766 C14.4684685,24.5765766 15.0630631,23.981982 15.0630631,23.2882883 C15.0630631,22.5945946 14.4684685,22 13.7747748,22 L13.7747748,22 Z" id="Shape" fill="#1C75BC"></path>
                        <g opacity="0.54" transform="translate(2.972973, 37.657658)" id="Shape" fill="#E4B465">
                            <path d="M0.495495495,5.05405405 C0.792792793,4.65765766 3.27027027,0.792792793 3.27027027,0.792792793 L5.15315315,5.35135135 L0.495495495,5.05405405 L0.495495495,5.05405405 Z"></path>
                        </g>
                        <g opacity="0.54" transform="translate(98.108108, 74.324324)" id="Shape" fill="#E4B465">
                            <path d="M2.18018018,0.891891892 C2.47747748,1.28828829 5.35135135,4.95495495 5.35135135,4.95495495 L0.396396396,5.25225225 L2.18018018,0.891891892 L2.18018018,0.891891892 Z"></path>
                        </g>
                    </g>
                </g>
            </g>
        </g>
    </g>
</svg>