<?xml version="1.0" encoding="UTF-8"?>
<svg width="100px" height="100px" viewBox="0 0 100 100" version="1.1" xmlns="http://www.w3.org/2000/svg" xmlns:xlink="http://www.w3.org/1999/xlink">
    <!-- Generator: Sketch 39 (31667) - http://www.bohemiancoding.com/sketch -->
    <title>cost-advances</title>
    <desc>Created with Sketch.</desc>
    <defs></defs>
    <g id="Symbols" stroke="none" stroke-width="1" fill="none" fill-rule="evenodd">
        <g id="cost-advances">
            <g id="8" transform="translate(0.000000, 17.000000)">
                <g id="Layer_1">
                    <g id="Group" transform="translate(14.655172, 9.482759)" fill="#78909C">
                        <path d="M61.1206897,34.7413793 C60.2586207,49.4827586 48.0172414,61.0344828 33.2758621,61.0344828 C19.0517241,61.0344828 6.98275862,50.0862069 5.51724138,36.0344828 L8.36206897,36.0344828 L4.39655172,31.5517241 L0.431034483,36.0344828 L3.44827586,36.0344828 C4.9137931,51.2931034 17.8448276,63.1034483 33.2758621,63.1034483 C49.2241379,63.1034483 62.3275862,50.6896552 63.1896552,34.7413793 L63.1896552,34.3103448 L61.1206897,34.2241379 L61.1206897,34.7413793 L61.1206897,34.7413793 Z" id="Shape"></path>
                        <path d="M5.17241379,28.8793103 C6.03448276,14.137931 18.2758621,2.5862069 33.0172414,2.5862069 C47.2413793,2.5862069 59.3103448,13.5344828 60.7758621,27.5862069 L57.9310345,27.5862069 L61.8965517,32.0689655 L65.862069,27.5862069 L62.8448276,27.5862069 C61.3793103,12.3275862 48.4482759,0.517241379 33.0172414,0.517241379 C17.0689655,0.517241379 3.96551724,12.9310345 3.10344828,28.8793103 L3.10344828,29.3103448 L5.17241379,29.3965517 L5.17241379,28.8793103 L5.17241379,28.8793103 Z" id="Shape"></path>
                    </g>
                    <g id="Group" transform="translate(18.965517, 1.724138)" fill="#E4B465" opacity="0.54">
                        <g transform="translate(46.551724, 57.758621)" id="Rectangle-path">
                            <g>
                                <rect transform="translate(5.371935, 5.439487) rotate(45.000000) translate(-5.371935, -5.439487) " x="-0.878004717" y="5.00845672" width="12.4998801" height="0.862060698"></rect>
                            </g>
                        </g>
                        <g transform="translate(37.931034, 63.793103)" id="Rectangle-path">
                            <g>
                                <rect transform="translate(1.964375, 3.429159) rotate(67.176073) translate(-1.964375, -3.429159) " x="-1.26837926" y="2.99812558" width="6.46550851" height="0.862067802"></rect>
                            </g>
                        </g>
                        <g transform="translate(15.517241, 8.620690)" id="Rectangle-path">
                            <g transform="translate(22.413793, 0.000000)">
                                <g>
                                    <rect transform="translate(1.731207, 3.466983) rotate(22.153572) translate(-1.731207, -3.466983) " x="1.30016145" y="0.449664667" width="0.862090883" height="6.03463618"></rect>
                                </g>
                            </g>
                            <g transform="translate(0.000000, 55.172414)">
                                <g>
                                    <rect transform="translate(1.633392, 3.564466) rotate(22.204669) translate(-1.633392, -3.564466) " x="1.20237628" y="0.331845827" width="0.862031917" height="6.46523938"></rect>
                                </g>
                            </g>
                        </g>
                        <g transform="translate(52.586207, 26.724138)" id="Rectangle-path">
                            <g>
                                <rect transform="translate(3.378216, 1.839612) rotate(67.132439) translate(-3.378216, -1.839612) " x="2.94718364" y="-1.1345079" width="0.862063759" height="5.94823993"></rect>
                            </g>
                        </g>
                        <g transform="translate(0.000000, 11.206897)" id="Rectangle-path">
                            <g transform="translate(0.000000, 46.551724)">
                                <g>
                                    <rect transform="translate(5.347194, 5.407237) rotate(45.000000) translate(-5.347194, -5.407237) " x="4.91616362" y="-0.842702993" width="0.862060698" height="12.4998801"></rect>
                                </g>
                            </g>
                            <g transform="translate(46.551724, 0.000000)">
                                <g>
                                    <rect transform="translate(5.323573, 5.365599) rotate(45.000000) translate(-5.323573, -5.365599) " x="4.89254293" y="-0.884340924" width="0.862060698" height="12.4998801"></rect>
                                </g>
                            </g>
                        </g>
                        <g transform="translate(27.586207, 0.000000)" id="Rectangle-path">
                            <g>
                                <g>
                                    <rect x="0.603448276" y="0.689655172" width="0.862068966" height="12.5"></rect>
                                </g>
                            </g>
                            <g transform="translate(0.000000, 66.379310)">
                                <g>
                                    <rect x="0.603448276" y="0.172413793" width="0.862068966" height="12.5"></rect>
                                </g>
                            </g>
                        </g>
                    </g>
                    <g id="Group" fill="#E4B465">
                        <g transform="translate(0.000000, 5.172414)">
                            <path d="M6.55172414,18.8793103 C5.86206897,18.8793103 5.17241379,18.7068966 4.56896552,18.362069 C3.62068966,17.8448276 3.01724138,16.9827586 2.67241379,15.9482759 L0.603448276,8.53448276 C0.344827586,7.5 0.431034483,6.46551724 1.03448276,5.51724138 C1.55172414,4.56896552 2.4137931,3.96551724 3.44827586,3.62068966 L15,0.517241379 C17.1551724,-0.0862068966 19.3103448,1.20689655 19.9137931,3.36206897 L21.9827586,10.7758621 C22.2413793,11.8103448 22.1551724,12.8448276 21.5517241,13.7931034 C21.0344828,14.7413793 20.1724138,15.3448276 19.137931,15.6896552 L7.5862069,18.7931034 C7.24137931,18.8793103 6.89655172,18.8793103 6.55172414,18.8793103 L6.55172414,18.8793103 Z M16.0344828,1.20689655 C15.7758621,1.20689655 15.5172414,1.20689655 15.1724138,1.29310345 L3.62068966,4.39655172 C2.84482759,4.65517241 2.15517241,5.17241379 1.72413793,5.86206897 C1.29310345,6.55172414 1.20689655,7.4137931 1.37931034,8.27586207 L3.44827586,15.6896552 C3.70689655,16.4655172 4.22413793,17.1551724 4.9137931,17.5862069 C5.60344828,18.0172414 6.46551724,18.1034483 7.32758621,17.9310345 L18.8793103,14.8275862 C20.5172414,14.3965517 21.5517241,12.6724138 21.1206897,10.9482759 L19.0517241,3.53448276 C18.7068966,2.06896552 17.4137931,1.20689655 16.0344828,1.20689655 L16.0344828,1.20689655 Z" id="Shape"></path>
                            <path d="M21.4655172,12.2413793 L18.0172414,13.1896552 C16.2068966,13.7068966 14.2241379,12.5862069 13.7931034,10.7758621 L12.7586207,7.15517241 C12.2413793,5.34482759 13.362069,3.36206897 15.1724138,2.93103448 L18.2758621,2.06896552 L18.2758621,2.06896552 C18.0172414,1.81034483 17.6724138,1.63793103 17.3275862,1.37931034 L15,1.98275862 C12.6724138,2.5862069 11.2931034,5.0862069 11.8965517,7.4137931 L12.9310345,11.0344828 C13.5344828,13.362069 16.0344828,14.7413793 18.362069,14.137931 L21.2068966,13.362069 C21.2931034,13.0172414 21.3793103,12.6724138 21.4655172,12.2413793 L21.4655172,12.2413793 Z" id="Shape"></path>
                            <ellipse id="Oval" cx="16.8103448" cy="8.10344828" rx="0.948275862" ry="0.948275862"></ellipse>
                        </g>
                        <path d="M15.862069,27.9310345 C15.3448276,27.9310345 14.8275862,27.7586207 14.3965517,27.3275862 C13.9655172,26.9827586 13.7931034,26.4655172 13.7931034,25.862069 C13.7931034,25.3448276 13.9655172,24.8275862 14.3965517,24.3965517 C14.7413793,23.9655172 15.2586207,23.7931034 15.862069,23.7931034 C16.3793103,23.7931034 16.8965517,23.9655172 17.3275862,24.3965517 C17.7586207,24.7413793 17.9310345,25.2586207 17.9310345,25.862069 C17.9310345,26.3793103 17.7586207,26.8965517 17.3275862,27.3275862 C16.8965517,27.6724138 16.3793103,27.9310345 15.862069,27.9310345 L15.862069,27.9310345 L15.862069,27.9310345 Z M15.862069,24.6551724 L15.862069,24.6551724 C15.5172414,24.6551724 15.2586207,24.7413793 15,25 C14.7413793,25.2586207 14.6551724,25.5172414 14.6551724,25.862069 C14.6551724,26.2068966 14.7413793,26.4655172 15,26.7241379 C15.2586207,26.9827586 15.5172414,27.0689655 15.862069,27.0689655 C16.2068966,27.0689655 16.4655172,26.9827586 16.7241379,26.7241379 C16.9827586,26.4655172 17.0689655,26.2068966 17.0689655,25.862069 C17.0689655,25.5172414 16.9827586,25.2586207 16.7241379,25 C16.4655172,24.8275862 16.1206897,24.6551724 15.862069,24.6551724 L15.862069,24.6551724 Z" id="Shape"></path>
                        <path d="M19.137931,4.13793103 C18.6206897,4.13793103 18.1034483,3.96551724 17.6724138,3.53448276 C17.2413793,3.18965517 17.0689655,2.67241379 17.0689655,2.06896552 C17.0689655,0.948275862 17.9310345,4.90029473e-14 19.0517241,4.90029473e-14 C19.5689655,4.90029473e-14 20.0862069,0.172413793 20.5172414,0.603448276 C20.9482759,0.948275862 21.1206897,1.46551724 21.1206897,2.06896552 L21.1206897,2.06896552 C21.2068966,3.18965517 20.2586207,4.05172414 19.137931,4.13793103 L19.137931,4.13793103 L19.137931,4.13793103 Z M19.137931,0.862068966 L19.137931,0.862068966 C18.4482759,0.862068966 17.9310345,1.37931034 17.9310345,2.06896552 C17.9310345,2.4137931 18.0172414,2.67241379 18.2758621,2.93103448 C18.5344828,3.18965517 18.7931034,3.27586207 19.137931,3.27586207 C19.8275862,3.27586207 20.3448276,2.75862069 20.3448276,2.06896552 C20.3448276,1.72413793 20.2586207,1.46551724 20,1.20689655 C19.7413793,1.03448276 19.3965517,0.862068966 19.137931,0.862068966 L19.137931,0.862068966 Z" id="Shape"></path>
                        <circle id="Oval" cx="10.6896552" cy="25.2586207" r="0.775862069"></circle>
                    </g>
                    <g id="Group" transform="translate(76.724138, 43.965517)">
                        <ellipse id="Oval" fill="#E4B465" cx="4.39655172" cy="1.63793103" rx="0.775862069" ry="0.775862069"></ellipse>
                        <g opacity="0.59" transform="translate(0.000000, 4.310345)" id="Shape" fill="#738E98">
                            <g>
                                <path d="M11.8103448,22.0689655 C11.8965517,22.5 11.8103448,22.6724138 11.3793103,22.7586207 C10.6034483,22.9310345 9.82758621,23.1034483 9.13793103,23.2758621 C8.70689655,23.362069 8.53448276,23.1896552 8.44827586,22.8448276 C8.27586207,22.2413793 8.10344828,21.637931 8.01724138,21.0344828 C7.93103448,20.6896552 7.84482759,20.5172414 7.4137931,20.3448276 C6.20689655,19.9137931 5.0862069,19.137931 4.22413793,18.1896552 C3.27586207,17.2413793 2.67241379,16.1206897 2.32758621,14.8275862 C1.89655172,14.9137931 1.46551724,15 1.03448276,15.1724138 C0.603448276,15.2586207 0.25862069,15.0862069 0.0862068966,14.7413793 C-6.85285162e-14,14.3965517 0.172413793,14.0517241 0.689655172,13.9655172 C1.03448276,13.8793103 1.37931034,13.7931034 1.72413793,13.7068966 C1.98275862,13.6206897 2.06896552,13.5344828 2.06896552,13.2758621 L2.06896552,11.7241379 C2.32758621,9.56896552 3.27586207,7.75862069 4.82758621,6.20689655 C5.94827586,7.24137931 6.81034483,7.4137931 7.93103448,6.89655172 C9.31034483,6.20689655 9.56896552,5 9.22413793,3.62068966 C10.5172414,3.18965517 11.8103448,3.01724138 13.1034483,3.27586207 C13.7931034,3.36206897 14.2241379,3.18965517 14.4827586,2.5862069 C14.8275862,1.81034483 15.3448276,1.12068966 15.7758621,0.344827586 C15.862069,0.603448276 15.9482759,0.775862069 15.9482759,0.948275862 C16.2068966,1.98275862 16.3793103,2.93103448 16.637931,3.96551724 C16.637931,4.13793103 16.8103448,4.31034483 16.8965517,4.39655172 C18.362069,5.17241379 19.4827586,6.20689655 20.3448276,7.5862069 C20.5172414,7.5 20.6896552,7.5 20.9482759,7.4137931 C21.7241379,7.24137931 22.4137931,7.5862069 22.5862069,8.36206897 C22.7586207,9.13793103 23.0172414,9.9137931 23.1034483,10.6896552 C23.2758621,11.4655172 22.8448276,12.0689655 22.0689655,12.3275862 C21.8965517,12.4137931 21.637931,12.4137931 21.4655172,12.5 C21.2931034,14.5689655 20.4310345,16.3793103 19.0517241,17.9310345 C18.9655172,18.0172414 18.8793103,18.2758621 18.9655172,18.4482759 C19.137931,19.137931 19.3103448,19.7413793 19.3965517,20.4310345 C19.4827586,20.7758621 19.3965517,20.9482759 19.0517241,21.0344828 C18.2758621,21.2068966 17.4137931,21.3793103 16.637931,21.637931 C16.2931034,21.7241379 16.0344828,21.5517241 16.0344828,21.2068966 C15.9482759,20.862069 15.862069,20.6034483 15.862069,20.3448276 C14.3965517,20.6896552 13.0172414,21.0344828 11.5517241,21.3793103 C11.7241379,21.4655172 11.7241379,21.8103448 11.8103448,22.0689655 L11.8103448,22.0689655 Z M16.9827586,8.62068966 C17.4137931,8.53448276 17.6724138,8.10344828 17.5862069,7.5862069 C17.5,7.06896552 17.0689655,6.81034483 16.5517241,6.98275862 C16.1206897,7.06896552 15.862069,7.5862069 15.9482759,8.01724138 C16.0344828,8.44827586 16.5517241,8.70689655 16.9827586,8.62068966 L16.9827586,8.62068966 Z"></path>
                            </g>
                        </g>
                        <path d="M10.1724138,4.48275862 C9.22413793,4.48275862 8.27586207,3.79310345 8.01724138,2.84482759 C7.84482759,2.24137931 7.93103448,1.63793103 8.27586207,1.20689655 C8.53448276,0.689655172 9.05172414,0.344827586 9.65517241,0.25862069 L9.65517241,0.25862069 C10.2586207,0.0862068966 10.862069,0.172413793 11.2931034,0.517241379 C11.8103448,0.862068966 12.1551724,1.29310345 12.2413793,1.89655172 C12.4137931,2.5 12.2413793,3.01724138 11.9827586,3.53448276 C11.637931,4.05172414 11.2068966,4.39655172 10.6034483,4.48275862 C10.4310345,4.48275862 10.2586207,4.48275862 10.1724138,4.48275862 L10.1724138,4.48275862 Z M9.82758621,1.03448276 C9.48275862,1.12068966 9.13793103,1.29310345 8.96551724,1.63793103 C8.79310345,1.89655172 8.70689655,2.32758621 8.79310345,2.67241379 C8.96551724,3.36206897 9.65517241,3.79310345 10.3448276,3.62068966 C10.6896552,3.53448276 10.9482759,3.36206897 11.2068966,3.01724138 C11.3793103,2.67241379 11.4655172,2.32758621 11.3793103,1.98275862 C11.2931034,1.63793103 11.1206897,1.37931034 10.7758621,1.12068966 C10.5172414,0.948275862 10.1724138,0.948275862 9.82758621,1.03448276 L9.82758621,1.03448276 L9.82758621,1.03448276 Z" id="Shape" fill="#E4B465"></path>
                        <path d="M6.55172414,10.2586207 C5.68965517,10.2586207 4.9137931,9.65517241 4.65517241,8.79310345 C4.48275862,8.27586207 4.56896552,7.75862069 4.82758621,7.32758621 C5.0862069,6.89655172 5.51724138,6.55172414 6.03448276,6.46551724 C6.55172414,6.29310345 7.06896552,6.37931034 7.5,6.63793103 C7.93103448,6.89655172 8.27586207,7.32758621 8.36206897,7.84482759 L8.36206897,7.84482759 C8.44827586,8.36206897 8.44827586,8.87931034 8.18965517,9.31034483 C7.93103448,9.74137931 7.5,10.0862069 6.98275862,10.1724138 C6.89655172,10.2586207 6.72413793,10.2586207 6.55172414,10.2586207 L6.55172414,10.2586207 Z M6.55172414,7.24137931 L6.29310345,7.24137931 C6.03448276,7.32758621 5.77586207,7.5 5.60344828,7.75862069 C5.43103448,8.01724138 5.43103448,8.27586207 5.51724138,8.62068966 C5.68965517,9.22413793 6.20689655,9.56896552 6.81034483,9.39655172 C7.06896552,9.31034483 7.32758621,9.13793103 7.5,8.87931034 C7.67241379,8.62068966 7.67241379,8.36206897 7.5862069,8.01724138 L7.5862069,8.01724138 C7.5,7.75862069 7.32758621,7.5 7.06896552,7.32758621 C6.98275862,7.32758621 6.81034483,7.24137931 6.55172414,7.24137931 L6.55172414,7.24137931 Z" id="Shape" fill="#E4B465"></path>
                    </g>
                    <g id="Group" transform="translate(42.241379, 29.310345)">
                        <path d="M9.22413793,24.3103448 L6.55172414,24.3103448 L6.55172414,21.4655172 C5,21.3793103 3.36206897,20.862069 2.4137931,20.1724138 L2.15517241,20 L3.10344828,17.2413793 L3.53448276,17.5862069 C4.65517241,18.2758621 6.03448276,18.7068966 7.4137931,18.7068966 C9.13793103,18.7068966 10.3448276,17.7586207 10.3448276,16.3793103 C10.3448276,15.0862069 9.48275862,14.2241379 7.4137931,13.362069 C4.82758621,12.3275862 2.5,11.0344828 2.5,8.01724138 C2.5,5.51724138 4.13793103,3.62068966 6.81034483,3.10344828 L6.81034483,0.172413793 L9.39655172,0.172413793 L9.39655172,2.93103448 C10.6896552,3.01724138 11.8965517,3.36206897 12.8448276,3.96551724 L13.1896552,4.13793103 L12.1551724,6.81034483 L11.7241379,6.55172414 C11.2068966,6.29310345 10.1724138,5.60344828 8.36206897,5.60344828 C6.46551724,5.60344828 5.77586207,6.72413793 5.77586207,7.5862069 C5.77586207,8.70689655 6.46551724,9.39655172 9.05172414,10.4310345 C12.3275862,11.7241379 13.7068966,13.4482759 13.7068966,16.0344828 C13.7068966,18.6206897 11.8965517,20.6034483 9.22413793,21.2068966 L9.22413793,24.3103448 L9.22413793,24.3103448 Z M7.4137931,23.4482759 L8.36206897,23.4482759 L8.36206897,20.6034483 L8.70689655,20.5172414 C11.2068966,20.0862069 12.8448276,18.362069 12.8448276,16.1206897 C12.8448276,13.8793103 11.637931,12.5 8.70689655,11.2931034 C6.20689655,10.2586207 4.9137931,9.39655172 4.9137931,7.67241379 C4.9137931,6.20689655 5.94827586,4.82758621 8.36206897,4.82758621 C9.82758621,4.82758621 10.9482759,5.17241379 11.7241379,5.60344828 L12.1551724,4.56896552 C11.2068966,4.13793103 10.1724138,3.87931034 8.96551724,3.79310345 L8.53448276,3.79310345 L8.53448276,1.03448276 L7.67241379,1.03448276 L7.67241379,3.79310345 L7.32758621,3.87931034 C4.9137931,4.31034483 3.44827586,5.86206897 3.44827586,8.01724138 C3.44827586,10 4.65517241,11.2931034 7.84482759,12.5 C9.56896552,13.1896552 11.2931034,14.2241379 11.2931034,16.2931034 C11.2931034,18.1896552 9.74137931,19.4827586 7.5,19.4827586 C6.20689655,19.4827586 4.82758621,19.137931 3.62068966,18.4482759 L3.27586207,19.5689655 C4.22413793,20.1724138 5.68965517,20.5172414 7.06896552,20.6034483 L7.5,20.6034483 L7.5,23.4482759 L7.4137931,23.4482759 Z" id="Shape" fill="#E4B465"></path>
                        <path d="M4.9137931,23.7931034 L4.9137931,20.9482759 C3.27586207,20.9482759 1.55172414,20.4310345 0.603448276,19.7413793 L1.29310345,17.8448276 C2.32758621,18.5344828 3.79310345,19.0517241 5.34482759,19.0517241 C7.32758621,19.0517241 8.70689655,17.9310345 8.70689655,16.2931034 C8.70689655,14.7413793 7.5862069,13.7931034 5.51724138,12.9310345 C2.5862069,11.8103448 0.862068966,10.5172414 0.862068966,8.01724138 C0.862068966,5.68965517 2.5,3.87931034 5.17241379,3.44827586 L5.17241379,0.603448276 L6.89655172,0.603448276 L6.89655172,3.36206897 C8.62068966,3.44827586 9.74137931,3.87931034 10.6034483,4.39655172 L9.9137931,6.29310345 C9.31034483,5.94827586 8.18965517,5.34482759 6.37931034,5.34482759 C4.22413793,5.34482759 3.36206897,6.63793103 3.36206897,7.75862069 C3.36206897,9.22413793 4.39655172,10 6.89655172,11.0344828 C9.82758621,12.2413793 11.2931034,13.7068966 11.2931034,16.2068966 C11.2931034,18.4482759 9.74137931,20.5172414 6.81034483,21.0344828 L6.81034483,23.9655172 L4.9137931,23.9655172 L4.9137931,23.7931034 Z" id="Shape" fill="#78909C"></path>
                    </g>
                    <path d="M37.4137931,45.862069 L37.1551724,43.7068966 C35.9482759,43.7931034 34.7413793,43.5344828 33.9655172,43.1034483 L33.7931034,43.0172414 L34.2241379,41.1206897 L34.4827586,41.2068966 C35.3448276,41.637931 36.4655172,41.8103448 37.5,41.7241379 C38.1896552,41.637931 38.7068966,41.3793103 39.137931,41.0344828 C39.4827586,40.6896552 39.6551724,40.1724138 39.5689655,39.6551724 C39.4827586,38.7068966 38.7068966,38.1034483 37.0689655,37.6724138 C35.0862069,37.1551724 33.2758621,36.3793103 33.0172414,34.3103448 C32.8448276,32.5 33.8793103,31.0344828 35.7758621,30.4310345 L35.5172414,28.2758621 L37.2413793,28.1034483 L37.5,30.1724138 C38.5344828,30.0862069 39.3965517,30.2586207 40.1724138,30.6034483 L40.3448276,30.6896552 L39.9137931,32.5862069 L39.6551724,32.5 C39.3103448,32.3275862 38.362069,31.9827586 37.0689655,32.1551724 C36.3793103,32.2413793 35.862069,32.5 35.6034483,32.8448276 C35.3448276,33.1896552 35.2586207,33.5344828 35.2586207,33.9655172 C35.3448276,34.8275862 35.9482759,35.2586207 37.9310345,35.862069 C40.4310345,36.5517241 41.5517241,37.5862069 41.8103448,39.4827586 C41.9827586,41.0344828 41.2068966,42.8448276 38.9655172,43.6206897 L39.2241379,45.862069 L37.4137931,45.862069 L37.4137931,45.862069 Z M37.5,43.2758621 L37.7586207,45.3448276 L38.6206897,45.2586207 L38.362069,43.1034483 L38.5344828,43.0172414 C40.4310345,42.5 41.4655172,41.0344828 41.2068966,39.3103448 C41.0344828,37.6724138 40,36.7241379 37.6724138,36.0344828 C35.7758621,35.5172414 34.8275862,35 34.6551724,33.7931034 C34.5689655,33.2758621 34.7413793,32.7586207 35.0862069,32.3275862 C35.4310345,31.8965517 36.1206897,31.5517241 36.8965517,31.4655172 C38.0172414,31.2931034 38.8793103,31.5517241 39.4827586,31.8103448 L39.7413793,30.7758621 C38.9655172,30.5172414 38.1896552,30.3448276 37.2413793,30.4310345 L37.0689655,30.4310345 L36.8103448,28.4482759 L35.9482759,28.5344828 L36.2068966,30.6034483 L36.0344828,30.6896552 C34.2241379,31.2068966 33.2758621,32.5862069 33.4482759,34.2241379 C33.6206897,35.7758621 34.6551724,36.5517241 37.1551724,37.2413793 C38.9655172,37.7586207 39.8275862,38.4482759 40,39.6551724 C40.0862069,40.2586207 39.9137931,40.9482759 39.3965517,41.3793103 C38.9655172,41.8103448 38.2758621,42.1551724 37.5,42.2413793 C36.4655172,42.3275862 35.4310345,42.2413793 34.4827586,41.8103448 L34.2241379,42.8448276 C35,43.1896552 36.2068966,43.362069 37.2413793,43.2758621 L37.5,43.2758621 L37.5,43.2758621 Z" id="Shape" fill="#E4B465"></path>
                    <g id="Group" opacity="0.59" transform="translate(56.896552, 37.068966)" fill="#738E98">
                        <g id="Shape">
                            <path d="M1.72413793,12.4137931 L2.06896552,10.9482759 C1.20689655,10.6896552 0.344827586,10.2586207 0,9.74137931 L0.603448276,8.79310345 C1.03448276,9.31034483 1.72413793,9.74137931 2.5862069,10 C3.62068966,10.2586207 4.48275862,9.82758621 4.74137931,8.96551724 C4.9137931,8.18965517 4.48275862,7.5 3.53448276,6.81034483 C2.15517241,5.86206897 1.37931034,4.9137931 1.72413793,3.62068966 C2.06896552,2.4137931 3.18965517,1.63793103 4.56896552,1.81034483 L4.9137931,0.344827586 L5.86206897,0.603448276 L5.51724138,2.06896552 C6.37931034,2.32758621 6.98275862,2.67241379 7.32758621,3.10344828 L6.72413793,3.96551724 C6.46551724,3.70689655 5.94827586,3.18965517 5,3.01724138 C3.87931034,2.75862069 3.27586207,3.27586207 3.10344828,3.87931034 C2.93103448,4.65517241 3.36206897,5.17241379 4.48275862,6.03448276 C5.86206897,7.06896552 6.46551724,8.01724138 6.12068966,9.31034483 C5.86206897,10.5172414 4.74137931,11.3793103 3.10344828,11.2068966 L2.67241379,12.7586207 L1.72413793,12.4137931 L1.72413793,12.4137931 Z"></path>
                        </g>
                    </g>
                    <g id="Group" transform="translate(79.310345, 12.931034)" fill="#E4B465">
                        <path d="M2.06896552,4.74137931 C0.948275862,4.74137931 0,3.79310345 0,2.67241379 C0,1.55172414 0.948275862,0.603448276 2.06896552,0.603448276 C3.18965517,0.603448276 4.13793103,1.55172414 4.13793103,2.67241379 C4.13793103,3.79310345 3.27586207,4.74137931 2.06896552,4.74137931 L2.06896552,4.74137931 Z M2.06896552,1.37931034 C1.37931034,1.37931034 0.862068966,1.89655172 0.862068966,2.5862069 C0.862068966,3.27586207 1.37931034,3.79310345 2.06896552,3.79310345 C2.75862069,3.79310345 3.27586207,3.27586207 3.27586207,2.5862069 C3.27586207,1.89655172 2.75862069,1.37931034 2.06896552,1.37931034 L2.06896552,1.37931034 Z" id="Shape"></path>
                        <path d="M6.81034483,13.362069 C5.68965517,13.362069 4.74137931,12.4137931 4.74137931,11.2931034 C4.74137931,10.1724138 5.68965517,9.22413793 6.81034483,9.22413793 C7.93103448,9.22413793 8.87931034,10.1724138 8.87931034,11.2931034 C8.87931034,12.4137931 8.01724138,13.362069 6.81034483,13.362069 L6.81034483,13.362069 Z M6.81034483,10 C6.12068966,10 5.60344828,10.5172414 5.60344828,11.2068966 C5.60344828,11.8965517 6.12068966,12.4137931 6.81034483,12.4137931 C7.5,12.4137931 8.01724138,11.8965517 8.01724138,11.2068966 C8.01724138,10.5172414 7.5,10 6.81034483,10 L6.81034483,10 Z" id="Shape"></path>
                        <rect id="Rectangle-path" transform="translate(4.421362, 6.762147) rotate(29.569355) translate(-4.421362, -6.762147) " x="3.99030727" y="-0.479574145" width="0.862109607" height="14.4834414"></rect>
                    </g>
                    <g id="Group" opacity="0.54" transform="translate(26.724138, 15.517241)" fill="#E4B465">
                        <g id="Shape">
                            <path d="M0.172413793,9.74137931 C0.172413793,9.74137931 5.43103448,0.431034483 20.7758621,0.517241379 C35.0862069,0.603448276 41.3793103,9.48275862 41.3793103,9.48275862 C41.3793103,9.48275862 33.8793103,12.7586207 20.862069,8.36206897 C5.17241379,3.18965517 0.172413793,9.74137931 0.172413793,9.74137931 L0.172413793,9.74137931 Z"></path>
                        </g>
                    </g>
                    <g id="Group" opacity="0.54" transform="translate(26.724138, 55.172414)" fill="#E4B465">
                        <g id="Shape">
                            <path d="M41.637931,1.20689655 C41.637931,1.20689655 36.3793103,10.5172414 21.0344828,10.4310345 C6.63793103,10.3448276 0.431034483,1.46551724 0.431034483,1.46551724 C0.431034483,1.46551724 7.93103448,-1.81034483 20.9482759,2.5862069 C36.637931,7.67241379 41.637931,1.20689655 41.637931,1.20689655 L41.637931,1.20689655 Z"></path>
                        </g>
                    </g>
                    <polygon id="Shape" fill="#E4B465" points="12.1551724 71.7241379 7.4137931 59.7413793 4.31034483 59.7413793 4.31034483 58.8793103 8.01724138 58.8793103 11.7241379 68.362069 13.8793103 52.6724138 27.4137931 52.1551724 27.4137931 53.0172414 14.6551724 53.4482759"></polygon>
                    <path d="M69.9137931,15.7758621 C62.3275862,7.4137931 51.9827586,7.06896552 51.8103448,7.06896552 L51.8103448,6.20689655 C51.8965517,6.20689655 62.6724138,6.55172414 70.5172414,15.1724138 L69.9137931,15.7758621 L69.9137931,15.7758621 Z" id="Shape" fill="#78909C"></path>
                    <path d="M69.137931,9.82758621 C63.9655172,4.65517241 55.5172414,3.53448276 55.5172414,3.53448276 L55.5172414,3.10344828 L55.5172414,3.10344828 L55.2586207,2.75862069 C55.6896552,2.4137931 64.5689655,3.96551724 69.8275862,9.22413793 L69.137931,9.82758621 L69.137931,9.82758621 Z" id="Shape" fill="#E4B465"></path>
                    <path d="M33.5344828,78.6206897 C32.5,78.6206897 26.7241379,76.1206897 23.8793103,72.0689655 L24.5689655,71.5517241 C27.5862069,75.862069 33.4482759,77.7586207 33.5344828,77.7586207 L33.4482759,78.1896552 L33.4482759,78.1896552 L33.7068966,78.5344828 C33.6206897,78.6206897 33.6206897,78.6206897 33.5344828,78.6206897 L33.5344828,78.6206897 Z" id="Shape" fill="#E4B465"></path>
                    <path d="M43.1034483,76.7241379 C43.0172414,76.7241379 32.2413793,75.9482759 24.8275862,66.9827586 L25.5172414,66.4655172 C32.7586207,75.0862069 43.1034483,75.862069 43.1896552,75.862069 L43.1034483,76.7241379 L43.1034483,76.7241379 Z" id="Shape" fill="#78909C"></path>
                    <g id="Group" transform="translate(31.034483, 5.172414)" fill="#78909C">
                        <path d="M4.74137931,13.1034483 L4.22413793,12.4137931 C4.9137931,11.8103448 5.43103448,9.65517241 3.62068966,6.89655172 C2.15517241,4.65517241 2.32758621,2.5 4.13793103,0.603448276 L4.74137931,1.20689655 C3.18965517,2.75862069 3.01724138,4.48275862 4.31034483,6.37931034 C6.37931034,9.48275862 5.77586207,12.2413793 4.74137931,13.1034483 L4.74137931,13.1034483 Z" id="Shape"></path>
                        <path d="M2.15517241,13.1896552 L1.63793103,12.5 C2.32758621,11.8965517 2.84482759,9.74137931 1.03448276,6.98275862 C-0.431034483,4.74137931 -0.25862069,2.5862069 1.55172414,0.689655172 L2.15517241,1.29310345 C0.603448276,2.84482759 0.431034483,4.56896552 1.72413793,6.46551724 C3.70689655,9.65517241 3.18965517,12.3275862 2.15517241,13.1896552 L2.15517241,13.1896552 Z" id="Shape"></path>
                    </g>
                    <path d="M53.362069,77.1551724 L55.6034483,60.6896552 L67.5862069,71.637931 L53.362069,77.1551724 L53.362069,77.1551724 Z M56.2068966,62.4137931 L54.3965517,75.7758621 L65.9482759,71.2931034 L56.2068966,62.4137931 L56.2068966,62.4137931 Z" id="Shape" fill="#78909C"></path>
                </g>
            </g>
        </g>
    </g>
</svg>