<?xml version="1.0" encoding="UTF-8"?>
<svg width="35px" height="32px" viewBox="0 0 35 32" version="1.1" xmlns="http://www.w3.org/2000/svg" xmlns:xlink="http://www.w3.org/1999/xlink">
    <!-- Generator: Sketch 39 (31667) - http://www.bohemiancoding.com/sketch -->
    <title>subs-in</title>
    <desc>Created with Sketch.</desc>
    <defs></defs>
    <g id="Symbols" stroke="none" stroke-width="1" fill="none" fill-rule="evenodd">
        <g id="Artboard-2" transform="translate(-3.000000, -4.000000)" fill="#4E809D">
            <path d="M3.01464844,7.14550781 C3.01464844,5.10838825 4.14940271,4.08984375 6.41894531,4.08984375 C8.68848791,4.08984375 9.82324219,5.10838825 9.82324219,7.14550781 C9.82324219,8.11621579 9.53955362,8.87157933 8.97216797,9.41162109 C8.40478232,9.95166286 7.55371661,10.2216797 6.41894531,10.2216797 C4.14940271,10.2216797 3.01464844,9.19629932 3.01464844,7.14550781 L3.01464844,7.14550781 Z M9.53613281,36 L3.28125,36 L3.28125,13.0722656 L9.53613281,13.0722656 L9.53613281,36 Z M37.2626953,36 L31.0078125,36 L31.0078125,22.6083984 C31.0078125,20.9540933 30.7138701,19.713383 30.1259766,18.8862305 C29.538083,18.0590779 28.6015689,17.6455078 27.3164062,17.6455078 C25.5663975,17.6455078 24.3017617,18.2299746 23.5224609,19.3989258 C22.7431602,20.5678769 22.3535156,22.5058458 22.3535156,25.2128906 L22.3535156,36 L16.0986328,36 L16.0986328,13.0722656 L20.8769531,13.0722656 L21.7177734,16.0048828 L22.0664062,16.0048828 C22.7636754,14.8974554 23.724115,14.0600614 24.9477539,13.4926758 C26.1713928,12.9252901 27.5624922,12.6416016 29.1210938,12.6416016 C31.7871227,12.6416016 33.81054,13.3627858 35.1914062,14.8051758 C36.5722725,16.2475658 37.2626953,18.329088 37.2626953,21.0498047 L37.2626953,36 Z" id="subs-in"></path>
        </g>
    </g>
</svg>