<?xml version="1.0" encoding="UTF-8"?>
<svg width="40px" height="34px" viewBox="0 0 40 34" version="1.1" xmlns="http://www.w3.org/2000/svg" xmlns:xlink="http://www.w3.org/1999/xlink">
    <!-- Generator: Sketch 39 (31667) - http://www.bohemiancoding.com/sketch -->
    <title>subs-fb</title>
    <desc>Created with Sketch.</desc>
    <defs></defs>
    <g id="Symbols" stroke="none" stroke-width="1" fill="none" fill-rule="evenodd">
        <g id="Artboard-2" transform="translate(0.000000, -3.000000)" fill="#FBFBFB">
            <path d="M14.9550781,17.7685547 L9.54101562,17.7685547 L9.54101562,36 L3.28613281,36 L3.28613281,17.7685547 L-0.159179688,17.7685547 L-0.159179688,14.7539062 L3.28613281,13.0722656 L3.28613281,11.390625 C3.28613281,8.77928382 3.92870451,6.87207633 5.21386719,5.66894531 C6.49902986,4.4658143 8.55662647,3.86425781 11.3867188,3.86425781 C13.5468858,3.86425781 15.467765,4.18554366 17.1494141,4.828125 L15.5498047,9.421875 C14.2919859,9.02538864 13.1298881,8.82714844 12.0634766,8.82714844 C11.1748002,8.82714844 10.5322285,9.0903294 10.1357422,9.61669922 C9.73925583,10.143069 9.54101562,10.8164021 9.54101562,11.6367188 L9.54101562,13.0722656 L14.9550781,13.0722656 L14.9550781,17.7685547 Z M31.2998047,12.6416016 C34.0068495,12.6416016 36.1259689,13.6977433 37.6572266,15.8100586 C39.1884842,17.9223738 39.9541016,20.8173644 39.9541016,24.4951172 C39.9541016,28.2822455 39.1645587,31.2148334 37.5854492,33.2929688 C36.0063398,35.3711041 33.8564589,36.4101562 31.1357422,36.4101562 C28.4423693,36.4101562 26.3300858,35.432627 24.7988281,33.4775391 L24.3681641,33.4775391 L23.3222656,36 L18.5439453,36 L18.5439453,4.08984375 L24.7988281,4.08984375 L24.7988281,11.5136719 C24.7988281,12.457036 24.7167977,13.967763 24.5527344,16.0458984 L24.7988281,16.0458984 C26.2617261,13.7763558 28.4286966,12.6416016 31.2998047,12.6416016 L31.2998047,12.6416016 Z M29.2900391,17.6455078 C27.7451095,17.6455078 26.6171911,18.1206007 25.90625,19.0708008 C25.1953089,20.0210008 24.826172,21.5898328 24.7988281,23.7773438 L24.7988281,24.4541016 C24.7988281,26.9150514 25.1645471,28.6787056 25.8959961,29.7451172 C26.6274451,30.8115288 27.7861249,31.3447266 29.3720703,31.3447266 C30.657233,31.3447266 31.6791954,30.7534239 32.4379883,29.5708008 C33.1967811,28.3881777 33.5761719,26.6689566 33.5761719,24.4130859 C33.5761719,22.1572153 33.1933632,20.4653377 32.4277344,19.3374023 C31.6621055,18.209467 30.6162176,17.6455078 29.2900391,17.6455078 L29.2900391,17.6455078 Z" id="subs-fb"></path>
        </g>
    </g>
</svg>