<?xml version="1.0" encoding="UTF-8"?>
<svg width="36px" height="31px" viewBox="0 0 36 31" version="1.1" xmlns="http://www.w3.org/2000/svg" xmlns:xlink="http://www.w3.org/1999/xlink">
    <!-- Generator: Sketch 39 (31667) - http://www.bohemiancoding.com/sketch -->
    <title>subs-fb</title>
    <desc>Created with Sketch.</desc>
    <defs></defs>
    <g id="Symbols" stroke="none" stroke-width="1" fill="none" fill-rule="evenodd">
        <g id="Artboard-2" transform="translate(-2.000000, -5.000000)" fill="#4E809D">
            <path d="M15.7605042,18.2438563 L10.8313684,18.2438563 L10.8313684,35.6093258 L5.13672281,35.6093258 L5.13672281,18.2438563 L2,18.2438563 L2,15.3724008 L5.13672281,13.7706364 L5.13672281,12.1688721 C5.13672281,9.68156706 5.72174066,7.86495007 6.89179391,6.7189666 C8.06184715,5.57298314 9.93514899,5 12.5117556,5 C14.4784409,5 16.2272708,5.30602509 17.7582979,5.91808444 L16.3019623,10.2936358 C15.1568038,9.91598215 14.0987928,9.72715816 13.1278976,9.72715816 C12.3188182,9.72715816 11.7338004,9.97783828 11.3728265,10.479206 C11.0118526,10.9805738 10.8313684,11.6219243 10.8313684,12.4032766 L10.8313684,13.7706364 L15.7605042,13.7706364 L15.7605042,18.2438563 Z M29.3256978,13.3604285 C31.7805281,13.3604285 33.7022098,14.3664046 35.0908006,16.3783869 C36.4793915,18.3903692 37.1736765,21.1478506 37.1736765,24.6509137 C37.1736765,28.2581571 36.4576951,31.0514499 35.0257108,33.0308759 C33.5937264,35.0103019 31.6441493,36 29.1769209,36 C26.7344888,36 24.8190061,35.0689024 23.4304152,33.2066793 L23.039876,33.2066793 L22.0914236,35.6093258 L17.7582979,35.6093258 L17.7582979,5.21487083 L23.4304152,5.21487083 L23.4304152,12.2860744 C23.4304152,13.1846296 23.3560275,14.6235986 23.20725,16.6030246 L23.4304152,16.6030246 C24.7570154,14.441283 26.72209,13.3604285 29.3256978,13.3604285 L29.3256978,13.3604285 Z M27.5031814,18.1266541 C26.1021924,18.1266541 25.0793618,18.5791805 24.4346589,19.484247 C23.789956,20.3893135 23.4552115,21.8836275 23.4304152,23.9672338 L23.4304152,24.6118463 C23.4304152,26.9559033 23.7620603,28.6357857 24.4253604,29.6515438 C25.0886605,30.6673019 26.1393865,31.1751733 27.5775698,31.1751733 C28.7429943,31.1751733 29.6697408,30.6119569 30.3578372,29.4855072 C31.0459335,28.3590576 31.3899766,26.7214978 31.3899766,24.5727788 C31.3899766,22.4240598 31.042834,20.8125448 30.3485386,19.7381853 C29.6542432,18.6638258 28.7058003,18.1266541 27.5031814,18.1266541 L27.5031814,18.1266541 Z" id="subs-fb"></path>
        </g>
    </g>
</svg>