<?xml version="1.0" encoding="utf-8"?>
<!-- Generator: Adobe Illustrator 19.0.0, SVG Export Plug-In . SVG Version: 6.00 Build 0)  -->
<svg version="1.1" xmlns="http://www.w3.org/2000/svg" xmlns:xlink="http://www.w3.org/1999/xlink" x="0px" y="0px"
	 viewBox="0 0 351.7 701.2" style="enable-background:new 0 0 351.7 701.2;" xml:space="preserve">
<style type="text/css">
	.st0{fill:none;}
	.st1{fill:#E5B76F;}
	.st2{fill:#F1C374;}
	.st3{fill:#115C76;}
	.st4{fill:#156286;}
	.st5{fill:#698289;}
	.st6{fill:#748F98;}
</style>
<g id="Layer_1">
	<g>
		<g>
			<path class="st0" d="M2870.9,708.8l-14.2-4l-23,7.1l4.6-24.1l-5-12c3.7-3.1,6.4-3.9,6.4-3.9l-2-7.4c-0.2,0.1-3.3,0.9-7.5,4l0-0.1
				c-32.5,20.7-12.1,68.1-12.1,68.1c40.7,1.3,54.5-15.3,58.6-22.5c1.6-2.4,3.2-5.2,4.7-8.5l-7-3.2
				C2873.3,704.8,2872.1,706.9,2870.9,708.8z"/>
			<path class="st0" d="M2900.1,673.8l-13.4-3.6l-20.2,6.6l5.9-21.5l-2.9-12.9c3.5-3,6.7-4.4,6.8-4.4l-3-7.1c-0.3,0.1-6,2.6-11.3,8
				c-21.6,19.3-14.1,56.7-14.1,56.7c36.2,7.2,54.2-11.2,59.1-17.4c1.6-1.4,3.3-3,4.9-4.8l-5.7-5.2
				C2904.2,670.3,2902.1,672.2,2900.1,673.8z"/>
			<path class="st0" d="M2909.3,627.9l-1.5-10.1c3.5-2.2,6.4-2.6,6.6-2.6l-0.7-6.6c-0.4,0-4.8,0-10.3,3.5
				c-26.5,12.7-21.9,48.7-21.9,48.7c33.6,11.3,49.3,0.1,54.8-5.9c1.8-1.5,3.6-3.4,5.4-5.8l-6.2-4.6c-1.3,1.8-2.6,3.1-3.9,4.2
				l-10.5-4.5l-21.3,3.1L2909.3,627.9z"/>
			<path class="st1" d="M2807.5,644.5c0,0,15.2-64.5,92-115.5c0.4-0.3,2.2-4.9,2.6-5.1l7.1-88c0,0-28.7,19.8-113.4,104.3
				C2806.2,571.9,2812.4,614.7,2807.5,644.5z"/>
			<path class="st2" d="M2902.9,510.4c-0.4,0.2-0.7,0.5-1.1,0.7c-76.8,51.1-92.1,120-92.1,120c4.9-29.8-0.6-62.5-11-94.2
				c-26.8-81.5-86.5-156.3-86.5-156.3s-10.6,66-35.9,226.6c-25.3,160.6,92.1,170.1,92.1,170.1l5.7,1.2
				c-56.5,257.6,186.7,283,186.7,283l-0.1-1.6c-62-18.6-211.9-85.5-169.7-251.4c2.3-11,5.2-21,7-26.8c-8.4-8.4-29.3-34.6-5.3-71.1
				l0,0c3.3-5.2,6-7.8,6.2-8l2.6,2.8l2.6,2.8c-0.1,0-3.2,3.1-6.8,9.7l8.6,13.5l2.3,28.7l20.3-16.9l21.7,3.2c1.9-3.2,4-6.9,6.3-11.2
				l6.8,3.6c-3.9,7.5-7.4,13.3-10.4,17.7c-5,9.8-17.5,24.3-47.7,27.7c-0.2,0.7-0.4,1.4-0.6,2.1c-3.8,20.6-29.5,188.4,146,186.7
				c-151.7-18.2-134.2-139.9-123-182.9c133,29.3,151-130.1,151-130.1l5.5-33.8c-9.1,6.2-16.5,9.9-21.8,12.1
				c-2.1,1.1-4.8,2.2-8.1,2.8c-0.4,0.1-0.7,0.2-0.8,0.2l0,0c-8.2,1.4-19.9,0.4-35.5-7.7c0,0,0.9-28.1,21.6-37.8
				c13.9-8.8,39.3-13.4,52.1-15.2l20.9-127.6C3012.5,452.8,2970.7,465.4,2902.9,510.4z M2876.7,714c-4.1,7.2-17.9,23.8-58.6,22.5
				c0,0-20.4-47.4,12.1-68.1l0,0.1c4.2-3,7.2-3.9,7.5-4l2,7.4c0,0-2.7,0.9-6.4,3.9l5,12l-4.6,24.1l23-7.1l14.2,4
				c1.2-1.9,2.3-4,3.5-6.5l7,3.2C2879.9,708.8,2878.3,711.6,2876.7,714z M2907,678.1c-4.9,6.2-22.9,24.6-59.1,17.4
				c0,0-7.5-37.4,14.1-56.7c5.3-5.4,11-7.8,11.3-8l3,7.1c-0.1,0-3.3,1.4-6.8,4.4l2.9,12.9l-5.9,21.5l20.2-6.6l13.4,3.6
				c2-1.6,4.1-3.5,6.1-5.8l5.7,5.2C2910.3,675,2908.6,676.6,2907,678.1z M2921,644.2l10.5,4.5c1.3-1.1,2.6-2.5,3.9-4.2l6.2,4.6
				c-1.8,2.4-3.6,4.3-5.4,5.8c-5.5,5.9-21.2,17.2-54.8,5.9c0,0-4.6-36,21.9-48.7c5.5-3.4,9.9-3.5,10.3-3.5l0.7,6.6
				c-0.2,0-3.1,0.4-6.6,2.6l1.5,10.1l-9.5,19.4L2921,644.2z"/>
			<path class="st2" d="M2946.8,608.6l-10.9,15.6l18.9,0.1l10.1,6.4c5-1.8,11.7-4.9,20.2-9.8l2.4-14.9c-5.4,5.8-13.7,13.2-22.5,14.8
				l-14.8-4.7l7.1-13.6c0,0,13.9-9.4,31.6-5l2.3-13.8c-10.5,2.1-28.8,6.5-44.2,14.3L2946.8,608.6z"/>
		</g>
		<g>
			<path class="st0" d="M2254.7,708.8l-14.2-4l-23,7.1l4.6-24.1l-5-12c3.7-3.1,6.4-3.9,6.4-3.9l-2-7.4c-0.2,0.1-3.3,0.9-7.5,4l0-0.1
				c-32.5,20.7-12.1,68.1-12.1,68.1c40.7,1.3,54.5-15.3,58.6-22.5c1.6-2.4,3.2-5.2,4.7-8.5l-7-3.2
				C2257.1,704.8,2255.9,706.9,2254.7,708.8z"/>
			<path class="st0" d="M2283.9,673.8l-13.4-3.6l-20.2,6.6l5.9-21.5l-2.9-12.9c3.5-3,6.7-4.4,6.8-4.4l-3-7.1c-0.3,0.1-6,2.6-11.3,8
				c-21.6,19.3-14.1,56.7-14.1,56.7c36.2,7.2,54.2-11.2,59.1-17.4c1.6-1.4,3.3-3,4.9-4.8l-5.7-5.2
				C2288,670.3,2285.9,672.2,2283.9,673.8z"/>
			<path class="st0" d="M2293.1,627.9l-1.5-10.1c3.5-2.2,6.4-2.6,6.6-2.6l-0.7-6.6c-0.4,0-4.8,0-10.3,3.5
				c-26.5,12.7-21.9,48.7-21.9,48.7c33.6,11.3,49.3,0.1,54.8-5.9c1.8-1.5,3.6-3.4,5.4-5.8l-6.2-4.6c-1.3,1.8-2.6,3.1-3.9,4.2
				l-10.5-4.5l-21.3,3.1L2293.1,627.9z"/>
			<g>
				<path class="st0" d="M2254.7,708.8l-14.2-4l-23,7.1l4.6-24.1l-5-12c3.7-3.1,6.4-3.9,6.4-3.9l-2-7.4c-0.2,0.1-3.3,0.9-7.5,4
					l0-0.1c-32.5,20.7-12.1,68.1-12.1,68.1c40.7,1.3,54.5-15.3,58.6-22.5c1.6-2.4,3.2-5.2,4.7-8.5l-7-3.2
					C2257.1,704.8,2255.9,706.9,2254.7,708.8z"/>
				<path class="st0" d="M2283.9,673.8l-13.4-3.6l-20.2,6.6l5.9-21.5l-2.9-12.9c3.5-3,6.7-4.4,6.8-4.4l-3-7.1c-0.3,0.1-6,2.6-11.3,8
					c-21.6,19.3-14.1,56.7-14.1,56.7c36.2,7.2,54.2-11.2,59.1-17.4c1.6-1.4,3.3-3,4.9-4.8l-5.7-5.2
					C2288,670.3,2285.9,672.2,2283.9,673.8z"/>
				<path class="st0" d="M2293.1,627.9l-1.5-10.1c3.5-2.2,6.4-2.6,6.6-2.6l-0.7-6.6c-0.4,0-4.8,0-10.3,3.5
					c-26.5,12.7-21.9,48.7-21.9,48.7c33.6,11.3,49.3,0.1,54.8-5.9c1.8-1.5,3.6-3.4,5.4-5.8l-6.2-4.6c-1.3,1.8-2.6,3.1-3.9,4.2
					l-10.5-4.5l-21.3,3.1L2293.1,627.9z"/>
				<path class="st3" d="M2191.9,644.5c0,0,19.8-66.5,96.6-117.6c0.4-0.3-2.2-16.3-1.8-16.5l6.3-74.5c0,0-31.7,22.9-116.5,107.4
					C2187,575,2196.8,614.7,2191.9,644.5z"/>
				<path class="st4" d="M2323.4,595.7c13.9-8.8,39.3-13.4,52.1-15.2l20.9-127.6c0,0-41.9,12.6-109.7,57.5c-0.4,0.2-0.7,0.5-1.1,0.7
					c-76.8,51.1-92.1,120-92.1,120c4.9-29.8-0.6-62.5-11-94.2c-26.8-81.5-86.5-156.3-86.5-156.3s-10.6,66-35.9,226.6
					c-25.3,160.6,92.1,170.1,92.1,170.1l5.7,1.2c-56.5,257.6,186.7,283,186.7,283l-0.1-1.6c-62-18.6-211.9-85.5-169.7-251.4
					c2.3-11,5.2-21,7-26.8c-8.4-8.4-29.3-34.6-5.3-71.1l0,0c3.3-5.2,6-7.8,6.2-8l2.6,2.8l2.6,2.8c-0.1,0-3.2,3.1-6.8,9.7l8.6,13.5
					l2.3,28.7l20.3-16.9l21.7,3.2c1.9-3.2,4-6.9,6.3-11.2l6.8,3.6c-3.9,7.5-7.4,13.3-10.4,17.7c-5,9.8-17.5,24.3-47.7,27.7
					c-0.2,0.7-0.4,1.4-0.6,2.1c-3.8,20.6-29.5,188.4,146,186.7c-151.7-18.2-134.2-139.9-123-182.9c133,29.3,151-130.1,151-130.1
					l5.5-33.8c-9.1,6.2-16.5,9.9-21.8,12.1c-2.1,1.1-4.8,2.2-8.1,2.8c-0.4,0.1-0.7,0.2-0.8,0.2l0,0c-8.2,1.4-19.9,0.4-35.5-7.7
					C2301.8,633.5,2302.8,605.3,2323.4,595.7z M2260.5,714c-4.1,7.2-17.9,23.8-58.6,22.5c0,0-20.4-47.4,12.1-68.1l0,0.1
					c4.2-3,7.2-3.9,7.5-4l2,7.4c0,0-2.7,0.9-6.4,3.9l5,12l-4.6,24.1l23-7.1l14.2,4c1.2-1.9,2.3-4,3.5-6.5l7,3.2
					C2263.7,708.8,2262.1,711.6,2260.5,714z M2290.8,678.1c-4.9,6.2-22.9,24.6-59.1,17.4c0,0-7.5-37.4,14.1-56.7
					c5.3-5.4,11-7.8,11.3-8l3,7.1c-0.1,0-3.3,1.4-6.8,4.4l2.9,12.9l-5.9,21.5l20.2-6.6l13.4,3.6c2-1.6,4.1-3.5,6.1-5.8l5.7,5.2
					C2294.1,675,2292.4,676.6,2290.8,678.1z M2304.9,644.2l10.5,4.5c1.3-1.1,2.6-2.5,3.9-4.2l6.2,4.6c-1.8,2.4-3.6,4.3-5.4,5.8
					c-5.5,5.9-21.2,17.2-54.8,5.9c0,0-4.6-36,21.9-48.7c5.5-3.4,9.9-3.5,10.3-3.5l0.7,6.6c-0.2,0-3.1,0.4-6.6,2.6l1.5,10.1
					l-9.5,19.4L2304.9,644.2z"/>
			</g>
			<path class="st4" d="M2330.6,608.6l-10.9,15.6l18.9,0.1l10.1,6.4c5-1.8,11.7-4.9,20.2-9.8l2.4-14.9c-5.4,5.8-13.7,13.2-22.5,14.8
				l-14.8-4.7l7.1-13.6c0,0,13.9-9.4,31.6-5l2.3-13.8c-10.5,2.1-28.8,6.5-44.2,14.3L2330.6,608.6z"/>
		</g>
		<g>
			<path class="st0" d="M1607.9,694l-14.3-4l-23.2,7.1l4.7-24.2l-5-12c3.8-3.1,6.4-3.9,6.5-3.9l-2.1-7.5c-0.2,0.1-3.3,0.9-7.5,4
				l0-0.1c-32.7,20.8-12.2,68.5-12.2,68.5c40.9,1.4,54.9-15.4,59-22.6c1.6-2.4,3.2-5.2,4.7-8.5l-7-3.3
				C1610.3,690,1609.1,692.1,1607.9,694z"/>
			<path class="st0" d="M1637.3,658.9l-13.5-3.6l-20.3,6.6l5.9-21.6l-2.9-13c3.5-3,6.8-4.4,6.8-4.4l-3-7.2c-0.3,0.1-6.1,2.6-11.4,8
				c-21.8,19.4-14.2,57-14.2,57c36.5,7.2,54.6-11.2,59.5-17.5c1.6-1.5,3.3-3.1,4.9-4.9l-5.7-5.2
				C1641.4,655.3,1639.3,657.2,1637.3,658.9z"/>
			<path class="st0" d="M1646.5,612.7l-1.5-10.2c3.5-2.2,6.4-2.6,6.7-2.6l-0.7-6.6c-0.4,0-4.9,0-10.4,3.5
				c-26.7,12.8-22.1,49.1-22.1,49.1c33.8,11.4,49.6,0.1,55.1-5.9c1.8-1.5,3.7-3.4,5.5-5.8l-6.2-4.6c-1.3,1.8-2.6,3.2-3.9,4.3
				l-10.6-4.6l-21.4,3.1L1646.5,612.7z"/>
			<path class="st5" d="M1542.8,637.8c0,0,22.9-85.1,100.2-136.5c0.4-0.3-3.3-6.8-2.9-7l6.3-75c0,0-29.6,21.5-114.8,106.6
				C1542.1,557.8,1547.8,607.9,1542.8,637.8z"/>
			<path class="st6" d="M1640.1,494.3c-0.4,0.3-0.7,0.5-1.1,0.7c-77.3,51.4-92.8,120.8-92.8,120.8c5-30-0.6-62.9-11.1-94.8
				c-27-82.1-87.1-157.3-87.1-157.3s-10.7,66.4-36.1,228.1c-25.4,161.7,92.7,171.2,92.7,171.2l5.8,1.2
				c-56.9,259.3,187.9,284.9,187.9,284.9l-0.1-1.6c-62.4-18.7-213.3-86.1-170.8-253c2.3-11.1,5.2-21.1,7-27
				c-8.5-8.4-29.5-34.8-5.3-71.6l0,0c3.3-5.3,6-7.9,6.2-8l2.6,2.8l2.7,2.8c-0.1,0-3.2,3.2-6.9,9.7l8.7,13.6l2.3,28.8l20.5-17
				l21.8,3.2c1.9-3.2,4-6.9,6.3-11.3l6.9,3.6c-4,7.6-7.5,13.4-10.4,17.9c-5.1,9.9-17.6,24.5-48,27.9c-0.2,0.7-0.4,1.4-0.6,2.1
				c-3.8,20.7-29.7,189.7,147,187.9c-152.7-18.3-135-140.8-123.8-184.1c133.9,29.4,152-131,152-131l5.6-34.1
				c-9.2,6.2-16.6,10-21.9,12.2c-2.2,1.1-4.9,2.2-8.2,2.8c-0.4,0.1-0.7,0.2-0.8,0.2l0,0c-8.2,1.5-20,0.4-35.8-7.7
				c0,0,0.9-28.3,21.7-38c14-8.8,39.6-13.5,52.4-15.3l21-128.5C1750.5,436.4,1708.4,449.1,1640.1,494.3z M1613.8,699.3
				c-4.1,7.2-18.1,24-59,22.6c0,0-20.5-47.7,12.2-68.5l0,0.1c4.2-3.1,7.3-3.9,7.5-4l2.1,7.5c0,0-2.7,0.9-6.5,3.9l5,12l-4.7,24.2
				l23.2-7.1l14.3,4c1.2-1.9,2.4-4,3.5-6.5l7,3.3C1617,694.1,1615.4,696.9,1613.8,699.3z M1644.2,663.1c-5,6.3-23.1,24.8-59.5,17.5
				c0,0-7.6-37.6,14.2-57c5.3-5.4,11-7.9,11.4-8l3,7.2c-0.1,0-3.3,1.4-6.8,4.4l2.9,13l-5.9,21.6l20.3-6.6l13.5,3.6
				c2-1.6,4.1-3.6,6.2-5.8l5.7,5.2C1647.5,660.1,1645.9,661.7,1644.2,663.1z M1658.4,629.1l10.6,4.6c1.3-1.1,2.6-2.5,3.9-4.3
				l6.2,4.6c-1.8,2.4-3.7,4.3-5.5,5.8c-5.6,6-21.4,17.3-55.1,5.9c0,0-4.6-36.2,22.1-49.1c5.5-3.4,10-3.5,10.4-3.5l0.7,6.6
				c-0.2,0-3.1,0.4-6.7,2.6l1.5,10.2l-9.5,19.5L1658.4,629.1z"/>
			<path class="st6" d="M1684.3,593.2l-11,15.7l19,0.1l10.2,6.4c5-1.8,11.7-4.9,20.3-9.8l2.4-15c-5.4,5.8-13.8,13.3-22.6,14.9
				l-14.9-4.7l7.1-13.7c0,0,14-9.5,31.8-5.1l2.3-13.9c-10.6,2.1-29,6.5-44.5,14.4L1684.3,593.2z"/>
		</g>
	</g>
	<g>
		<path class="st0" d="M1253.7-648.8l-14.2-4l-23,7.1l4.6-24.1l-5-12c3.7-3.1,6.4-3.9,6.4-3.9l-2-7.4c-0.2,0.1-3.3,0.9-7.5,4l0-0.1
			c-32.5,20.7-12.1,68.1-12.1,68.1c40.7,1.3,54.5-15.3,58.6-22.5c1.6-2.4,3.2-5.2,4.7-8.5l-7-3.2
			C1256-652.7,1254.9-650.6,1253.7-648.8z"/>
		<path class="st0" d="M1282.8-683.7l-13.4-3.6l-20.2,6.6l5.9-21.5l-2.9-12.9c3.5-3,6.7-4.4,6.8-4.4l-3-7.1c-0.3,0.1-6,2.6-11.3,8
			c-21.6,19.3-14.1,56.7-14.1,56.7c36.2,7.2,54.2-11.2,59.1-17.4c1.6-1.4,3.3-3,4.9-4.8l-5.7-5.2
			C1286.9-687.2,1284.9-685.3,1282.8-683.7z"/>
		<path class="st0" d="M1292-729.6l-1.5-10.1c3.5-2.2,6.4-2.6,6.6-2.6l-0.7-6.6c-0.4,0-4.8,0-10.3,3.5
			c-26.5,12.7-21.9,48.7-21.9,48.7c33.6,11.3,49.3,0.1,54.8-5.9c1.8-1.5,3.6-3.4,5.4-5.8l-6.2-4.6c-1.3,1.8-2.6,3.1-3.9,4.2
			l-10.5-4.5l-21.3,3.1L1292-729.6z"/>
		<path class="st1" d="M1190.3-713c0,0,15.2-64.5,92-115.5c0.4-0.3,2.2-4.9,2.6-5.1l7.1-88c0,0-28.7,19.8-113.4,104.3
			C1188.9-785.7,1195.2-742.8,1190.3-713z"/>
		<path class="st2" d="M1285.6-847.2c-0.4,0.2-0.7,0.5-1.1,0.7c-76.8,51.1-92.1,120-92.1,120c4.9-29.8-0.6-62.5-11-94.2
			c-26.8-81.5-86.5-156.3-86.5-156.3s-10.6,66-35.9,226.6c-25.3,160.6,92.1,170.1,92.1,170.1l5.7,1.2
			c-56.5,257.6,186.7,283,186.7,283l-0.1-1.6c-62-18.6-211.9-85.5-169.7-251.4c2.3-11,5.2-21,7-26.8c-8.4-8.4-29.3-34.6-5.3-71.1
			l0,0c3.3-5.2,6-7.8,6.2-8l2.6,2.8l2.6,2.8c-0.1,0-3.2,3.1-6.8,9.7l8.6,13.5l2.3,28.7l20.3-16.9l21.7,3.2c1.9-3.2,4-6.9,6.3-11.2
			l6.8,3.6c-3.9,7.5-7.4,13.3-10.4,17.7c-5,9.8-17.5,24.3-47.7,27.7c-0.2,0.7-0.4,1.4-0.6,2.1c-3.8,20.6-29.5,188.4,146,186.7
			c-151.7-18.2-134.2-139.9-123-182.9c133,29.3,151-130.1,151-130.1l5.5-33.8c-9.1,6.2-16.5,9.9-21.8,12.1c-2.1,1.1-4.8,2.2-8.1,2.8
			c-0.4,0.1-0.7,0.2-0.8,0.2l0,0c-8.2,1.4-19.9,0.4-35.5-7.7c0,0,0.9-28.1,21.6-37.8c13.9-8.8,39.3-13.4,52.1-15.2l20.9-127.6
			C1395.3-904.7,1353.4-892.1,1285.6-847.2z M1259.5-643.5c-4.1,7.2-17.9,23.8-58.6,22.5c0,0-20.4-47.4,12.1-68.1l0,0.1
			c4.2-3,7.2-3.9,7.5-4l2,7.4c0,0-2.7,0.9-6.4,3.9l5,12l-4.6,24.1l23-7.1l14.2,4c1.2-1.9,2.3-4,3.5-6.5l7,3.2
			C1262.7-648.7,1261.1-645.9,1259.5-643.5z M1289.7-679.4c-4.9,6.2-22.9,24.6-59.1,17.4c0,0-7.5-37.4,14.1-56.7
			c5.3-5.4,11-7.8,11.3-8l3,7.1c-0.1,0-3.3,1.4-6.8,4.4l2.9,12.9l-5.9,21.5l20.2-6.6l13.4,3.6c2-1.6,4.1-3.5,6.1-5.8l5.7,5.2
			C1293-682.5,1291.4-680.9,1289.7-679.4z M1303.8-713.3l10.5,4.5c1.3-1.1,2.6-2.5,3.9-4.2l6.2,4.6c-1.8,2.4-3.6,4.3-5.4,5.8
			c-5.5,5.9-21.2,17.2-54.8,5.9c0,0-4.6-36,21.9-48.7c5.5-3.4,9.9-3.5,10.3-3.5l0.7,6.6c-0.2,0-3.1,0.4-6.6,2.6l1.5,10.1l-9.5,19.4
			L1303.8-713.3z"/>
		<path class="st2" d="M1329.6-748.9l-10.9,15.6l18.9,0.1l10.1,6.4c5-1.8,11.7-4.9,20.2-9.8l2.4-14.9c-5.4,5.8-13.7,13.2-22.5,14.8
			l-14.8-4.7l7.1-13.6c0,0,13.9-9.4,31.6-5l2.3-13.8c-10.5,2.1-28.8,6.5-44.2,14.3L1329.6-748.9z"/>
	</g>
	<rect id="_x3C_Slice_x3E_" x="1406.7" y="359" class="st0" width="350" height="692"/>
	<rect id="_x3C_Slice_x3E__1_" x="2055.7" y="375" class="st0" width="341" height="687"/>
	<rect id="_x3C_Slice_x3E__2_" x="2671.7" y="374" class="st0" width="342" height="690"/>
</g>
<g id="Layer_2">
	<g>
		<path class="st0" d="M202.5,339l-14.3-4l-23.2,7.1l4.7-24.2l-5-12c3.8-3.1,6.4-3.9,6.5-3.9l-2.1-7.5c-0.2,0.1-3.3,0.9-7.5,4l0-0.1
			c-32.7,20.8-12.2,68.5-12.2,68.5c40.9,1.4,54.9-15.4,59-22.6c1.6-2.4,3.2-5.2,4.7-8.5l-7-3.3C204.9,335,203.7,337.1,202.5,339z"/>
		<path class="st0" d="M231.9,303.9l-13.5-3.6l-20.3,6.6l5.9-21.6l-2.9-13c3.5-3,6.8-4.4,6.8-4.4l-3-7.2c-0.3,0.1-6.1,2.6-11.4,8
			c-21.8,19.4-14.2,57-14.2,57c36.5,7.2,54.6-11.2,59.5-17.5c1.6-1.5,3.3-3.1,4.9-4.9l-5.7-5.2C236,300.3,233.9,302.2,231.9,303.9z"
			/>
		<path class="st0" d="M241.1,257.7l-1.5-10.2c3.5-2.2,6.4-2.6,6.7-2.6l-0.7-6.6c-0.4,0-4.9,0-10.4,3.5
			c-26.7,12.8-22.1,49.1-22.1,49.1c33.8,11.4,49.6,0.1,55.1-5.9c1.8-1.5,3.7-3.4,5.5-5.8l-6.2-4.6c-1.3,1.8-2.6,3.2-3.9,4.3
			l-10.6-4.6l-21.4,3.1L241.1,257.7z"/>
		<path class="st5" d="M137.4,282.8c0,0,22.9-85.1,100.2-136.5c0.4-0.3-3.3-6.8-2.9-7l6.3-75c0,0-29.6,21.5-114.8,106.6
			C136.7,202.8,142.4,252.9,137.4,282.8z"/>
		<path class="st6" d="M234.7,139.3c-0.4,0.3-0.7,0.5-1.1,0.7c-77.3,51.4-92.8,120.8-92.8,120.8c5-30-0.6-62.9-11.1-94.8
			C102.7,83.9,42.7,8.7,42.7,8.7S32,75.1,6.6,236.8C-18.8,398.4,99.3,408,99.3,408l5.8,1.2C48.2,668.5,293,694.1,293,694.1l-0.1-1.6
			c-62.4-18.7-213.3-86.1-170.8-253c2.3-11.1,5.2-21.1,7-27c-8.5-8.4-29.5-34.8-5.3-71.6l0,0c3.3-5.3,6-7.9,6.2-8l2.6,2.8l2.7,2.8
			c-0.1,0-3.2,3.2-6.9,9.7l8.7,13.6l2.3,28.8l20.5-17l21.8,3.2c1.9-3.2,4-6.9,6.3-11.3l6.9,3.6c-4,7.6-7.5,13.4-10.4,17.9
			c-5.1,9.9-17.6,24.5-48,27.9c-0.2,0.7-0.4,1.4-0.6,2.1c-3.8,20.7-29.7,189.7,147,187.9c-152.7-18.3-135-140.8-123.8-184.1
			c133.9,29.4,152-131,152-131l5.6-34.1c-9.2,6.2-16.6,10-21.9,12.2c-2.2,1.1-4.9,2.2-8.2,2.8c-0.4,0.1-0.7,0.2-0.8,0.2l0,0
			c-8.2,1.5-20,0.4-35.8-7.7c0,0,0.9-28.3,21.7-38c14-8.8,39.6-13.5,52.4-15.3l21-128.5C345.1,81.4,303,94.1,234.7,139.3z
			 M208.4,344.3c-4.1,7.2-18.1,24-59,22.6c0,0-20.5-47.7,12.2-68.5l0,0.1c4.2-3.1,7.3-3.9,7.5-4l2.1,7.5c0,0-2.7,0.9-6.5,3.9l5,12
			l-4.7,24.2l23.2-7.1l14.3,4c1.2-1.9,2.4-4,3.5-6.5l7,3.3C211.6,339.1,210,341.9,208.4,344.3z M238.8,308.1
			c-5,6.3-23.1,24.8-59.5,17.5c0,0-7.6-37.6,14.2-57c5.3-5.4,11-7.9,11.4-8l3,7.2c-0.1,0-3.3,1.4-6.8,4.4l2.9,13l-5.9,21.6l20.3-6.6
			l13.5,3.6c2-1.6,4.1-3.6,6.2-5.8l5.7,5.2C242.1,305.1,240.5,306.7,238.8,308.1z M253,274.1l10.6,4.6c1.3-1.1,2.6-2.5,3.9-4.3
			l6.2,4.6c-1.8,2.4-3.7,4.3-5.5,5.8c-5.6,6-21.4,17.3-55.1,5.9c0,0-4.6-36.2,22.1-49.1c5.5-3.4,10-3.5,10.4-3.5l0.7,6.6
			c-0.2,0-3.1,0.4-6.7,2.6l1.5,10.2l-9.5,19.5L253,274.1z"/>
		<path class="st6" d="M278.9,238.2l-11,15.7l19,0.1l10.2,6.4c5-1.8,11.7-4.9,20.3-9.8l2.4-15c-5.4,5.8-13.8,13.3-22.6,14.9
			l-14.9-4.7l7.1-13.7c0,0,14-9.5,31.8-5.1l2.3-13.9c-10.6,2.1-29,6.5-44.5,14.4L278.9,238.2z"/>
	</g>
</g>
</svg>
