<?xml version="1.0" encoding="UTF-8"?>
<svg width="60px" height="60px" viewBox="0 0 60 60" version="1.1" xmlns="http://www.w3.org/2000/svg" xmlns:xlink="http://www.w3.org/1999/xlink">
    <!-- Generator: Sketch 39 (31667) - http://www.bohemiancoding.com/sketch -->
    <title>culture-diff</title>
    <desc>Created with Sketch.</desc>
    <defs></defs>
    <g id="Symbols" stroke="none" stroke-width="1" fill="none" fill-rule="evenodd">
        <g id="about-us-section" transform="translate(-293.000000, -89.000000)">
            <g id="culture-diff" transform="translate(293.000000, 89.000000)">
                <g id="11">
                    <g id="Layer_1">
                        <g id="Group">
                            <rect id="Rectangle-path" fill="#1C75BC" x="3.67741935" y="38.4193548" width="13.1612903" height="0.483870968"></rect>
                            <rect id="Rectangle-path" fill="#1C75BC" x="4.35483871" y="39.9677419" width="13.1612903" height="0.483870968"></rect>
                            <rect id="Rectangle-path" fill="#1C75BC" x="5.12903226" y="41.6129032" width="13.1612903" height="0.483870968"></rect>
                            <rect id="Rectangle-path" fill="#1C75BC" x="5.90322581" y="43.1612903" width="11.6129032" height="0.483870968"></rect>
                            <g transform="translate(41.612903, 37.741935)" id="Rectangle-path" fill="#1C75BC">
                                <rect x="0.193548387" y="0.677419355" width="14.516129" height="0.483870968"></rect>
                                <rect x="0.0967741935" y="2.22580645" width="14.0322581" height="0.483870968"></rect>
                                <rect x="0.290322581" y="3.87096774" width="12.9677419" height="0.483870968"></rect>
                                <rect x="0.193548387" y="5.41935484" width="12.0967742" height="0.483870968"></rect>
                            </g>
                            <g transform="translate(16.451613, 51.290323)" id="Rectangle-path" fill="#1C75BC">
                                <rect x="0.193548387" y="0.193548387" width="25.4516129" height="0.483870968"></rect>
                                <rect x="0.774193548" y="1.83870968" width="24.2903226" height="0.483870968"></rect>
                                <rect x="3.09677419" y="3.38709677" width="20.4193548" height="0.483870968"></rect>
                                <rect x="6.09677419" y="4.93548387" width="14.0322581" height="0.483870968"></rect>
                            </g>
                            <path d="M29.0322581,59.7096774 C28.3548387,59.7096774 27.6774194,59.6129032 27.0967742,59.6129032 L27.1935484,58.6451613 C27.8709677,58.7419355 28.4516129,58.7419355 29.1290323,58.7419355 L29.0322581,59.7096774 L29.0322581,59.7096774 Z M31.0645161,59.7096774 L31.0645161,58.7419355 C31.7419355,58.7419355 32.3225806,58.6451613 33,58.6451613 L33.0967742,59.6129032 C32.4193548,59.6129032 31.7419355,59.6129032 31.0645161,59.7096774 L31.0645161,59.7096774 Z M25.1612903,59.3225806 C24.483871,59.2258065 23.9032258,59.1290323 23.2258065,58.9354839 L23.4193548,57.9677419 C24,58.1612903 24.6774194,58.2580645 25.2580645,58.3548387 L25.1612903,59.3225806 L25.1612903,59.3225806 Z M35.0322581,59.2258065 L34.8387097,58.2580645 C35.4193548,58.1612903 36.0967742,58.0645161 36.6774194,57.8709677 L36.8709677,58.8387097 C36.2903226,59.0322581 35.6129032,59.1290323 35.0322581,59.2258065 L35.0322581,59.2258065 Z M21.2903226,58.3548387 C20.6129032,58.1612903 20.0322581,57.9677419 19.4516129,57.6774194 L19.8387097,56.8064516 C20.4193548,57 21,57.2903226 21.6774194,57.483871 L21.2903226,58.3548387 L21.2903226,58.3548387 Z M38.9032258,58.3548387 L38.6129032,57.3870968 C39.1935484,57.1935484 39.8709677,57 40.4516129,56.7096774 L40.8387097,57.5806452 C40.1612903,57.9677419 39.483871,58.1612903 38.9032258,58.3548387 L38.9032258,58.3548387 Z M17.516129,56.9032258 C16.9354839,56.6129032 16.3548387,56.3225806 15.7741935,56.0322581 L16.2580645,55.1612903 C16.8387097,55.4516129 17.4193548,55.7419355 18,56.0322581 L17.516129,56.9032258 L17.516129,56.9032258 Z M42.5806452,56.9032258 L42.1935484,56.0322581 C42.7741935,55.7419355 43.3548387,55.4516129 43.9354839,55.1612903 L44.4193548,56.0322581 C43.7419355,56.3225806 43.1612903,56.6129032 42.5806452,56.9032258 L42.5806452,56.9032258 Z M14.0322581,55.0645161 C13.4516129,54.6774194 12.9677419,54.2903226 12.3870968,53.9032258 L12.9677419,53.1290323 C13.4516129,53.516129 14.0322581,53.9032258 14.516129,54.1935484 L14.0322581,55.0645161 L14.0322581,55.0645161 Z M46.0645161,54.9677419 L45.483871,54.1935484 C46.0645161,53.8064516 46.5483871,53.516129 47.0322581,53.1290323 L47.6129032,53.9032258 C47.1290323,54.2903226 46.6451613,54.6774194 46.0645161,54.9677419 L46.0645161,54.9677419 Z M10.8387097,52.6451613 C10.3548387,52.2580645 9.87096774,51.7741935 9.38709677,51.2903226 L10.0645161,50.6129032 C10.5483871,51.0967742 11.0322581,51.483871 11.516129,51.8709677 L10.8387097,52.6451613 L10.8387097,52.6451613 Z M49.2580645,52.6451613 L48.6774194,51.8709677 C49.1612903,51.483871 49.6451613,51 50.1290323,50.6129032 L50.8064516,51.2903226 C50.2258065,51.7741935 49.7419355,52.2580645 49.2580645,52.6451613 L49.2580645,52.6451613 Z M8.03225806,49.9354839 C7.5483871,49.4516129 7.16129032,48.9677419 6.77419355,48.3870968 L7.5483871,47.8064516 C7.93548387,48.2903226 8.32258065,48.7741935 8.80645161,49.2580645 L8.03225806,49.9354839 L8.03225806,49.9354839 Z M52.0645161,49.8387097 L51.3870968,49.1612903 C51.7741935,48.6774194 52.2580645,48.1935484 52.6451613,47.7096774 L53.4193548,48.2903226 C52.9354839,48.8709677 52.5483871,49.3548387 52.0645161,49.8387097 L52.0645161,49.8387097 Z M5.51612903,46.8387097 C5.12903226,46.2580645 4.74193548,45.7741935 4.4516129,45.1935484 L5.32258065,44.7096774 C5.61290323,45.2903226 6,45.7741935 6.38709677,46.3548387 L5.51612903,46.8387097 L5.51612903,46.8387097 Z M54.5806452,46.7419355 L53.8064516,46.1612903 C54.1935484,45.6774194 54.483871,45.0967742 54.8709677,44.516129 L55.7419355,45 C55.2580645,45.6774194 54.9677419,46.2580645 54.5806452,46.7419355 L54.5806452,46.7419355 Z M3.48387097,43.3548387 C3.19354839,42.7741935 2.90322581,42.1935484 2.61290323,41.516129 L3.48387097,41.1290323 C3.77419355,41.7096774 3.96774194,42.2903226 4.25806452,42.8709677 L3.48387097,43.3548387 L3.48387097,43.3548387 Z M56.6129032,43.3548387 L55.7419355,42.8709677 C56.0322581,42.2903226 56.3225806,41.7096774 56.516129,41.1290323 L57.3870968,41.516129 C57.1935484,42.1935484 56.9032258,42.7741935 56.6129032,43.3548387 L56.6129032,43.3548387 Z M1.93548387,39.7741935 C1.74193548,39.1935484 1.5483871,38.516129 1.35483871,37.8387097 L2.32258065,37.5483871 C2.51612903,38.1290323 2.70967742,38.8064516 2.90322581,39.3870968 L1.93548387,39.7741935 L1.93548387,39.7741935 Z M58.1612903,39.6774194 L57.2903226,39.3870968 C57.483871,38.8064516 57.6774194,38.1290323 57.8709677,37.5483871 L58.8387097,37.8387097 C58.5483871,38.4193548 58.3548387,39.0967742 58.1612903,39.6774194 L58.1612903,39.6774194 Z M0.870967742,35.9032258 C0.774193548,35.2258065 0.580645161,34.5483871 0.580645161,33.9677419 L1.5483871,33.8709677 C1.64516129,34.5483871 1.74193548,35.1290323 1.83870968,35.8064516 L0.870967742,35.9032258 L0.870967742,35.9032258 Z M59.2258065,35.9032258 L58.2580645,35.7096774 C58.3548387,35.1290323 58.4516129,34.4516129 58.5483871,33.7741935 L59.516129,33.8709677 C59.4193548,34.5483871 59.3225806,35.2258065 59.2258065,35.9032258 L59.2258065,35.9032258 Z M0.387096774,31.9354839 C0.387096774,31.2580645 0.290322581,30.5806452 0.290322581,29.9032258 L1.25806452,29.9032258 C1.25806452,30.5806452 1.25806452,31.1612903 1.35483871,31.8387097 L0.387096774,31.9354839 L0.387096774,31.9354839 Z M59.7096774,31.9354839 L58.7419355,31.8387097 C58.7419355,31.1612903 58.8387097,30.5806452 58.8387097,29.9032258 L58.8387097,29.8064516 L59.8064516,29.8064516 L59.8064516,29.9032258 C59.8064516,30.5806452 59.7096774,31.2580645 59.7096774,31.9354839 L59.7096774,31.9354839 Z M1.35483871,28.0645161 L0.387096774,27.9677419 C0.387096774,27.2903226 0.483870968,26.6129032 0.580645161,26.0322581 L1.5483871,26.1290323 C1.4516129,26.8064516 1.35483871,27.483871 1.35483871,28.0645161 L1.35483871,28.0645161 Z M58.7419355,27.8709677 C58.7419355,27.1935484 58.6451613,26.6129032 58.5483871,25.9354839 L59.516129,25.8387097 C59.6129032,26.516129 59.7096774,27.1935484 59.7096774,27.7741935 L58.7419355,27.8709677 L58.7419355,27.8709677 Z M1.83870968,24.2903226 L0.870967742,24.0967742 C0.967741935,23.4193548 1.16129032,22.8387097 1.35483871,22.1612903 L2.32258065,22.4516129 C2.12903226,23.0322581 1.93548387,23.6129032 1.83870968,24.2903226 L1.83870968,24.2903226 Z M58.1612903,24.0967742 C58.0645161,23.4193548 57.8709677,22.8387097 57.6774194,22.2580645 L58.6451613,21.9677419 C58.8387097,22.6451613 58.9354839,23.2258065 59.1290323,23.9032258 L58.1612903,24.0967742 L58.1612903,24.0967742 Z M2.80645161,20.516129 L1.93548387,20.2258065 C2.12903226,19.6451613 2.41935484,18.9677419 2.61290323,18.3870968 L3.48387097,18.7741935 C3.29032258,19.3548387 3,19.9354839 2.80645161,20.516129 L2.80645161,20.516129 Z M57.1935484,20.4193548 C57,19.8387097 56.7096774,19.2580645 56.516129,18.6774194 L57.3870968,18.2903226 C57.6774194,18.8709677 57.8709677,19.5483871 58.0645161,20.1290323 L57.1935484,20.4193548 L57.1935484,20.4193548 Z M4.35483871,17.0322581 L3.48387097,16.5483871 C3.77419355,15.9677419 4.06451613,15.3870968 4.4516129,14.8064516 L5.32258065,15.2903226 C4.93548387,15.8709677 4.5483871,16.4516129 4.35483871,17.0322581 L4.35483871,17.0322581 Z M55.6451613,16.8387097 C55.3548387,16.2580645 55.0645161,15.6774194 54.6774194,15.1935484 L55.5483871,14.7096774 C55.8387097,15.2903226 56.2258065,15.8709677 56.516129,16.4516129 L55.6451613,16.8387097 L55.6451613,16.8387097 Z M6.29032258,13.7419355 L5.51612903,13.1612903 C5.90322581,12.5806452 6.29032258,12.0967742 6.67741935,11.516129 L7.4516129,12.0967742 C6.96774194,12.6774194 6.58064516,13.1612903 6.29032258,13.7419355 L6.29032258,13.7419355 Z M53.7096774,13.5483871 C53.3225806,13.0645161 52.9354839,12.483871 52.5483871,12 L53.3225806,11.4193548 C53.7096774,11.9032258 54.0967742,12.483871 54.483871,12.9677419 L53.7096774,13.5483871 L53.7096774,13.5483871 Z M8.61290323,10.6451613 L7.93548387,9.96774194 C8.41935484,9.48387097 8.80645161,9 9.29032258,8.51612903 L9.96774194,9.19354839 C9.48387097,9.77419355 9.09677419,10.1612903 8.61290323,10.6451613 L8.61290323,10.6451613 Z M51.2903226,10.5483871 C50.9032258,10.0645161 50.4193548,9.58064516 49.9354839,9.19354839 L50.6129032,8.51612903 C51.0967742,9 51.5806452,9.48387097 51.9677419,9.96774194 L51.2903226,10.5483871 L51.2903226,10.5483871 Z M11.4193548,8.03225806 L10.8387097,7.25806452 C11.3225806,6.87096774 11.9032258,6.38709677 12.3870968,6 L12.9677419,6.77419355 C12.3870968,7.16129032 11.9032258,7.5483871 11.4193548,8.03225806 L11.4193548,8.03225806 Z M48.5806452,7.93548387 C48.0967742,7.5483871 47.6129032,7.16129032 47.0322581,6.77419355 L47.6129032,6 C48.0967742,6.38709677 48.6774194,6.77419355 49.1612903,7.25806452 L48.5806452,7.93548387 L48.5806452,7.93548387 Z M14.516129,5.70967742 L14.0322581,4.93548387 C14.6129032,4.5483871 15.1935484,4.25806452 15.7741935,3.87096774 L16.2580645,4.74193548 C15.5806452,5.03225806 15,5.32258065 14.516129,5.70967742 L14.516129,5.70967742 Z M45.3870968,5.61290323 C44.8064516,5.22580645 44.3225806,4.93548387 43.7419355,4.64516129 L44.2258065,3.77419355 C44.8064516,4.06451613 45.3870968,4.4516129 45.9677419,4.74193548 L45.3870968,5.61290323 L45.3870968,5.61290323 Z M17.8064516,3.87096774 L17.4193548,3 C18,2.70967742 18.6774194,2.41935484 19.2580645,2.22580645 L19.6451613,3.09677419 C18.9677419,3.29032258 18.3870968,3.58064516 17.8064516,3.87096774 L17.8064516,3.87096774 Z M42.0967742,3.77419355 C41.516129,3.48387097 40.9354839,3.29032258 40.3548387,3 L40.7419355,2.12903226 C41.3225806,2.32258065 42,2.61290323 42.5806452,2.90322581 L42.0967742,3.77419355 L42.0967742,3.77419355 Z M21.3870968,2.51612903 L21.0967742,1.5483871 C21.7741935,1.35483871 22.3548387,1.16129032 23.0322581,1.06451613 L23.2258065,2.03225806 C22.6451613,2.12903226 22.0645161,2.32258065 21.3870968,2.51612903 L21.3870968,2.51612903 Z M38.4193548,2.41935484 C37.8387097,2.22580645 37.1612903,2.03225806 36.5806452,1.93548387 L36.7741935,0.967741935 C37.4516129,1.16129032 38.0322581,1.25806452 38.7096774,1.4516129 L38.4193548,2.41935484 L38.4193548,2.41935484 Z M25.1612903,1.5483871 L24.9677419,0.580645161 C25.6451613,0.483870968 26.3225806,0.387096774 26.9032258,0.290322581 L27,1.25806452 C26.4193548,1.35483871 25.7419355,1.4516129 25.1612903,1.5483871 L25.1612903,1.5483871 Z M34.7419355,1.5483871 C34.0645161,1.4516129 33.483871,1.35483871 32.8064516,1.25806452 L32.9032258,0.290322581 C33.5806452,0.387096774 34.2580645,0.483870968 34.8387097,0.580645161 L34.7419355,1.5483871 L34.7419355,1.5483871 Z M28.9354839,1.16129032 L28.9354839,0.193548387 L30.9677419,0.193548387 L30.9677419,1.16129032 L28.9354839,1.16129032 L28.9354839,1.16129032 Z" id="Shape" fill="#D9DDE0"></path>
                            <g opacity="0.62" transform="translate(39.677419, 14.516129)" id="Shape" fill="#738E98">
                                <path d="M14.516129,0.774193548 C15,2.80645161 15.483871,4.83870968 16.1612903,6.87096774 C17.0322581,9.67741935 17.3225806,12.483871 17.2258065,15.2903226 C17.1290323,17.4193548 17.2258065,19.5483871 17.2258065,21.6774194 C17.2258065,22.0645161 17.2258065,22.4516129 17.1290323,22.9354839 L10.5483871,22.9354839 C10.5483871,21.7741935 10.4516129,20.6129032 10.5483871,19.5483871 C10.6451613,18.1935484 10.0645161,17.4193548 9,16.6451613 C8.03225806,17.3225806 7.35483871,18.1935484 7.4516129,19.5483871 C7.5483871,20.6129032 7.4516129,21.7741935 7.4516129,23.0322581 C5.22580645,23.1290323 3.09677419,23.0322581 0.870967742,23.0322581 C0.870967742,22.6451613 0.774193548,22.2580645 0.774193548,21.9677419 L0.774193548,11.516129 C0.774193548,11.1290323 0.870967742,10.6451613 0.967741935,10.2580645 C1.4516129,8.41935484 2.03225806,6.48387097 2.51612903,4.64516129 C2.80645161,3.67741935 2.90322581,2.70967742 3.19354839,1.74193548 C3.29032258,1.35483871 3.38709677,1.06451613 3.67741935,0.774193548 C3.96774194,1.83870968 4.16129032,3 4.4516129,4.06451613 C4.74193548,5.03225806 5.03225806,5.90322581 5.32258065,6.87096774 C5.51612903,7.35483871 5.61290323,7.93548387 5.80645161,8.51612903 C6.38709677,10.2580645 6.58064516,12 6.48387097,13.8387097 L6.48387097,16.0645161 C6.58064516,16.0645161 6.67741935,16.0645161 6.77419355,16.1612903 C7.4516129,14.6129032 8.22580645,12.9677419 9,11.1290323 C10.0645161,12.8709677 10.5483871,14.516129 11.516129,16.3548387 C11.6129032,15.9677419 11.7096774,15.7741935 11.6129032,15.5806452 C11.2258065,11.6129032 12.3870968,7.93548387 13.3548387,4.25806452 C13.6451613,3.19354839 13.9354839,2.03225806 14.2258065,0.967741935 C14.3225806,0.774193548 14.4193548,0.774193548 14.516129,0.774193548 L14.516129,0.774193548 Z M15.1935484,13.6451613 C15.3870968,11.7096774 15.6774194,9.77419355 14.4193548,7.93548387 C13.1612903,9.87096774 13.3548387,11.4193548 13.4516129,13.4516129 C13.4516129,13.5483871 13.6451613,13.6451613 13.8387097,13.7419355 C14.3225806,12.483871 13.6451613,11.1290323 14.4193548,9.67741935 C14.8064516,10.5483871 14.7096774,11.2258065 14.8064516,11.8064516 C14.8064516,12.483871 14.516129,13.1612903 15.1935484,13.6451613 L15.1935484,13.6451613 Z M3.58064516,9.77419355 C4.35483871,11.0322581 3.58064516,12.483871 4.06451613,13.7419355 C5.03225806,12.9677419 4.64516129,9.58064516 3.48387097,7.93548387 C2.51612903,9.67741935 2.22580645,12.2903226 2.90322581,13.8387097 C3.58064516,12.483871 2.90322581,11.0322581 3.58064516,9.77419355 L3.58064516,9.77419355 Z M15.3870968,15.0967742 C14.516129,16.6451613 14.516129,18.0967742 14.9032258,19.6451613 C15.483871,18.7741935 14.8064516,17.6129032 15.5806452,16.5483871 C15.6774194,17.8064516 15.6774194,18.6774194 15.7741935,19.6451613 L16.0645161,19.6451613 C16.1612903,18.0967742 16.3548387,16.6451613 15.3870968,15.0967742 L15.3870968,15.0967742 Z M4.5483871,15.1935484 C3.77419355,16.6451613 3.58064516,18.7741935 4.35483871,19.7419355 C4.35483871,18.6774194 4.4516129,17.7096774 4.4516129,16.7419355 L4.74193548,16.7419355 C4.74193548,17.2258065 4.83870968,17.7096774 4.83870968,18.1935484 C4.93548387,18.6774194 4.64516129,19.1612903 5.12903226,19.6451613 C5.61290323,18 5.41935484,16.4516129 4.5483871,15.1935484 L4.5483871,15.1935484 Z M13.7419355,19.5483871 C14.516129,18.2903226 14.2258065,16.4516129 13.4516129,15.2903226 C12.5806452,16.6451613 12.3870968,18.483871 13.0645161,19.6451613 C13.4516129,18.6774194 12.9677419,17.6129032 13.6451613,16.7419355 C13.6451613,17.7096774 13.6451613,18.6774194 13.7419355,19.5483871 L13.7419355,19.5483871 Z M1.93548387,19.5483871 L2.32258065,19.5483871 C2.32258065,18.5806452 2.41935484,17.7096774 2.41935484,16.7419355 L2.70967742,16.7419355 C3.19354839,17.6129032 2.61290323,18.6774194 3.19354839,19.5483871 C3.38709677,18 3.58064516,16.5483871 2.61290323,15.0967742 C1.74193548,16.5483871 1.83870968,18.0967742 1.93548387,19.5483871 L1.93548387,19.5483871 Z"></path>
                            </g>
                            <g opacity="0.62" transform="translate(0.967742, 14.516129)" fill="#738E98">
                                <g opacity="0.54" transform="translate(0.000000, 1.935484)" id="Shape">
                                    <path d="M16.5483871,14.7096774 C16.2580645,14.6129032 17.3225806,14.4193548 16.1612903,13.0645161 C15.483871,12.2903226 14.9032258,12 13.3548387,11.8064516 C13.3548387,11.3225806 14.1290323,11.0322581 14.1290323,10.6451613 C15.2903226,10.4516129 15.5806452,9.48387097 16.3548387,8.32258065 C14.516129,7.4516129 12.3870968,6.77419355 10.8387097,5.61290323 L10.8387097,4.4516129 C11.8064516,4.16129032 12.6774194,3.67741935 13.4516129,3 C12.2903226,2.22580645 11.1290323,1.5483871 9.96774194,0.967741935 C9.58064516,0.774193548 9.48387097,0.967741935 9.09677419,1.06451613 C8.80645161,0.967741935 8.61290323,0.774193548 8.22580645,0.967741935 C7.06451613,1.5483871 5.90322581,2.22580645 4.74193548,3 C5.51612903,3.67741935 6.38709677,4.16129032 7.35483871,4.4516129 L7.35483871,5.61290323 C5.80645161,6.77419355 3.58064516,7.93548387 1.64516129,8.80645161 C2.51612903,9.96774194 3.77419355,10.3548387 4.93548387,10.5483871 C4.93548387,10.9354839 4.93548387,11.3225806 4.83870968,11.8064516 C3.38709677,12 2.70967742,12.2903226 2.03225806,13.0645161 C0.870967742,14.4193548 0.483870968,14.3225806 0.0967741935,14.4193548 C0.387096774,15 1.16129032,15.5806452 2.22580645,15.7741935 L2.22580645,20.9032258 L7.06451613,20.9032258 L7.06451613,19.5483871 C7.16129032,18.483871 7.93548387,17.7096774 9,17.6129032 C10.0645161,17.7096774 10.8387097,18.483871 10.9354839,19.5483871 L10.9354839,20.9032258 L15.7741935,20.9032258 L15.7741935,15.7741935 C17.0322581,15.5806452 16.2580645,15.2903226 16.5483871,14.7096774 L16.5483871,14.7096774 Z M8.61290323,4.64516129 L9.29032258,4.64516129 L9.29032258,4.64516129 L9.29032258,4.64516129 L9.29032258,4.64516129 L9.29032258,4.64516129 L9.96774194,4.64516129 L9.96774194,5.41935484 C9.87096774,5.51612903 9.58064516,5.51612903 9.29032258,5.51612903 C9,5.51612903 8.70967742,5.51612903 8.61290323,5.41935484 C8.51612903,5.22580645 8.61290323,5.03225806 8.61290323,4.64516129 L8.61290323,4.64516129 Z M12.0967742,11.8064516 L9.29032258,11.8064516 L9.29032258,11.8064516 L9.29032258,11.8064516 L9.29032258,11.8064516 L9.29032258,11.8064516 L6.48387097,11.8064516 L6.48387097,10.7419355 L9.29032258,10.7419355 L9.29032258,10.7419355 L9.29032258,10.7419355 L9.29032258,10.7419355 L9.29032258,10.7419355 L12.0967742,10.7419355 C12,11.1290323 12.0967742,11.516129 12.0967742,11.8064516 L12.0967742,11.8064516 Z"></path>
                                </g>
                                <g opacity="0.54" transform="translate(7.741935, 0.000000)" id="Oval">
                                    <ellipse cx="1.4516129" cy="1.64516129" rx="0.967741935" ry="0.967741935"></ellipse>
                                </g>
                            </g>
                            <ellipse id="Oval" fill="#F2D7A4" cx="18.1935484" cy="16.0645161" rx="0.774193548" ry="0.774193548"></ellipse>
                            <ellipse id="Oval" fill="#F2D7A4" cx="38.4193548" cy="15.483871" rx="0.774193548" ry="0.774193548"></ellipse>
                            <circle id="Oval" fill="#F2D7A4" cx="48.0967742" cy="19.4516129" r="0.774193548"></circle>
                            <ellipse id="Oval" fill="#F2D7A4" cx="15.2903226" cy="12.7741935" rx="0.387096774" ry="0.387096774"></ellipse>
                            <ellipse id="Oval" fill="#F2D7A4" cx="35.516129" cy="9.67741935" rx="0.387096774" ry="0.387096774"></ellipse>
                            <ellipse id="Oval" fill="#F2D7A4" cx="18.9677419" cy="8.51612903" rx="0.387096774" ry="0.387096774"></ellipse>
                            <ellipse id="Oval" fill="#F2D7A4" cx="22.3548387" cy="11.4193548" rx="0.387096774" ry="0.387096774"></ellipse>
                            <circle id="Oval" fill="#F2D7A4" cx="40.6451613" cy="11.7096774" r="0.387096774"></circle>
                            <ellipse id="Oval" fill="#F2D7A4" cx="50.4193548" cy="13.5483871" rx="0.387096774" ry="0.387096774"></ellipse>
                            <ellipse id="Oval" fill="#F2D7A4" cx="46.6451613" cy="14.7096774" rx="0.387096774" ry="0.387096774"></ellipse>
                            <path d="M42.2903226,50.3225806 L41.8064516,50.3225806 L28.2580645,50.3225806 L27.7741935,50.3225806 L16.6451613,50.3225806 L16.1612903,50.3225806 L16.1612903,49.8387097 L16.1612903,48.9677419 L16.1612903,48.3870968 L16.1612903,29.2258065 L16.1612903,29.1290323 L16.2580645,29.0322581 C18.5806452,25.2580645 22.5483871,18.1935484 25.4516129,13.0645161 C27.0967742,10.0645161 28.4516129,7.74193548 28.8387097,7.06451613 L29.0322581,6.77419355 L29.4193548,6.19354839 L29.7096774,6.87096774 C29.7096774,6.87096774 29.8064516,6.96774194 29.9032258,7.25806452 C32.7096774,12.3870968 39.5806452,24.8709677 42.0967742,29.1290323 L42.1935484,29.2258065 L42.1935484,29.3225806 C42.1935484,30.1935484 42.2903226,42.2903226 42.1935484,48.483871 L42.1935484,49.0645161 L42.1935484,49.9354839 L42.2903226,50.3225806 L42.2903226,50.3225806 Z M28.7419355,49.2580645 L41.3225806,49.2580645 L41.3225806,48.8709677 L41.3225806,48.2903226 L41.3225806,29.3225806 C38.7096774,25.0645161 32.3225806,13.2580645 29.3225806,7.93548387 C28.7419355,9 27.5806452,10.9354839 26.2258065,13.3548387 C23.3225806,18.483871 19.4516129,25.4516129 17.1290323,29.3225806 C17.1290323,30.8709677 17.0322581,42.3870968 17.1290323,48.2903226 L17.1290323,48.8709677 L17.1290323,49.2580645 L28.2580645,49.2580645 L28.7419355,49.2580645 L28.7419355,49.2580645 L28.7419355,49.2580645 Z M40.5483871,48.6774194 L29.7096774,48.6774194 L29.7096774,41.4193548 L30.1935484,41.4193548 L35.2258065,41.4193548 L40.1612903,41.4193548 L40.6451613,41.4193548 L40.6451613,41.9032258 L40.6451613,45.0967742 L40.6451613,48.1935484 L40.6451613,48.6774194 L40.5483871,48.6774194 Z M30.6774194,47.7096774 L39.5806452,47.7096774 L39.5806452,45 L39.5806452,42.2903226 L35.1290323,42.2903226 L30.5806452,42.2903226 L30.5806452,47.7096774 L30.6774194,47.7096774 Z M28.6451613,48.5806452 L17.8064516,48.5806452 L17.8064516,48.0967742 L17.8064516,45 L17.8064516,41.8064516 L17.8064516,41.3225806 L18.2903226,41.3225806 L23.2258065,41.3225806 L28.2580645,41.3225806 L28.7419355,41.3225806 L28.7419355,48.5806452 L28.6451613,48.5806452 Z M18.7741935,47.6129032 L27.6774194,47.6129032 L27.6774194,42.2903226 L23.1290323,42.2903226 L18.6774194,42.2903226 L18.6774194,45 C18.7741935,45.8709677 18.7741935,46.7419355 18.7741935,47.6129032 L18.7741935,47.6129032 Z M31.5483871,40.6451613 L30.5806452,40.6451613 L31.1612903,39.8709677 C31.4516129,39.483871 31.7419355,39.0967742 32.0322581,38.7096774 C32.516129,38.1290323 32.9032258,37.5483871 33.2903226,37.1612903 L33.6774194,36.7741935 L34.0645161,37.1612903 C34.3548387,37.5483871 34.7419355,37.9354839 35.0322581,38.3225806 C35.4193548,38.8064516 35.8064516,39.2903226 36.2903226,39.7741935 L36.9677419,40.5483871 L37.6451613,39.7741935 C37.8387097,39.483871 38.4193548,39 38.9032258,38.516129 C39.2903226,38.1290323 39.6774194,37.7419355 39.8709677,37.5483871 L40.7419355,36.5806452 L40.7419355,37.8387097 L40.7419355,40.0645161 L40.7419355,40.5483871 L40.2580645,40.5483871 L38.8064516,40.5483871 L35.9032258,40.5483871 L33.8709677,40.5483871 C33,40.6451613 32.2258065,40.6451613 31.5483871,40.6451613 L31.5483871,40.6451613 Z M33.6774194,38.1290323 C33.3870968,38.4193548 33.1935484,38.8064516 32.9032258,39.1935484 C32.8064516,39.2903226 32.7096774,39.483871 32.6129032,39.5806452 L33.8709677,39.5806452 L34.8387097,39.5806452 C34.6451613,39.2903226 34.4516129,39.0967742 34.2580645,38.8064516 C33.9677419,38.6129032 33.7741935,38.4193548 33.6774194,38.1290323 L33.6774194,38.1290323 Z M39.0967742,39.5806452 L39.6774194,39.5806452 L39.6774194,39 L39.5806452,39.0967742 C39.3870968,39.2903226 39.1935484,39.483871 39.0967742,39.5806452 L39.0967742,39.5806452 Z M27.8709677,40.5483871 L26.9032258,40.5483871 L24.6774194,40.5483871 L22.6451613,40.5483871 L19.7419355,40.5483871 L18.2903226,40.5483871 L17.8064516,40.5483871 L17.8064516,40.0645161 L17.8064516,37.8387097 L17.8064516,36.5806452 L18.6774194,37.5483871 C18.8709677,37.7419355 19.2580645,38.1290323 19.6451613,38.516129 C20.1290323,39 20.7096774,39.5806452 20.9032258,39.8709677 L21.5806452,40.6451613 L22.2580645,39.8709677 C22.7419355,39.3870968 23.1290323,38.9032258 23.516129,38.4193548 C23.8064516,38.0322581 24.1935484,37.5483871 24.483871,37.2580645 L24.8709677,36.8709677 L25.2580645,37.2580645 C25.6451613,37.6451613 26.0322581,38.2258065 26.516129,38.8064516 C26.8064516,39.1935484 27.0967742,39.5806452 27.3870968,39.9677419 L27.8709677,40.5483871 L27.8709677,40.5483871 Z M23.6129032,39.5806452 L24.5806452,39.5806452 L25.8387097,39.5806452 C25.7419355,39.483871 25.6451613,39.2903226 25.5483871,39.1935484 C25.2580645,38.8064516 24.9677419,38.4193548 24.7741935,38.1290323 C24.5806452,38.3225806 24.3870968,38.6129032 24.1935484,38.8064516 C24,39.0967742 23.8064516,39.3870968 23.6129032,39.5806452 L23.6129032,39.5806452 Z M18.7741935,39 L18.7741935,39.5806452 L19.3548387,39.5806452 L18.8709677,39.0967742 C18.8709677,39.0967742 18.7741935,39 18.7741935,39 L18.7741935,39 Z M40.6451613,36.3870968 L29.7096774,36.3870968 L29.7096774,29.7096774 L40.6451613,29.7096774 L40.6451613,36.3870968 L40.6451613,36.3870968 Z M30.6774194,35.4193548 L39.6774194,35.4193548 L39.6774194,30.6774194 L30.6774194,30.6774194 L30.6774194,35.4193548 L30.6774194,35.4193548 Z M28.6451613,36.3870968 L17.7096774,36.3870968 L17.7096774,29.7096774 L28.6451613,29.7096774 L28.6451613,36.3870968 L28.6451613,36.3870968 Z M18.7741935,35.4193548 L27.7741935,35.4193548 L27.7741935,30.6774194 L18.7741935,30.6774194 L18.7741935,35.4193548 L18.7741935,35.4193548 Z M30.6774194,28.9354839 L29.8064516,28.9354839 L30.2903226,28.1612903 C30.483871,27.7741935 30.7741935,27.483871 30.9677419,27.0967742 C31.2580645,26.7096774 31.5483871,26.2258065 31.9354839,25.6451613 L32.0322581,25.4516129 L38.4193548,25.4516129 L38.516129,25.6451613 C39.0967742,26.516129 39.2903226,26.7096774 39.6774194,27.483871 L40.5483871,28.8387097 L39.6774194,28.8387097 L35.2258065,28.8387097 C33.6774194,28.9354839 32.0322581,28.9354839 30.6774194,28.9354839 L30.6774194,28.9354839 Z M32.6129032,26.516129 C32.3225806,27 32.0322581,27.3870968 31.7419355,27.7741935 C31.6451613,27.8709677 31.6451613,27.9677419 31.5483871,28.0645161 L35.2258065,28.0645161 L38.8064516,28.0645161 C38.4193548,27.483871 38.3225806,27.2903226 37.8387097,26.6129032 L32.6129032,26.6129032 L32.6129032,26.516129 Z M28.6451613,28.9354839 L27.7741935,28.9354839 L23.2258065,28.9354839 L18.7741935,28.9354839 L17.9032258,28.9354839 L18.7741935,27.5806452 C19.2580645,26.9032258 19.3548387,26.6129032 19.9354839,25.7419355 L20.0322581,25.5483871 L26.4193548,25.5483871 L26.516129,25.7419355 C26.9032258,26.3225806 27.1935484,26.8064516 27.483871,27.1935484 C27.6774194,27.5806452 27.9677419,27.8709677 28.1612903,28.2580645 L28.6451613,28.9354839 L28.6451613,28.9354839 Z M19.5483871,27.9677419 L23.1290323,27.9677419 L26.8064516,27.9677419 C26.7096774,27.8709677 26.7096774,27.7741935 26.6129032,27.6774194 C26.3225806,27.2903226 26.1290323,26.9032258 25.7419355,26.4193548 L20.4193548,26.4193548 C20.0322581,27.1935484 19.9354839,27.3870968 19.5483871,27.9677419 L19.5483871,27.9677419 Z M37.9354839,24.7741935 L32.7096774,24.7741935 L33.1935484,24 C33.483871,23.6129032 33.7741935,23.2258065 34.0645161,22.7419355 C34.4516129,22.2580645 34.8387097,21.6774194 35.0322581,21.2903226 L35.516129,20.6129032 L35.9032258,21.2903226 C36.0967742,21.6774194 36.3870968,22.1612903 36.6774194,22.6451613 C36.9677419,23.1290323 37.2580645,23.6129032 37.4516129,24 L37.9354839,24.7741935 L37.9354839,24.7741935 Z M34.5483871,23.8064516 L36.2903226,23.8064516 C36.1935484,23.6129032 36.0967742,23.4193548 35.9032258,23.2258065 C35.7096774,22.9354839 35.6129032,22.7419355 35.4193548,22.5483871 C35.2258065,22.8387097 35.0322581,23.1290323 34.8387097,23.4193548 C34.7419355,23.516129 34.6451613,23.6129032 34.5483871,23.8064516 L34.5483871,23.8064516 Z M25.7419355,24.7741935 L20.516129,24.7741935 L20.9032258,24.0967742 C21.0967742,23.7096774 21.3870968,23.2258065 21.6774194,22.7419355 C21.9677419,22.2580645 22.2580645,21.7741935 22.4516129,21.3870968 L22.8387097,20.7096774 L23.3225806,21.3870968 C23.6129032,21.7741935 24,22.2580645 24.2903226,22.8387097 C24.5806452,23.2258065 24.8709677,23.7096774 25.1612903,24.0967742 L25.7419355,24.7741935 L25.7419355,24.7741935 Z M22.1612903,23.8064516 L23.9032258,23.8064516 C23.8064516,23.6129032 23.7096774,23.516129 23.6129032,23.3225806 C23.4193548,23.0322581 23.2258065,22.7419355 23.0322581,22.4516129 C22.9354839,22.6451613 22.7419355,22.9354839 22.5483871,23.1290323 C22.3548387,23.4193548 22.2580645,23.6129032 22.1612903,23.8064516 L22.1612903,23.8064516 Z M35.2258065,20.2258065 L34.3548387,20.2258065 L30.0967742,20.2258065 L29.6129032,20.2258065 L28.6451613,20.2258065 L23.9032258,20.2258065 L23.0322581,20.2258065 L23.516129,19.4516129 C23.9032258,18.8709677 24.0967742,18.3870968 24.3870968,18 C24.6774194,17.516129 24.8709677,17.1290323 25.0645161,16.8387097 L25.1612903,16.6451613 L25.4516129,16.6451613 L27.2903226,16.6451613 L28.6451613,16.6451613 L30.9677419,16.6451613 L32.8064516,16.6451613 L33.0967742,16.6451613 L33.1935484,16.8387097 C33.3870968,17.1290323 33.5806452,17.516129 33.8709677,18 C34.0645161,18.3870968 34.3548387,18.7741935 34.7419355,19.3548387 L35.2258065,20.2258065 L35.2258065,20.2258065 Z M30.6774194,19.2580645 L33.5806452,19.2580645 C33.3870968,18.9677419 33.2903226,18.7741935 33.1935484,18.5806452 C33,18.1935484 32.8064516,17.9032258 32.6129032,17.7096774 L31.0645161,17.7096774 L28.2580645,17.7096774 L27.3870968,17.7096774 L25.8387097,17.7096774 C25.6451613,18 25.5483871,18.1935484 25.2580645,18.5806452 C25.1612903,18.7741935 24.9677419,18.9677419 24.8709677,19.2580645 L28.7419355,19.2580645 L30.6774194,19.2580645 L30.6774194,19.2580645 L30.6774194,19.2580645 Z M30,16.3548387 L28.9354839,16.3548387 L26.4193548,16.3548387 L25.5483871,16.3548387 L26.0322581,15.5806452 C26.3225806,15.0967742 26.7096774,14.4193548 27.0967742,13.8387097 C27.5806452,12.9677419 28.1612903,12.0967742 28.6451613,11.3225806 L28.6451613,11.3225806 C28.8387097,11.1290323 28.9354839,10.8387097 29.1290323,10.6451613 L29.516129,9.96774194 L29.9032258,10.6451613 C30,10.8387097 30.1935484,11.1290323 30.2903226,11.3225806 C30.3870968,11.6129032 30.5806452,11.9032258 30.7741935,12.1935484 L31.0645161,12.7741935 C31.5483871,13.7419355 32.1290323,14.8064516 32.6129032,15.5806452 L33.0967742,16.3548387 L32.2258065,16.3548387 C31.4516129,16.3548387 30.7741935,16.3548387 30,16.3548387 L30,16.3548387 Z M27.1935484,15.3870968 L28.9354839,15.3870968 L30,15.3870968 L31.2580645,15.3870968 C30.8709677,14.7096774 30.483871,14.0322581 30.0967742,13.2580645 L29.8064516,12.6774194 C29.6129032,12.3870968 29.4193548,12.0967742 29.3225806,11.8064516 L29.3225806,11.8064516 C28.8387097,12.5806452 28.3548387,13.4516129 27.8709677,14.3225806 C27.5806452,14.7096774 27.3870968,15.0967742 27.1935484,15.3870968 L27.1935484,15.3870968 Z" id="Shape" fill="#1C75BC"></path>
                            <g opacity="0.54" transform="translate(20.322581, 42.580645)" id="Rectangle-path" fill="#1A6185">
                                <rect x="0.870967742" y="0.580645161" width="1.5483871" height="3.58064516"></rect>
                            </g>
                            <g opacity="0.54" transform="translate(23.225806, 42.580645)" id="Rectangle-path" fill="#1A6185">
                                <rect x="0.193548387" y="0.580645161" width="1.5483871" height="3.58064516"></rect>
                            </g>
                            <g opacity="0.54" transform="translate(32.903226, 42.580645)" id="Rectangle-path" fill="#1A6185">
                                <rect x="0.387096774" y="0.580645161" width="1.5483871" height="3.58064516"></rect>
                            </g>
                            <g opacity="0.54" transform="translate(34.838710, 42.580645)" id="Rectangle-path" fill="#1A6185">
                                <rect x="0.580645161" y="0.580645161" width="1.5483871" height="3.58064516"></rect>
                            </g>
                            <rect id="Rectangle-path" fill="#1C75BC" x="22.6451613" y="30.5806452" width="0.483870968" height="4.83870968"></rect>
                            <rect id="Rectangle-path" fill="#1C75BC" x="34.8387097" y="30.5806452" width="0.483870968" height="4.83870968"></rect>
                            <rect id="Rectangle-path" fill="#1C75BC" transform="translate(26.920858, 24.672852) rotate(55.264262) translate(-26.920858, -24.672852) " x="23.2433886" y="24.188974" width="7.35493903" height="0.483877568"></rect>
                            <rect id="Rectangle-path" fill="#1C75BC" transform="translate(31.533760, 24.576561) rotate(33.939565) translate(-31.533760, -24.576561) " x="31.0499044" y="20.8508758" width="0.483855254" height="7.45137091"></rect>
                            <rect id="Rectangle-path" fill="#1C75BC" x="24.8709677" y="21.1935484" width="8.70967742" height="0.483870968"></rect>
                        </g>
                    </g>
                </g>
            </g>
        </g>
    </g>
</svg>