<?xml version="1.0" encoding="UTF-8"?>
<svg width="60px" height="60px" viewBox="0 0 60 60" version="1.1" xmlns="http://www.w3.org/2000/svg" xmlns:xlink="http://www.w3.org/1999/xlink">
    <!-- Generator: Sketch 39 (31667) - http://www.bohemiancoding.com/sketch -->
    <title>about-lang-inverse</title>
    <desc>Created with Sketch.</desc>
    <defs></defs>
    <g id="Symbols" stroke="none" stroke-width="1" fill="none" fill-rule="evenodd">
        <g id="about-lang-inverse" fill="#FBFBFB">
            <g id="9" transform="translate(0.000000, 3.000000)">
                <g id="Layer_1">
                    <g id="Group">
                        <path d="M10.5671642,48.7164179 C10.119403,48.358209 9.67164179,47.9104478 9.2238806,47.4626866 L9.85074627,46.8358209 C10.2985075,47.2835821 10.7462687,47.641791 11.1940299,48 L10.5671642,48.7164179 L10.5671642,48.7164179 Z M46.119403,48.7164179 L45.5820896,48 C46.0298507,47.641791 46.4776119,47.1940299 46.9253731,46.8358209 L47.5522388,47.4626866 C47.0149254,47.9104478 46.5671642,48.358209 46.119403,48.7164179 L46.119403,48.7164179 Z M7.97014925,46.2089552 C7.52238806,45.761194 7.1641791,45.3134328 6.80597015,44.7761194 L7.52238806,44.238806 C7.88059701,44.6865672 8.23880597,45.1343284 8.68656716,45.5820896 L7.97014925,46.2089552 L7.97014925,46.2089552 Z M48.8059701,46.119403 L48.1791045,45.4925373 C48.5373134,45.0447761 48.9850746,44.5970149 49.3432836,44.1492537 L50.0597015,44.6865672 C49.6119403,45.2238806 49.1641791,45.6716418 48.8059701,46.119403 L48.8059701,46.119403 Z M5.64179104,43.3432836 C5.28358209,42.8059701 4.92537313,42.358209 4.65671642,41.8208955 L5.46268657,41.3731343 C5.73134328,41.9104478 6.08955224,42.358209 6.44776119,42.8955224 L5.64179104,43.3432836 L5.64179104,43.3432836 Z M51.0447761,43.2537313 L50.3283582,42.7164179 C50.6865672,42.2686567 50.9552239,41.7313433 51.3134328,41.1940299 L52.119403,41.641791 C51.761194,42.2686567 51.4029851,42.8059701 51.0447761,43.2537313 L51.0447761,43.2537313 Z M3.76119403,40.119403 C3.49253731,39.5820896 3.2238806,39.0447761 2.95522388,38.4179104 L3.76119403,38.0597015 C4.02985075,38.5970149 4.20895522,39.1343284 4.47761194,39.6716418 L3.76119403,40.119403 L3.76119403,40.119403 Z M52.9253731,40.119403 L52.119403,39.6716418 C52.3880597,39.1343284 52.6567164,38.5970149 52.8358209,38.0597015 L53.641791,38.4179104 C53.4626866,39.0447761 53.1940299,39.5820896 52.9253731,40.119403 L52.9253731,40.119403 Z M2.32835821,36.8059701 C2.14925373,36.2686567 1.97014925,35.641791 1.79104478,35.0149254 L2.68656716,34.7462687 C2.86567164,35.2835821 3.04477612,35.9104478 3.2238806,36.4477612 L2.32835821,36.8059701 L2.32835821,36.8059701 Z M54.358209,36.7164179 L53.5522388,36.4477612 C53.7313433,35.9104478 53.9104478,35.2835821 54.0895522,34.7462687 L54.9850746,35.0149254 C54.7164179,35.5522388 54.5373134,36.1791045 54.358209,36.7164179 L54.358209,36.7164179 Z M1.34328358,33.2238806 C1.25373134,32.5970149 1.07462687,31.9701493 1.07462687,31.4328358 L1.97014925,31.3432836 C2.05970149,31.9701493 2.14925373,32.5074627 2.23880597,33.1343284 L1.34328358,33.2238806 L1.34328358,33.2238806 Z M55.3432836,33.2238806 L54.4477612,33.0447761 C54.5373134,32.5074627 54.6268657,31.880597 54.7164179,31.2537313 L55.6119403,31.3432836 C55.5223881,31.9701493 55.4328358,32.5970149 55.3432836,33.2238806 L55.3432836,33.2238806 Z M0.895522388,29.5522388 C0.895522388,28.9253731 0.805970149,28.2985075 0.805970149,27.6716418 L1.70149254,27.6716418 C1.70149254,28.2985075 1.70149254,28.8358209 1.79104478,29.4626866 L0.895522388,29.5522388 L0.895522388,29.5522388 Z M55.7910448,29.5522388 L54.8955224,29.4626866 C54.8955224,28.8358209 54.9850746,28.2985075 54.9850746,27.6716418 L54.9850746,27.5820896 L55.880597,27.5820896 L55.880597,27.6716418 C55.880597,28.2985075 55.880597,28.9253731 55.7910448,29.5522388 L55.7910448,29.5522388 Z M1.79104478,25.9701493 L0.895522388,25.880597 C0.895522388,25.2537313 0.985074627,24.6268657 1.07462687,24.0895522 L1.97014925,24.1791045 C1.88059701,24.8059701 1.79104478,25.4328358 1.79104478,25.9701493 L1.79104478,25.9701493 Z M54.8955224,25.7910448 C54.8955224,25.1641791 54.8059701,24.6268657 54.7164179,24 L55.6119403,23.9104478 C55.7014925,24.5373134 55.7910448,25.1641791 55.7910448,25.7014925 L54.8955224,25.7910448 L54.8955224,25.7910448 Z M2.23880597,22.4776119 L1.34328358,22.2985075 C1.43283582,21.6716418 1.6119403,21.1343284 1.79104478,20.5074627 L2.68656716,20.7761194 C2.50746269,21.3134328 2.32835821,21.8507463 2.23880597,22.4776119 L2.23880597,22.4776119 Z M54.4477612,22.2985075 C54.358209,21.761194 54.1791045,21.1343284 54,20.5970149 L54.8955224,20.3283582 C55.0746269,20.9552239 55.1641791,21.4925373 55.3432836,22.119403 L54.4477612,22.2985075 L54.4477612,22.2985075 Z M3.13432836,18.9850746 L2.32835821,18.7164179 C2.50746269,18.1791045 2.7761194,17.5522388 2.95522388,17.0149254 L3.76119403,17.3731343 C3.58208955,17.9104478 3.31343284,18.4477612 3.13432836,18.9850746 L3.13432836,18.9850746 Z M53.4626866,18.8955224 C53.2835821,18.358209 53.0149254,17.8208955 52.8358209,17.2835821 L53.641791,16.9253731 C53.9104478,17.4626866 54.0895522,18.0895522 54.2686567,18.6268657 L53.4626866,18.8955224 L53.4626866,18.8955224 Z M4.56716418,15.761194 L3.76119403,15.3134328 C4.02985075,14.7761194 4.29850746,14.238806 4.65671642,13.7014925 L5.46268657,14.1492537 C5.10447761,14.6865672 4.8358209,15.2238806 4.56716418,15.761194 L4.56716418,15.761194 Z M52.0298507,15.5820896 C51.761194,15.0447761 51.4925373,14.5074627 51.1343284,14.0597015 L51.9402985,13.6119403 C52.2089552,14.1492537 52.5671642,14.6865672 52.8358209,15.2238806 L52.0298507,15.5820896 L52.0298507,15.5820896 Z M6.35820896,12.7164179 L5.64179104,12.1791045 C6,11.641791 6.35820896,11.1940299 6.71641791,10.6567164 L7.43283582,11.1940299 C7.07462687,11.7313433 6.71641791,12.1791045 6.35820896,12.7164179 L6.35820896,12.7164179 Z M50.238806,12.5373134 C49.880597,12.0895522 49.5223881,11.5522388 49.1641791,11.1044776 L49.880597,10.5671642 C50.238806,11.0149254 50.5970149,11.5522388 50.9552239,12 L50.238806,12.5373134 L50.238806,12.5373134 Z M8.59701493,9.85074627 L7.97014925,9.2238806 C8.41791045,8.7761194 8.7761194,8.32835821 9.2238806,7.88059701 L9.85074627,8.50746269 C9.40298507,9.04477612 8.95522388,9.40298507 8.59701493,9.85074627 L8.59701493,9.85074627 Z M48,9.76119403 C47.641791,9.31343284 47.1940299,8.86567164 46.7462687,8.50746269 L47.3731343,7.88059701 C47.8208955,8.32835821 48.2686567,8.7761194 48.6268657,9.2238806 L48,9.76119403 L48,9.76119403 Z M11.1044776,7.43283582 L10.5671642,6.71641791 C11.0149254,6.35820896 11.5522388,5.91044776 12,5.55223881 L12.5373134,6.26865672 C12,6.62686567 11.5522388,6.98507463 11.1044776,7.43283582 L11.1044776,7.43283582 Z M45.4925373,7.34328358 C45.0447761,6.98507463 44.5970149,6.62686567 44.0597015,6.26865672 L44.5970149,5.55223881 C45.1343284,5.91044776 45.5820896,6.26865672 46.0298507,6.71641791 L45.4925373,7.34328358 L45.4925373,7.34328358 Z M13.9701493,5.28358209 L13.5223881,4.56716418 C14.0597015,4.20895522 14.5970149,3.94029851 15.1343284,3.58208955 L15.5820896,4.3880597 C14.9552239,4.65671642 14.4179104,4.92537313 13.9701493,5.28358209 L13.9701493,5.28358209 Z M42.6268657,5.19402985 C42.0895522,4.8358209 41.641791,4.56716418 41.1044776,4.29850746 L41.5522388,3.49253731 C42.0895522,3.76119403 42.6268657,4.11940299 43.1641791,4.3880597 L42.6268657,5.19402985 L42.6268657,5.19402985 Z M17.1044776,3.58208955 L16.7462687,2.7761194 C17.2835821,2.50746269 17.9104478,2.23880597 18.4477612,2.05970149 L18.8059701,2.86567164 C18.1791045,3.04477612 17.641791,3.31343284 17.1044776,3.58208955 L17.1044776,3.58208955 Z M39.4925373,3.49253731 C38.9552239,3.2238806 38.4179104,3.04477612 37.880597,2.7761194 L38.238806,1.97014925 C38.7761194,2.14925373 39.4029851,2.41791045 39.9402985,2.68656716 L39.4925373,3.49253731 L39.4925373,3.49253731 Z M20.4179104,2.32835821 L20.1492537,1.43283582 C20.7761194,1.25373134 21.3134328,1.07462687 21.9402985,0.985074627 L22.119403,1.88059701 C21.4925373,1.97014925 20.9552239,2.14925373 20.4179104,2.32835821 L20.4179104,2.32835821 Z M36.1791045,2.23880597 C35.641791,2.05970149 35.0149254,1.88059701 34.4776119,1.79104478 L34.6567164,0.895522388 C35.2835821,1.07462687 35.8208955,1.1641791 36.4477612,1.34328358 L36.1791045,2.23880597 L36.1791045,2.23880597 Z M23.8208955,1.43283582 L23.641791,0.537313433 C24.2686567,0.447761194 24.8955224,0.358208955 25.4328358,0.268656716 L25.5223881,1.1641791 C24.9850746,1.25373134 24.4477612,1.34328358 23.8208955,1.43283582 L23.8208955,1.43283582 Z M32.6865672,1.43283582 C32.1492537,1.34328358 31.5223881,1.25373134 30.8955224,1.1641791 L30.9850746,0.268656716 C31.6119403,0.358208955 32.238806,0.447761194 32.7761194,0.537313433 L32.6865672,1.43283582 L32.6865672,1.43283582 Z M27.4029851,1.07462687 L27.4029851,0.179104478 L29.2835821,0.179104478 L29.2835821,1.07462687 L27.4029851,1.07462687 L27.4029851,1.07462687 Z" id="Shape"></path>
                        <path d="M27.8507463,38.9552239 C23.1044776,38.9552239 19.2537313,34.6567164 19.2537313,29.3731343 C19.2537313,24.0895522 23.1044776,19.7910448 27.8507463,19.7910448 C32.5970149,19.7910448 36.4477612,24.0895522 36.4477612,29.3731343 C36.4477612,34.6567164 32.5970149,38.9552239 27.8507463,38.9552239 L27.8507463,38.9552239 Z M27.8507463,20.7761194 C23.641791,20.7761194 20.1492537,24.6268657 20.1492537,29.4626866 C20.1492537,34.2985075 23.5522388,38.1492537 27.8507463,38.1492537 C32.0597015,38.1492537 35.5522388,34.2985075 35.5522388,29.4626866 C35.5522388,24.6268657 32.0597015,20.7761194 27.8507463,20.7761194 L27.8507463,20.7761194 Z" id="Shape"></path>
                        <path d="M27.1343284,54.8059701 C18.5373134,54.8059701 12.8059701,50.6865672 12.5373134,50.5074627 L12.358209,50.4179104 L12.358209,50.238806 C12.358209,49.9701493 11.5522388,44.6865672 13.5223881,42.2686567 C14.1492537,41.5522388 14.8656716,41.1044776 15.8507463,41.0149254 C18.5373134,40.8358209 20.5074627,40.0298507 21.4925373,38.8656716 C22.2985075,37.880597 22.2089552,36.9850746 22.2089552,36.9850746 L22.119403,36.2686567 L22.8358209,36.5373134 C24.9850746,37.3432836 26.6865672,39.0447761 27.8507463,41.4626866 C29.0149254,39.0447761 30.6268657,37.3432836 32.8656716,36.5373134 L33.5820896,36.2686567 L33.4925373,36.9850746 C33.4925373,36.9850746 33.4029851,37.880597 34.2089552,38.8656716 C35.1940299,40.0298507 37.1641791,40.7462687 39.8507463,41.0149254 L39.8507463,41.0149254 C40.8358209,41.1044776 41.5522388,41.5522388 42.1791045,42.2686567 C44.1492537,44.7761194 43.3432836,50.0597015 43.3432836,50.238806 L43.3432836,50.3283582 L43.2537313,50.4179104 C43.0746269,50.5970149 39.4925373,54.6268657 27.5820896,54.8059701 L27.1343284,54.8059701 L27.1343284,54.8059701 Z M13.1641791,49.9701493 C14.1492537,50.5970149 19.7014925,54.0895522 27.4029851,54 C37.880597,53.9104478 41.7313433,50.5970149 42.358209,50.0597015 C42.4477612,49.2537313 42.8955224,44.8656716 41.3731343,42.8955224 C40.9253731,42.358209 40.3880597,42 39.6716418,42 C36.7164179,41.7313433 34.5671642,40.9253731 33.4029851,39.4925373 C32.8656716,38.8656716 32.5970149,38.1492537 32.5074627,37.7014925 C30.5373134,38.5970149 29.1044776,40.3880597 28.2089552,42.8955224 L27.761194,43.9701493 L27.3134328,42.8955224 C26.3283582,40.3880597 24.8955224,38.6865672 23.0149254,37.7014925 C22.9253731,38.1492537 22.7462687,38.8656716 22.119403,39.4925373 C20.9552239,40.9253731 18.8059701,41.7313433 15.8507463,42 C15.1343284,42.0895522 14.5970149,42.358209 14.1492537,42.8955224 C12.6268657,44.7761194 13.0746269,48.9850746 13.1641791,49.9701493 L13.1641791,49.9701493 Z" id="Shape"></path>
                        <g transform="translate(0.895522, 7.164179)">
                            <path d="M8.95522388,16.8358209 C4.3880597,16.8358209 0.71641791,13.2537313 0.71641791,8.7761194 C0.71641791,4.29850746 4.3880597,0.71641791 8.95522388,0.71641791 C13.5223881,0.71641791 17.1940299,4.29850746 17.1940299,8.7761194 C17.1044776,13.1641791 13.4328358,16.8358209 8.95522388,16.8358209 L8.95522388,16.8358209 Z M8.95522388,1.52238806 C4.92537313,1.52238806 1.6119403,4.74626866 1.6119403,8.68656716 C1.6119403,12.6268657 4.92537313,15.8507463 8.95522388,15.8507463 C12.9850746,15.8507463 16.2985075,12.6268657 16.2985075,8.68656716 C16.2089552,4.74626866 12.9850746,1.52238806 8.95522388,1.52238806 L8.95522388,1.52238806 Z" id="Shape"></path>
                            <path d="M8.95522388,16.4776119 C7.07462687,16.4776119 6.17910448,12.5373134 6.17910448,8.68656716 C6.17910448,4.8358209 7.1641791,0.895522388 8.95522388,0.895522388 C10.7462687,0.895522388 11.7313433,4.8358209 11.7313433,8.68656716 C11.7313433,12.5373134 10.7462687,16.4776119 8.95522388,16.4776119 L8.95522388,16.4776119 Z M8.95522388,1.88059701 C8.14925373,1.88059701 7.07462687,4.56716418 7.07462687,8.7761194 C7.07462687,12.9850746 8.23880597,15.6716418 8.95522388,15.6716418 C9.67164179,15.6716418 10.8358209,12.9850746 10.8358209,8.7761194 C10.8358209,4.56716418 9.67164179,1.88059701 8.95522388,1.88059701 L8.95522388,1.88059701 Z" id="Shape"></path>
                            <path d="M8.7761194,16.8358209 C5.55223881,16.8358209 2.86567164,13.1641791 2.86567164,8.68656716 C2.86567164,4.20895522 5.46268657,0.537313433 8.7761194,0.537313433 C12,0.537313433 14.6865672,4.20895522 14.6865672,8.68656716 C14.6865672,13.2537313 12.0895522,16.8358209 8.7761194,16.8358209 L8.7761194,16.8358209 Z M8.7761194,1.52238806 C6,1.52238806 3.76119403,4.74626866 3.76119403,8.7761194 C3.76119403,12.8059701 6,16.0298507 8.7761194,16.0298507 C11.5522388,16.0298507 13.7910448,12.8059701 13.7910448,8.7761194 C13.7910448,4.74626866 11.5522388,1.52238806 8.7761194,1.52238806 L8.7761194,1.52238806 Z" id="Shape"></path>
                            <rect id="Rectangle-path" x="1.70149254" y="10.7462687" width="14.7761194" height="0.895522388"></rect>
                            <rect id="Rectangle-path" x="1.6119403" y="6.26865672" width="14.7761194" height="0.895522388"></rect>
                        </g>
                        <g opacity="0.54" transform="translate(11.641791, 21.492537)" id="Shape">
                            <path d="M3.58208955,0.537313433 C3.58208955,0.537313433 4.74626866,3.31343284 6.62686567,4.11940299 C3.2238806,5.37313433 0.268656716,2.14925373 0.268656716,2.14925373 L3.58208955,0.537313433 L3.58208955,0.537313433 Z"></path>
                        </g>
                        <g transform="translate(39.402985, 8.955224)">
                            <path d="M10.2089552,20.7761194 C4.56716418,20.7761194 0,16.2985075 0,10.7462687 C0,5.19402985 4.56716418,0.71641791 10.2089552,0.71641791 C15.8507463,0.71641791 20.4179104,5.19402985 20.4179104,10.7462687 C20.4179104,16.2985075 15.761194,20.7761194 10.2089552,20.7761194 L10.2089552,20.7761194 Z M10.2089552,1.70149254 C5.10447761,1.70149254 0.895522388,5.82089552 0.895522388,10.8358209 C0.895522388,15.8507463 5.10447761,19.9701493 10.2089552,19.9701493 C15.3134328,19.9701493 19.5223881,15.8507463 19.5223881,10.8358209 C19.4328358,5.82089552 15.3134328,1.70149254 10.2089552,1.70149254 L10.2089552,1.70149254 Z" id="Shape"></path>
                            <path d="M10.119403,20.4179104 C7.88059701,20.4179104 6.71641791,15.4029851 6.71641791,10.7462687 C6.71641791,6.08955224 7.88059701,1.07462687 10.119403,1.07462687 C12.358209,1.07462687 13.5223881,6.08955224 13.5223881,10.7462687 C13.5223881,15.4925373 12.358209,20.4179104 10.119403,20.4179104 L10.119403,20.4179104 Z M10.119403,2.05970149 C9.04477612,2.05970149 7.6119403,5.37313433 7.6119403,10.8358209 C7.6119403,16.2985075 9.04477612,19.6119403 10.119403,19.6119403 C11.1940299,19.6119403 12.6268657,16.2985075 12.6268657,10.8358209 C12.6268657,5.37313433 11.1940299,2.05970149 10.119403,2.05970149 L10.119403,2.05970149 Z" id="Shape"></path>
                            <path d="M10.2985075,20.8656716 C6.26865672,20.8656716 3.04477612,16.2985075 3.04477612,10.7462687 C3.04477612,5.19402985 6.26865672,0.626865672 10.2985075,0.626865672 C14.3283582,0.626865672 17.5522388,5.19402985 17.5522388,10.7462687 C17.5522388,16.3880597 14.3283582,20.8656716 10.2985075,20.8656716 L10.2985075,20.8656716 Z M10.2985075,1.6119403 C6.80597015,1.6119403 3.94029851,5.73134328 3.94029851,10.8358209 C3.94029851,15.9402985 6.80597015,20.0597015 10.2985075,20.0597015 C13.7910448,20.0597015 16.6567164,15.9402985 16.6567164,10.8358209 C16.6567164,5.73134328 13.7910448,1.6119403 10.2985075,1.6119403 L10.2985075,1.6119403 Z" id="Shape"></path>
                            <rect id="Rectangle-path" x="0.626865672" y="13.4328358" width="18.5373134" height="0.895522388"></rect>
                            <rect id="Rectangle-path" x="0.805970149" y="7.88059701" width="18.5373134" height="0.895522388"></rect>
                        </g>
                        <g opacity="0.54" transform="translate(37.611940, 25.970149)" id="Shape">
                            <path d="M4.56716418,0.179104478 C4.56716418,0.179104478 3.49253731,2.7761194 0.537313433,4.3880597 C5.46268657,4.47761194 7.43283582,2.32835821 7.43283582,2.32835821 L4.56716418,0.179104478 L4.56716418,0.179104478 Z"></path>
                        </g>
                        <path d="M13.2537313,35.2835821 L9.67164179,35.2835821 C7.97014925,35.2835821 6.62686567,33.9402985 6.62686567,32.238806 C6.62686567,30.5373134 7.97014925,29.1940299 9.67164179,29.1940299 L13.2537313,29.1940299 C14.9552239,29.1940299 16.2985075,30.5373134 16.2985075,32.238806 C16.3880597,33.9402985 14.9552239,35.2835821 13.2537313,35.2835821 L13.2537313,35.2835821 Z M9.67164179,30.0895522 C8.50746269,30.0895522 7.52238806,31.0746269 7.52238806,32.238806 C7.52238806,33.4029851 8.50746269,34.3880597 9.67164179,34.3880597 L13.2537313,34.3880597 C14.4179104,34.3880597 15.4029851,33.4029851 15.4029851,32.238806 C15.4029851,31.0746269 14.4179104,30.0895522 13.2537313,30.0895522 L9.67164179,30.0895522 L9.67164179,30.0895522 Z" id="Shape"></path>
                        <path d="M37.4328358,15.1343284 L33.6716418,15.1343284 C31.880597,15.1343284 30.4477612,13.7014925 30.4477612,11.9104478 C30.4477612,10.119403 31.880597,8.68656716 33.6716418,8.68656716 L37.4328358,8.68656716 C39.2238806,8.68656716 40.6567164,10.119403 40.6567164,11.9104478 C40.6567164,13.7014925 39.2238806,15.1343284 37.4328358,15.1343284 L37.4328358,15.1343284 Z M33.5820896,9.49253731 C32.3283582,9.49253731 31.2537313,10.5671642 31.2537313,11.8208955 C31.2537313,13.0746269 32.3283582,14.1492537 33.5820896,14.1492537 L37.3432836,14.1492537 C38.5970149,14.1492537 39.6716418,13.0746269 39.6716418,11.8208955 C39.6716418,10.5671642 38.5970149,9.49253731 37.3432836,9.49253731 L33.5820896,9.49253731 L33.5820896,9.49253731 Z" id="Shape"></path>
                        <path d="M25.7910448,11.3731343 L19.7910448,11.3731343 C18,11.3731343 16.4776119,9.94029851 16.4776119,8.05970149 L16.4776119,6.80597015 C16.4776119,5.01492537 17.9104478,3.49253731 19.7910448,3.49253731 L25.7910448,3.49253731 C27.5820896,3.49253731 29.1044776,4.92537313 29.1044776,6.80597015 L29.1044776,8.05970149 C29.1044776,9.85074627 27.6716418,11.3731343 25.7910448,11.3731343 L25.7910448,11.3731343 Z M19.880597,4.3880597 C18.5373134,4.3880597 17.4626866,5.46268657 17.4626866,6.80597015 L17.4626866,8.05970149 C17.4626866,9.40298507 18.5373134,10.4776119 19.880597,10.4776119 L25.880597,10.4776119 C27.2238806,10.4776119 28.2985075,9.40298507 28.2985075,8.05970149 L28.2985075,6.80597015 C28.2985075,5.46268657 27.2238806,4.3880597 25.880597,4.3880597 L19.880597,4.3880597 L19.880597,4.3880597 Z" id="Shape"></path>
                        <path d="M45.3134328,39.1343284 C44.5074627,39.1343284 43.7910448,38.8656716 43.2537313,38.3283582 C42.6268657,37.7910448 42.2686567,36.9850746 42.2686567,36.1791045 C42.2686567,35.3731343 42.5373134,34.5671642 43.0746269,33.9402985 C43.6119403,33.3134328 44.4179104,32.9552239 45.2238806,32.9552239 L48.8059701,32.7761194 C50.5074627,32.6865672 51.9402985,34.0298507 52.0298507,35.7313433 C52.0298507,36.5373134 51.761194,37.3432836 51.2238806,37.9701493 C50.6865672,38.5970149 49.880597,38.9552239 49.0746269,38.9552239 L45.4925373,39.1343284 C45.4029851,39.1343284 45.3134328,39.1343284 45.3134328,39.1343284 L45.3134328,39.1343284 Z M48.8955224,33.761194 L48.8059701,33.761194 L45.2238806,33.9402985 C44.5970149,33.9402985 44.0597015,34.2089552 43.7014925,34.6567164 C43.3432836,35.1044776 43.0746269,35.641791 43.1641791,36.2686567 C43.1641791,36.8955224 43.4328358,37.4328358 43.880597,37.7910448 C44.3283582,38.1492537 44.8656716,38.4179104 45.4925373,38.3283582 L49.0746269,38.1492537 C49.7014925,38.1492537 50.238806,37.880597 50.5970149,37.4328358 C50.9552239,36.9850746 51.2238806,36.4477612 51.1343284,35.8208955 C51.0447761,34.6567164 50.0597015,33.761194 48.8955224,33.761194 L48.8955224,33.761194 Z" id="Shape"></path>
                        <g transform="translate(32.238806, 9.850746)" id="Shape">
                            <polygon points="1.43283582 2.14925373 0.358208955 2.14925373 0.358208955 3.13432836 1.52238806 3.13432836 1.52238806 3.40298507 0 3.40298507 0 0.71641791 1.43283582 0.71641791 1.43283582 0.985074627 0.358208955 0.985074627 0.358208955 1.88059701 1.43283582 1.88059701"></polygon>
                            <path d="M1.97014925,3.49253731 L1.97014925,0.805970149 L2.32835821,0.805970149 L3.2238806,2.14925373 C3.40298507,2.50746269 3.58208955,2.7761194 3.67164179,3.04477612 L3.67164179,3.04477612 L3.67164179,1.97014925 L3.67164179,0.805970149 L4.02985075,0.805970149 L4.02985075,3.49253731 L3.67164179,3.49253731 L2.7761194,2.14925373 C2.59701493,1.88059701 2.41791045,1.52238806 2.23880597,1.25373134 L2.23880597,1.25373134 L2.23880597,2.41791045 L2.23880597,3.58208955 L1.97014925,3.58208955 L1.97014925,3.49253731 Z"></path>
                            <path d="M6.71641791,3.31343284 C6.53731343,3.40298507 6.26865672,3.49253731 5.91044776,3.49253731 C5.46268657,3.49253731 5.19402985,3.40298507 4.92537313,3.13432836 C4.65671642,2.86567164 4.56716418,2.50746269 4.56716418,2.14925373 C4.56716418,1.34328358 5.10447761,0.71641791 6,0.71641791 C6.35820896,0.71641791 6.53731343,0.805970149 6.71641791,0.805970149 L6.62686567,1.07462687 C6.44776119,0.985074627 6.26865672,0.985074627 6,0.985074627 C5.37313433,0.985074627 4.92537313,1.43283582 4.92537313,2.05970149 C4.92537313,2.7761194 5.37313433,3.13432836 6,3.13432836 C6.26865672,3.13432836 6.35820896,3.13432836 6.44776119,3.04477612 L6.44776119,2.23880597 L5.91044776,2.23880597 L5.91044776,1.97014925 L6.80597015,1.97014925 L6.80597015,3.31343284 L6.71641791,3.31343284 Z"></path>
                        </g>
                        <g transform="translate(18.805970, 4.477612)" id="Shape">
                            <path d="M1.25373134,0.71641791 L1.25373134,3.13432836 C1.25373134,4.02985075 1.70149254,4.47761194 2.23880597,4.47761194 C2.86567164,4.47761194 3.2238806,4.02985075 3.2238806,3.13432836 L3.2238806,0.71641791 L3.76119403,0.71641791 L3.76119403,3.13432836 C3.76119403,4.3880597 3.13432836,4.92537313 2.14925373,4.92537313 C1.34328358,4.92537313 0.626865672,4.47761194 0.626865672,3.13432836 L0.626865672,0.71641791 L1.25373134,0.71641791 L1.25373134,0.71641791 Z"></path>
                            <path d="M5.19402985,3.58208955 L4.74626866,4.92537313 L4.20895522,4.92537313 L5.64179104,0.805970149 L6.26865672,0.805970149 L7.70149254,4.92537313 L7.1641791,4.92537313 L6.71641791,3.58208955 L5.19402985,3.58208955 L5.19402985,3.58208955 Z M6.53731343,3.2238806 L6.08955224,2.05970149 C6,1.79104478 5.91044776,1.52238806 5.91044776,1.34328358 L5.91044776,1.34328358 C5.82089552,1.6119403 5.82089552,1.88059701 5.73134328,2.05970149 L5.28358209,3.2238806 L6.53731343,3.2238806 L6.53731343,3.2238806 Z"></path>
                        </g>
                        <g transform="translate(8.059701, 30.447761)" id="Shape">
                            <path d="M0.447761194,0.537313433 C0.626865672,0.537313433 0.895522388,0.447761194 1.07462687,0.447761194 C1.43283582,0.447761194 1.70149254,0.537313433 1.88059701,0.626865672 C2.05970149,0.71641791 2.05970149,0.895522388 2.05970149,1.1641791 C2.05970149,1.52238806 1.88059701,1.79104478 1.52238806,1.88059701 L1.52238806,1.88059701 C1.70149254,1.97014925 1.88059701,2.14925373 1.88059701,2.41791045 C1.97014925,2.7761194 2.05970149,3.04477612 2.05970149,3.13432836 L1.79104478,3.13432836 C1.79104478,3.04477612 1.70149254,2.86567164 1.6119403,2.50746269 C1.52238806,2.14925373 1.43283582,1.97014925 1.07462687,1.97014925 L0.71641791,1.97014925 L0.71641791,3.13432836 L0.358208955,3.13432836 L0.358208955,0.537313433 L0.447761194,0.537313433 Z M0.805970149,1.79104478 L1.1641791,1.79104478 C1.52238806,1.79104478 1.79104478,1.6119403 1.79104478,1.25373134 C1.79104478,0.895522388 1.52238806,0.71641791 1.1641791,0.71641791 L0.805970149,0.71641791 L0.805970149,1.79104478 L0.805970149,1.79104478 Z"></path>
                            <path d="M2.95522388,0.537313433 L2.95522388,2.14925373 C2.95522388,2.7761194 3.2238806,3.04477612 3.58208955,3.04477612 C3.94029851,3.04477612 4.20895522,2.7761194 4.20895522,2.14925373 L4.20895522,0.537313433 L4.56716418,0.537313433 L4.56716418,2.05970149 C4.56716418,2.86567164 4.11940299,3.2238806 3.58208955,3.2238806 C3.04477612,3.2238806 2.59701493,2.95522388 2.59701493,2.05970149 L2.59701493,0.447761194 L2.95522388,0.447761194 L2.95522388,0.537313433 Z"></path>
                            <path d="M5.10447761,2.7761194 C5.28358209,2.86567164 5.46268657,2.95522388 5.73134328,2.95522388 C6.08955224,2.95522388 6.26865672,2.7761194 6.26865672,2.50746269 C6.26865672,2.23880597 6.08955224,2.14925373 5.73134328,1.97014925 C5.28358209,1.79104478 5.01492537,1.6119403 5.01492537,1.25373134 C5.01492537,0.805970149 5.37313433,0.537313433 5.91044776,0.537313433 C6.17910448,0.537313433 6.35820896,0.626865672 6.53731343,0.626865672 L6.44776119,0.895522388 C6.35820896,0.805970149 6.17910448,0.805970149 5.91044776,0.805970149 C5.55223881,0.805970149 5.37313433,0.985074627 5.37313433,1.1641791 C5.37313433,1.43283582 5.55223881,1.52238806 5.91044776,1.70149254 C6.35820896,1.88059701 6.62686567,2.05970149 6.62686567,2.50746269 C6.62686567,2.95522388 6.35820896,3.31343284 5.73134328,3.31343284 C5.46268657,3.31343284 5.19402985,3.2238806 5.01492537,3.13432836 L5.10447761,2.7761194 L5.10447761,2.7761194 Z"></path>
                        </g>
                        <g transform="translate(43.880597, 34.029851)" id="Shape">
                            <path d="M2.14925373,3.13432836 C1.97014925,3.2238806 1.70149254,3.31343284 1.34328358,3.31343284 C0.985074627,3.31343284 0.626865672,3.2238806 0.447761194,2.95522388 C0.268656716,2.7761194 0.0895522388,2.41791045 0.0895522388,2.05970149 C0.0895522388,1.34328358 0.626865672,0.805970149 1.43283582,0.805970149 C1.70149254,0.805970149 1.97014925,0.895522388 2.05970149,0.895522388 L1.97014925,1.1641791 C1.88059701,1.07462687 1.70149254,1.07462687 1.43283582,1.07462687 C0.805970149,1.07462687 0.447761194,1.43283582 0.447761194,2.05970149 C0.447761194,2.68656716 0.805970149,3.04477612 1.43283582,3.04477612 C1.6119403,3.04477612 1.79104478,3.04477612 1.88059701,2.95522388 L1.88059701,2.23880597 L1.34328358,2.23880597 L1.34328358,1.97014925 L2.14925373,1.97014925 L2.14925373,3.13432836 L2.14925373,3.13432836 Z"></path>
                            <polygon points="3.94029851 2.14925373 2.95522388 2.14925373 2.95522388 3.04477612 4.02985075 3.04477612 4.02985075 3.31343284 2.59701493 3.31343284 2.59701493 0.805970149 3.94029851 0.805970149 3.94029851 1.07462687 2.95522388 1.07462687 2.95522388 1.88059701 3.94029851 1.88059701 3.94029851 2.14925373"></polygon>
                            <path d="M4.47761194,0.805970149 C4.65671642,0.805970149 4.8358209,0.71641791 5.10447761,0.71641791 C5.46268657,0.71641791 5.64179104,0.805970149 5.82089552,0.895522388 C5.91044776,0.985074627 6,1.1641791 6,1.34328358 C6,1.70149254 5.82089552,1.88059701 5.55223881,1.97014925 L5.55223881,1.97014925 C5.73134328,2.05970149 5.82089552,2.23880597 5.91044776,2.50746269 C6,2.86567164 6.08955224,3.13432836 6.08955224,3.2238806 L5.73134328,3.2238806 C5.73134328,3.13432836 5.64179104,2.95522388 5.55223881,2.59701493 C5.46268657,2.23880597 5.37313433,2.14925373 5.01492537,2.14925373 L4.74626866,2.14925373 L4.74626866,3.2238806 L4.47761194,3.2238806 L4.47761194,0.805970149 L4.47761194,0.805970149 Z M4.74626866,1.97014925 L5.10447761,1.97014925 C5.46268657,1.97014925 5.64179104,1.79104478 5.64179104,1.52238806 C5.64179104,1.1641791 5.37313433,1.07462687 5.10447761,1.07462687 L4.74626866,1.07462687 L4.74626866,1.97014925 L4.74626866,1.97014925 Z"></path>
                        </g>
                        <ellipse id="Oval" cx="13.0746269" cy="37.2537313" rx="1.1641791" ry="1.1641791"></ellipse>
                        <ellipse id="Oval" cx="46.0298507" cy="40.9253731" rx="1.1641791" ry="1.1641791"></ellipse>
                        <ellipse id="Oval" cx="22.3880597" cy="12.9850746" rx="1.1641791" ry="1.1641791"></ellipse>
                        <ellipse id="Oval" cx="35.5522388" cy="16.7462687" rx="1.1641791" ry="1.1641791"></ellipse>
                        <ellipse id="Oval" cx="15.0447761" cy="39.1343284" rx="0.626865672" ry="0.626865672"></ellipse>
                        <ellipse id="Oval" cx="44.6865672" cy="43.1641791" rx="0.626865672" ry="0.626865672"></ellipse>
                        <ellipse id="Oval" cx="22.9253731" cy="15.761194" rx="0.626865672" ry="0.626865672"></ellipse>
                        <ellipse id="Oval" cx="33.5820896" cy="19.2537313" rx="0.626865672" ry="0.626865672"></ellipse>
                    </g>
                </g>
            </g>
        </g>
    </g>
</svg>