<?xml version="1.0" encoding="UTF-8"?>
<svg width="60px" height="60px" viewBox="0 0 60 60" version="1.1" xmlns="http://www.w3.org/2000/svg" xmlns:xlink="http://www.w3.org/1999/xlink">
    <!-- Generator: Sketch 39 (31667) - http://www.bohemiancoding.com/sketch -->
    <title>all-in-one</title>
    <desc>Created with Sketch.</desc>
    <defs></defs>
    <g id="Symbols" stroke="none" stroke-width="1" fill="none" fill-rule="evenodd">
        <g id="about-us-section" transform="translate(-373.000000, -8.000000)">
            <g id="all-in-one" transform="translate(373.000000, 8.000000)">
                <g id="10">
                    <path d="M30.2903226,59.7096774 L30,59.7096774 L30,58.7419355 L30.2903226,58.7419355 L31.9354839,58.7419355 L32.0322581,59.7096774 L30.2903226,59.7096774 L30.2903226,59.7096774 Z M27.9677419,59.6129032 C27.2903226,59.516129 26.6129032,59.516129 26.0322581,59.4193548 L26.1290323,58.4516129 C26.8064516,58.5483871 27.3870968,58.6451613 28.0645161,58.6451613 L27.9677419,59.6129032 L27.9677419,59.6129032 Z M33.9677419,59.4193548 L33.8709677,58.4516129 C34.5483871,58.3548387 35.1290323,58.2580645 35.8064516,58.1612903 L36,59.1290323 C35.2258065,59.2258065 34.6451613,59.3225806 33.9677419,59.4193548 L33.9677419,59.4193548 Z M24.0967742,59.0322581 C23.4193548,58.9354839 22.8387097,58.7419355 22.1612903,58.5483871 L22.4516129,57.5806452 C23.0322581,57.7741935 23.7096774,57.8709677 24.2903226,58.0645161 L24.0967742,59.0322581 L24.0967742,59.0322581 Z M37.8387097,58.7419355 L37.5483871,57.7741935 C38.1290323,57.5806452 38.8064516,57.3870968 39.3870968,57.1935484 L39.6774194,58.0645161 C39.0967742,58.3548387 38.516129,58.5483871 37.8387097,58.7419355 L37.8387097,58.7419355 Z M20.2258065,57.9677419 C19.6451613,57.7741935 18.9677419,57.483871 18.3870968,57.1935484 L18.7741935,56.3225806 C19.3548387,56.6129032 19.9354839,56.8064516 20.6129032,57 L20.2258065,57.9677419 L20.2258065,57.9677419 Z M41.6129032,57.3870968 L41.2258065,56.516129 C41.8064516,56.2258065 42.3870968,56.0322581 42.9677419,55.7419355 L43.3548387,56.6129032 C42.8709677,56.9032258 42.1935484,57.1935484 41.6129032,57.3870968 L41.6129032,57.3870968 Z M16.6451613,56.4193548 C16.0645161,56.1290323 15.483871,55.8387097 14.9032258,55.4516129 L15.3870968,54.5806452 C15.9677419,54.8709677 16.4516129,55.2580645 17.0322581,55.5483871 L16.6451613,56.4193548 L16.6451613,56.4193548 Z M45.1935484,55.6451613 L44.7096774,54.7741935 C45.2903226,54.483871 45.7741935,54.0967742 46.3548387,53.7096774 L46.9354839,54.483871 C46.2580645,54.9677419 45.7741935,55.3548387 45.1935484,55.6451613 L45.1935484,55.6451613 Z M13.1612903,54.2903226 C12.5806452,53.9032258 12.0967742,53.516129 11.6129032,53.1290323 L12.1935484,52.3548387 C12.6774194,52.7419355 13.1612903,53.1290323 13.7419355,53.516129 L13.1612903,54.2903226 L13.1612903,54.2903226 Z M48.483871,53.4193548 L47.9032258,52.6451613 C48.3870968,52.2580645 48.8709677,51.8709677 49.3548387,51.3870968 L50.0322581,52.0645161 C49.5483871,52.6451613 48.9677419,53.0322581 48.483871,53.4193548 L48.483871,53.4193548 Z M10.0645161,51.8709677 C9.58064516,51.3870968 9.09677419,51 8.61290323,50.516129 L9.29032258,49.8387097 C9.77419355,50.3225806 10.1612903,50.7096774 10.6451613,51.1935484 L10.0645161,51.8709677 L10.0645161,51.8709677 Z M51.3870968,50.8064516 L50.7096774,50.1290323 C51.1935484,49.6451613 51.5806452,49.1612903 51.9677419,48.6774194 L52.7419355,49.3548387 C52.3548387,49.8387097 51.8709677,50.3225806 51.3870968,50.8064516 L51.3870968,50.8064516 Z M7.35483871,48.9677419 C6.96774194,48.483871 6.48387097,47.9032258 6.09677419,47.4193548 L6.87096774,46.8387097 C7.25806452,47.3225806 7.64516129,47.9032258 8.03225806,48.3870968 L7.35483871,48.9677419 L7.35483871,48.9677419 Z M54,47.8064516 L53.2258065,47.2258065 C53.6129032,46.7419355 54,46.1612903 54.2903226,45.6774194 L55.0645161,46.1612903 C54.7741935,46.7419355 54.3870968,47.2258065 54,47.8064516 L54,47.8064516 Z M5.03225806,45.7741935 C4.64516129,45.1935484 4.35483871,44.6129032 4.06451613,44.0322581 L4.93548387,43.5483871 C5.22580645,44.1290323 5.51612903,44.7096774 5.90322581,45.1935484 L5.03225806,45.7741935 L5.03225806,45.7741935 Z M56.2258065,44.516129 L55.3548387,44.0322581 C55.6451613,43.4516129 55.9354839,42.8709677 56.2258065,42.2903226 L57.0967742,42.6774194 C56.8064516,43.2580645 56.516129,43.9354839 56.2258065,44.516129 L56.2258065,44.516129 Z M3.19354839,42.2903226 C2.90322581,41.7096774 2.70967742,41.0322581 2.41935484,40.4516129 L3.29032258,40.0645161 C3.48387097,40.6451613 3.77419355,41.2258065 4.06451613,41.8064516 L3.19354839,42.2903226 L3.19354839,42.2903226 Z M57.8709677,40.8387097 L57,40.4516129 C57.1935484,39.8709677 57.483871,39.2903226 57.6774194,38.6129032 L58.6451613,38.9032258 C58.3548387,39.6774194 58.1612903,40.2580645 57.8709677,40.8387097 L57.8709677,40.8387097 Z M1.74193548,38.516129 C1.5483871,37.8387097 1.35483871,37.2580645 1.25806452,36.5806452 L2.22580645,36.3870968 C2.32258065,36.9677419 2.51612903,37.6451613 2.70967742,38.2258065 L1.74193548,38.516129 L1.74193548,38.516129 Z M59.1290323,37.0645161 L58.1612903,36.8709677 C58.3548387,36.2903226 58.4516129,35.6129032 58.5483871,35.0322581 L59.516129,35.2258065 C59.4193548,35.8064516 59.2258065,36.483871 59.1290323,37.0645161 L59.1290323,37.0645161 Z M0.870967742,34.6451613 C0.774193548,33.9677419 0.677419355,33.2903226 0.580645161,32.7096774 L1.5483871,32.6129032 C1.64516129,33.2903226 1.64516129,33.8709677 1.74193548,34.5483871 L0.870967742,34.6451613 L0.870967742,34.6451613 Z M59.8064516,33.1935484 L58.8387097,33.0967742 C58.9354839,32.4193548 58.9354839,31.8387097 59.0322581,31.1612903 L59.0322581,31.0645161 L60,31.0645161 L60,31.1612903 C59.9032258,31.8387097 59.9032258,32.516129 59.8064516,33.1935484 L59.8064516,33.1935484 Z M0.483870968,30.6774194 L0.483870968,29.9032258 L0.483870968,28.6451613 L1.4516129,28.6451613 L1.4516129,29.8064516 L1.4516129,30.5806452 L0.483870968,30.6774194 L0.483870968,30.6774194 Z M59.0322581,29.1290323 C59.0322581,28.4516129 58.9354839,27.8709677 58.9354839,27.1935484 L59.9032258,27.0967742 C60,27.7741935 60,28.4516129 60,29.0322581 L59.0322581,29.1290323 L59.0322581,29.1290323 Z M1.64516129,26.8064516 L0.677419355,26.7096774 C0.774193548,26.0322581 0.870967742,25.3548387 0.967741935,24.7741935 L1.93548387,24.9677419 C1.74193548,25.5483871 1.74193548,26.2258065 1.64516129,26.8064516 L1.64516129,26.8064516 Z M58.6451613,25.2580645 C58.5483871,24.6774194 58.4516129,24 58.2580645,23.4193548 L59.2258065,23.2258065 C59.4193548,23.9032258 59.516129,24.483871 59.6129032,25.1612903 L58.6451613,25.2580645 L58.6451613,25.2580645 Z M2.32258065,23.0322581 L1.35483871,22.8387097 C1.5483871,22.1612903 1.64516129,21.5806452 1.93548387,20.9032258 L2.90322581,21.1935484 C2.61290323,21.7741935 2.41935484,22.4516129 2.32258065,23.0322581 L2.32258065,23.0322581 Z M57.7741935,21.5806452 C57.5806452,21 57.3870968,20.3225806 57.1935484,19.7419355 L58.0645161,19.3548387 C58.2580645,19.9354839 58.5483871,20.6129032 58.7419355,21.1935484 L57.7741935,21.5806452 L57.7741935,21.5806452 Z M3.48387097,19.3548387 L2.61290323,18.9677419 C2.80645161,18.3870968 3.09677419,17.7096774 3.38709677,17.1290323 L4.25806452,17.516129 C3.96774194,18.1935484 3.67741935,18.7741935 3.48387097,19.3548387 L3.48387097,19.3548387 Z M56.4193548,18 C56.1290323,17.4193548 55.8387097,16.8387097 55.5483871,16.2580645 L56.4193548,15.7741935 C56.7096774,16.3548387 57,16.9354839 57.2903226,17.516129 L56.4193548,18 L56.4193548,18 Z M5.12903226,15.9677419 L4.25806452,15.483871 C4.5483871,14.9032258 4.93548387,14.3225806 5.32258065,13.7419355 L6.09677419,14.2258065 C5.70967742,14.8064516 5.41935484,15.3870968 5.12903226,15.9677419 L5.12903226,15.9677419 Z M54.5806452,14.6129032 C54.1935484,14.0322581 53.9032258,13.5483871 53.516129,13.0645161 L54.2903226,12.483871 C54.6774194,13.0645161 55.0645161,13.5483871 55.4516129,14.1290323 L54.5806452,14.6129032 L54.5806452,14.6129032 Z M7.16129032,12.6774194 L6.38709677,12.0967742 C6.77419355,11.6129032 7.16129032,11.0322581 7.64516129,10.5483871 L8.41935484,11.2258065 C7.93548387,11.7096774 7.5483871,12.1935484 7.16129032,12.6774194 L7.16129032,12.6774194 Z M52.3548387,11.516129 C51.9677419,11.0322581 51.483871,10.5483871 51.0967742,10.0645161 L51.7741935,9.38709677 C52.2580645,9.87096774 52.6451613,10.3548387 53.1290323,10.8387097 L52.3548387,11.516129 L52.3548387,11.516129 Z M9.67741935,9.77419355 L9,9.09677419 C9.48387097,8.61290323 9.96774194,8.12903226 10.4516129,7.74193548 L11.1290323,8.41935484 C10.6451613,8.90322581 10.1612903,9.29032258 9.67741935,9.77419355 L9.67741935,9.77419355 Z M49.6451613,8.70967742 C49.1612903,8.32258065 48.6774194,7.83870968 48.1935484,7.4516129 L48.7741935,6.67741935 C49.2580645,7.06451613 49.8387097,7.5483871 50.3225806,7.93548387 L49.6451613,8.70967742 L49.6451613,8.70967742 Z M12.5806452,7.25806452 L12,6.48387097 C12.483871,6.09677419 13.0645161,5.70967742 13.6451613,5.32258065 L14.2258065,6.09677419 C13.5483871,6.48387097 13.0645161,6.87096774 12.5806452,7.25806452 L12.5806452,7.25806452 Z M46.6451613,6.29032258 C46.1612903,5.90322581 45.5806452,5.61290323 45,5.22580645 L45.483871,4.35483871 C46.0645161,4.74193548 46.6451613,5.03225806 47.1290323,5.41935484 L46.6451613,6.29032258 L46.6451613,6.29032258 Z M15.7741935,5.03225806 L15.2903226,4.16129032 C15.8709677,3.87096774 16.4516129,3.48387097 17.0322581,3.19354839 L17.4193548,4.06451613 C16.8387097,4.4516129 16.2580645,4.74193548 15.7741935,5.03225806 L15.7741935,5.03225806 Z M43.3548387,4.35483871 C42.7741935,4.06451613 42.1935484,3.77419355 41.6129032,3.58064516 L42,2.70967742 C42.5806452,3 43.2580645,3.29032258 43.8387097,3.58064516 L43.3548387,4.35483871 L43.3548387,4.35483871 Z M19.1612903,3.38709677 L18.7741935,2.51612903 C19.3548387,2.22580645 20.0322581,2.03225806 20.6129032,1.83870968 L20.9032258,2.70967742 C20.4193548,2.90322581 19.7419355,3.09677419 19.1612903,3.38709677 L19.1612903,3.38709677 Z M39.8709677,2.80645161 C39.2903226,2.61290323 38.6129032,2.41935484 38.0322581,2.22580645 L38.3225806,1.25806452 C39,1.4516129 39.5806452,1.64516129 40.2580645,1.83870968 L39.8709677,2.80645161 L39.8709677,2.80645161 Z M22.8387097,2.12903226 L22.5483871,1.16129032 C23.2258065,0.967741935 23.8064516,0.870967742 24.483871,0.677419355 L24.6774194,1.64516129 C24.0967742,1.83870968 23.4193548,1.93548387 22.8387097,2.12903226 L22.8387097,2.12903226 Z M36.1935484,1.74193548 C35.6129032,1.64516129 34.9354839,1.5483871 34.2580645,1.4516129 L34.3548387,0.483870968 C35.0322581,0.580645161 35.7096774,0.677419355 36.2903226,0.870967742 L36.1935484,1.74193548 L36.1935484,1.74193548 Z M26.6129032,1.35483871 L26.516129,0.387096774 C27.1935484,0.290322581 27.8709677,0.290322581 28.4516129,0.193548387 L28.5483871,1.16129032 C27.8709677,1.25806452 27.1935484,1.35483871 26.6129032,1.35483871 L26.6129032,1.35483871 Z M32.3225806,1.25806452 C32.0322581,1.25806452 31.7419355,1.25806452 31.4516129,1.16129032 L30.3870968,1.16129032 L30.3870968,0.193548387 L31.4516129,0.193548387 C31.7419355,0.193548387 32.0322581,0.193548387 32.3225806,0.290322581 L32.3225806,1.25806452 L32.3225806,1.25806452 Z" id="Shape" fill="#D9DDE0"></path>
                    <g id="Group" transform="translate(7.741935, 20.322581)">
                        <polygon id="Shape" fill="#1C75BC" points="14.3225806 26.6129032 6.87096774 1.93548387 0.677419355 2.61290323 0.580645161 1.64516129 7.5483871 0.870967742 15.2903226 26.3225806"></polygon>
                        <rect id="Rectangle-path" fill="#1C75BC" x="9.67741935" y="9" width="26.516129" height="0.967741935"></rect>
                        <rect id="Rectangle-path" fill="#1C75BC" x="10.8387097" y="13.5483871" width="23.7096774" height="0.967741935"></rect>
                        <rect id="Rectangle-path" fill="#1C75BC" x="12.5806452" y="18.1935484" width="20.8064516" height="0.967741935"></rect>
                        <rect id="Rectangle-path" fill="#1C75BC" x="20.8064516" y="28.5483871" width="4.25806452" height="0.967741935"></rect>
                        <rect id="Rectangle-path" fill="#1C75BC" transform="translate(15.494898, 16.181700) rotate(78.176555) translate(-15.494898, -16.181700) " x="8.47865201" y="15.6978209" width="14.0324928" height="0.967758121"></rect>
                        <rect id="Rectangle-path" fill="#1C75BC" transform="translate(19.348558, 16.161213) rotate(84.855595) translate(-19.348558, -16.161213) " x="12.5741728" y="15.6773284" width="13.5487697" height="0.967769266"></rect>
                        <rect id="Rectangle-path" fill="#1C75BC" transform="translate(23.215545, 16.240087) rotate(89.399793) translate(-23.215545, -16.240087) " x="16.6351965" y="15.7562379" width="13.1606963" height="0.967698257"></rect>
                        <rect id="Rectangle-path" fill="#1C75BC" transform="translate(26.704701, 16.248273) rotate(3.697540) translate(-26.704701, -16.248273) " x="26.2208393" y="9.66774923" width="0.967724103" height="13.1610478"></rect>
                        <rect id="Rectangle-path" fill="#1C75BC" transform="translate(30.386168, 16.228916) rotate(7.967227) translate(-30.386168, -16.228916) " x="29.90232" y="9.64858668" width="0.967695507" height="13.1606589"></rect>
                        <rect id="Rectangle-path" fill="#1C75BC" transform="translate(33.991321, 16.299774) rotate(14.022347) translate(-33.991321, -16.299774) " x="33.5074506" y="9.47720266" width="0.967740644" height="13.6451431"></rect>
                        <path d="M17.2258065,33.1935484 C15,33.1935484 13.1612903,31.3548387 13.1612903,29.1290323 C13.1612903,26.9032258 15,25.0645161 17.2258065,25.0645161 C19.4516129,25.0645161 21.2903226,26.9032258 21.2903226,29.1290323 C21.1935484,31.3548387 19.4516129,33.1935484 17.2258065,33.1935484 L17.2258065,33.1935484 Z M17.2258065,26.1290323 C15.483871,26.1290323 14.1290323,27.483871 14.1290323,29.2258065 C14.1290323,30.9677419 15.483871,32.3225806 17.2258065,32.3225806 C18.9677419,32.3225806 20.3225806,30.9677419 20.3225806,29.2258065 C20.3225806,27.483871 18.8709677,26.1290323 17.2258065,26.1290323 L17.2258065,26.1290323 Z" id="Shape" fill="#1C75BC"></path>
                        <path d="M28.7419355,33.1935484 C26.516129,33.1935484 24.6774194,31.3548387 24.6774194,29.1290323 C24.6774194,26.9032258 26.516129,25.0645161 28.7419355,25.0645161 C30.9677419,25.0645161 32.8064516,26.9032258 32.8064516,29.1290323 C32.8064516,31.3548387 30.9677419,33.1935484 28.7419355,33.1935484 L28.7419355,33.1935484 Z M28.7419355,26.1290323 C27,26.1290323 25.6451613,27.483871 25.6451613,29.2258065 C25.6451613,30.9677419 27,32.3225806 28.7419355,32.3225806 C30.483871,32.3225806 31.8387097,30.9677419 31.8387097,29.2258065 C31.8387097,27.483871 30.483871,26.1290323 28.7419355,26.1290323 L28.7419355,26.1290323 Z" id="Shape" fill="#1C75BC"></path>
                        <g opacity="0.54" transform="translate(12.580645, 22.258065)" id="Shape" fill="#1A6185">
                            <path d="M0.774193548,0.774193548 L20.2258065,0.677419355"></path>
                        </g>
                    </g>
                    <g id="Group" opacity="0.54" transform="translate(10.645161, 10.645161)" fill="#1A6185">
                        <path d="M13.0645161,12.5806452 C11.9032258,4.74193548 4.06451613,0.193548387 4.06451613,0.193548387 C4.06451613,0.193548387 2.32258065,0.870967742 0.0967741935,3.96774194 C5.80645161,5.12903226 9,8.61290323 11.8064516,12.7741935 L9.48387097,12.483871 L13.6451613,16.7419355 L14.9032258,11.516129 L13.0645161,12.5806452 L13.0645161,12.5806452 Z" id="Shape"></path>
                    </g>
                    <g id="Group" opacity="0.54" transform="translate(35.806452, 9.677419)" fill="#1A6185">
                        <path d="M16.3548387,4.25806452 C14.516129,0.483870968 12.6774194,0 12.6774194,0 C12.6774194,0 4.4516129,4.64516129 2.22580645,13.2580645 L0.483870968,11.8064516 L1.16129032,18 L5.70967742,13.4516129 L3.38709677,13.5483871 C6.58064516,8.90322581 10.5483871,5.03225806 16.3548387,4.25806452 L16.3548387,4.25806452 Z" id="Shape"></path>
                    </g>
                    <path d="M31.1612903,27.483871 L27.1935484,19.9354839 L29.7096774,20.8064516 C29.2258065,17.1290323 27.3870968,4.93548387 26.7096774,3.19354839 L26.516129,2.80645161 L26.9032258,2.70967742 C27,2.70967742 28.2580645,2.32258065 30.483871,2.22580645 C32.9032258,2.03225806 34.6451613,2.61290323 34.7419355,2.61290323 L35.0322581,2.70967742 L34.9354839,3 C34.9354839,3.09677419 33.483871,11.1290323 32.4193548,20.7096774 L34.8387097,19.9354839 L31.1612903,27.483871 L31.1612903,27.483871 Z M28.7419355,21.1935484 L31.2580645,25.9354839 L33.5806452,21.1935484 L31.7419355,21.7741935 L31.8387097,21.1935484 C32.8064516,12.483871 34.0645161,4.83870968 34.3548387,3.19354839 C33.7741935,3.09677419 32.4193548,2.80645161 30.6774194,2.90322581 C29.2258065,3 28.1612903,3.19354839 27.5806452,3.29032258 C28.3548387,6.09677419 30.0967742,17.6129032 30.5806452,21.1935484 L30.6774194,21.7741935 L28.7419355,21.1935484 L28.7419355,21.1935484 Z" id="Shape" fill="#1C75BC"></path>
                    <g id="Group" transform="translate(19.354839, 5.806452)" fill="#E4B465">
                        <ellipse id="Oval" cx="2.03225806" cy="1.83870968" rx="1.4516129" ry="1.4516129"></ellipse>
                        <circle id="Oval" cx="3.77419355" cy="6.09677419" r="1.06451613"></circle>
                        <ellipse id="Oval" cx="4.93548387" cy="9.87096774" rx="0.677419355" ry="0.677419355"></ellipse>
                        <ellipse id="Oval" cx="5.80645161" cy="13.0645161" rx="0.483870968" ry="0.483870968"></ellipse>
                    </g>
                    <g id="Group" transform="translate(34.838710, 5.806452)" fill="#E4B465">
                        <ellipse id="Oval" cx="4.64516129" cy="1.93548387" rx="1.4516129" ry="1.4516129"></ellipse>
                        <ellipse id="Oval" cx="2.90322581" cy="6.19354839" rx="1.06451613" ry="1.06451613"></ellipse>
                        <ellipse id="Oval" cx="1.74193548" cy="9.96774194" rx="0.677419355" ry="0.677419355"></ellipse>
                        <ellipse id="Oval" cx="0.870967742" cy="13.2580645" rx="0.483870968" ry="0.483870968"></ellipse>
                    </g>
                    <ellipse id="Oval" fill="#F2D7A4" cx="24.8709677" cy="49.5483871" rx="2.41935484" ry="2.41935484"></ellipse>
                    <ellipse id="Oval" fill="#F2D7A4" cx="36.6774194" cy="49.5483871" rx="2.41935484" ry="2.41935484"></ellipse>
                    <rect id="Rectangle-path" fill="#1C75BC" x="21.2903226" y="42.5806452" width="19.2580645" height="0.967741935"></rect>
                    <g id="Group" transform="translate(4.838710, 28.064516)" fill="#1C75BC" opacity="0.54">
                        <g>
                            <g transform="translate(8.709677, 4.838710)" id="Shape">
                                <g>
                                    <path d="M1.06451613,2.70967742 C0.774193548,2.70967742 0.580645161,2.61290323 0.387096774,2.51612903 C0.193548387,2.32258065 5.50097602e-14,2.03225806 5.50097602e-14,1.74193548 L5.50097602e-14,1.74193548 C5.50097602e-14,1.4516129 5.50097602e-14,1.16129032 0.193548387,0.967741935 C0.387096774,0.774193548 0.677419355,0.580645161 0.967741935,0.580645161 C1.25806452,0.580645161 1.5483871,0.580645161 1.74193548,0.774193548 C1.93548387,0.967741935 2.12903226,1.25806452 2.12903226,1.5483871 C2.12903226,1.83870968 2.12903226,2.12903226 1.93548387,2.32258065 C1.74193548,2.51612903 1.4516129,2.70967742 1.16129032,2.70967742 L1.06451613,2.70967742 L1.06451613,2.70967742 Z M1.06451613,0.967741935 C1.06451613,0.967741935 0.967741935,0.967741935 1.06451613,0.967741935 C0.774193548,0.967741935 0.677419355,1.06451613 0.580645161,1.25806452 C0.483870968,1.35483871 0.387096774,1.5483871 0.483870968,1.74193548 L0.483870968,1.74193548 C0.483870968,2.12903226 0.870967742,2.32258065 1.16129032,2.32258065 C1.35483871,2.32258065 1.4516129,2.22580645 1.5483871,2.12903226 C1.64516129,2.03225806 1.74193548,1.83870968 1.64516129,1.64516129 C1.64516129,1.4516129 1.5483871,1.35483871 1.4516129,1.25806452 C1.35483871,0.967741935 1.16129032,0.967741935 1.06451613,0.967741935 L1.06451613,0.967741935 Z"></path>
                                </g>
                            </g>
                            <g transform="translate(11.612903, 20.322581)" id="Shape">
                                <g>
                                    <path d="M1.83870968,2.12903226 C1.25806452,2.12903226 0.774193548,1.74193548 0.774193548,1.16129032 L0.774193548,1.16129032 C0.774193548,0.870967742 0.774193548,0.580645161 0.967741935,0.387096774 C1.16129032,0.193548387 1.4516129,0 1.74193548,0 C2.03225806,0 2.32258065,0 2.51612903,0.193548387 C2.70967742,0.387096774 2.90322581,0.677419355 2.90322581,0.967741935 C2.90322581,1.25806452 2.90322581,1.5483871 2.70967742,1.74193548 C2.51612903,1.93548387 2.22580645,2.12903226 1.93548387,2.12903226 C1.93548387,2.12903226 1.83870968,2.12903226 1.83870968,2.12903226 L1.83870968,2.12903226 Z M1.16129032,1.16129032 C1.16129032,1.35483871 1.25806452,1.4516129 1.35483871,1.5483871 C1.4516129,1.64516129 1.64516129,1.64516129 1.83870968,1.64516129 C2.03225806,1.64516129 2.12903226,1.5483871 2.22580645,1.4516129 C2.32258065,1.35483871 2.41935484,1.16129032 2.32258065,0.967741935 C2.32258065,0.774193548 2.22580645,0.677419355 2.12903226,0.580645161 C2.03225806,0.483870968 1.83870968,0.387096774 1.64516129,0.483870968 C1.4516129,0.483870968 1.35483871,0.580645161 1.25806452,0.677419355 C1.25806452,0.774193548 1.16129032,0.967741935 1.16129032,1.16129032 L1.16129032,1.16129032 L1.16129032,1.16129032 Z"></path>
                                </g>
                            </g>
                            <g transform="translate(5.806452, 10.645161)" id="Shape">
                                <g>
                                    <path d="M1.35483871,3.38709677 C1.06451613,3.38709677 0.774193548,3.29032258 0.580645161,3.09677419 C0.290322581,2.90322581 0.0967741935,2.61290323 0.0967741935,2.22580645 L0.0967741935,2.22580645 C-1.07580611e-13,1.4516129 0.483870968,0.870967742 1.25806452,0.774193548 C1.64516129,0.774193548 1.93548387,0.774193548 2.22580645,1.06451613 C2.51612903,1.25806452 2.70967742,1.5483871 2.70967742,1.93548387 C2.80645161,2.70967742 2.32258065,3.29032258 1.5483871,3.38709677 L1.35483871,3.38709677 L1.35483871,3.38709677 Z M1.35483871,1.16129032 L1.25806452,1.16129032 C1.06451613,1.16129032 0.870967742,1.35483871 0.677419355,1.4516129 C0.580645161,1.64516129 0.483870968,1.83870968 0.483870968,2.03225806 L0.483870968,2.03225806 C0.483870968,2.22580645 0.677419355,2.41935484 0.774193548,2.61290323 C0.967741935,2.70967742 1.16129032,2.80645161 1.4516129,2.80645161 C1.64516129,2.80645161 1.83870968,2.61290323 2.03225806,2.51612903 C2.12903226,2.32258065 2.22580645,2.12903226 2.22580645,1.93548387 C2.22580645,1.74193548 2.03225806,1.5483871 1.93548387,1.35483871 C1.74193548,1.25806452 1.5483871,1.16129032 1.35483871,1.16129032 L1.35483871,1.16129032 Z"></path>
                                </g>
                            </g>
                            <g transform="translate(0.000000, 5.806452)" id="Shape">
                                <g>
                                    <path d="M1.83870968,3.29032258 C1.5483871,3.29032258 1.25806452,3.19354839 1.06451613,3 C0.774193548,2.80645161 0.580645161,2.51612903 0.580645161,2.12903226 L0.580645161,2.12903226 C0.483870968,1.35483871 0.967741935,0.774193548 1.74193548,0.677419355 C2.51612903,0.580645161 3.09677419,1.06451613 3.19354839,1.83870968 C3.29032258,2.61290323 2.80645161,3.19354839 2.03225806,3.29032258 C2.03225806,3.29032258 1.93548387,3.29032258 1.83870968,3.29032258 L1.83870968,3.29032258 Z M1.83870968,1.16129032 L1.74193548,1.16129032 C1.25806452,1.25806452 0.967741935,1.64516129 0.967741935,2.12903226 L0.967741935,2.12903226 C0.967741935,2.32258065 1.16129032,2.51612903 1.25806452,2.70967742 C1.4516129,2.80645161 1.64516129,2.90322581 1.93548387,2.90322581 C2.12903226,2.90322581 2.32258065,2.70967742 2.51612903,2.61290323 C2.61290323,2.41935484 2.70967742,2.22580645 2.70967742,2.03225806 C2.61290323,1.4516129 2.32258065,1.16129032 1.83870968,1.16129032 L1.83870968,1.16129032 Z"></path>
                                </g>
                            </g>
                            <g transform="translate(0.967742, 0.000000)" id="Shape">
                                <g>
                                    <path d="M1.35483871,2.32258065 C1.16129032,2.32258065 0.870967742,2.22580645 0.677419355,2.12903226 C0.483870968,1.93548387 0.290322581,1.74193548 0.290322581,1.4516129 L0.290322581,1.4516129 C0.290322581,1.16129032 0.290322581,0.870967742 0.483870968,0.677419355 C0.677419355,0.483870968 0.870967742,0.290322581 1.16129032,0.290322581 C1.74193548,0.193548387 2.32258065,0.677419355 2.41935484,1.25806452 C2.41935484,1.5483871 2.41935484,1.83870968 2.22580645,2.03225806 C2.03225806,2.22580645 1.83870968,2.41935484 1.5483871,2.41935484 C1.4516129,2.32258065 1.35483871,2.32258065 1.35483871,2.32258065 L1.35483871,2.32258065 Z M1.35483871,0.677419355 C1.25806452,0.677419355 1.25806452,0.677419355 1.35483871,0.677419355 C1.16129032,0.677419355 0.967741935,0.774193548 0.870967742,0.870967742 C0.774193548,0.967741935 0.774193548,1.16129032 0.774193548,1.35483871 L0.774193548,1.35483871 C0.774193548,1.5483871 0.870967742,1.64516129 0.967741935,1.74193548 C1.06451613,1.83870968 1.25806452,1.83870968 1.4516129,1.83870968 C1.64516129,1.83870968 1.74193548,1.74193548 1.83870968,1.64516129 C1.93548387,1.5483871 1.93548387,1.35483871 1.93548387,1.16129032 C1.83870968,0.870967742 1.64516129,0.677419355 1.35483871,0.677419355 L1.35483871,0.677419355 Z"></path>
                                </g>
                            </g>
                            <g transform="translate(10.645161, 13.548387)" id="Shape">
                                <g>
                                    <path d="M1.93548387,2.32258065 C1.4516129,2.32258065 0.967741935,1.93548387 0.870967742,1.35483871 L0.870967742,1.35483871 C0.870967742,1.06451613 0.870967742,0.774193548 1.06451613,0.580645161 C1.25806452,0.387096774 1.4516129,0.193548387 1.74193548,0.193548387 C2.03225806,0.193548387 2.32258065,0.193548387 2.51612903,0.387096774 C2.70967742,0.580645161 2.90322581,0.774193548 2.90322581,1.06451613 C2.90322581,1.35483871 2.90322581,1.64516129 2.70967742,1.83870968 C2.51612903,2.03225806 2.32258065,2.22580645 2.03225806,2.22580645 C2.03225806,2.32258065 1.93548387,2.32258065 1.93548387,2.32258065 L1.93548387,2.32258065 Z M1.35483871,1.25806452 C1.35483871,1.5483871 1.64516129,1.83870968 2.03225806,1.74193548 C2.22580645,1.74193548 2.32258065,1.64516129 2.41935484,1.5483871 C2.51612903,1.4516129 2.51612903,1.25806452 2.51612903,1.16129032 C2.51612903,0.967741935 2.41935484,0.870967742 2.32258065,0.774193548 C2.22580645,0.677419355 2.03225806,0.677419355 1.93548387,0.677419355 C1.74193548,0.677419355 1.64516129,0.774193548 1.5483871,0.870967742 C1.35483871,0.967741935 1.25806452,1.16129032 1.35483871,1.25806452 L1.35483871,1.25806452 L1.35483871,1.25806452 Z"></path>
                                </g>
                            </g>
                            <g transform="translate(4.838710, 14.516129)" id="Shape">
                                <g>
                                    <path d="M1.35483871,2.61290323 C1.16129032,2.61290323 0.967741935,2.51612903 0.774193548,2.41935484 C0.387096774,2.12903226 0.290322581,1.4516129 0.580645161,1.06451613 C0.774193548,0.870967742 0.967741935,0.677419355 1.25806452,0.677419355 C1.5483871,0.677419355 1.74193548,0.677419355 1.93548387,0.870967742 C2.12903226,1.06451613 2.32258065,1.25806452 2.32258065,1.5483871 C2.32258065,1.83870968 2.32258065,2.03225806 2.12903226,2.22580645 C1.93548387,2.51612903 1.64516129,2.61290323 1.35483871,2.61290323 L1.35483871,2.61290323 Z M1.35483871,1.16129032 C1.16129032,1.16129032 1.06451613,1.25806452 0.967741935,1.35483871 C0.774193548,1.5483871 0.870967742,1.83870968 1.06451613,2.03225806 C1.25806452,2.22580645 1.5483871,2.12903226 1.74193548,1.93548387 C1.93548387,1.74193548 1.83870968,1.4516129 1.64516129,1.25806452 C1.5483871,1.16129032 1.4516129,1.16129032 1.35483871,1.16129032 L1.35483871,1.16129032 Z"></path>
                                </g>
                            </g>
                            <g transform="translate(6.774194, 6.774194)" id="Rectangle-path">
                                <g>
                                    <rect transform="translate(1.914271, 2.866084) rotate(22.507915) translate(-1.914271, -2.866084) " x="1.43041396" y="0.253256055" width="0.483857003" height="5.22565563"></rect>
                                </g>
                            </g>
                            <g transform="translate(7.741935, 12.580645)" id="Rectangle-path">
                                <g>
                                    <rect transform="translate(2.211053, 1.563019) rotate(13.957037) translate(-2.211053, -1.563019) " x="0.227134953" y="1.07913685" width="3.96783655" height="0.483882506"></rect>
                                </g>
                            </g>
                            <g transform="translate(1.935484, 7.741935)" id="Rectangle-path">
                                <g>
                                    <rect transform="translate(2.378560, 2.650974) rotate(43.537223) translate(-2.378560, -2.650974) " x="-0.0890902713" y="2.16712126" width="4.9352999" height="0.483852931"></rect>
                                </g>
                            </g>
                            <g transform="translate(5.806452, 13.548387)" id="Rectangle-path">
                                <g>
                                    <rect transform="translate(1.055526, 1.240568) rotate(18.179481) translate(-1.055526, -1.240568) " x="0.571646611" y="0.27280935" width="0.483879196" height="1.93551678"></rect>
                                </g>
                            </g>
                            <g transform="translate(0.967742, 1.935484)" id="Rectangle-path">
                                <g>
                                    <rect transform="translate(1.341758, 2.417742) rotate(3.588677) translate(-1.341758, -2.417742) " x="0.857906218" y="0.0952519253" width="0.483852003" height="4.64497922"></rect>
                                </g>
                            </g>
                            <g transform="translate(5.806452, 14.516129)" id="Rectangle-path">
                                <g>
                                    <rect transform="translate(3.557231, 1.222432) rotate(74.478036) translate(-3.557231, -1.222432) " x="3.07337371" y="-1.34200951" width="0.483856938" height="5.12888354"></rect>
                                </g>
                            </g>
                            <g transform="translate(0.967742, 7.741935)" id="Rectangle-path">
                                <g>
                                    <rect transform="translate(2.632084, 4.586613) rotate(62.199831) translate(-2.632084, -4.586613) " x="-1.23897313" y="4.10273078" width="7.74211401" height="0.483882126"></rect>
                                </g>
                            </g>
                            <g transform="translate(1.935484, 0.967742)" id="Rectangle-path">
                                <g>
                                    <rect transform="translate(3.980323, 2.978482) rotate(35.767464) translate(-3.980323, -2.978482) " x="0.254497109" y="2.49460882" width="7.45165094" height="0.483873438"></rect>
                                </g>
                            </g>
                            <g transform="translate(5.806452, 16.451613)" id="Rectangle-path">
                                <g>
                                    <rect transform="translate(3.768697, 2.645710) rotate(34.409962) translate(-3.768697, -2.645710) " x="0.0913454339" y="2.16184766" width="7.35470268" height="0.483862018"></rect>
                                </g>
                            </g>
                        </g>
                        <g transform="translate(8.709677, 6.774194)" id="Rectangle-path">
                            <g>
                                <rect transform="translate(2.248994, 3.917574) rotate(69.096590) translate(-2.248994, -3.917574) " x="-1.33171585" y="3.43369455" width="7.16141879" height="0.483879648"></rect>
                            </g>
                        </g>
                    </g>
                    <g id="Group" opacity="0.54" transform="translate(16.451613, 43.548387)" fill="#1C75BC">
                        <g id="Rectangle-path">
                            <rect transform="translate(1.363781, 2.774923) rotate(78.685573) translate(-1.363781, -2.774923) " x="-1.15243746" y="2.29103448" width="5.0324362" height="0.483888096"></rect>
                        </g>
                    </g>
                    <g id="Group" transform="translate(41.612903, 27.096774)" fill="#1C75BC" opacity="0.54">
                        <g>
                            <g transform="translate(10.645161, 0.000000)" id="Shape">
                                <g>
                                    <path d="M1.25806452,3 L1.16129032,3 C0.580645161,2.90322581 0.0967741935,2.41935484 0.193548387,1.83870968 C0.290322581,1.25806452 0.774193548,0.774193548 1.35483871,0.870967742 C1.93548387,0.967741935 2.41935484,1.4516129 2.32258065,2.03225806 L2.32258065,2.03225806 C2.32258065,2.61290323 1.83870968,3 1.25806452,3 L1.25806452,3 Z M1.25806452,1.35483871 C0.967741935,1.35483871 0.677419355,1.5483871 0.677419355,1.93548387 C0.677419355,2.22580645 0.870967742,2.61290323 1.25806452,2.61290323 C1.5483871,2.61290323 1.93548387,2.41935484 1.93548387,2.03225806 L1.93548387,2.03225806 C1.93548387,1.64516129 1.64516129,1.35483871 1.25806452,1.35483871 L1.25806452,1.35483871 L1.25806452,1.35483871 Z"></path>
                                </g>
                            </g>
                            <g transform="translate(0.000000, 1.935484)">
                                <g transform="translate(2.903226, 3.870968)" id="Shape">
                                    <g>
                                        <path d="M1.64516129,2.61290323 L1.5483871,2.61290323 C0.967741935,2.51612903 0.483870968,2.03225806 0.580645161,1.35483871 C0.677419355,0.774193548 1.16129032,0.290322581 1.83870968,0.387096774 C2.12903226,0.387096774 2.41935484,0.580645161 2.61290323,0.774193548 C2.80645161,0.967741935 2.90322581,1.25806452 2.80645161,1.5483871 L2.80645161,1.5483871 C2.70967742,2.12903226 2.22580645,2.61290323 1.64516129,2.61290323 L1.64516129,2.61290323 Z M1.64516129,0.870967742 C1.35483871,0.870967742 1.06451613,1.06451613 1.06451613,1.4516129 C1.06451613,1.83870968 1.25806452,2.12903226 1.64516129,2.12903226 C1.83870968,2.12903226 1.93548387,2.12903226 2.12903226,2.03225806 C2.22580645,1.93548387 2.32258065,1.74193548 2.32258065,1.64516129 L2.32258065,1.64516129 C2.32258065,1.4516129 2.32258065,1.35483871 2.22580645,1.16129032 C2.03225806,0.967741935 1.93548387,0.870967742 1.64516129,0.870967742 L1.64516129,0.870967742 L1.64516129,0.870967742 Z"></path>
                                    </g>
                                </g>
                                <g transform="translate(0.000000, 18.387097)" id="Shape">
                                    <g>
                                        <path d="M1.25806452,3.09677419 L1.16129032,3.09677419 C0.870967742,3.09677419 0.580645161,2.90322581 0.387096774,2.70967742 C0.193548387,2.51612903 0.0967741935,2.22580645 0.193548387,1.93548387 C0.193548387,1.64516129 0.387096774,1.35483871 0.580645161,1.16129032 C0.774193548,0.967741935 1.06451613,0.870967742 1.35483871,0.967741935 C1.64516129,0.967741935 1.93548387,1.16129032 2.12903226,1.35483871 C2.32258065,1.5483871 2.41935484,1.83870968 2.32258065,2.12903226 L2.32258065,2.12903226 C2.32258065,2.41935484 2.12903226,2.70967742 1.93548387,2.90322581 C1.74193548,3 1.5483871,3.09677419 1.25806452,3.09677419 L1.25806452,3.09677419 Z M1.25806452,1.35483871 C1.16129032,1.35483871 0.967741935,1.35483871 0.870967742,1.4516129 C0.774193548,1.5483871 0.677419355,1.74193548 0.677419355,1.83870968 C0.677419355,2.03225806 0.677419355,2.12903226 0.774193548,2.32258065 C0.870967742,2.41935484 1.06451613,2.51612903 1.16129032,2.51612903 C1.35483871,2.51612903 1.4516129,2.51612903 1.64516129,2.41935484 C1.74193548,2.32258065 1.83870968,2.12903226 1.83870968,2.03225806 L1.83870968,2.03225806 C1.83870968,1.83870968 1.83870968,1.74193548 1.74193548,1.5483871 C1.64516129,1.4516129 1.4516129,1.35483871 1.25806452,1.35483871 L1.25806452,1.35483871 L1.25806452,1.35483871 Z"></path>
                                    </g>
                                </g>
                                <g transform="translate(5.806452, 9.677419)" id="Shape">
                                    <g>
                                        <path d="M1.5483871,3.19354839 L1.35483871,3.19354839 C0.580645161,3.09677419 0.0967741935,2.41935484 0.193548387,1.74193548 C0.193548387,1.35483871 0.387096774,1.06451613 0.677419355,0.870967742 C0.967741935,0.677419355 1.25806452,0.580645161 1.64516129,0.580645161 C2.03225806,0.580645161 2.32258065,0.774193548 2.51612903,1.06451613 C2.70967742,1.35483871 2.80645161,1.64516129 2.80645161,2.03225806 C2.80645161,2.41935484 2.61290323,2.70967742 2.32258065,2.90322581 C2.12903226,3.09677419 1.83870968,3.19354839 1.5483871,3.19354839 L1.5483871,3.19354839 Z M1.4516129,1.06451613 C1.25806452,1.06451613 1.06451613,1.16129032 0.967741935,1.25806452 C0.774193548,1.35483871 0.677419355,1.64516129 0.677419355,1.83870968 C0.580645161,2.32258065 0.967741935,2.70967742 1.4516129,2.80645161 C1.64516129,2.80645161 1.93548387,2.80645161 2.03225806,2.61290323 C2.22580645,2.51612903 2.32258065,2.22580645 2.32258065,2.03225806 L2.32258065,2.03225806 C2.32258065,1.83870968 2.32258065,1.5483871 2.12903226,1.4516129 C2.03225806,1.16129032 1.83870968,1.06451613 1.4516129,1.06451613 L1.4516129,1.06451613 L1.4516129,1.06451613 Z"></path>
                                    </g>
                                </g>
                                <g transform="translate(10.645161, 4.838710)" id="Shape">
                                    <g>
                                        <path d="M1.83870968,3 L1.64516129,3 C1.25806452,3 0.967741935,2.80645161 0.774193548,2.51612903 C0.580645161,2.22580645 0.483870968,1.93548387 0.483870968,1.5483871 C0.483870968,1.16129032 0.677419355,0.870967742 0.967741935,0.677419355 C1.25806452,0.483870968 1.5483871,0.387096774 1.93548387,0.387096774 C2.32258065,0.387096774 2.61290323,0.580645161 2.80645161,0.870967742 C3,1.16129032 3.09677419,1.4516129 3.09677419,1.83870968 L3.09677419,1.83870968 C3.09677419,2.22580645 2.90322581,2.51612903 2.61290323,2.70967742 C2.41935484,2.90322581 2.12903226,3 1.83870968,3 L1.83870968,3 Z M1.83870968,0.774193548 C1.64516129,0.774193548 1.4516129,0.870967742 1.35483871,0.967741935 C1.16129032,1.06451613 1.06451613,1.35483871 1.06451613,1.5483871 C1.06451613,1.74193548 1.06451613,2.03225806 1.25806452,2.12903226 C1.35483871,2.32258065 1.64516129,2.41935484 1.83870968,2.41935484 C2.32258065,2.51612903 2.70967742,2.12903226 2.80645161,1.64516129 C2.80645161,1.4516129 2.80645161,1.16129032 2.61290323,1.06451613 C2.41935484,0.967741935 2.22580645,0.870967742 1.83870968,0.774193548 L1.83870968,0.774193548 L1.83870968,0.774193548 Z"></path>
                                    </g>
                                </g>
                                <g transform="translate(0.967742, 12.580645)" id="Shape">
                                    <g>
                                        <path d="M1.06451613,2.22580645 L0.967741935,2.22580645 C0.387096774,2.12903226 0,1.64516129 0,1.06451613 C0,0.774193548 0.193548387,0.483870968 0.387096774,0.387096774 C0.580645161,0.193548387 0.870967742,0.0967741935 1.16129032,0.193548387 C1.4516129,0.193548387 1.74193548,0.387096774 1.83870968,0.580645161 C2.03225806,0.774193548 2.12903226,1.06451613 2.03225806,1.35483871 C2.03225806,1.64516129 1.83870968,1.93548387 1.64516129,2.03225806 C1.5483871,2.12903226 1.25806452,2.22580645 1.06451613,2.22580645 L1.06451613,2.22580645 Z M1.06451613,0.580645161 C0.774193548,0.580645161 0.483870968,0.774193548 0.483870968,1.06451613 C0.483870968,1.35483871 0.677419355,1.64516129 0.967741935,1.74193548 C1.16129032,1.74193548 1.25806452,1.74193548 1.35483871,1.64516129 C1.4516129,1.5483871 1.5483871,1.4516129 1.5483871,1.25806452 L1.5483871,1.25806452 C1.5483871,1.06451613 1.5483871,0.967741935 1.4516129,0.870967742 C1.35483871,0.677419355 1.25806452,0.580645161 1.06451613,0.580645161 L1.06451613,0.580645161 L1.06451613,0.580645161 Z"></path>
                                    </g>
                                </g>
                                <g transform="translate(6.774194, 13.548387)" id="Shape">
                                    <g>
                                        <path d="M1.5483871,2.41935484 C1.25806452,2.41935484 0.967741935,2.32258065 0.774193548,2.03225806 C0.483870968,1.64516129 0.483870968,0.967741935 0.967741935,0.677419355 C1.35483871,0.387096774 2.03225806,0.387096774 2.32258065,0.870967742 C2.51612903,1.06451613 2.51612903,1.35483871 2.51612903,1.5483871 C2.51612903,1.83870968 2.32258065,2.03225806 2.12903226,2.22580645 C2.03225806,2.32258065 1.74193548,2.41935484 1.5483871,2.41935484 L1.5483871,2.41935484 Z M1.5483871,0.967741935 C1.4516129,0.967741935 1.35483871,0.967741935 1.25806452,1.06451613 C1.16129032,1.16129032 1.06451613,1.25806452 1.06451613,1.35483871 C1.06451613,1.4516129 1.06451613,1.64516129 1.16129032,1.74193548 C1.35483871,1.93548387 1.64516129,2.03225806 1.83870968,1.83870968 C1.93548387,1.74193548 2.03225806,1.64516129 2.03225806,1.5483871 C2.03225806,1.4516129 2.03225806,1.25806452 1.93548387,1.16129032 L1.93548387,1.16129032 C1.83870968,0.967741935 1.74193548,0.967741935 1.5483871,0.967741935 L1.5483871,0.967741935 Z"></path>
                                    </g>
                                </g>
                                <g transform="translate(3.870968, 5.806452)" id="Rectangle-path">
                                    <g>
                                        <rect transform="translate(1.764600, 2.743906) rotate(66.159675) translate(-1.764600, -2.743906) " x="-0.848373421" y="2.26002248" width="5.22594684" height="0.483883967"></rect>
                                    </g>
                                </g>
                                <g transform="translate(1.935484, 11.612903)" id="Rectangle-path">
                                    <g>
                                        <rect transform="translate(2.705235, 1.389634) rotate(74.710207) translate(-2.705235, -1.389634) " x="2.22136673" y="-0.594228021" width="0.483868754" height="3.96772378"></rect>
                                    </g>
                                </g>
                                <g transform="translate(7.741935, 6.774194)" id="Rectangle-path">
                                    <g>
                                        <rect transform="translate(2.391266, 2.453656) rotate(45.162058) translate(-2.391266, -2.453656) " x="1.90739787" y="-0.0140716892" width="0.483868263" height="4.93545628"></rect>
                                    </g>
                                </g>
                                <g transform="translate(6.774194, 11.612903)" id="Rectangle-path">
                                    <g>
                                        <rect transform="translate(0.919161, 1.972568) rotate(70.530407) translate(-0.919161, -1.972568) " x="-0.0485616434" y="1.48870628" width="1.93544587" height="0.483861467"></rect>
                                    </g>
                                </g>
                                <g transform="translate(10.645161, 0.000000)" id="Rectangle-path">
                                    <g>
                                        <rect transform="translate(1.328429, 3.053862) rotate(85.142996) translate(-1.328429, -3.053862) " x="-0.994130072" y="2.56999555" width="4.6451188" height="0.483866541"></rect>
                                    </g>
                                </g>
                                <g transform="translate(1.935484, 13.548387)" id="Rectangle-path">
                                    <g>
                                        <rect transform="translate(3.272274, 1.140494) rotate(14.205782) translate(-3.272274, -1.140494) " x="0.707812535" y="0.656632858" width="5.12892332" height="0.48386069"></rect>
                                    </g>
                                </g>
                                <g transform="translate(8.709677, 6.774194)" id="Rectangle-path">
                                    <g>
                                        <rect transform="translate(2.209335, 4.394506) rotate(26.467684) translate(-2.209335, -4.394506) " x="1.72545689" y="0.523477684" width="0.483878596" height="7.74205753"></rect>
                                    </g>
                                </g>
                                <g transform="translate(4.838710, 0.000000)" id="Rectangle-path">
                                    <g>
                                        <rect transform="translate(3.559185, 2.731790) rotate(52.856220) translate(-3.559185, -2.731790) " x="3.07532834" y="-0.993909663" width="0.483857141" height="7.45139997"></rect>
                                    </g>
                                </g>
                                <g transform="translate(0.967742, 14.516129)" id="Rectangle-path">
                                    <g>
                                        <rect transform="translate(4.130594, 3.461168) rotate(54.294472) translate(-4.130594, -3.461168) " x="3.6467388" y="-0.216128344" width="0.483854748" height="7.35459217"></rect>
                                    </g>
                                </g>
                            </g>
                        </g>
                        <g transform="translate(0.967742, 7.741935)" id="Rectangle-path">
                            <g>
                                <rect transform="translate(2.384347, 3.711315) rotate(16.564790) translate(-2.384347, -3.711315) " x="1.90047478" y="0.0822745282" width="0.483871998" height="7.25807998"></rect>
                            </g>
                        </g>
                    </g>
                    <g id="Group" opacity="0.54" transform="translate(42.580645, 42.580645)" fill="#1C75BC">
                        <g id="Rectangle-path">
                            <rect transform="translate(0.887206, 3.506855) rotate(6.493942) translate(-0.887206, -3.506855) " x="0.403327604" y="0.990684832" width="0.483878848" height="5.03234001"></rect>
                        </g>
                    </g>
                </g>
            </g>
        </g>
    </g>
</svg>