<?xml version="1.0" encoding="UTF-8"?>
<svg width="60px" height="60px" viewBox="0 0 60 60" version="1.1" xmlns="http://www.w3.org/2000/svg" xmlns:xlink="http://www.w3.org/1999/xlink">
    <!-- Generator: Sketch 39 (31667) - http://www.bohemiancoding.com/sketch -->
    <title>about-dutch-team</title>
    <desc>Created with Sketch.</desc>
    <defs></defs>
    <g id="Symbols" stroke="none" stroke-width="1" fill="none" fill-rule="evenodd">
        <g id="about-dutch-team">
            <g id="12">
                <g id="Layer_1">
                    <g id="Group">
                        <rect id="Rectangle-path" fill="#1C75BC" transform="translate(19.447209, 37.261370) rotate(89.220823) translate(-19.447209, -37.261370) " x="18.9710222" y="33.8804428" width="0.476186889" height="6.76185383"></rect>
                        <rect id="Rectangle-path" fill="#1C75BC" transform="translate(21.001314, 35.908436) rotate(0.239875) translate(-21.001314, -35.908436) " x="18.6679602" y="35.4322415" width="4.66670756" height="0.476194649"></rect>
                        <rect id="Rectangle-path" fill="#1C75BC" transform="translate(19.287275, 38.670116) rotate(0.239875) translate(-19.287275, -38.670116) " x="16.9539209" y="38.1939215" width="4.66670756" height="0.476194649"></rect>
                        <rect id="Rectangle-path" fill="#1C75BC" transform="translate(40.380915, 18.397128) rotate(89.220823) translate(-40.380915, -18.397128) " x="39.9047281" y="15.0162008" width="0.476186889" height="6.76185383"></rect>
                        <rect id="Rectangle-path" fill="#1C75BC" transform="translate(42.049085, 17.051056) rotate(0.239880) translate(-42.049085, -17.051056) " x="39.7157317" y="16.5748616" width="4.66670757" height="0.47619465"></rect>
                        <rect id="Rectangle-path" fill="#1C75BC" transform="translate(40.239746, 19.813074) rotate(0.239875) translate(-40.239746, -19.813074) " x="37.9063925" y="19.3368794" width="4.66670756" height="0.476194649"></rect>
                        <g transform="translate(5.714286, 13.333333)">
                            <g transform="translate(4.761905, 1.904762)" fill="#E4B465">
                                <path d="M0.571428571,4.95238095 L0.571428571,4.95238095 C0.285714286,4.95238095 0.0952380952,4.76190476 0.0952380952,4.47619048 L0.0952380952,0.952380952 C0.0952380952,0.666666667 0.285714286,0.476190476 0.571428571,0.476190476 L0.571428571,0.476190476 C0.857142857,0.476190476 1.04761905,0.666666667 1.04761905,0.952380952 L1.04761905,4.47619048 C1.04761905,4.76190476 0.857142857,4.95238095 0.571428571,4.95238095 L0.571428571,4.95238095 Z" id="Shape"></path>
                                <ellipse id="Oval" cx="0.571428571" cy="6.0952381" rx="0.476190476" ry="0.476190476"></ellipse>
                            </g>
                            <g opacity="0.54" id="Shape" fill="#1A6185">
                                <g>
                                    <path d="M5.33333333,10.2857143 C2.66666667,10.2857143 0.476190476,8.0952381 0.476190476,5.42857143 C0.476190476,2.76190476 2.66666667,0.571428571 5.33333333,0.571428571 C8,0.571428571 10.1904762,2.76190476 10.1904762,5.42857143 C10.0952381,8.0952381 8,10.2857143 5.33333333,10.2857143 L5.33333333,10.2857143 Z M5.33333333,1.61904762 C3.23809524,1.61904762 1.42857143,3.33333333 1.42857143,5.52380952 C1.42857143,7.61904762 3.14285714,9.42857143 5.33333333,9.42857143 C7.42857143,9.42857143 9.23809524,7.71428571 9.23809524,5.52380952 C9.14285714,3.33333333 7.42857143,1.61904762 5.33333333,1.61904762 L5.33333333,1.61904762 Z"></path>
                                </g>
                            </g>
                        </g>
                        <g transform="translate(45.714286, 19.047619)">
                            <g transform="translate(2.857143, 1.904762)" fill="#E4B465">
                                <path d="M1.04761905,3.61904762 L1.04761905,3.61904762 C0.857142857,3.61904762 0.666666667,3.42857143 0.666666667,3.23809524 L0.666666667,0.761904762 C0.666666667,0.571428571 0.857142857,0.380952381 1.04761905,0.380952381 L1.04761905,0.380952381 C1.23809524,0.380952381 1.42857143,0.571428571 1.42857143,0.761904762 L1.42857143,3.23809524 C1.42857143,3.42857143 1.23809524,3.61904762 1.04761905,3.61904762 L1.04761905,3.61904762 Z" id="Shape"></path>
                                <ellipse id="Oval" cx="1.04761905" cy="4.38095238" rx="0.380952381" ry="0.380952381"></ellipse>
                            </g>
                            <g opacity="0.54" id="Shape" fill="#1A6185">
                                <g>
                                    <path d="M3.9047619,8.0952381 C1.9047619,8.0952381 0.285714286,6.47619048 0.285714286,4.47619048 C0.285714286,2.47619048 1.9047619,0.857142857 3.9047619,0.857142857 C5.9047619,0.857142857 7.52380952,2.47619048 7.52380952,4.47619048 C7.52380952,6.47619048 5.9047619,8.0952381 3.9047619,8.0952381 L3.9047619,8.0952381 Z M3.9047619,1.80952381 C2.47619048,1.80952381 1.23809524,3.04761905 1.23809524,4.47619048 C1.23809524,5.9047619 2.47619048,7.14285714 3.9047619,7.14285714 C5.33333333,7.14285714 6.57142857,5.9047619 6.57142857,4.47619048 C6.57142857,3.04761905 5.33333333,1.80952381 3.9047619,1.80952381 L3.9047619,1.80952381 Z"></path>
                                </g>
                            </g>
                        </g>
                        <path d="M29.8095238,58.8571429 C29.1428571,58.8571429 28.5714286,58.8571429 27.9047619,58.7619048 L28,57.8095238 C28.5714286,57.8095238 29.2380952,57.9047619 29.8095238,57.9047619 L29.8095238,58.6666667 L29.8095238,58.8571429 L29.8095238,58.8571429 L29.8095238,58.8571429 Z M31.7142857,58.7619048 L31.6190476,57.8095238 C32.2857143,57.8095238 32.8571429,57.7142857 33.4285714,57.6190476 L33.5238095,58.5714286 C32.952381,58.6666667 32.3809524,58.6666667 31.7142857,58.7619048 L31.7142857,58.7619048 Z M26,58.5714286 C25.3333333,58.4761905 24.7619048,58.3809524 24.0952381,58.2857143 L24.2857143,57.3333333 C24.8571429,57.4285714 25.5238095,57.5238095 26.0952381,57.6190476 L26,58.5714286 L26,58.5714286 Z M35.5238095,58.2857143 L35.3333333,57.3333333 C35.9047619,57.2380952 36.5714286,57.047619 37.1428571,56.952381 L37.4285714,57.9047619 C36.7619048,58 36.1904762,58.0952381 35.5238095,58.2857143 L35.5238095,58.2857143 Z M22.1904762,57.8095238 C21.6190476,57.6190476 20.952381,57.4285714 20.3809524,57.2380952 L20.6666667,56.3809524 C21.2380952,56.5714286 21.8095238,56.7619048 22.4761905,56.952381 L22.1904762,57.8095238 L22.1904762,57.8095238 Z M39.2380952,57.2380952 L38.952381,56.3809524 C39.5238095,56.1904762 40.0952381,56 40.6666667,55.7142857 L41.047619,56.5714286 C40.4761905,56.8571429 39.8095238,57.047619 39.2380952,57.2380952 L39.2380952,57.2380952 Z M18.5714286,56.5714286 C18,56.2857143 17.4285714,56.0952381 16.8571429,55.8095238 L17.2380952,54.952381 C17.8095238,55.2380952 18.3809524,55.5238095 18.952381,55.7142857 L18.5714286,56.5714286 L18.5714286,56.5714286 Z M42.7619048,55.8095238 L42.3809524,54.952381 C42.952381,54.6666667 43.5238095,54.3809524 44,54.0952381 L44.4761905,54.952381 C43.9047619,55.2380952 43.3333333,55.5238095 42.7619048,55.8095238 L42.7619048,55.8095238 Z M15.1428571,54.952381 C14.5714286,54.6666667 14,54.2857143 13.5238095,53.9047619 L14.0952381,53.1428571 C14.5714286,53.5238095 15.1428571,53.8095238 15.7142857,54.0952381 L15.1428571,54.952381 L15.1428571,54.952381 Z M46.0952381,53.9047619 L45.5238095,53.1428571 C46,52.7619048 46.5714286,52.4761905 47.047619,52.0952381 L47.6190476,52.8571429 C47.1428571,53.1428571 46.5714286,53.5238095 46.0952381,53.9047619 L46.0952381,53.9047619 Z M11.9047619,52.7619048 C11.4285714,52.3809524 10.8571429,52 10.3809524,51.5238095 L11.047619,50.7619048 C11.5238095,51.1428571 12,51.5238095 12.4761905,51.9047619 L11.9047619,52.7619048 L11.9047619,52.7619048 Z M49.1428571,51.5238095 L48.4761905,50.7619048 C48.952381,50.3809524 49.4285714,49.9047619 49.8095238,49.5238095 L50.4761905,50.1904762 C50.0952381,50.6666667 49.6190476,51.1428571 49.1428571,51.5238095 L49.1428571,51.5238095 Z M9.04761905,50.2857143 C8.57142857,49.8095238 8.19047619,49.3333333 7.71428571,48.8571429 L8.47619048,48.1904762 C8.85714286,48.6666667 9.33333333,49.1428571 9.71428571,49.5238095 L9.04761905,50.2857143 L9.04761905,50.2857143 Z M51.8095238,48.8571429 L51.047619,48.1904762 C51.4285714,47.7142857 51.8095238,47.2380952 52.1904762,46.7619048 L52.952381,47.3333333 C52.6666667,47.8095238 52.2857143,48.2857143 51.8095238,48.8571429 L51.8095238,48.8571429 Z M6.47619048,47.3333333 C6.0952381,46.8571429 5.71428571,46.2857143 5.33333333,45.8095238 L6.0952381,45.2380952 C6.47619048,45.7142857 6.76190476,46.2857143 7.14285714,46.7619048 L6.47619048,47.3333333 L6.47619048,47.3333333 Z M54.1904762,45.8095238 L53.4285714,45.2380952 C53.8095238,44.7619048 54.0952381,44.1904762 54.3809524,43.6190476 L55.2380952,44.0952381 C54.8571429,44.6666667 54.5714286,45.2380952 54.1904762,45.8095238 L54.1904762,45.8095238 Z M4.38095238,44.1904762 C4.0952381,43.6190476 3.71428571,43.047619 3.42857143,42.4761905 L4.28571429,42.0952381 C4.57142857,42.6666667 4.85714286,43.2380952 5.14285714,43.7142857 L4.38095238,44.1904762 L4.38095238,44.1904762 Z M56.0952381,42.4761905 L55.2380952,42.0952381 C55.5238095,41.5238095 55.8095238,40.952381 56,40.3809524 L56.8571429,40.7619048 C56.6666667,41.2380952 56.3809524,41.9047619 56.0952381,42.4761905 L56.0952381,42.4761905 Z M2.66666667,40.7619048 C2.38095238,40.1904762 2.19047619,39.6190476 2,38.952381 L2.85714286,38.6666667 C3.04761905,39.2380952 3.23809524,39.8095238 3.52380952,40.3809524 L2.66666667,40.7619048 L2.66666667,40.7619048 Z M57.6190476,38.8571429 L56.7619048,38.5714286 C56.952381,38 57.1428571,37.4285714 57.3333333,36.7619048 L58.2857143,37.047619 C58,37.7142857 57.8095238,38.2857143 57.6190476,38.8571429 L57.6190476,38.8571429 Z M1.42857143,37.1428571 C1.23809524,36.5714286 1.14285714,35.9047619 0.952380952,35.2380952 L1.9047619,35.047619 C2,35.6190476 2.19047619,36.2857143 2.28571429,36.8571429 L1.42857143,37.1428571 L1.42857143,37.1428571 Z M58.5714286,35.1428571 L57.6190476,34.952381 C57.7142857,34.3809524 57.8095238,33.7142857 57.9047619,33.1428571 L58.8571429,33.2380952 C58.7619048,33.9047619 58.6666667,34.5714286 58.5714286,35.1428571 L58.5714286,35.1428571 Z M0.666666667,33.3333333 C0.571428571,32.6666667 0.476190476,32.0952381 0.476190476,31.4285714 L1.42857143,31.3333333 C1.42857143,32 1.52380952,32.5714286 1.61904762,33.1428571 L0.666666667,33.3333333 L0.666666667,33.3333333 Z M59.047619,31.3333333 L58.0952381,31.2380952 C58.0952381,30.6666667 58.1904762,30 58.1904762,29.4285714 L58.1904762,29.3333333 L59.1428571,29.3333333 L59.1428571,29.4285714 C59.1428571,30.0952381 59.1428571,30.7619048 59.047619,31.3333333 L59.047619,31.3333333 Z M0.380952381,29.5238095 L0.380952381,29.5238095 C0.380952381,28.8571429 0.380952381,28.1904762 0.476190476,27.6190476 L1.42857143,27.7142857 C1.42857143,28.2857143 1.33333333,28.952381 1.33333333,29.5238095 L0.380952381,29.5238095 L0.380952381,29.5238095 Z M58.0952381,27.5238095 C58.0952381,26.8571429 58,26.2857143 57.9047619,25.7142857 L58.8571429,25.6190476 C58.952381,26.2857143 59.047619,26.8571429 59.047619,27.5238095 L58.0952381,27.5238095 L58.0952381,27.5238095 Z M1.61904762,25.8095238 L0.666666667,25.7142857 C0.761904762,25.047619 0.857142857,24.4761905 0.952380952,23.8095238 L1.9047619,24 C1.80952381,24.5714286 1.71428571,25.2380952 1.61904762,25.8095238 L1.61904762,25.8095238 Z M57.6190476,23.8095238 C57.5238095,23.2380952 57.3333333,22.5714286 57.2380952,22 L58.1904762,21.7142857 C58.3809524,22.2857143 58.4761905,22.952381 58.6666667,23.6190476 L57.6190476,23.8095238 L57.6190476,23.8095238 Z M2.28571429,22.1904762 L1.33333333,21.9047619 C1.52380952,21.2380952 1.71428571,20.6666667 1.9047619,20.0952381 L2.76190476,20.3809524 C2.66666667,20.952381 2.47619048,21.6190476 2.28571429,22.1904762 L2.28571429,22.1904762 Z M56.6666667,20.1904762 C56.4761905,19.6190476 56.2857143,19.047619 56,18.4761905 L56.8571429,18.0952381 C57.1428571,18.6666667 57.3333333,19.2380952 57.5238095,19.9047619 L56.6666667,20.1904762 L56.6666667,20.1904762 Z M3.52380952,18.6666667 L2.66666667,18.2857143 C2.95238095,17.7142857 3.14285714,17.1428571 3.42857143,16.5714286 L4.28571429,16.952381 C4,17.5238095 3.71428571,18.0952381 3.52380952,18.6666667 L3.52380952,18.6666667 Z M55.2380952,16.7619048 C54.952381,16.1904762 54.6666667,15.6190476 54.3809524,15.1428571 L55.2380952,14.6666667 C55.5238095,15.2380952 55.9047619,15.8095238 56.1904762,16.3809524 L55.2380952,16.7619048 L55.2380952,16.7619048 Z M5.14285714,15.3333333 L4.28571429,14.8571429 C4.57142857,14.2857143 4.95238095,13.7142857 5.33333333,13.2380952 L6.0952381,13.8095238 C5.80952381,14.2857143 5.42857143,14.7619048 5.14285714,15.3333333 L5.14285714,15.3333333 Z M53.3333333,13.6190476 C52.952381,13.1428571 52.6666667,12.5714286 52.2857143,12.0952381 L53.047619,11.5238095 C53.4285714,12 53.8095238,12.5714286 54.1904762,13.047619 L53.3333333,13.6190476 L53.3333333,13.6190476 Z M7.14285714,12.1904762 L6.38095238,11.6190476 C6.76190476,11.1428571 7.14285714,10.5714286 7.61904762,10.0952381 L8.38095238,10.7619048 C8,11.2380952 7.52380952,11.7142857 7.14285714,12.1904762 L7.14285714,12.1904762 Z M51.047619,10.6666667 C50.6666667,10.1904762 50.1904762,9.71428571 49.8095238,9.33333333 L50.4761905,8.66666667 C50.952381,9.14285714 51.3333333,9.61904762 51.8095238,10.0952381 L51.047619,10.6666667 L51.047619,10.6666667 Z M9.61904762,9.42857143 L8.95238095,8.76190476 C9.42857143,8.28571429 9.9047619,7.9047619 10.3809524,7.42857143 L11.047619,8.19047619 C10.4761905,8.57142857 10.0952381,8.95238095 9.61904762,9.42857143 L9.61904762,9.42857143 Z M48.3809524,8 C47.9047619,7.61904762 47.4285714,7.23809524 46.952381,6.85714286 L47.5238095,6.0952381 C48,6.47619048 48.5714286,6.85714286 49.047619,7.33333333 L48.3809524,8 L48.3809524,8 Z M12.3809524,6.95238095 L11.8095238,6.19047619 C12.2857143,5.80952381 12.8571429,5.42857143 13.3333333,5.04761905 L13.9047619,5.80952381 C13.4285714,6.19047619 12.8571429,6.57142857 12.3809524,6.95238095 L12.3809524,6.95238095 Z M45.4285714,5.80952381 C44.952381,5.42857143 44.3809524,5.14285714 43.8095238,4.85714286 L44.2857143,4 C44.8571429,4.28571429 45.4285714,4.66666667 45.9047619,5.04761905 L45.4285714,5.80952381 L45.4285714,5.80952381 Z M15.5238095,4.85714286 L15.047619,4 C15.6190476,3.71428571 16.1904762,3.33333333 16.7619048,3.04761905 L17.1428571,3.9047619 C16.5714286,4.28571429 16,4.57142857 15.5238095,4.85714286 L15.5238095,4.85714286 Z M42.1904762,3.9047619 C41.6190476,3.61904762 41.047619,3.33333333 40.4761905,3.14285714 L40.8571429,2.28571429 C41.4285714,2.57142857 42,2.76190476 42.5714286,3.04761905 L42.1904762,3.9047619 L42.1904762,3.9047619 Z M18.8571429,3.23809524 L18.4761905,2.38095238 C19.047619,2.0952381 19.7142857,1.9047619 20.2857143,1.71428571 L20.5714286,2.57142857 C20,2.76190476 19.4285714,3.04761905 18.8571429,3.23809524 L18.8571429,3.23809524 Z M38.7619048,2.57142857 C38.1904762,2.38095238 37.6190476,2.19047619 36.952381,2 L37.2380952,1.04761905 C37.8095238,1.23809524 38.4761905,1.42857143 39.047619,1.61904762 L38.7619048,2.57142857 L38.7619048,2.57142857 Z M22.2857143,2 L22,1.04761905 C22.5714286,0.857142857 23.2380952,0.761904762 23.9047619,0.571428571 L24.0952381,1.52380952 C23.5238095,1.71428571 22.952381,1.9047619 22.2857143,2 L22.2857143,2 Z M35.2380952,1.61904762 C34.6666667,1.52380952 34,1.42857143 33.4285714,1.33333333 L33.5238095,0.380952381 C34.1904762,0.476190476 34.7619048,0.571428571 35.4285714,0.666666667 L35.2380952,1.61904762 L35.2380952,1.61904762 Z M26,1.33333333 L25.9047619,0.380952381 C26.5714286,0.285714286 27.1428571,0.19047619 27.8095238,0.19047619 L27.9047619,1.14285714 C27.1428571,1.14285714 26.5714286,1.23809524 26,1.33333333 L26,1.33333333 Z M31.5238095,1.14285714 C30.952381,1.14285714 30.3809524,1.04761905 29.8095238,1.04761905 L29.7142857,1.04761905 L29.7142857,0.0952380952 L29.8095238,0.0952380952 C30.3809524,0.0952380952 31.047619,0.0952380952 31.6190476,0.19047619 L31.5238095,1.14285714 L31.5238095,1.14285714 Z" id="Shape" fill="#D9DDE0"></path>
                        <rect id="Rectangle-path" fill="#1C75BC" x="42" y="24" width="2.28571429" height="5.52380952"></rect>
                        <g transform="translate(9.523810, 11.428571)">
                            <path d="M19.1428571,47.3333333 C8.28571429,47.3333333 0.476190476,39.4285714 0.380952381,39.3333333 L0.285714286,39.2380952 L0.285714286,39.047619 C0.285714286,38.8571429 -0.285714286,33.7142857 2,30.952381 C2.85714286,30 3.9047619,29.4285714 5.14285714,29.3333333 C8.57142857,29.047619 10.952381,28.0952381 12.1904762,26.6666667 C13.2380952,25.4285714 13.047619,24.2857143 13.047619,24.2857143 L12.952381,23.5238095 L13.7142857,23.8095238 C16.4761905,24.8571429 18.5714286,26.952381 20,30.0952381 C21.4285714,26.952381 23.5238095,24.8571429 26.2857143,23.8095238 L27.047619,23.5238095 L26.952381,24.2857143 C26.952381,24.2857143 26.8571429,25.5238095 27.9047619,26.6666667 C29.1428571,28.1904762 31.6190476,29.047619 34.952381,29.3333333 C36.1904762,29.4285714 37.2380952,30 38,30.952381 C40.2857143,33.8095238 39.3333333,39.5238095 39.3333333,39.8095238 L39.047619,40 C38.8571429,40.2857143 34.2857143,47.2380952 19.4285714,47.4285714 C19.3333333,47.3333333 19.2380952,47.3333333 19.1428571,47.3333333 L19.1428571,47.3333333 Z M1.14285714,38.7619048 C2.19047619,39.7142857 9.52380952,46.4761905 19.4285714,46.3809524 C32.952381,46.1904762 37.7142857,40.2857143 38.1904762,39.5238095 C38.2857143,38.7619048 38.8571429,33.9047619 37.047619,31.5238095 C36.4761905,30.7619048 35.7142857,30.3809524 34.7619048,30.2857143 L34.7619048,30.2857143 C31.047619,30 28.4761905,28.952381 27.047619,27.2380952 C26.2857143,26.3809524 26.0952381,25.5238095 26,24.952381 C23.5238095,26.0952381 21.6190476,28.2857143 20.4761905,31.5238095 L20,32.6666667 L19.5238095,31.5238095 C18.2857143,28.3809524 16.4761905,26.1904762 14,24.952381 C13.9047619,25.5238095 13.6190476,26.3809524 12.952381,27.2380952 C11.5238095,28.952381 8.95238095,30 5.23809524,30.2857143 C4.19047619,30.3809524 3.33333333,30.7619048 2.66666667,31.6190476 C0.857142857,33.7142857 1.04761905,37.9047619 1.14285714,38.7619048 L1.14285714,38.7619048 Z" id="Shape" fill="#1C75BC"></path>
                            <g transform="translate(4.761905, 0.000000)">
                                <g opacity="0.54" transform="translate(6.666667, 23.809524)" id="Shape" fill="#1A6185">
                                    <path d="M23.7142857,3.04761905 C23.5238095,3.33333333 23.2380952,3.61904762 22.952381,3.9047619 C18.8571429,8 14.6666667,12.1904762 10.5714286,16.2857143 C10,16.8571429 9.42857143,17.5238095 8.0952381,17.3333333 C8,17.3333333 7.52380952,17.1428571 7.14285714,16.8571429 C5.23809524,15.047619 3.33333333,13.1428571 1.52380952,11.2380952 C0.666666667,10.3809524 0.666666667,9.23809524 1.33333333,8.47619048 C2.0952381,7.61904762 3.14285714,7.52380952 4,8.38095238 C4.95238095,9.23809524 5.80952381,10.1904762 6.66666667,11.047619 C8.0952381,12.3809524 8.95238095,12.3809524 10.3809524,11.047619 C13.6190476,7.9047619 16.7619048,4.66666667 19.9047619,1.52380952 C20.2857143,1.14285714 20.5714286,0.761904762 21.047619,0.476190476 C21.8095238,-0.0952380952 22.8571429,5.31380495e-14 23.5238095,0.571428571 C24.2857143,1.14285714 24.2857143,2.19047619 23.7142857,3.04761905 L23.7142857,3.04761905 Z"></path>
                                </g>
                                <path d="M15.3333333,26.6666667 C9.52380952,26.6666667 4.76190476,21.3333333 4.76190476,14.8571429 C4.76190476,8.28571429 9.52380952,3.04761905 15.3333333,3.04761905 C21.1428571,3.04761905 25.9047619,8.38095238 25.9047619,14.8571429 C25.9047619,21.3333333 21.1428571,26.6666667 15.3333333,26.6666667 L15.3333333,26.6666667 Z M15.3333333,3.9047619 C10,3.9047619 5.71428571,8.76190476 5.71428571,14.7619048 C5.71428571,20.7619048 10,25.6190476 15.3333333,25.6190476 C20.6666667,25.6190476 24.952381,20.7619048 24.952381,14.7619048 C24.952381,8.76190476 20.6666667,3.9047619 15.3333333,3.9047619 L15.3333333,3.9047619 Z" id="Shape" fill="#1C75BC"></path>
                                <path d="M27.7142857,14.2857143 C27.7142857,14.1904762 27.6190476,8.0952381 23.7142857,4.28571429 C21.5238095,2.0952381 18.4761905,1.14285714 14.6666667,1.23809524 C10.0952381,1.42857143 4.28571429,3.52380952 2.85714286,12.8571429 C2.76190476,13.3333333 2.76190476,13.6190476 2.38095238,13.7142857 L2,13.8095238 L1.80952381,13.5238095 L2.19047619,13.3333333 L1.80952381,13.1428571 C1.80952381,13.047619 1.80952381,12.952381 1.9047619,12.7619048 C3.42857143,2.76190476 9.61904762,0.476190476 14.5714286,0.380952381 C18.6666667,0.285714286 21.9047619,1.33333333 24.2857143,3.71428571 C28.5714286,7.80952381 28.5714286,14.1904762 28.5714286,14.4761905 L27.7142857,14.2857143 L27.7142857,14.2857143 Z M2.28571429,13.1428571 L2.66666667,12.952381 L2.28571429,13.1428571 L2.28571429,13.1428571 Z" id="Shape" fill="#1C75BC"></path>
                                <rect id="Rectangle-path" fill="#1C75BC" x="0.571428571" y="12.3809524" width="2.28571429" height="5.52380952"></rect>
                                <path d="M17.3333333,19.8095238 L15.4285714,19.8095238 L15.5238095,18.8571429 C18.5714286,19.047619 26.7619048,18.8571429 28.6666667,16.3809524 L29.4285714,16.952381 C27.3333333,19.4285714 20.6666667,19.8095238 17.3333333,19.8095238 L17.3333333,19.8095238 Z" id="Shape" fill="#1C75BC"></path>
                            </g>
                            <ellipse id="Oval" fill="#1C75BC" cx="20.5714286" cy="19.3333333" rx="2.0952381" ry="1.14285714"></ellipse>
                        </g>
                        <g transform="translate(18.095238, 7.619048)" fill="#F2D7A4">
                            <path d="M0.952380952,3.71428571 L0.857142857,3.71428571 C0.666666667,3.71428571 0.571428571,3.52380952 0.571428571,3.33333333 L1.04761905,0.380952381 C1.04761905,0.19047619 1.23809524,0.0952380952 1.42857143,0.0952380952 L1.52380952,0.0952380952 C1.71428571,0.0952380952 1.80952381,0.285714286 1.80952381,0.476190476 L1.33333333,3.42857143 C1.33333333,3.61904762 1.14285714,3.80952381 0.952380952,3.71428571 L0.952380952,3.71428571 Z" id="Shape"></path>
                            <ellipse id="Oval" cx="0.761904762" cy="4.57142857" rx="0.380952381" ry="0.380952381"></ellipse>
                        </g>
                        <g transform="translate(46.666667, 31.428571)" fill="#F2D7A4">
                            <path d="M1.9047619,4.0952381 L1.80952381,4.19047619 C1.61904762,4.28571429 1.42857143,4.19047619 1.42857143,4 L0.285714286,1.33333333 C0.19047619,1.14285714 0.285714286,0.952380952 0.476190476,0.952380952 L0.571428571,0.857142857 C0.761904762,0.761904762 0.952380952,0.857142857 0.952380952,1.04761905 L2.0952381,3.71428571 C2.0952381,3.80952381 2,4 1.9047619,4.0952381 L1.9047619,4.0952381 Z" id="Shape"></path>
                            <ellipse id="Oval" cx="2.19047619" cy="4.95238095" rx="0.380952381" ry="0.380952381"></ellipse>
                        </g>
                        <path d="M9.80952381,32.7619048 L6.28571429,31.2380952 L9.42857143,28.5714286 L9.80952381,32.7619048 L9.80952381,32.7619048 Z M7.14285714,31.1428571 L9.23809524,32 L9.04761905,29.5238095 L7.14285714,31.1428571 L7.14285714,31.1428571 Z" id="Shape" fill="#1C75BC"></path>
                        <path d="M39.5238095,15.2380952 L39.2380952,11.1428571 L42.7619048,13.3333333 L39.5238095,15.2380952 L39.5238095,15.2380952 Z M39.8095238,12 L40,14.3809524 L41.9047619,13.2380952 L39.8095238,12 L39.8095238,12 Z" id="Shape" fill="#1C75BC"></path>
                        <path d="M27.9047619,8.47619048 L25.1428571,6.66666667 L27.8095238,5.23809524 L27.9047619,8.47619048 L27.9047619,8.47619048 Z M26.0952381,6.66666667 L27.4285714,7.52380952 L27.4285714,6 L26.0952381,6.66666667 L26.0952381,6.66666667 Z" id="Shape" fill="#1C75BC"></path>
                        <path d="M55.2380952,31.3333333 L51.6190476,28.952381 L55.1428571,27.047619 L55.2380952,31.3333333 L55.2380952,31.3333333 Z M52.5714286,28.952381 L54.7619048,30.3809524 L54.6666667,27.8095238 L52.5714286,28.952381 L52.5714286,28.952381 Z" id="Shape" fill="#1C75BC"></path>
                        <ellipse id="Oval" fill="#F2D7A4" cx="31.5238095" cy="9.42857143" rx="0.761904762" ry="0.761904762"></ellipse>
                        <circle id="Oval" fill="#F2D7A4" cx="15.8095238" cy="33.6190476" r="0.761904762"></circle>
                        <circle id="Oval" fill="#F2D7A4" cx="51.4285714" cy="38.7619048" r="0.761904762"></circle>
                        <circle id="Oval" fill="#F2D7A4" cx="36.7619048" cy="8.85714286" r="0.952380952"></circle>
                        <ellipse id="Oval" fill="#F2D7A4" cx="9.23809524" cy="39.1428571" rx="0.952380952" ry="0.952380952"></ellipse>
                    </g>
                </g>
            </g>
        </g>
    </g>
</svg>