<?xml version="1.0" encoding="UTF-8"?>
<svg width="180px" height="110px" viewBox="0 0 180 110" version="1.1" xmlns="http://www.w3.org/2000/svg" xmlns:xlink="http://www.w3.org/1999/xlink">
    <!-- Generator: Sketch 39 (31667) - http://www.bohemiancoding.com/sketch -->
    <title>bds</title>
    <desc>Created with Sketch.</desc>
    <defs></defs>
    <g id="Symbols" stroke="none" stroke-width="1" fill="none" fill-rule="evenodd">
        <g id="bds">
            <g id="2" transform="translate(6.000000, 1.000000)">
                <g id="Layer_1">
                    <rect id="Rectangle" fill="#FFFFFF" x="47.2335329" y="74.4311377" width="22" height="24"></rect>
                    <rect id="Rectangle-Copy" fill="#FFFFFF" x="74.2335329" y="57.0800018" width="22" height="41"></rect>
                    <rect id="Rectangle-Copy-2" fill="#F74936" x="101.233533" y="33.9221557" width="22" height="64"></rect>
                    <rect id="Rectangle-Copy-3" fill="#FFFFFF" x="101.233533" y="33.9221557" width="22" height="64"></rect>
                    <g id="Group" opacity="0.5" transform="translate(0.000000, 0.658683)"></g>
                    <g id="Group" transform="translate(1.317365, 73.772455)" fill="#738E98" opacity="0.62">
                        <g transform="translate(3.952096, 0.000000)" id="Shape">
                            <path d="M1.77844311,0.526946108 L1.38323353,0.592814371 L0.395209581,2.83233533 L2.10778443,4.21556886 L3.09580838,12.9760479 C3.09580838,12.9760479 3.16167665,13.8323353 4.01796407,13.7664671 C4.8742515,13.6347305 4.67664671,12.9760479 4.67664671,12.9760479 L3.75449102,4.1497006 L5.26946108,2.43712575 L3.88622754,0.329341317 L3.49101796,0.395209581 L3.75449102,2.23952096 L2.04191617,2.43712575 L1.77844311,0.526946108 L1.77844311,0.526946108 Z"></path>
                        </g>
                        <g transform="translate(0.000000, 5.269461)" id="Shape">
                            <path d="M12.1856287,0.395209581 L13.8323353,0.856287425 L13.8323353,1.4491018 L12.1856287,2.17365269 L10.4071856,1.9760479 L5.46706587,2.50299401 L5.46706587,3.09580838 L4.61077844,3.16167665 L4.61077844,2.83233533 C4.61077844,2.83233533 3.16167665,3.62275449 1.25149701,3.22754491 L1.25149701,3.62275449 L0.263473054,3.62275449 L0.0658682635,1.58083832 L0.988023952,1.4491018 L1.05389222,1.77844311 C1.05389222,1.77844311 2.23952096,0.988023952 4.47904192,1.31736527 L4.41317365,1.05389222 L5.33532934,0.922155689 L5.4011976,1.31736527 L10.3413174,0.988023952 L12.1856287,0.395209581 L12.1856287,0.395209581 Z"></path>
                        </g>
                    </g>
                    <path d="M96.760479,99 L73.3113772,99 L73.3113772,56.6467066 L96.760479,56.6467066 L96.760479,99 L96.760479,99 Z M74.6287425,97.6826347 L95.4431138,97.6826347 L95.4431138,57.9640719 L74.6287425,57.9640719 L74.6287425,97.6826347 L74.6287425,97.6826347 Z" id="Shape" fill="#78909C"></path>
                    <path d="M70.1497006,99 L46.7664671,99 L46.7664671,73.1137725 L70.2155689,73.1137725 L70.2155689,99 L70.1497006,99 Z M48.0838323,97.6826347 L68.8982036,97.6826347 L68.8982036,74.4311377 L48.0838323,74.4311377 L48.0838323,97.6826347 L48.0838323,97.6826347 Z" id="Shape" fill="#78909C"></path>
                    <g id="Group" opacity="0.62" transform="translate(90.239521, 57.964072)" fill="#738E98">
                        <rect id="Rectangle-path" x="0.19760479" y="0.263473054" width="4.61077844" height="38.9281437"></rect>
                    </g>
                    <g id="Group" opacity="0.62" transform="translate(63.233533, 74.431138)" fill="#738E98">
                        <rect id="Rectangle-path" x="0.461077844" y="0.263473054" width="4.61077844" height="22.7245509"></rect>
                    </g>
                    <g id="Group" opacity="0.62" transform="translate(117.245509, 34.910180)" fill="#738E98">
                        <rect id="Rectangle-path" x="0.526946108" y="0.592814371" width="4.61077844" height="61.7844311"></rect>
                    </g>
                    <g id="Group" opacity="0.62" transform="translate(144.251497, 19.760479)" fill="#738E98">
                        <rect id="Rectangle-path" x="0.395209581" y="0" width="4.61077844" height="77.4610778"></rect>
                    </g>
                    <g id="Group" opacity="0.62" transform="translate(21.077844, 84.311377)" fill="#738E98">
                        <rect id="Rectangle-path" x="0.395209581" y="0.131736527" width="22.1317365" height="13.8982036"></rect>
                    </g>
                    <g id="Group" opacity="0.62" transform="translate(45.449102, 1.976048)" fill="#1C75BC">
                        <g transform="translate(0.000000, 57.305389)" id="Rectangle-path">
                            <rect transform="translate(0.455736, 0.714256) rotate(66.090450) translate(-0.455736, -0.714256) " x="0.126389715" y="0.384909476" width="0.658692426" height="0.658692426"></rect>
                        </g>
                        <g transform="translate(1.317365, 36.227545)" id="Shape">
                            <path d="M0.790419162,21.4071856 L0.526946108,20.8143713 L1.77844311,20.2874251 L2.04191617,20.8802395 L0.790419162,21.4071856 L0.790419162,21.4071856 Z M3.29341317,20.3532934 L3.02994012,19.760479 L4.28143713,19.2335329 L4.54491018,19.8263473 L3.29341317,20.3532934 L3.29341317,20.3532934 Z M5.79640719,19.2994012 L5.53293413,18.7065868 L6.78443114,18.1796407 L7.04790419,18.7724551 L5.79640719,19.2994012 L5.79640719,19.2994012 Z M8.23353293,18.245509 L7.97005988,17.6526946 L9.22155689,17.1257485 L9.48502994,17.7185629 L8.23353293,18.245509 L8.23353293,18.245509 Z M10.7365269,17.1916168 L10.4730539,16.5988024 L11.7245509,16.0718563 L11.988024,16.6646707 L10.7365269,17.1916168 L10.7365269,17.1916168 Z M13.1736527,16.1377246 L12.9101796,15.5449102 L14.1616766,15.0179641 L14.4251497,15.6107784 L13.1736527,16.1377246 L13.1736527,16.1377246 Z M15.6766467,15.0179641 L15.4131737,14.4251497 L16.6646707,13.8982036 L16.9281437,14.491018 L15.6766467,15.0179641 L15.6766467,15.0179641 Z M18.1796407,13.9640719 L17.9161677,13.3712575 L19.1676647,12.8443114 L19.4311377,13.4371257 L18.1796407,13.9640719 L18.1796407,13.9640719 Z M20.6167665,12.9101796 L20.3532934,12.3173653 L21.6047904,11.7904192 L21.8682635,12.3832335 L20.6167665,12.9101796 L20.6167665,12.9101796 Z M23.1197605,11.8562874 L22.8562874,11.2634731 L24.1077844,10.7365269 L24.3712575,11.3293413 L23.1197605,11.8562874 L23.1197605,11.8562874 Z M25.5568862,10.8023952 L25.2934132,10.2095808 L26.5449102,9.68263473 L26.8083832,10.2754491 L25.5568862,10.8023952 L25.5568862,10.8023952 Z M28.0598802,9.74850299 L27.7964072,9.15568862 L29.0479042,8.62874251 L29.3113772,9.22155689 L28.0598802,9.74850299 L28.0598802,9.74850299 Z M30.5628743,8.69461078 L30.2994012,8.10179641 L31.5508982,7.5748503 L31.8143713,8.16766467 L30.5628743,8.69461078 L30.5628743,8.69461078 Z M33,7.64071856 L32.7365269,7.04790419 L33.988024,6.52095808 L34.251497,7.11377246 L33,7.64071856 L33,7.64071856 Z M35.502994,6.58682635 L35.239521,5.99401198 L36.491018,5.46706587 L36.754491,6.05988024 L35.502994,6.58682635 L35.502994,6.58682635 Z M38.005988,5.53293413 L37.742515,4.94011976 L38.994012,4.41317365 L39.257485,5.00598802 L38.005988,5.53293413 L38.005988,5.53293413 Z M40.4431138,4.47904192 L40.1796407,3.88622754 L41.4311377,3.35928144 L41.6946108,3.95209581 L40.4431138,4.47904192 L40.4431138,4.47904192 Z M42.9461078,3.4251497 L42.6826347,2.83233533 L43.9341317,2.30538922 L44.1976048,2.89820359 L42.9461078,3.4251497 L42.9461078,3.4251497 Z M45.4491018,2.30538922 L45.1856287,1.71257485 L46.4371257,1.18562874 L46.7005988,1.77844311 L45.4491018,2.30538922 L45.4491018,2.30538922 Z M47.8862275,1.25149701 L47.6227545,0.658682635 L48.8742515,0.131736527 L49.1377246,0.724550898 L47.8862275,1.25149701 L47.8862275,1.25149701 Z"></path>
                        </g>
                        <g transform="translate(51.377246, 34.910180)" id="Shape">
                            <polygon points="0.263473054 1.58083832 0 0.988023952 0.263473054 0.856287425 0.131736527 0.526946108 0.724550898 0.263473054 1.18562874 1.18562874"></polygon>
                        </g>
                        <g transform="translate(43.473054, 18.443114)" id="Shape">
                            <path d="M7.50898204,15.8083832 L6.98203593,14.6227545 L7.5748503,14.3592814 L8.10179641,15.5449102 L7.50898204,15.8083832 L7.50898204,15.8083832 Z M6.45508982,13.4371257 L5.92814371,12.251497 L6.52095808,11.988024 L7.04790419,13.1736527 L6.45508982,13.4371257 L6.45508982,13.4371257 Z M5.33532934,11.0658683 L4.80838323,9.88023952 L5.4011976,9.61676647 L5.92814371,10.8023952 L5.33532934,11.0658683 L5.33532934,11.0658683 Z M4.28143713,8.69461078 L3.75449102,7.50898204 L4.34730539,7.24550898 L4.8742515,8.43113772 L4.28143713,8.69461078 L4.28143713,8.69461078 Z M3.16167665,6.25748503 L2.63473054,5.07185629 L3.22754491,4.80838323 L3.75449102,5.99401198 L3.16167665,6.25748503 L3.16167665,6.25748503 Z M2.10778443,3.88622754 L1.58083832,2.7005988 L2.17365269,2.43712575 L2.7005988,3.62275449 L2.10778443,3.88622754 L2.10778443,3.88622754 Z M1.05389222,1.51497006 L0.526946108,0.329341317 L1.11976048,0.0658682635 L1.64670659,1.25149701 L1.05389222,1.51497006 L1.05389222,1.51497006 Z"></path>
                        </g>
                        <g transform="translate(42.814371, 15.808383)" id="Shape">
                            <polygon points="0.592814371 1.77844311 0.19760479 0.856287425 1.11976048 0.461077844 1.38323353 1.05389222 1.05389222 1.18562874 1.18562874 1.51497006"></polygon>
                        </g>
                        <g transform="translate(44.790419, 1.317365)" id="Shape">
                            <path d="M0.592814371,15.0179641 L0.329341317,14.4251497 L1.51497006,13.8982036 L1.77844311,14.491018 L0.592814371,15.0179641 L0.592814371,15.0179641 Z M2.89820359,13.9640719 L2.63473054,13.3712575 L3.82035928,12.8443114 L4.08383234,13.4371257 L2.89820359,13.9640719 L2.89820359,13.9640719 Z M5.20359281,12.9101796 L4.94011976,12.3173653 L6.1257485,11.7904192 L6.38922156,12.3832335 L5.20359281,12.9101796 L5.20359281,12.9101796 Z M7.5748503,11.8562874 L7.31137725,11.2634731 L8.49700599,10.7365269 L8.76047904,11.3293413 L7.5748503,11.8562874 L7.5748503,11.8562874 Z M9.88023952,10.8023952 L9.61676647,10.2095808 L10.8023952,9.68263473 L11.0658683,10.2754491 L9.88023952,10.8023952 L9.88023952,10.8023952 Z M12.251497,9.74850299 L11.988024,9.15568862 L13.1736527,8.62874251 L13.4371257,9.22155689 L12.251497,9.74850299 L12.251497,9.74850299 Z M14.5568862,8.62874251 L14.2934132,8.03592814 L15.4790419,7.50898204 L15.742515,8.10179641 L14.5568862,8.62874251 L14.5568862,8.62874251 Z M16.9281437,7.5748503 L16.6646707,6.98203593 L17.8502994,6.45508982 L18.1137725,7.04790419 L16.9281437,7.5748503 L16.9281437,7.5748503 Z M19.2335329,6.52095808 L18.9700599,5.92814371 L20.1556886,5.4011976 L20.4191617,5.99401198 L19.2335329,6.52095808 L19.2335329,6.52095808 Z M21.6047904,5.46706587 L21.3413174,4.8742515 L22.5269461,4.34730539 L22.7904192,4.94011976 L21.6047904,5.46706587 L21.6047904,5.46706587 Z M23.9101796,4.41317365 L23.6467066,3.82035928 L24.8323353,3.29341317 L25.0958084,3.88622754 L23.9101796,4.41317365 L23.9101796,4.41317365 Z M26.2814371,3.35928144 L26.0179641,2.76646707 L27.2035928,2.23952096 L27.4670659,2.83233533 L26.2814371,3.35928144 L26.2814371,3.35928144 Z M28.5868263,2.30538922 L28.3233533,1.71257485 L29.508982,1.18562874 L29.7724551,1.77844311 L28.5868263,2.30538922 L28.5868263,2.30538922 Z M30.8922156,1.25149701 L30.6287425,0.658682635 L31.8143713,0.131736527 L32.0778443,0.724550898 L30.8922156,1.25149701 L30.8922156,1.25149701 Z"></path>
                        </g>
                        <g transform="translate(77.724551, 0.000000)" id="Rectangle-path">
                            <rect transform="translate(0.452923, 1.027947) rotate(65.544191) translate(-0.452923, -1.027947) " x="0.123575105" y="0.698598458" width="0.658696497" height="0.658696497"></rect>
                        </g>
                    </g>
                    <g id="Group" transform="translate(6.586826, 48.742515)" fill="#FBB040">
                        <path d="M11,17.4550898 L11,17.4550898 C12.7784431,17.4550898 14.491018,16.7305389 15.742515,15.4790419 C16.994012,14.2275449 17.7185629,12.5149701 17.7185629,10.7365269 C17.7185629,8.95808383 16.994012,7.24550898 15.742515,5.99401198 C14.491018,4.74251497 12.7784431,4.01796407 11,4.01796407 L11,4.01796407 C9.48502994,4.01796407 8.10179641,4.54491018 6.98203593,5.4011976 C7.17964072,5.53293413 7.37724551,5.66467066 7.50898204,5.79640719 C8.49700599,5.07185629 9.68263473,4.67664671 11,4.67664671 L11,4.67664671 C12.5808383,4.67664671 14.0958084,5.26946108 15.2814371,6.45508982 C16.4011976,7.5748503 17.0598802,9.08982036 17.0598802,10.7365269 C17.0598802,12.3173653 16.4670659,13.8323353 15.2814371,15.0179641 C14.1616766,16.1377246 12.6467066,16.7964072 11,16.7964072 L11,16.7964072 C7.70658683,16.7964072 5.00598802,14.0958084 5.00598802,10.8023952 C5.00598802,9.94610778 5.20359281,9.22155689 5.46706587,8.49700599 L4.94011976,8.10179641 C4.54491018,8.95808383 4.34730539,9.88023952 4.34730539,10.8682635 C4.34730539,14.4251497 7.31137725,17.4550898 11,17.4550898 L11,17.4550898 Z" id="Shape"></path>
                        <path d="M20.9461078,10.3413174 C20.748503,10.2754491 20.5508982,10.2095808 20.3532934,10.1437126 C19.6287425,9.88023952 19.1676647,9.48502994 19.0359281,9.08982036 C18.9041916,8.62874251 19.0359281,8.10179641 19.497006,7.44311377 L19.5628743,7.37724551 C19.8922156,6.91616766 20.2874251,6.38922156 20.0898204,5.92814371 C19.6287425,4.8742515 19.1676647,4.1497006 18.5748503,3.68862275 C18.1796407,3.35928144 17.4550898,3.62275449 16.7964072,3.88622754 C16.6646707,3.95209581 16.5988024,3.95209581 16.4670659,4.01796407 C15.9401198,4.21556886 15.4790419,4.21556886 15.1497006,4.01796407 C14.8203593,3.82035928 14.6227545,3.4251497 14.491018,2.83233533 C14.4251497,2.43712575 14.3592814,2.10778443 14.3592814,1.71257485 L14.2934132,0.988023952 L14.0299401,0.922155689 C13.8323353,0.922155689 13.7005988,0.856287425 13.502994,0.856287425 C13.1736527,0.790419162 12.9101796,0.790419162 12.6467066,0.724550898 C11.5928144,0.461077844 10.2754491,0.329341317 9.81437126,2.17365269 C9.74850299,2.43712575 9.61676647,2.63473054 9.41916168,2.7005988 C9.15568862,2.83233533 8.69461078,2.83233533 8.23353293,2.7005988 C7.97005988,2.63473054 7.70658683,2.43712575 7.44311377,2.30538922 C7.31137725,2.23952096 7.17964072,2.10778443 7.04790419,2.04191617 C5.99401198,1.4491018 5.33532934,2.10778443 4.8742515,2.56886228 C4.67664671,2.76646707 4.47904192,2.89820359 4.28143713,3.02994012 C4.1497006,3.09580838 4.08383234,3.16167665 4.01796407,3.29341317 C4.21556886,3.4251497 4.34730539,3.55688623 4.54491018,3.68862275 C4.54491018,3.62275449 4.54491018,3.62275449 4.61077844,3.55688623 C4.8742515,3.4251497 5.07185629,3.22754491 5.33532934,3.02994012 C5.86227545,2.50299401 6.19161677,2.30538922 6.78443114,2.63473054 C6.91616766,2.7005988 7.04790419,2.76646707 7.17964072,2.89820359 C7.44311377,3.09580838 7.77245509,3.29341317 8.10179641,3.35928144 C8.76047904,3.55688623 9.35329341,3.55688623 9.81437126,3.29341317 C10.1437126,3.09580838 10.4071856,2.76646707 10.5389222,2.37125749 C10.8682635,1.31736527 11.3293413,1.05389222 12.5808383,1.38323353 C12.8443114,1.4491018 13.1736527,1.51497006 13.502994,1.58083832 C13.5688623,1.58083832 13.7005988,1.58083832 13.7664671,1.64670659 L13.7664671,1.84431138 C13.8323353,2.23952096 13.8323353,2.56886228 13.8982036,2.96407186 C14.0299401,3.75449102 14.3592814,4.34730539 14.8203593,4.61077844 C15.2814371,4.8742515 15.9401198,4.94011976 16.6646707,4.67664671 C16.7964072,4.61077844 16.8622754,4.61077844 16.994012,4.54491018 C17.3233533,4.41317365 17.9820359,4.1497006 18.1137725,4.21556886 C18.5748503,4.61077844 19.0359281,5.26946108 19.4311377,6.19161677 C19.4311377,6.32335329 19.1017964,6.8502994 18.9700599,7.04790419 L18.9041916,7.11377246 C18.3113772,7.97005988 18.1137725,8.69461078 18.3113772,9.35329341 C18.508982,10.011976 19.1017964,10.5389222 20.0898204,10.8682635 C20.2874251,10.9341317 20.4191617,11 20.6167665,11.0658683 L20.6826347,11.0658683 L20.6826347,11.2634731 C20.6167665,11.5928144 20.5508982,11.9221557 20.6167665,12.251497 C20.6826347,12.9101796 20.6167665,13.3712575 20.3532934,13.7005988 C20.0898204,13.9640719 19.6946108,14.1616766 19.0359281,14.1616766 C18.508982,14.2275449 18.0479042,14.491018 17.7185629,14.9520958 C17.3233533,15.4790419 17.1916168,16.2035928 17.3892216,16.8622754 L17.7844311,18.1137725 L16.4011976,19.1676647 C16.2694611,19.1017964 16.0718563,19.1017964 15.9401198,19.0359281 C15.5449102,18.9041916 15.0838323,18.8383234 14.754491,18.6407186 C14.0299401,18.245509 13.4371257,18.1137725 12.9101796,18.245509 C12.3832335,18.3772455 11.988024,18.7724551 11.6586826,19.3652695 C11.3952096,19.8922156 10.8023952,20.2874251 10.1437126,20.4191617 C9.5508982,20.5508982 8.89221557,20.4850299 8.43113772,20.1556886 C8.2994012,20.0898204 8.23353293,19.5628743 8.16766467,19.3652695 C8.03592814,18.4431138 7.70658683,17.8502994 7.17964072,17.5209581 C6.91616766,17.3892216 6.65269461,17.3233533 6.25748503,17.3233533 C5.92814371,17.3233533 5.53293413,17.3892216 5.07185629,17.5868263 C4.94011976,17.6526946 4.80838323,17.7185629 4.67664671,17.7844311 C4.47904192,17.9161677 4.21556886,18.0479042 4.08383234,17.9820359 C3.95209581,17.9161677 3.88622754,17.7844311 3.82035928,17.7185629 C3.68862275,17.3892216 3.4251497,17.1257485 3.16167665,16.7964072 C2.56886228,16.1377246 2.23952096,15.742515 2.89820359,14.8203593 C3.49101796,14.0299401 3.75449102,13.3712575 3.55688623,12.8443114 C3.4251497,12.251497 2.89820359,11.7904192 1.9760479,11.3952096 C1.91017964,11.3293413 1.84431138,11.3293413 1.71257485,11.2634731 C1.05389222,11 0.922155689,10.8682635 1.11976048,10.4730539 C1.25149701,10.1437126 1.25149701,9.74850299 1.31736527,9.41916168 C1.38323353,8.62874251 1.38323353,8.10179641 2.37125749,7.90419162 C2.96407186,7.77245509 3.49101796,7.64071856 3.88622754,7.44311377 L3.29341317,6.98203593 C3.02994012,7.04790419 2.7005988,7.17964072 2.30538922,7.24550898 C0.790419162,7.50898204 0.724550898,8.56287425 0.724550898,9.35329341 C0.724550898,9.68263473 0.658682635,9.94610778 0.592814371,10.2095808 C0.19760479,11.2634731 1.05389222,11.6586826 1.58083832,11.8562874 C1.64670659,11.8562874 1.71257485,11.9221557 1.77844311,11.9221557 C2.50299401,12.251497 2.89820359,12.5808383 3.02994012,12.9760479 C3.09580838,13.3053892 2.89820359,13.8323353 2.43712575,14.4251497 C1.4491018,15.742515 2.17365269,16.5988024 2.76646707,17.1916168 C2.96407186,17.4550898 3.22754491,17.6526946 3.29341317,17.9161677 C3.4251497,18.245509 3.68862275,18.4431138 3.88622754,18.5748503 C4.28143713,18.7065868 4.67664671,18.508982 5.00598802,18.3772455 C5.13772455,18.3113772 5.20359281,18.245509 5.33532934,18.245509 C6.05988024,17.9820359 6.52095808,17.9820359 6.8502994,18.1796407 C7.17964072,18.3772455 7.37724551,18.8383234 7.50898204,19.5628743 C7.5748503,20.0898204 7.70658683,20.5508982 8.03592814,20.8143713 C8.43113772,21.0778443 8.95808383,21.2754491 9.5508982,21.2754491 C9.81437126,21.2754491 10.011976,21.2754491 10.2754491,21.2095808 C11.1317365,21.011976 11.7904192,20.4850299 12.1856287,19.8263473 C12.4491018,19.3652695 12.7125749,19.1017964 13.0419162,19.0359281 C13.3712575,18.9700599 13.8323353,19.0359281 14.3592814,19.3652695 C14.754491,19.6287425 15.2155689,19.6946108 15.6766467,19.8263473 C15.8742515,19.8922156 16.0718563,19.8922156 16.2694611,19.9580838 L16.3353293,19.760479 L16.5329341,19.9580838 L18.508982,18.508982 L17.9820359,16.7964072 C17.8502994,16.3353293 17.9161677,15.8083832 18.1796407,15.4131737 C18.3113772,15.2155689 18.5748503,14.9520958 19.0359281,14.9520958 C19.8263473,14.8862275 20.4191617,14.6886228 20.748503,14.2275449 C21.1437126,13.7664671 21.2754491,13.1736527 21.1437126,12.3173653 C21.1437126,12.0538922 21.1437126,11.7904192 21.2095808,11.5269461 C21.2095808,11.3952096 21.2754491,11.1976048 21.2754491,11.0658683 L21.2754491,10.8023952 L20.9461078,10.3413174 L20.9461078,10.3413174 Z" id="Shape"></path>
                    </g>
                    <path d="M6.8502994,47.2934132 C7.64071856,47.2934132 8.76047904,48.0838323 8.76047904,48.8742515 C8.76047904,49.6646707 9.48502994,51.3772455 9.48502994,51.3772455 C9.48502994,51.3772455 15.3473054,56.0538922 15.8742515,56.1856287 C16.3353293,56.251497 18.0479042,56.3173653 18.6407186,56.3173653 L18.8383234,56.3173653 L20.5508982,58.3592814 L19.8922156,58.8862275 L19.1017964,58.0958084 C19.1017964,58.0958084 18.8383234,58.0299401 18.5748503,58.0299401 C18.1796407,58.0299401 17.6526946,58.1616766 17.1916168,58.6886228 C16.1377246,60.005988 17.0598802,61.1916168 17.0598802,61.1916168 L18.9700599,61.9161677 L18.245509,62.5748503 L15.742515,62.3113772 L14.6227545,60.8622754 L14.1616766,58.3592814 L7.5748503,53.2215569 L5.26946108,53.1556886 L3.75449102,51.4431138 L4.01796407,50.7844311 L5.92814371,51.4431138 C5.92814371,51.4431138 7.11377246,49.5988024 6.98203593,49.0718563 C6.8502994,48.5449102 5.13772455,48.0179641 5.13772455,48.0179641 L5.26946108,47.491018 C5.13772455,47.491018 6.05988024,47.2934132 6.8502994,47.2934132 L6.8502994,47.2934132 L6.8502994,47.2934132 Z M6.8502994,46.6347305 L6.8502994,46.6347305 L6.8502994,46.6347305 C5.99401198,46.6347305 5.07185629,46.8323353 5.00598802,46.8323353 L4.61077844,46.8982036 L4.54491018,47.2934132 L4.41317365,47.8203593 L4.28143713,48.4131737 L4.80838323,48.6107784 C5.33532934,48.8083832 5.99401198,49.0718563 6.19161677,49.2694611 C6.1257485,49.5329341 5.86227545,50.0598802 5.53293413,50.6526946 L4.1497006,50.1916168 L3.55688623,49.994012 L3.29341317,50.5868263 L3.02994012,51.245509 L2.89820359,51.6407186 L3.16167665,51.9700599 L4.67664671,53.6826347 L4.8742515,53.8802395 L5.13772455,53.8802395 L7.24550898,53.9461078 L13.502994,58.754491 L13.8982036,61.0598802 L13.8982036,61.1916168 L14.0299401,61.3233533 L15.1497006,62.7724551 L15.3473054,62.9700599 L15.6107784,62.9700599 L18.1137725,63.2335329 L18.4431138,63.2335329 L18.6407186,63.0359281 L19.3652695,62.3772455 L20.0898204,61.6526946 L19.1676647,61.257485 L17.4550898,60.5988024 C17.3233533,60.3353293 17.1257485,59.742515 17.6526946,59.0179641 C17.8502994,58.754491 18.1137725,58.6227545 18.508982,58.6227545 L18.508982,58.6227545 L18.7065868,58.6227545 L19.3652695,59.2814371 L19.760479,59.6766467 L20.2215569,59.2814371 L20.8802395,58.754491 L21.4071856,58.3592814 L20.9461078,57.8323353 L19.2335329,55.7904192 L19.0359281,55.5269461 L18.7065868,55.5269461 L18.508982,55.5269461 C17.0598802,55.5269461 16.2035928,55.4610778 15.9401198,55.4610778 C15.4131737,55.1976048 12.5149701,52.9580838 9.88023952,50.9161677 C9.61676647,50.257485 9.28742515,49.2035928 9.28742515,48.8083832 C9.41916168,47.754491 7.97005988,46.6347305 6.8502994,46.6347305 L6.8502994,46.6347305 L6.8502994,46.6347305 Z" id="Shape" fill="#FBB040"></path>
                    <circle id="Oval" fill="#27AAE1" cx="38.3353293" cy="28.3892216" r="0.526946108"></circle>
                    <g id="Group" opacity="0.62" transform="translate(39.520958, 16.467066)" fill="#738E98">
                        <g transform="translate(6.586826, 4.610778)" id="Oval">
                            <circle cx="1.38323353" cy="1.64670659" r="1.05389222"></circle>
                        </g>
                        <g transform="translate(3.952096, 7.245509)" id="Oval">
                            <circle cx="1.05389222" cy="0.856287425" r="0.790419162"></circle>
                        </g>
                        <g transform="translate(1.976048, 8.562874)" id="Oval">
                            <circle cx="0.988023952" cy="0.988023952" r="0.526946108"></circle>
                        </g>
                        <g transform="translate(0.000000, 9.880240)" id="Oval">
                            <circle cx="1.05389222" cy="0.724550898" r="0.526946108"></circle>
                        </g>
                        <g transform="translate(7.904192, 0.000000)" id="Shape">
                            <polygon points="0.329341317 0.988023952 5.46706587 8.76047904 10.3413174 0.395209581"></polygon>
                        </g>
                    </g>
                    <g id="Group" opacity="0.62" transform="translate(66.526946, 9.880240)" fill="#738E98">
                        <g transform="translate(10.538922, 4.610778)" id="Oval">
                            <ellipse cx="1.11976048" cy="1.31736527" rx="1.05389222" ry="1.05389222"></ellipse>
                        </g>
                        <g transform="translate(7.904192, 6.586826)" id="Oval">
                            <ellipse cx="0.790419162" cy="1.18562874" rx="0.790419162" ry="0.790419162"></ellipse>
                        </g>
                        <g transform="translate(5.928144, 8.562874)" id="Oval">
                            <circle cx="0.658682635" cy="0.592814371" r="0.526946108"></circle>
                        </g>
                        <g transform="translate(3.952096, 9.221557)" id="Oval">
                            <ellipse cx="0.724550898" cy="0.988023952" rx="0.526946108" ry="0.526946108"></ellipse>
                        </g>
                        <g transform="translate(1.976048, 10.538922)" id="Oval">
                            <ellipse cx="0.724550898" cy="0.658682635" rx="0.526946108" ry="0.526946108"></ellipse>
                        </g>
                        <g transform="translate(0.000000, 11.197605)" id="Oval">
                            <ellipse cx="0.724550898" cy="0.988023952" rx="0.526946108" ry="0.526946108"></ellipse>
                        </g>
                        <g transform="translate(11.856287, 0.000000)" id="Shape">
                            <polygon points="0.131736527 0.724550898 5.20359281 8.56287425 10.2095808 0.329341317"></polygon>
                        </g>
                    </g>
                    <g id="Group" transform="translate(21.077844, 0.000000)" fill="#1C75BC">
                        <path d="M1.11976048,75.2215569 L0.592814371,74.0359281 C6.1257485,71.5988024 65.2754491,47.4251497 71.9281437,44.7245509 L63.8922156,24.5688623 L114.94012,1.51497006 L115.467066,2.7005988 L65.5389222,25.2275449 L73.5748503,45.3832335 L72.9820359,45.6467066 C72.3892216,45.9101796 6.98203593,72.6526946 1.11976048,75.2215569 L1.11976048,75.2215569 Z" id="Shape"></path>
                        <polygon id="Shape" points="115.664671 4.80838323 118.760479 0.526946108 113.491018 0"></polygon>
                    </g>
                    <path d="M64.2874251,44.1317365 L50.5209581,38.5988024 C49.8622754,39.0598802 47.2275449,41.0359281 44.7904192,43.011976 L44.7245509,43.0778443 C44,43.3413174 43.3413174,43.3413174 42.8802395,43.011976 C41.9580838,42.4191617 41.8922156,41.0359281 41.8922156,40.9700599 L41.8922156,40.8383234 L45.9101796,35.8323353 L50.9161677,32.7365269 L58.6886228,34.251497 L60.7305389,32.011976 L68.0419162,39.7844311 L64.2874251,44.1317365 L64.2874251,44.1317365 Z M50.3892216,37.8083832 L64.0898204,43.3413174 L67.1197605,39.7185629 L60.6646707,32.8682635 L58.8862275,34.8443114 L50.9820359,33.3293413 L46.239521,36.2934132 L42.5508982,40.9700599 C42.6167665,41.2335329 42.748503,42.0239521 43.2095808,42.3532934 C43.5389222,42.5508982 43.9341317,42.5508982 44.3952096,42.4191617 C47.2275449,40.1796407 50.257485,37.9401198 50.257485,37.9401198 L50.3892216,37.8083832 L50.3892216,37.8083832 Z" id="Shape" fill="#1C75BC"></path>
                    <path d="M57.3053892,51.508982 C57.1077844,51.508982 56.9760479,51.508982 56.8443114,51.4431138 L52.760479,49.3353293 C52.6946108,49.2694611 51.5748503,48.0179641 50.257485,48.8083832 L49.9281437,49.005988 L49.7964072,48.6766467 C49.5988024,48.2155689 49.2035928,47.491018 48.0838323,47.6886228 C47.0958084,47.8203593 46.8323353,48.4131737 46.8323353,48.4790419 L46.5688623,49.1377246 L46.239521,48.4790419 C46.1736527,48.4131737 45.7784431,47.6886228 44.5928144,48.0179641 C43.8682635,48.2155689 43.8023952,48.6766467 43.8023952,48.6766467 L43.7365269,49.7305389 L43.2095808,48.8083832 C43.2095808,48.8083832 42.6826347,48.0179641 41.497006,48.2814371 C40.6407186,48.4790419 40.245509,49.5329341 40.245509,49.5329341 L40.1796407,49.7964072 L34.5808383,48.3473054 L36.8203593,38.4011976 L39.5209581,38.9281437 L44.4610778,35.7005988 L46.5688623,35.3053892 L42.4191617,40.5748503 C42.4191617,40.9041916 42.5508982,41.760479 43.1437126,42.2874251 C43.5389222,42.6167665 44.1976048,42.6826347 44.988024,42.5508982 C50.3892216,38.5329341 51.0479042,38.2035928 51.1137725,38.2035928 L51.245509,38.1377246 L64.3532934,43.8023952 C64.4191617,43.8682635 64.8802395,44.1976048 64.9461078,44.8562874 C64.9461078,45.251497 64.8143713,45.6467066 64.4191617,46.0419162 C63.2994012,46.9640719 61.9820359,46.239521 61.9820359,46.239521 L59.2155689,45.251497 L61.257485,46.239521 C61.6526946,46.502994 62.245509,47.2934132 61.6526946,48.3473054 C61.0598802,49.3353293 59.9401198,49.2694611 59.4131737,49.0718563 L56.6467066,47.754491 L58.2275449,48.6766467 C58.6886228,49.005988 59.4131737,49.8622754 58.8203593,50.7844311 C58.2275449,51.3113772 57.7005988,51.508982 57.3053892,51.508982 L57.3053892,51.508982 Z M57.1077844,50.7844311 C57.1077844,50.7844311 57.7005988,50.9161677 58.0299401,50.3892216 C58.491018,49.7964072 57.7005988,49.2035928 57.6347305,49.2035928 L50.5209581,45.0538922 L50.8502994,44.4610778 L59.4790419,48.4131737 C59.4790419,48.4131737 60.4011976,48.742515 60.8622754,47.9520958 C61.3233533,47.2275449 60.7305389,46.7664671 60.7305389,46.7664671 L53.2215569,43.1437126 L53.4850299,42.5508982 L62.0479042,45.6467066 C62.1137725,45.7125749 63.0359281,46.1736527 63.8263473,45.5808383 C64.0239521,45.3832335 64.1556886,45.1197605 64.1556886,44.9221557 C64.1556886,44.6586826 63.8922156,44.4610778 63.8263473,44.3952096 L51.1137725,38.9281437 C50.7844311,39.1257485 49.4670659,39.9820359 45.1197605,43.2095808 L44.988024,43.2754491 C44,43.5389222 43.1437126,43.4071856 42.5508982,42.9461078 C41.5628743,42.1556886 41.5628743,40.7065868 41.5628743,40.6407186 L41.5628743,40.508982 L44.7245509,36.4251497 L44.4610778,36.491018 L39.4550898,39.7844311 L37.1497006,39.3233533 L35.1736527,48.0179641 L39.5868263,49.1377246 C39.7844311,48.6766467 40.3113772,47.8862275 41.1676647,47.6886228 C42.1556886,47.491018 42.8143713,47.8203593 43.2095808,48.1497006 C43.4071856,47.8862275 43.6706587,47.6227545 44.2634731,47.491018 C45.3173653,47.1616766 45.9760479,47.491018 46.3712575,47.8862275 C46.6347305,47.6227545 47.0958084,47.2934132 47.8862275,47.1616766 C49.2694611,46.9640719 49.8622754,47.6886228 50.1916168,48.2155689 C51.508982,47.6886228 52.6946108,48.4131737 53.2215569,48.9401198 L57.1077844,50.7844311 L57.1077844,50.7844311 L57.1077844,50.7844311 Z" id="Shape" fill="#1C75BC"></path>
                    <path d="M45.0538922,52.0359281 L44.8562874,52.0359281 L44.3293413,51.9700599 C43.6047904,51.8383234 43.1437126,51.1796407 43.2754491,50.5209581 L43.5389222,48.6107784 C43.6706587,47.8862275 44.3293413,47.4251497 44.988024,47.5568862 L45.5149701,47.6227545 C45.8443114,47.6886228 46.1736527,47.8862275 46.3712575,48.1497006 C46.5688623,48.4131737 46.6347305,48.742515 46.6347305,49.1377246 L46.3712575,51.0479042 C46.1736527,51.5748503 45.6467066,52.0359281 45.0538922,52.0359281 L45.0538922,52.0359281 Z M44.9221557,51.3772455 C45.251497,51.4431138 45.5808383,51.1796407 45.6467066,50.8502994 L45.9101796,48.9401198 C45.9101796,48.742515 45.9101796,48.6107784 45.7784431,48.4790419 C45.6467066,48.3473054 45.5149701,48.2814371 45.3832335,48.2155689 L44.8562874,48.1497006 C44.5269461,48.0838323 44.1976048,48.3473054 44.1317365,48.6766467 L43.8682635,50.5868263 C43.8023952,50.9161677 44.0658683,51.245509 44.3952096,51.3113772 L44.9221557,51.3772455 L44.9221557,51.3772455 Z" id="Shape" fill="#1C75BC"></path>
                    <path d="M41.9580838,51.3113772 L41.760479,51.3113772 L41.2335329,51.245509 C40.508982,51.1137725 40.0479042,50.4550898 40.1796407,49.7964072 L40.3113772,48.8742515 C40.4431138,48.1497006 41.1017964,47.6886228 41.760479,47.8203593 L42.2874251,47.8862275 C43.011976,48.0179641 43.4730539,48.6766467 43.3413174,49.3353293 L43.2095808,50.257485 C43.1437126,50.5868263 42.9461078,50.9161677 42.6826347,51.1137725 C42.5508982,51.245509 42.2874251,51.3113772 41.9580838,51.3113772 L41.9580838,51.3113772 Z M41.8922156,50.6526946 C42.0898204,50.6526946 42.2215569,50.6526946 42.3532934,50.5209581 C42.4850299,50.3892216 42.5508982,50.257485 42.6167665,50.1257485 L42.748503,49.2035928 C42.8143713,48.8742515 42.5508982,48.5449102 42.2215569,48.4790419 L41.6946108,48.4131737 C41.3652695,48.3473054 41.0359281,48.6107784 40.9700599,48.9401198 L40.8383234,49.8622754 C40.7724551,50.1916168 41.0359281,50.5209581 41.3652695,50.5868263 L41.8922156,50.6526946 L41.8922156,50.6526946 Z" id="Shape" fill="#1C75BC"></path>
                    <path d="M48.3473054,52.9580838 L48.2814371,52.9580838 L48.2814371,52.9580838 L47.6886228,52.9580838 C46.9640719,52.8922156 46.4371257,52.2994012 46.4371257,51.5748503 L46.6347305,48.2155689 C46.7005988,47.491018 47.2934132,46.9640719 48.0179641,46.9640719 L48.6107784,46.9640719 C49.3353293,47.0299401 49.8622754,47.6227545 49.8622754,48.3473054 L49.6646707,51.7065868 C49.5988024,52.4311377 49.0718563,52.9580838 48.3473054,52.9580838 L48.3473054,52.9580838 Z M48.0179641,47.6886228 C47.8862275,47.6886228 47.6886228,47.754491 47.6227545,47.8203593 C47.491018,47.9520958 47.4251497,48.0838323 47.4251497,48.2814371 L47.2275449,51.6407186 C47.2275449,51.9700599 47.491018,52.2994012 47.8203593,52.2994012 L48.4131737,52.2994012 C48.5449102,52.2994012 48.742515,52.2335329 48.8742515,52.1676647 C49.005988,52.0359281 49.0718563,51.9041916 49.0718563,51.7065868 L49.2694611,48.3473054 C49.2694611,48.0179641 49.005988,47.6886228 48.6766467,47.6886228 L48.0179641,47.6886228 L48.0179641,47.6886228 L48.0179641,47.6886228 Z" id="Shape" fill="#1C75BC"></path>
                    <path d="M51.3113772,53.8802395 L51.245509,53.8802395 L50.6526946,53.8802395 C49.9281437,53.8143713 49.4011976,53.2215569 49.4011976,52.497006 L49.5988024,49.1377246 C49.6646707,48.4131737 50.257485,47.8862275 50.9820359,47.8862275 L51.5748503,47.8862275 C51.9041916,47.8862275 52.2335329,48.0838323 52.497006,48.2814371 C52.760479,48.5449102 52.8263473,48.8742515 52.8263473,49.2035928 L52.6287425,52.5628743 C52.6287425,52.8922156 52.4311377,53.2215569 52.2335329,53.4850299 C51.9700599,53.748503 51.6407186,53.8802395 51.3113772,53.8802395 L51.3113772,53.8802395 Z M50.9820359,48.5449102 C50.8502994,48.5449102 50.6526946,48.6107784 50.5868263,48.6766467 C50.4550898,48.8083832 50.3892216,48.9401198 50.3892216,49.1377246 L50.1916168,52.497006 C50.1916168,52.6946108 50.257485,52.8263473 50.3233533,52.9580838 C50.4550898,53.0898204 50.5868263,53.1556886 50.7844311,53.1556886 L51.3772455,53.1556886 C51.508982,53.1556886 51.7065868,53.0898204 51.8383234,53.0239521 C51.9700599,52.8922156 52.0359281,52.760479 52.0359281,52.5628743 L52.2335329,49.2035928 C52.2335329,49.005988 52.1676647,48.8742515 52.1017964,48.742515 C51.9700599,48.6107784 51.8383234,48.5449102 51.6407186,48.5449102 L50.9820359,48.5449102 L50.9820359,48.5449102 L50.9820359,48.5449102 Z" id="Shape" fill="#1C75BC"></path>
                    <path d="M54.4730539,53.2874251 C53.8143713,53.2874251 53.0898204,52.9580838 52.6946108,52.760479 C52.5628743,52.6946108 52.497006,52.6287425 52.4311377,52.6287425 L52.2335329,52.5628743 L52.2335329,52.2994012 C52.2994012,51.6407186 52.4311377,48.8742515 52.4311377,48.8742515 L52.4311377,48.3473054 L55.5269461,50.1257485 L55.5928144,50.1916168 C55.5928144,50.257485 56.3173653,51.6407186 55.5928144,52.760479 C55.2634731,53.1556886 54.8682635,53.2874251 54.4730539,53.2874251 L54.4730539,53.2874251 Z M52.8263473,52.1017964 C52.8263473,52.1017964 52.8922156,52.1017964 52.8922156,52.1676647 C53.748503,52.5628743 54.6047904,52.8922156 54.9341317,52.4311377 C55.3952096,51.7724551 55.0658683,50.9161677 54.9341317,50.6526946 L52.9580838,49.5329341 C52.9580838,50.1916168 52.8922156,51.4431138 52.8263473,52.1017964 L52.8263473,52.1017964 Z" id="Shape" fill="#1C75BC"></path>
                    <rect id="Rectangle-path" fill="#FBAE37" transform="translate(30.989190, 42.311204) rotate(-75.403713) translate(-30.989190, -42.311204) " x="25.6540014" y="38.5238783" width="10.6703775" height="7.57465066"></rect>
                    <rect id="Rectangle-path" fill="#FBAE37" transform="translate(68.339367, 32.166342) rotate(44.594861) translate(-68.339367, -32.166342) " x="63.0039558" y="28.3788581" width="10.6708231" height="7.57496703"></rect>
                    <path d="M123.832335,99 L100.383234,99 L100.383234,33.9221557 L123.832335,33.9221557 L123.832335,99 L123.832335,99 Z M101.700599,97.6826347 L122.51497,97.6826347 L122.51497,35.239521 L101.700599,35.239521 L101.700599,97.6826347 L101.700599,97.6826347 Z" id="Shape" fill="#78909C"></path>
                    <g id="Group" opacity="0.62" transform="translate(127.784431, 18.443114)" fill="#738E98">
                        <rect id="Rectangle-path" x="0.395209581" y="0.131736527" width="22.1317365" height="79.7664671"></rect>
                    </g>
                </g>
            </g>
        </g>
    </g>
</svg>