<?xml version="1.0" encoding="UTF-8"?>
<svg width="180px" height="110px" viewBox="0 0 180 110" version="1.1" xmlns="http://www.w3.org/2000/svg" xmlns:xlink="http://www.w3.org/1999/xlink">
    <!-- Generator: Sketch 39 (31667) - http://www.bohemiancoding.com/sketch -->
    <title>ict</title>
    <desc>Created with Sketch.</desc>
    <defs></defs>
    <g id="Symbols" stroke="none" stroke-width="1" fill="none" fill-rule="evenodd">
        <g id="ict">
            <g id="1" transform="translate(1.000000, 6.000000)">
                <g id="Layer_1">
                    <g id="Group" opacity="0.3" transform="translate(137.236454, 28.065680)" fill="#F2D7A4">
                        <path d="M16.5960363,7.01642006 C15.3194181,6.82506315 14.8726017,5.93206424 15.5747417,4.78392277 C16.2768817,3.57199567 15.2555872,3.25306748 14.7449399,2.61521112 C14.1704617,1.91356911 13.6598145,2.04114038 12.9576745,2.48763984 C11.9363799,3.18928185 11.1065781,2.80656803 10.6597618,1.65842656 C10.5320999,1.27571274 10.3406072,0.82921328 10.1491145,0.446499459 C9.82995994,0.510285096 9.63846721,0.510285096 9.44697449,0.510285096 C8.10652541,0.446499459 7.08523087,0.63785637 6.82990723,2.29628293 C6.70224541,3.18928185 5.80861269,3.50821003 4.85114906,2.99792494 C4.34050179,2.74278239 3.70219271,2.10492602 3.12771453,2.9341393 C2.55323635,3.76335258 1.27661817,4.33742331 2.29791271,5.74070733 C3.06388362,6.82506315 2.74472907,7.5904908 1.53194181,8.10077589 C0.829801813,8.41970408 0.51064727,8.67484663 0.51064727,9.63163118 C0.574478178,10.7797726 0.957463631,11.3538434 2.04258908,11.6089859 C3.00005271,11.8641285 3.57453089,12.5657705 3.00005271,13.522555 C2.42557453,14.5431252 2.68089817,15.117196 3.51069998,15.6274811 C3.89368543,15.8826236 4.21283997,16.2015518 4.65965634,16.52048 C5.04264179,16.2653374 5.29796542,16.0739805 5.55328906,15.8826236 C6.82990723,14.9896247 7.59587814,15.2447672 8.10652541,16.7118369 C8.29801813,17.2859076 8.29801813,18.0513353 9.31931267,17.8599783 C10.2129454,17.6686214 11.4257327,17.8599783 11.4895636,16.4566943 C11.4895636,15.4361241 12.1917036,15.117196 13.0215054,14.9896247 C13.4044908,14.925839 13.7874763,15.3723385 14.1704617,15.3723385 C14.5534472,15.3723385 15.1917563,15.3723385 15.383249,15.117196 C15.8300654,14.5431252 16.9151908,14.224197 16.3407126,13.1398412 C15.5109108,11.6089859 15.6385726,11.2900577 17.1705144,10.3332732 C17.5534999,10.0781306 18.191809,9.50405991 18.1279781,9.18513172 C17.9364853,8.35591844 18.0003163,7.27156261 16.5960363,7.01642006 L16.5960363,7.01642006 Z M9.25548176,13.0122699 C7.08523087,13.0122699 5.23413451,11.1624865 5.29796542,8.99377481 C5.29796542,6.95263443 7.02139996,5.29420787 9.06398904,5.3579935 C11.2342399,5.42177914 13.0853363,7.27156261 13.0215054,9.44027427 C12.9576745,11.4814147 11.3619017,13.0122699 9.25548176,13.0122699 L9.25548176,13.0122699 Z" id="Shape"></path>
                    </g>
                    <g id="Group" opacity="0.5" transform="translate(0.000000, 47.839228)"></g>
                    <circle id="Oval-5" fill="#FFFFFF" cx="90" cy="61" r="28"></circle>
                    <g id="Group" transform="translate(61.277672, 31.892818)" fill="#4E809D">
                        <path d="M29.1068944,57.0243594 C13.2129981,57.0243594 0.255323635,44.3310177 0.255323635,28.7035366 C0.255323635,13.0760556 13.2129981,0.382713822 29.1068944,0.382713822 C45.0007906,0.382713822 57.9584651,13.0760556 57.9584651,28.7035366 C58.022296,44.267232 45.0646215,57.0243594 29.1068944,57.0243594 L29.1068944,57.0243594 Z M29.1068944,1.65842656 C13.9151381,1.65842656 1.53194181,13.7776976 1.53194181,28.7035366 C1.53194181,43.6293757 13.9151381,55.7486467 29.1068944,55.7486467 C44.2986506,55.7486467 56.6818469,43.6293757 56.6818469,28.7035366 C56.7456778,13.7776976 44.3624816,1.65842656 29.1068944,1.65842656 L29.1068944,1.65842656 Z" id="Shape"></path>
                        <path d="M29.0430635,56.0037892 C23.8727599,56.0037892 19.7875817,44.0120895 19.7875817,28.7035366 C19.7875817,13.3949838 23.8727599,1.40328401 29.0430635,1.40328401 C34.2133671,1.40328401 38.2985452,13.3949838 38.2985452,28.7035366 C38.2985452,44.0120895 34.2133671,56.0037892 29.0430635,56.0037892 L29.0430635,56.0037892 Z M29.0430635,2.61521112 C25.2132089,2.61521112 21.0641999,13.0760556 21.0641999,28.639751 C21.0641999,44.2034464 25.149378,54.6642909 29.0430635,54.6642909 C32.872918,54.6642909 37.0219271,44.2034464 37.0219271,28.639751 C37.0219271,13.0760556 32.872918,2.61521112 29.0430635,2.61521112 L29.0430635,2.61521112 Z" id="Shape"></path>
                        <path d="M29.4898798,57.279502 C18.2556399,57.279502 9.06398904,44.458589 9.06398904,28.7035366 C9.06398904,12.9484843 18.191809,0.127571274 29.4898798,0.127571274 C40.7241198,0.127571274 49.9157706,12.9484843 49.9157706,28.7035366 C49.9157706,44.458589 40.7241198,57.279502 29.4898798,57.279502 L29.4898798,57.279502 Z M29.4898798,1.33949838 C18.9577799,1.33949838 10.3406072,13.5863407 10.3406072,28.639751 C10.3406072,43.6931613 18.893949,55.9400036 29.4898798,55.9400036 C40.0219798,55.9400036 48.6391524,43.6931613 48.6391524,28.639751 C48.6391524,13.5863407 40.0219798,1.33949838 29.4898798,1.33949838 L29.4898798,1.33949838 Z" id="Shape"></path>
                        <rect id="Rectangle-path" x="1.53194181" y="36.9956694" width="53.809456" height="1.27571274"></rect>
                        <rect id="Rectangle-path" x="2.04258908" y="20.7941176" width="53.809456" height="1.27571274"></rect>
                    </g>
                    <g id="Group" opacity="0.62" transform="translate(40.851782, 65.061350)" fill="#738E98">
                        <path d="M5.17030361,10.2694875 C5.04264179,10.2694875 4.91497997,10.2694875 4.85114906,10.2057019 C3.6383618,10.014345 2.80855998,9.312703 2.29791271,8.22834717 C2.2340818,8.10077589 2.2340818,8.03699026 2.42557453,8.10077589 C2.74472907,8.16456153 3.12771453,8.16456153 3.44686907,8.03699026 C3.51069998,8.03699026 3.51069998,8.03699026 3.57453089,7.97320462 C3.44686907,7.90941898 3.38303816,7.90941898 3.25537634,7.84563335 C1.97875817,7.39913389 1.27661817,6.50613497 1.08512545,5.16663659 C1.02129454,4.78392277 1.02129454,4.78392277 1.40427999,4.97527968 C1.72343454,5.10285096 2.10641999,5.23042223 2.48940544,5.23042223 C2.48940544,5.16663659 2.42557453,5.16663659 2.42557453,5.16663659 C1.59577272,4.52878022 1.14895636,3.69956694 1.14895636,2.67899675 C1.14895636,2.16871166 1.27661817,1.65842656 1.4681109,1.2119271 C1.53194181,1.02057019 1.53194181,1.02057019 1.65960363,1.2119271 C2.2340818,1.84978347 2.87239089,2.4238542 3.57453089,2.9341393 C4.72348724,3.69956694 6.00010542,4.1460664 7.40438541,4.33742331 C7.53204723,4.33742331 7.72353995,4.40120895 7.85120177,4.40120895 C7.97886359,4.40120895 7.97886359,4.40120895 7.97886359,4.27363768 C7.85120177,3.63578131 7.91503268,2.99792494 8.23418722,2.4238542 C8.74483449,1.40328401 9.5108054,0.765427643 10.6597618,0.574070733 C11.6810563,0.446499459 12.574689,0.765427643 13.276829,1.40328401 C13.3406599,1.46706965 13.4683217,1.46706965 13.5321526,1.46706965 C14.1066308,1.33949838 14.681109,1.08435583 15.1917563,0.82921328 C15.2555872,0.82921328 15.2555872,0.765427643 15.3194181,0.765427643 C15.0640945,1.46706965 14.6172781,2.04114038 14.0427999,2.4238542 C14.6172781,2.36006857 15.1917563,2.23249729 15.7662345,1.97735475 C15.6385726,2.23249729 15.5109108,2.36006857 15.3194181,2.55142548 C15.0002635,2.9341393 14.681109,3.25306748 14.2981236,3.50821003 C14.2342926,3.57199567 14.1704617,3.63578131 14.1704617,3.76335258 C14.2342926,4.91149405 13.978969,6.05963551 13.5959836,7.14399134 C13.2129981,8.16456153 12.7023508,9.12134608 11.9363799,9.95055936 C11.1065781,10.9073439 10.1491145,11.6727716 9.06398904,12.1830567 C8.23418722,12.5657705 7.3405545,12.820913 6.44692178,12.9484843 C5.8724436,13.0122699 5.29796542,13.0760556 4.72348724,13.0122699 C3.6383618,12.9484843 2.61706726,12.6933418 1.65960363,12.3106279 C1.27661817,12.119271 0.893632722,11.9916997 0.574478178,11.7365572 C0.51064727,11.7365572 0.51064727,11.6727716 0.446816361,11.6089859 C2.2340818,11.7365572 3.76602361,11.2900577 5.17030361,10.2694875 L5.17030361,10.2694875 Z" id="Shape"></path>
                    </g>
                    <rect id="Rectangle-path" fill="#1C75BC" transform="translate(83.502503, 20.730664) rotate(64.672628) translate(-83.502503, -20.730664) " x="82.8641788" y="6.44233775" width="1.27664884" height="28.5766519"></rect>
                    <rect id="Rectangle-path" fill="#1C75BC" transform="translate(104.801885, 24.406678) rotate(45.000000) translate(-104.801885, -24.406678) " x="91.2379469" y="23.7688275" width="27.127876" height="1.2757005"></rect>
                    <g id="Group" opacity="0.62" transform="translate(14.872654, 22.357813)">
                        <path d="M31.660078,31.0081198 C28.6600253,29.2395193 27.0642526,27.6420736 26.2344508,26.3298861 C27.5748999,25.0747503 28.3408708,23.5914079 28.3408708,21.9369106 C28.3408708,17.6009867 22.7237508,14.0637856 15.7661817,14.0637856 C8.80861269,14.0637856 3.19149273,17.6009867 3.19149273,21.9369106 C3.19149273,26.2728345 8.80861269,29.8100356 15.7661817,29.8100356 C18.1917563,29.8100356 20.4258381,29.3536225 22.3407653,28.6119513 C24.0641999,29.6959323 27.0004217,30.7799133 31.660078,31.0081198 L31.660078,31.0081198 Z" id="Shape" fill="#738E98"></path>
                        <path d="M33.3134442,20.5288934 C35.2439375,18.5244502 36.3470765,16.1555627 36.3470765,13.5133421 C36.3470765,6.58890189 28.2573904,0.940016432 18.237211,0.940016432 C8.21703166,0.940016432 0.127345562,6.58890189 0.127345562,13.5133421 C0.127345562,20.4377824 8.21703166,26.0866678 18.237211,26.0866678 C21.7304846,26.0866678 24.9479734,25.3577794 27.7058209,24.1733357 C30.1878837,25.9044457 34.4165832,27.6355558 41.1273456,28 C36.8067178,25.1755573 34.5085115,22.6244477 33.3134442,20.5288934 Z" id="Shape-Copy" fill="#FFFFFF"></path>
                    </g>
                    <path d="M56.8733397,50.6457957 L55.6605524,50.5820101 C50.1072633,50.2630819 45.6390997,49.0511548 42.3837234,46.8186575 C39.5751634,48.0305846 36.383618,48.6046554 33.1282416,48.6046554 C23.106789,48.6046554 15.0002635,42.863948 15.0002635,35.7837423 C15.0002635,28.7035366 23.1706199,22.9628293 33.1282416,22.9628293 C43.1496943,22.9628293 51.2562197,28.7035366 51.2562197,35.7837423 C51.2562197,38.2713822 50.2349252,40.6952364 48.3199979,42.8001624 C49.7242779,45.2240166 52.2136833,47.6478708 55.8520451,49.9441537 L56.8733397,50.6457957 L56.8733397,50.6457957 Z M42.4475543,46.1170155 L42.5752161,46.2445868 C45.5114379,48.2857272 49.5327852,49.4976543 54.4477651,49.8803681 C51.1923888,47.6478708 48.8944761,45.2878022 47.6178579,42.9277337 L47.4901961,42.7363768 L47.6816888,42.5450198 C49.5966161,40.5676651 50.6179106,38.2075965 50.6179106,35.7837423 C50.6179106,29.0862505 42.7667088,23.6006857 33.1282416,23.6006857 C23.4897744,23.6006857 15.6385726,29.0862505 15.6385726,35.7837423 C15.6385726,42.4812342 23.4897744,47.966799 33.1282416,47.966799 C36.383618,47.966799 39.5751634,47.3289426 42.3198925,46.1170155 L42.4475543,46.1170155 L42.4475543,46.1170155 Z" id="Shape" fill="#4E809D"></path>
                    <path d="M168.960415,34.7631721 C167.428474,34.0615301 167.17315,33.2961025 168.194444,31.8928185 C169.343401,30.4257488 167.747628,29.7878925 167.364643,28.8311079 C166.981657,27.938109 166.279517,28.5759654 165.76887,28.7673223 C164.236928,29.2776074 163.470957,28.8311079 163.279464,27.3002526 C163.215634,26.9813244 163.151803,26.4710393 162.896479,26.3434681 C161.811354,25.5780404 160.024088,26.0245399 159.385779,27.236467 C158.74747,28.3208228 157.981499,28.4483941 156.832543,27.8105377 C156.321895,27.4916095 155.683586,27.4278239 155.109108,27.236467 L155.172939,27.1726813 C154.598461,27.5553952 154.087814,28.0018946 153.449505,28.4483941 C153.577166,28.8948935 153.704828,29.4051786 153.83249,29.8516781 C154.087814,30.8084626 153.577166,31.9566041 152.555872,32.0203898 C151.087761,32.0841754 150.640945,32.849603 150.768606,34.1891014 C150.832437,34.5718152 150.704775,35.0183147 150.640945,35.4648141 C150.960099,35.5923854 151.215423,35.7199567 151.470746,35.7837423 C153.13035,36.3578131 153.449505,37.5059545 152.42821,38.8454529 C152.172886,39.2281667 151.789901,39.7384518 151.853732,39.9935944 C152.172886,40.759022 152.555872,41.5244497 153.194181,42.0347348 C153.449505,42.2898773 154.343137,41.8433778 154.853785,41.6520209 C156.066572,41.2055215 156.896374,41.6520209 157.087866,42.9915193 C157.151697,43.5018044 157.215528,44.0120895 157.279359,44.5223746 C157.790006,44.5861602 158.236823,44.6499459 158.619808,44.7775171 C159.768764,45.0964453 160.598566,44.9688741 160.981552,43.6293757 C161.236875,42.6725911 162.066677,42.6725911 162.896479,42.863948 C163.343295,42.9915193 163.66245,43.3104475 164.109266,43.5018044 C165.258223,44.1396608 165.705039,42.9915193 166.407179,42.5450198 C166.662503,42.4174486 166.726334,41.7158066 166.662503,41.3330927 C166.151855,39.4195236 166.407179,38.9730242 168.385937,38.5903104 C170.045541,38.2713822 169.407232,36.8680982 169.790217,35.9750992 C170.300864,35.2096716 169.534894,35.0183147 168.960415,34.7631721 L168.960415,34.7631721 Z M160.343243,39.6108805 C157.981499,39.5470949 156.066572,37.7610971 156.066572,35.5285998 C156.066572,33.2323169 157.981499,31.3187477 160.343243,31.3187477 C162.704986,31.3187477 164.747575,33.2323169 164.683744,35.4648141 C164.747575,37.7610971 162.704986,39.6746662 160.343243,39.6108805 L160.343243,39.6108805 Z" id="Shape" fill="#FBAE37"></path>
                    <path d="M141.959941,48.0305846 C141.130139,48.0305846 140.938646,47.3289426 140.810985,46.9462288 C140.810985,46.8186575 140.747154,46.7548719 140.747154,46.6910863 C140.49183,46.0532299 140.236506,45.6705161 139.917352,45.6067304 C139.598197,45.4791591 139.215212,45.6705161 138.640734,46.0532299 L137.555608,46.8186575 L137.364116,46.6910863 C137.236454,46.563515 137.108792,46.4997293 136.98113,46.3721581 C136.725806,46.1808012 136.534314,45.9894442 136.27899,45.7980873 C135.57685,45.2878022 134.87471,44.5861602 135.704512,43.2466619 C135.896005,42.9277337 135.959836,42.6725911 135.832174,42.4174486 C135.704512,42.162306 135.385357,41.9071635 134.938541,41.7795922 C133.725754,41.460664 133.215106,40.8228077 133.215106,39.4833093 C133.151276,38.3989534 133.598092,38.0162396 134.427894,37.6335258 C135.002372,37.3783833 135.321526,37.1232407 135.385357,36.8043125 C135.449188,36.4853843 135.321526,36.1664562 135.066203,35.7199567 C134.108739,34.444244 134.87471,33.6788163 135.385357,33.1047456 C135.57685,32.9133887 135.704512,32.7220318 135.832174,32.5944605 C136.470483,31.6376759 137.300285,32.0841754 137.68327,32.4031036 C137.747101,32.4668892 137.874763,32.5306748 137.938594,32.5306748 C138.321579,32.7220318 138.768396,32.7858174 139.023719,32.6582461 C139.215212,32.5306748 139.342874,32.3393179 139.406705,32.0841754 C139.725859,30.1706063 141.066308,29.9792494 142.406757,30.043035 C142.534419,30.043035 142.59825,30.043035 142.789743,29.9792494 C142.853574,29.9792494 142.981236,29.9792494 143.108897,29.9154637 L143.364221,29.9154637 L143.619545,30.4895345 C143.747206,30.744677 143.874868,31.0636052 144.00253,31.3187477 C144.130192,31.7014616 144.385515,32.0841754 144.768501,32.2117467 C145.087655,32.2755323 145.40681,32.2117467 145.789795,31.9566041 C146.491935,31.5101047 147.194075,31.1911765 148.023877,32.147961 C148.151539,32.2755323 148.279201,32.4031036 148.406863,32.5306748 C148.91751,32.9771743 149.555819,33.4874594 148.91751,34.6993865 C148.726017,35.0183147 148.534525,35.5285998 148.726017,35.9113136 C148.91751,36.2940274 149.364326,36.4215987 149.747312,36.4853843 L149.747312,36.4853843 C151.215423,36.7405269 151.343085,37.8248827 151.406915,38.654096 C151.406915,38.7816673 151.406915,38.9092385 151.470746,38.9730242 C151.598408,39.6746662 150.385621,40.4400938 150.385621,40.4400938 C148.981341,41.3330927 148.91751,41.460664 149.683481,42.863948 C150.257959,43.8845182 149.555819,44.458589 149.109003,44.8413028 C148.91751,44.9688741 148.789848,45.0964453 148.726017,45.2240166 C148.406863,45.6705161 147.577061,45.6705161 147.257906,45.6067304 C147.002583,45.6067304 146.81109,45.4791591 146.619597,45.3515879 C146.491935,45.2878022 146.300443,45.160231 146.172781,45.2240166 C145.279148,45.3515879 144.959994,45.6705161 144.959994,46.3721581 C144.896163,47.7754421 143.874868,47.9030134 143.108897,48.0305846 C142.917405,48.0305846 142.725912,48.0943703 142.534419,48.0943703 C142.151434,48.0305846 142.023772,48.0305846 141.959941,48.0305846 L141.959941,48.0305846 Z M139.725859,44.8413028 C139.853521,44.8413028 139.981183,44.8413028 140.108845,44.9050884 C140.619492,45.0964453 141.002477,45.5429448 141.321632,46.3721581 C141.385463,46.4997293 141.385463,46.563515 141.449294,46.6910863 C141.640786,47.265157 141.704617,47.4565139 142.215265,47.3289426 C142.406757,47.265157 142.59825,47.265157 142.853574,47.265157 C143.683376,47.1375857 144.130192,47.0738001 144.130192,46.2445868 C144.194023,44.7137315 145.470641,44.5223746 145.917457,44.5223746 C146.236612,44.458589 146.491935,44.6499459 146.683428,44.7137315 C146.81109,44.7775171 147.002583,44.8413028 147.130245,44.9050884 C147.640892,44.9688741 148.023877,44.8413028 148.087708,44.7775171 C148.21537,44.5861602 148.406863,44.458589 148.598355,44.267232 C149.109003,43.8845182 149.300495,43.6293757 148.981341,43.1190906 C148.023877,41.3330927 148.343032,40.8865933 149.938805,39.8660231 C150.385621,39.5470949 150.768606,39.1643811 150.768606,39.0368098 C150.768606,38.9092385 150.768606,38.7816673 150.704775,38.654096 C150.640945,37.7610971 150.513283,37.1870263 149.555819,37.0594551 C148.598355,36.9318838 148.21537,36.4853843 148.087708,36.1664562 C147.896215,35.847528 147.832385,35.2096716 148.279201,34.3804583 C148.662186,33.6788163 148.406863,33.4236738 147.896215,33.0409599 C147.768554,32.9133887 147.577061,32.7858174 147.449399,32.5944605 C147.002583,32.0841754 146.747259,32.0841754 146.10895,32.5306748 C145.40681,32.9771743 144.896163,32.9771743 144.513177,32.849603 C144.00253,32.6582461 143.619545,32.2117467 143.30039,31.5738903 C143.172728,31.3187477 143.045066,30.9998196 142.981236,30.744677 L142.917405,30.6171057 L142.853574,30.6171057 C142.662081,30.6171057 142.534419,30.6808914 142.342926,30.6808914 C141.002477,30.6171057 140.300337,30.8084626 140.045014,32.2117467 C139.981183,32.6582461 139.662028,33.0409599 139.279043,33.2323169 C138.832226,33.4874594 138.193917,33.4236738 137.619439,33.1047456 C137.555608,33.0409599 137.427946,32.9771743 137.300285,32.9133887 C136.725806,32.5944605 136.598145,32.5306748 136.27899,32.9133887 C136.151328,33.1685312 135.959836,33.3598881 135.768343,33.551245 C135.193865,34.1253158 134.87471,34.5080296 135.449188,35.3372429 C135.896005,35.9113136 136.023666,36.4853843 135.896005,36.9318838 C135.768343,37.4421689 135.321526,37.8886684 134.555556,38.2075965 C133.917246,38.4627391 133.725754,38.654096 133.725754,39.4195236 C133.789585,40.4400938 134.108739,40.8865933 135.002372,41.1417358 C135.704512,41.3330927 136.151328,41.7158066 136.342821,42.162306 C136.470483,42.4812342 136.534314,42.9277337 136.151328,43.56559 C135.704512,44.3310177 135.768343,44.7137315 136.534314,45.2878022 C136.789637,45.4791591 137.044961,45.6705161 137.300285,45.861873 C137.364116,45.9256586 137.427946,45.9894442 137.491777,46.0532299 L138.193917,45.5429448 C138.832226,45.0326597 139.279043,44.8413028 139.725859,44.8413028 L139.725859,44.8413028 Z M142.215265,43.0553049 L142.215265,43.0553049 L142.215265,43.0553049 C141.002477,43.0553049 139.917352,42.6088055 139.151381,41.7795922 C138.321579,40.9503789 137.874763,39.8660231 137.938594,38.7178816 C137.938594,37.6335258 138.38541,36.6129556 139.151381,35.847528 C139.917352,35.0821003 140.938646,34.6993865 141.959941,34.6993865 C144.321685,34.7631721 146.300443,36.7405269 146.236612,39.1005955 C146.236612,41.3330927 144.513177,43.0553049 142.215265,43.0553049 L142.215265,43.0553049 Z M142.215265,42.4174486 L142.215265,42.4174486 C144.130192,42.4174486 145.598303,41.0141646 145.598303,39.1005955 C145.598303,37.1232407 143.938699,35.4010285 141.959941,35.3372429 C141.066308,35.3372429 140.236506,35.6561711 139.598197,36.2940274 C138.959888,36.9318838 138.576903,37.7610971 138.576903,38.7178816 C138.576903,39.6746662 138.959888,40.6314507 139.598197,41.3330927 C140.300337,41.9709491 141.19397,42.4174486 142.215265,42.4174486 L142.215265,42.4174486 L142.215265,42.4174486 Z" id="Shape" fill="#4E809D"></path>
                    <path d="M129.95973,47.265157 C129.385252,47.1375857 129.193759,46.7548719 129.449083,46.2445868 C129.768237,45.6705161 129.321421,45.5429448 129.066097,45.2240166 C128.810774,44.9050884 128.55545,44.9688741 128.236296,45.160231 C127.789479,45.4791591 127.406494,45.2878022 127.15117,44.7775171 C127.087339,44.5861602 126.959677,44.3948033 126.895847,44.2034464 C126.768185,44.2034464 126.640523,44.267232 126.576692,44.267232 C125.938383,44.2034464 125.491567,44.3310177 125.363905,45.0964453 C125.300074,45.4791591 124.917088,45.6705161 124.470272,45.4153735 C124.214948,45.2878022 123.959625,44.9688741 123.704301,45.4153735 C123.448977,45.7980873 122.874499,46.0532299 123.321316,46.6910863 C123.704301,47.2013713 123.512808,47.5202995 122.93833,47.7754421 C122.619176,47.9030134 122.427683,48.0305846 122.491514,48.4770841 C122.491514,48.9873692 122.683007,49.2425117 123.193654,49.370083 C123.64047,49.4976543 123.895794,49.8165825 123.64047,50.2630819 C123.385147,50.7095814 123.512808,50.9647239 123.895794,51.2198665 C124.087287,51.3474377 124.214948,51.475009 124.406441,51.6025803 C124.597934,51.475009 124.725596,51.4112234 124.853257,51.2836521 C125.427736,50.9009383 125.810721,50.9647239 126.002214,51.6663659 C126.129876,51.9215085 126.129876,52.3042223 126.576692,52.176651 C127.023508,52.1128654 127.534156,52.176651 127.597987,51.5387947 C127.597987,51.0285096 127.917141,50.9009383 128.300127,50.9009383 C128.491619,50.9009383 128.619281,51.0922952 128.810774,51.0922952 C129.002266,51.0922952 129.25759,51.0922952 129.385252,50.9647239 C129.576745,50.7095814 130.087392,50.5820101 129.832068,50.071725 C129.449083,49.370083 129.512914,49.2425117 130.215054,48.7960123 C130.406546,48.668441 130.66187,48.4132984 130.66187,48.2857272 C130.598039,47.9030134 130.598039,47.3927283 129.95973,47.265157 L129.95973,47.265157 Z M126.576692,50.071725 C125.555397,50.071725 124.725596,49.2425117 124.725596,48.2219415 C124.725596,47.265157 125.555397,46.4997293 126.44903,46.563515 C127.470325,46.563515 128.300127,47.4565139 128.300127,48.4770841 C128.300127,49.3062974 127.534156,50.071725 126.576692,50.071725 L126.576692,50.071725 Z" id="Shape" fill="#FBAE37"></path>
                    <path d="M58.4691124,21.2406171 C57.8946342,21.1768315 57.7031415,20.7941176 58.022296,20.2838326 C58.3414506,19.7735475 57.8946342,19.6459762 57.6393106,19.327048 C57.3839869,19.0081198 57.1924942,19.0719054 56.8733397,19.2632624 C56.4265233,19.5821905 56.0435378,19.3908336 55.8520451,18.8805485 C55.7882142,18.6891916 55.7243833,18.5616204 55.5967215,18.3702634 C55.4690597,18.3702634 55.3413978,18.4340491 55.2775669,18.4340491 C54.7030888,18.4340491 54.2562724,18.4978347 54.1286106,19.1994767 C54.0647797,19.5821905 53.6817942,19.7097618 53.2988088,19.5184049 C53.0434851,19.3908336 52.7881615,19.1356911 52.5328379,19.5184049 C52.2775142,19.9011187 51.7030361,20.1562613 52.1498524,20.730332 C52.469007,21.1768315 52.3413451,21.5595453 51.8306979,21.7509022 C51.5115433,21.8784735 51.3838815,22.0060447 51.3838815,22.3887586 C51.3838815,22.8990437 51.5753742,23.1541862 52.0221906,23.2817575 C52.469007,23.4093288 52.7243306,23.7282569 52.469007,24.1109708 C52.2136833,24.5574702 52.3413451,24.8126128 52.6604997,25.0677553 C52.8519924,25.1953266 52.9796542,25.3228979 53.171147,25.4504691 C53.3626397,25.3228979 53.4264706,25.2591122 53.5541324,25.1953266 C54.1286106,24.8126128 54.4477651,24.940184 54.6392579,25.5780404 C54.7030888,25.833183 54.7030888,26.1521112 55.1499051,26.0883255 C55.5328906,26.0245399 56.0435378,26.0883255 56.1073688,25.4504691 C56.1073688,25.0039697 56.4265233,24.8763984 56.7456778,24.8126128 C56.8733397,24.8126128 57.0648324,24.940184 57.2563251,25.0039697 C57.4478178,25.0039697 57.7031415,25.0039697 57.7669724,24.8763984 C57.9584651,24.6212559 58.4691124,24.4936846 58.2137887,23.9833995 C57.8308033,23.2817575 57.8946342,23.1541862 58.5967742,22.7714724 C58.7882669,22.6439011 59.0435906,22.3887586 58.9797596,22.2611873 C59.0435906,21.8146878 59.0435906,21.3681884 58.4691124,21.2406171 L58.4691124,21.2406171 Z M55.2775669,23.8558282 C54.3201033,23.8558282 53.5541324,23.0266149 53.5541324,22.0698304 C53.5541324,21.1768315 54.3201033,20.4751895 55.213736,20.4751895 C56.1711997,20.4751895 56.9371706,21.3044027 56.9371706,22.2611873 C56.8733397,23.2179719 56.1711997,23.8558282 55.2775669,23.8558282 L55.2775669,23.8558282 Z" id="Shape" fill="#FBAE37"></path>
                    <path d="M39.2560089,13.0760556 C38.8730234,13.0122699 38.7453616,12.7571274 38.9368543,12.3744136 C39.128347,11.9916997 38.8091925,11.9279141 38.6815307,11.7365572 C38.490038,11.5452003 38.3623761,11.5452003 38.1070525,11.6727716 C37.787898,11.8641285 37.5325743,11.8003428 37.4049125,11.417629 C37.3410816,11.2900577 37.2772507,11.1624865 37.2772507,11.0349152 L37.085758,11.0349152 C36.7027725,11.0349152 36.383618,11.0987008 36.2559561,11.6089859 C36.1921252,11.8641285 35.9368016,11.9916997 35.681478,11.8003428 C35.4899852,11.7365572 35.3623234,11.5452003 35.1708307,11.8003428 C34.979338,12.0554854 34.5963525,12.2468423 34.9155071,12.6295561 C35.1708307,12.9484843 35.0431689,13.2036268 34.6601834,13.3311981 C34.4686907,13.3949838 34.3410289,13.522555 34.3410289,13.7776976 C34.3410289,14.1604114 34.4686907,14.2879827 34.7878452,14.415554 C35.1069998,14.4793396 35.2346616,14.7344821 35.1069998,14.9896247 C34.9155071,15.3085529 34.979338,15.4999098 35.2346616,15.6274811 C35.3623234,15.6912667 35.4261543,15.818838 35.5538162,15.8826236 C35.681478,15.818838 35.7453089,15.7550523 35.8091398,15.6912667 C36.1921252,15.4361241 36.4474489,15.4999098 36.5751107,15.9464092 C36.6389416,16.1377661 36.6389416,16.3929087 36.9580961,16.3291231 C37.2134198,16.2653374 37.5964052,16.3291231 37.5964052,15.8826236 C37.5964052,15.5636954 37.787898,15.4999098 38.0432216,15.4361241 C38.1708834,15.4361241 38.2985452,15.5636954 38.426207,15.5636954 C38.5538689,15.5636954 38.7453616,15.5636954 38.8091925,15.4999098 C38.9368543,15.3085529 39.2560089,15.2447672 39.128347,14.8620534 C38.8730234,14.3517683 38.9368543,14.2879827 39.3836707,13.9690545 C39.5113325,13.9052689 39.7028252,13.7139119 39.7028252,13.5863407 C39.6389943,13.4587694 39.7028252,13.1398412 39.2560089,13.0760556 L39.2560089,13.0760556 Z M36.9580961,14.925839 C36.2559561,14.925839 35.7453089,14.3517683 35.7453089,13.7139119 C35.7453089,13.0760556 36.2559561,12.5657705 36.8942652,12.5657705 C37.5325743,12.5657705 38.1070525,13.1398412 38.1070525,13.8414832 C38.1070525,14.415554 37.6602361,14.925839 36.9580961,14.925839 L36.9580961,14.925839 Z" id="Shape" fill="#FBAE37"></path>
                    <g id="Group" opacity="0.5" transform="translate(140.427999, 16.584266)" fill="#FBAE37">
                        <g id="Shape">
                            <path d="M14.0427999,8.16456153 C13.0853363,7.39913389 13.0215054,6.63370624 14.1066308,5.93206424 C14.8087708,5.42177914 14.681109,4.91149405 14.3619545,4.33742331 C14.1066308,3.76335258 13.978969,2.99792494 13.0215054,3.25306748 C12.0002108,3.57199567 11.6810563,2.87035366 11.4895636,2.10492602 C11.3619017,1.59464092 11.3619017,1.02057019 11.2980708,0.382713822 C10.468269,0.510285096 9.63846721,-0.510285096 8.8086654,0.510285096 C7.91503268,1.53085529 7.40438541,1.46706965 6.38309087,0.510285096 C6.12776724,0.255142548 5.55328906,0.191356911 5.17030361,0.191356911 C4.65965634,0.255142548 4.21283997,0.574070733 3.76602361,0.765427643 C3.70219271,3.18928185 3.70219271,3.18928185 1.21278727,3.06171057 C0.829801813,4.1460664 -0.191492726,5.23042223 1.34044908,6.31477806 C1.85109635,6.69749188 1.91492726,7.46291952 1.14895636,7.97320462 C0.702139996,8.2921328 4.04398737e-13,8.54727535 0.446816361,9.37648863 C0.893632722,10.1419163 0.957463631,11.2262721 2.36174362,10.9711296 C3.38303816,10.7797726 3.76602361,11.3538434 3.76602361,12.3744136 C3.76602361,12.9484843 3.6383618,13.522555 4.4043327,13.7776976 C5.17030361,13.9690545 5.8724436,14.4793396 6.51075269,13.5863407 C6.95756905,12.9484843 7.65970904,12.7571274 8.36184904,13.2674125 C8.68100358,13.522555 8.93632722,13.9690545 9.19165085,14.2879827 C10.468269,13.8414832 11.872549,13.7139119 11.2342399,11.8003428 C11.1065781,11.3538434 11.6172254,10.6522014 12.5108581,10.7797726 C13.0853363,10.8435583 13.5959836,10.7797726 14.1704617,10.7797726 C14.2342926,10.4608445 14.2981236,10.0781306 14.4257854,9.75920245 C14.7449399,9.05756045 14.6172781,8.61106099 14.0427999,8.16456153 L14.0427999,8.16456153 Z M7.46821632,10.3332732 C5.68095087,10.3970588 4.21283997,8.92998917 4.14900907,7.20777698 C4.14900907,5.42177914 5.61711997,3.95470949 7.46821632,3.89092385 C9.25548176,3.82713822 10.7874236,5.29420787 10.7874236,7.01642006 C10.8512545,8.73863226 9.25548176,10.2694875 7.46821632,10.3332732 L7.46821632,10.3332732 Z"></path>
                        </g>
                        <g transform="translate(14.042800, 10.205702)" id="Shape">
                            <path d="M0.191492726,0.574070733 C0.127661817,0.574070733 0.127661817,0.574070733 0.191492726,0.574070733 C0.127661817,0.574070733 0.127661817,0.574070733 0.191492726,0.574070733 C0.127661817,0.574070733 0.191492726,0.574070733 0.191492726,0.574070733 L0.191492726,0.574070733 Z"></path>
                        </g>
                    </g>
                    <rect id="Rectangle-path" fill="#1C75BC" transform="translate(68.895262, 15.284459) rotate(85.296288) translate(-68.895262, -15.284459) " x="56.6082077" y="14.6466227" width="24.5741089" height="1.27567168"></rect>
                    <g id="Group" transform="translate(9.574636, 21.049260)" fill="#FBAE37">
                        <path d="M0.127661817,0.892998917 L3.76602361,1.08435583" id="Shape"></path>
                        <rect id="Rectangle-path" transform="translate(1.901970, 1.140794) rotate(2.758144) translate(-1.901970, -1.140794) " x="0.114779048" y="0.626089797" width="3.57438217" height="0.637829832"></rect>
                    </g>
                    <g id="Group" transform="translate(125.108581, 39.547095)" fill="#FBAE37">
                        <path d="M0.191492726,0.574070733 L3.76602361,0.701642006" id="Shape"></path>
                        <rect id="Rectangle-path" transform="translate(1.959554, 0.823836) rotate(2.758144) translate(-1.959554, -0.823836) " x="0.172363378" y="0.30913241" width="3.57438217" height="0.637829832"></rect>
                    </g>
                    <g id="Group" transform="translate(51.221293, 0.637856)" fill="#FBAE37">
                        <path d="M1.69452997,0.127571274 L2.33283906,3.57199567" id="Shape"></path>
                        <rect id="Rectangle-path" transform="translate(1.813368, 1.864222) rotate(80.031849) translate(-1.813368, -1.864222) " x="0.0580249852" y="1.34951586" width="3.51068527" height="0.637853697"></rect>
                    </g>
                    <g id="Group" transform="translate(128.300127, 7.016420)" fill="#FBAE37">
                        <path d="M3.57453089,0.446499459 L0.765970904,2.87035366" id="Shape"></path>
                        <rect id="Rectangle-path" transform="translate(2.319600, 1.786209) rotate(48.401196) translate(-2.319600, -1.786209) " x="1.80489477" y="-0.0635447486" width="0.63829889" height="3.69950784"></rect>
                    </g>
                    <g id="Group" transform="translate(130.853363, 19.773547)" fill="#FBAE37">
                        <path d="M1.40427999,0.063785637 L0.574478178,4.1460664" id="Shape"></path>
                        <rect id="Rectangle-path" transform="translate(1.137667, 2.187794) rotate(11.542526) translate(-1.137667, -2.187794) " x="0.622961915" y="0.114710706" width="0.638324422" height="4.14616601"></rect>
                    </g>
                    <g id="Group" transform="translate(112.498966, 8.929989)" fill="#FBAE37">
                        <path d="M1.69452997,0.446499459 L1.75836088,4.33742331" id="Shape"></path>
                        <rect id="Rectangle-path" transform="translate(1.551674, 2.356087) rotate(88.665482) translate(-1.551674, -2.356087) " x="-0.363197974" y="1.84138211" width="3.82974435" height="0.63783802"></rect>
                    </g>
                    <g id="Group" opacity="0.62" transform="translate(121.278727, 50.390653)" fill="#738E98">
                        <g id="Shape">
                            <polygon points="0.51064727 6.82506315 13.5321526 11.8641285 21.6386781 0.382713822"></polygon>
                        </g>
                        <g id="Shape">
                            <polygon points="22.404649 0.382713822 13.7874763 12.6295561 13.6598145 12.6295561 13.6598145 12.6295561 0.382985452 7.46291952 4.85114906 22.133616 27.0004744 15.3723385"></polygon>
                        </g>
                    </g>
                    <path d="M144.959994,85.3451822 L139.598197,77.0530494 L150.449452,77.0530494 L144.959994,85.3451822 L144.959994,85.3451822 Z M140.810985,77.6271202 L144.959994,84.1332551 L149.300495,77.6271202 L140.810985,77.6271202 L140.810985,77.6271202 Z" id="Shape" fill="#1C75BC"></path>
                    <ellipse id="Oval" fill="#1C75BC" cx="67.6607632" cy="2.55142548" rx="2.10641999" ry="2.10492602"></ellipse>
                    <ellipse id="Oval" fill="#1C75BC" cx="70.0863378" cy="27.1726813" rx="2.10641999" ry="2.10492602"></ellipse>
                    <ellipse id="Oval" fill="#1C75BC" cx="95.7463631" cy="15.3085529" rx="2.10641999" ry="2.10492602"></ellipse>
                    <ellipse id="Oval" fill="#1C75BC" cx="114.257327" cy="34.444244" rx="2.10641999" ry="2.10492602"></ellipse>
                    <g id="Group" transform="translate(91.278199, 72.715626)" fill="#1C75BC">
                        <path d="M0.319154544,20.5389751 L0.127661817,19.9011187 C0.191492726,19.9011187 0.382985452,19.8373331 0.893632722,19.8373331 C15.3194181,18.9443342 25.5323635,12.3744136 29.6175416,1.33949838 L30.1920198,1.53085529 C26.0430108,12.820913 15.6385726,19.5184049 0.957463631,20.4751895 C0.638309087,20.5389751 0.382985452,20.5389751 0.319154544,20.5389751 L0.319154544,20.5389751 Z" id="Shape"></path>
                        <polygon id="Shape" points="28.3409235 1.14814147 31.2771453 2.16871166 30.3196816 0.191356911"></polygon>
                    </g>
                    <g id="Group" transform="translate(59.362745, 27.427824)" fill="#1C75BC">
                        <path d="M1.59577272,17.7324071 L1.02129454,17.4772645 C4.85114906,9.75920245 12.1278727,4.59256586 23.2982817,1.65842656 C35.6176471,-1.59464092 45.0646215,3.4444244 48.5753215,5.74070733 C48.7029833,5.80449296 48.7668143,5.8682786 48.7668143,5.8682786 L48.5114906,6.3785637 C48.4476597,6.3785637 48.3838288,6.31477806 48.1923361,6.18720678 C44.745467,3.95470949 35.5538162,-0.956784554 23.4259435,2.23249729 C12.4470272,5.16663659 5.29796542,10.2057019 1.59577272,17.7324071 L1.59577272,17.7324071 Z" id="Shape"></path>
                        <polygon id="Shape" points="2.80855998 18.1151209 0 16.7118369 0.702139996 18.8167629"></polygon>
                    </g>
                </g>
            </g>
        </g>
    </g>
</svg>