<?xml version="1.0" encoding="UTF-8"?>
<svg width="100px" height="100px" viewBox="0 0 100 100" version="1.1" xmlns="http://www.w3.org/2000/svg" xmlns:xlink="http://www.w3.org/1999/xlink">
    <!-- Generator: Sketch 39 (31667) - http://www.bohemiancoding.com/sketch -->
    <title>professionals</title>
    <desc>Created with Sketch.</desc>
    <defs></defs>
    <g id="Symbols" stroke="none" stroke-width="1" fill="none" fill-rule="evenodd">
        <g id="professionals">
            <g id="7" transform="translate(0.000000, 16.000000)">
                <g id="Layer_1">
                    <g id="Group">
                        <g opacity="0.62" transform="translate(42.608696, 33.913043)" id="Shape" fill="#738E98">
                            <path d="M22.0869565,0.695652174 C21.1304348,0.52173913 14.2608696,0.52173913 12.9565217,0.52173913 C11.5652174,0.52173913 4.69565217,0.52173913 3.82608696,0.695652174 C2.7826087,0.869565217 -0.260869565,2.26086957 0.869565217,6.26086957 C2.08695652,10.173913 8.08695652,7.91304348 9.13043478,7.13043478 C10,6.43478261 11.0434783,5.30434783 12.173913,2.43478261 C12.3478261,2 12.6956522,1.91304348 12.9565217,1.91304348 C13.2173913,1.91304348 13.5652174,2 13.7391304,2.43478261 C14.8695652,5.30434783 16,6.43478261 16.7826087,7.13043478 C17.826087,7.91304348 23.826087,10.173913 25.0434783,6.26086957 C26.173913,2.34782609 23.0434783,0.869565217 22.0869565,0.695652174 L22.0869565,0.695652174 Z"></path>
                        </g>
                        <g opacity="0.62" transform="translate(43.478261, 16.521739)" id="Shape" fill="#738E98">
                            <path d="M12.173913,0.608695652 L12.173913,0.52173913 C12.173913,0.52173913 12.0869565,0.52173913 11.9130435,0.608695652 C11.7391304,0.608695652 11.6521739,0.52173913 11.6521739,0.52173913 L11.6521739,0.608695652 C9.39130435,1.13043478 0.869565217,3.56521739 0,10.9565217 C1.2173913,8.52173913 3.65217391,7.56521739 5.39130435,8.52173913 C8.08695652,9.91304348 9.39130435,11.1304348 11.826087,11.2173913 L11.826087,11.2173913 L11.9130435,11.2173913 L12,11.2173913 L12,11.2173913 C14.4347826,11.1304348 15.826087,9.91304348 18.4347826,8.52173913 C20.173913,7.65217391 22.6086957,8.52173913 23.826087,10.9565217 C23.0434783,3.65217391 14.5217391,1.13043478 12.173913,0.608695652 L12.173913,0.608695652 Z"></path>
                        </g>
                        <path d="M9.13043478,57.3913043 C8.34782609,57.3913043 7.65217391,56.9565217 7.30434783,56.173913 L0.608695652,40.5217391 C0.173913043,39.4782609 0.608695652,38.3478261 1.65217391,37.9130435 L25.7391304,27.6521739 C26.7826087,27.2173913 27.9130435,27.6521739 28.3478261,28.6956522 L35.0434783,44.3478261 C35.4782609,45.3913043 35.0434783,46.5217391 34,46.9565217 L9.91304348,57.2173913 C9.65217391,57.3043478 9.39130435,57.3913043 9.13043478,57.3913043 L9.13043478,57.3913043 Z M26.5217391,28.3478261 C26.3478261,28.3478261 26.2608696,28.3478261 26.0869565,28.4347826 L2,38.6956522 C1.47826087,38.9565217 1.13043478,39.5652174 1.39130435,40.173913 L8.08695652,55.826087 C8.34782609,56.3478261 8.95652174,56.6956522 9.56521739,56.4347826 L33.6521739,46.173913 C34.173913,45.9130435 34.5217391,45.3043478 34.2608696,44.6956522 L27.5652174,29.0434783 C27.3913043,28.6086957 26.9565217,28.3478261 26.5217391,28.3478261 L26.5217391,28.3478261 Z" id="Shape" fill="#1C75BC"></path>
                        <path d="M10.9565217,62 C10.173913,62 9.47826087,61.5652174 9.13043478,60.7826087 L8.52173913,59.3913043 C8.08695652,58.3478261 8.52173913,57.2173913 9.56521739,56.7826087 L34.4347826,46.173913 C35.4782609,45.7391304 36.6086957,46.173913 37.0434783,47.2173913 L37.6521739,48.6086957 C38.0869565,49.6521739 37.6521739,50.7826087 36.6086957,51.2173913 L11.7391304,61.826087 C11.4782609,61.9130435 11.2173913,62 10.9565217,62 L10.9565217,62 Z M35.2173913,46.8695652 C35.0434783,46.8695652 34.9565217,46.8695652 34.7826087,46.9565217 L9.91304348,57.5652174 C9.39130435,57.826087 9.04347826,58.4347826 9.30434783,59.0434783 L9.91304348,60.4347826 C10.173913,60.9565217 10.7826087,61.3043478 11.3913043,61.0434783 L36.2608696,50.4347826 C36.7826087,50.173913 37.1304348,49.5652174 36.8695652,48.9565217 L36.2608696,47.5652174 C36,47.1304348 35.6521739,46.8695652 35.2173913,46.8695652 L35.2173913,46.8695652 Z" id="Shape" fill="#1C75BC"></path>
                        <g opacity="0.54" transform="translate(4.347826, 31.304348)" id="Shape" fill="#E4B465">
                            <path d="M26,14.0869565 L7.13043478,22.173913 C6.34782609,22.5217391 5.39130435,22.173913 5.13043478,21.3913043 L0.434782609,10.3478261 C0.0869565217,9.56521739 0.434782609,8.60869565 1.2173913,8.34782609 L20.0869565,0.260869565 C20.8695652,-0.0869565217 21.826087,0.260869565 22.0869565,1.04347826 L26.7826087,12.0869565 C27.1304348,12.8695652 26.7826087,13.7391304 26,14.0869565 L26,14.0869565 Z"></path>
                        </g>
                        <g opacity="0.62" transform="translate(48.695652, 58.260870)" id="Shape" fill="#738E98">
                            <polygon points="5.91304348 0.695652174 0.695652174 7.04347826 3.65217391 10.6086957 0.695652174 18.3478261 1.2173913 23.5652174 10.6086957 23.5652174 10.7826087 18.5217391 8.08695652 10.6086957 11.0434783 7.04347826"></polygon>
                        </g>
                        <rect id="Rectangle-path" fill="#1C75BC" transform="translate(23.564796, 53.541778) rotate(66.888684) translate(-23.564796, -53.541778) " x="23.1300338" y="50.1941123" width="0.869523625" height="6.69533191"></rect>
                        <g transform="translate(75.652174, 42.608696)" id="Shape">
                            <g opacity="0.62" transform="translate(0.000000, 7.826087)" fill="#738E98">
                                <path d="M16.8695652,12.8695652 L1.91304348,5.91304348 C0.869565217,5.39130435 0.0869565217,3.91304348 1.39130435,2.26086957 C1.39130435,2.26086957 1.04347826,3.91304348 2.17391304,4.52173913 C5.65217391,6.26086957 16.4347826,11.1304348 16.4347826,11.1304348 C17.3913043,11.6521739 18.2608696,11.2173913 18.7826087,10.2608696 C19.6521739,8.52173913 21.3043478,5.30434783 22.173913,3.2173913 C22.9565217,1.39130435 22,0.347826087 22,0.347826087 C23.0434783,0.869565217 24.0869565,2.34782609 23.6521739,3.39130435 L19.7391304,11.826087 C19.1304348,12.8695652 17.9130435,13.3913043 16.8695652,12.8695652 L16.8695652,12.8695652 Z"></path>
                            </g>
                            <path d="M17.3043478,20.9565217 C16.8695652,20.9565217 16.4347826,20.8695652 16,20.6956522 L2.08695652,14.2608696 C0.52173913,13.5652174 -0.173913043,11.6521739 0.52173913,10.0869565 L3.91304348,2.69565217 C4.26086957,1.91304348 4.86956522,1.39130435 5.65217391,1.04347826 C6.43478261,0.782608696 7.30434783,0.782608696 8.08695652,1.13043478 L22,7.56521739 C22.7826087,7.91304348 23.3043478,8.52173913 23.6521739,9.30434783 C23.9130435,10.0869565 23.9130435,10.9565217 23.5652174,11.7391304 L20.173913,19.1304348 C19.6521739,20.2608696 18.5217391,20.9565217 17.3043478,20.9565217 L17.3043478,20.9565217 Z M6.86956522,1.73913043 C6.60869565,1.73913043 6.34782609,1.82608696 6.08695652,1.91304348 C5.47826087,2.08695652 5.04347826,2.52173913 4.7826087,3.04347826 L1.39130435,10.4347826 C0.869565217,11.5652174 1.39130435,12.8695652 2.52173913,13.4782609 L16.4347826,19.9130435 C17.5652174,20.4347826 18.8695652,19.9130435 19.4782609,18.7826087 L22.8695652,11.3913043 C23.3913043,10.2608696 22.8695652,8.95652174 21.7391304,8.34782609 L7.82608696,1.91304348 C7.47826087,1.73913043 7.13043478,1.73913043 6.86956522,1.73913043 L6.86956522,1.73913043 Z" fill="#1C75BC"></path>
                            <polygon fill="#1C75BC" points="18.9565217 14.9565217 4.26086957 7.39130435 4.43478261 2 5.30434783 2 5.13043478 6.86956522 18.8695652 13.9130435 23.1304348 10.6086957 23.6521739 11.3043478"></polygon>
                            <path d="M19.0434783,6.52173913 L18.2608696,6.08695652 C18.4347826,5.73913043 18.6086957,5.2173913 18.5217391,5.04347826 C18.0869565,4.7826087 13.2173913,2.43478261 12.6956522,2.34782609 C12.4347826,2.26086957 12.173913,2.95652174 12.0869565,3.2173913 L11.2173913,3.04347826 C11.3913043,2.43478261 11.826087,1.39130435 12.7826087,1.56521739 C13.5652174,1.65217391 18.7826087,4.34782609 19.0434783,4.52173913 C19.826087,4.95652174 19.2173913,6.17391304 19.0434783,6.52173913 L19.0434783,6.52173913 Z" fill="#1C75BC"></path>
                            <path d="M12.7826087,13.3913043 L9.91304348,12 L11.4782609,8.69565217 L14.3478261,10.0869565 L12.7826087,13.3913043 L12.7826087,13.3913043 Z M11.1304348,11.6521739 L12.4347826,12.2608696 L13.3043478,10.5217391 L12,9.91304348 L11.1304348,11.6521739 L11.1304348,11.6521739 Z" fill="#1C75BC"></path>
                        </g>
                        <g opacity="0.54" transform="translate(73.043478, 13.043478)" id="Rectangle-path" fill="#E4B465">
                            <rect transform="translate(10.018826, 11.640800) rotate(23.891514) translate(-10.018826, -11.640800) " x="3.32327606" y="2.24963892" width="13.3911001" height="18.7823222"></rect>
                        </g>
                        <path d="M87.826087,40.173913 L75.2173913,33.3913043 L84.0869565,16.8695652 L96.6956522,23.6521739 L87.826087,40.173913 L87.826087,40.173913 Z M76.4347826,33.0434783 L87.4782609,38.9565217 L95.4782609,24 L84.4347826,18.0869565 L76.4347826,33.0434783 L76.4347826,33.0434783 Z" id="Shape" fill="#1C75BC"></path>
                        <path d="M11.2173913,31.1304348 L10.7826087,31.0434783 L10.4347826,30.7826087 C10.7826087,30.0869565 11.6521739,28.3478261 14.2608696,28.7826087 L14.173913,29.6521739 C12.173913,29.3043478 11.5652174,30.4347826 11.2173913,31.1304348 L11.2173913,31.1304348 Z" id="Shape" fill="#1C75BC"></path>
                        <path d="M6.95652174,31.3043478 L6.17391304,30.9565217 L6.26086957,30.7826087 C7.30434783,28.6956522 9.39130435,24.4347826 16.2608696,25.4782609 L16.173913,26.3478261 C10,25.4782609 8.08695652,29.2173913 7.13043478,31.2173913 L6.95652174,31.3043478 L6.95652174,31.3043478 Z" id="Shape" fill="#1C75BC"></path>
                        <path d="M3.56521739,29.7391304 L2.7826087,29.3913043 L2.95652174,29.1304348 C4.43478261,26.0869565 7.65217391,19.7391304 17.7391304,21.2173913 L17.6521739,22.0869565 C8.08695652,20.6956522 5.30434783,26.4347826 3.73913043,29.5652174 L3.56521739,29.7391304 L3.56521739,29.7391304 Z" id="Shape" fill="#1C75BC"></path>
                        <g transform="translate(23.478261, 0.000000)">
                            <g transform="translate(5.217391, 4.347826)">
                                <path d="M4.95652174,15.4782609 L0.52173913,2.69565217 L7.91304348,0.0869565217 L12.3478261,12.8695652 L4.95652174,15.4782609 L4.95652174,15.4782609 Z M1.65217391,3.2173913 L5.56521739,14.3478261 L11.3913043,12.3478261 L7.47826087,1.2173913 L1.65217391,3.2173913 L1.65217391,3.2173913 Z" id="Shape" fill="#1C75BC"></path>
                                <g opacity="0.54" transform="translate(1.739130, 1.739130)" id="Rectangle-path" fill="#E4B465">
                                    <rect transform="translate(4.516452, 5.390052) rotate(-19.141597) translate(-4.516452, -5.390052) " x="2.08169817" y="0.781410674" width="4.869508" height="9.217283"></rect>
                                </g>
                                <ellipse id="Oval" fill="#738E98" cx="8.08695652" cy="12.4347826" rx="0.52173913" ry="0.52173913"></ellipse>
                            </g>
                            <rect id="Rectangle-path" fill="#1C75BC" transform="translate(16.085957, 4.125435) rotate(30.971618) translate(-16.085957, -4.125435) " x="15.6511852" y="2.34287251" width="0.869542574" height="3.56512455"></rect>
                            <rect id="Rectangle-path" fill="#1C75BC" transform="translate(2.461277, 9.081592) rotate(88.882866) translate(-2.461277, -9.081592) " x="2.02649892" y="7.08161159" width="0.869556584" height="3.99996029"></rect>
                            <rect id="Rectangle-path" fill="#1C75BC" transform="translate(7.904843, 2.155670) rotate(72.211891) translate(-7.904843, -2.155670) " x="5.99178557" y="1.72088368" width="3.82611582" height="0.869571778"></rect>
                            <rect id="Rectangle-path" fill="#1C75BC" transform="translate(3.958209, 4.632504) rotate(33.108421) translate(-3.958209, -4.632504) " x="2.91477833" y="4.1977417" width="2.08686073" height="0.434762652"></rect>
                            <rect id="Rectangle-path" fill="#1C75BC" transform="translate(12.852626, 1.980070) rotate(20.947011) translate(-12.852626, -1.980070) " x="12.4178488" y="0.936604108" width="0.434777274" height="2.08693091"></rect>
                            <rect id="Rectangle-path" fill="#1C75BC" transform="translate(5.091026, 12.501287) rotate(38.258920) translate(-5.091026, -12.501287) " x="4.65625485" y="11.5882674" width="0.434771235" height="1.82603919"></rect>
                            <rect id="Rectangle-path" fill="#1C75BC" transform="translate(16.684374, 8.886000) rotate(21.209864) translate(-16.684374, -8.886000) " x="15.7278127" y="8.45119945" width="1.91312242" height="0.43480055"></rect>
                        </g>
                        <path d="M55.9130435,83.1304348 L53.6521739,83.1304348 C34.8695652,82.6956522 22.173913,78.2608696 22.0869565,78.173913 L21.6521739,78 L21.5652174,77.5652174 C20,72.6086957 22.0869565,66.5217391 25.0434783,63.9130435 C27.7391304,61.5652174 40.5217391,58.173913 41.9130435,57.826087 L42.6956522,57.6521739 L49.5652174,76.2608696 L51.5652174,69.1304348 L48.3478261,65.3913043 L54.6956522,57.5652174 L60.9565217,65.3913043 L57.7391304,69.1304348 L59.4782609,76 L66.5217391,57.6521739 L67.3043478,57.826087 C68.7826087,58.173913 81.4782609,61.5652174 84.173913,63.9130435 L84.173913,63.9130435 C87.0434783,66.5217391 89.1304348,72.6086957 87.6521739,77.5652174 L87.5652174,78 L87.1304348,78.173913 C86.9565217,78.2608696 73.826087,83.1304348 55.9130435,83.1304348 L55.9130435,83.1304348 Z M49.9130435,81.2173913 C51.1304348,81.3043478 52.4347826,81.3043478 53.7391304,81.3913043 L59.1304348,81.3913043 L55.9130435,68.6956522 L58.7826087,65.3043478 L54.7826087,60.2608696 L50.6956522,65.3043478 L53.5652174,68.6956522 L49.9130435,81.2173913 L49.9130435,81.2173913 Z M67.5652174,59.7391304 L59.3043478,81.3043478 C73.3913043,80.7826087 83.9130435,77.3913043 86.0869565,76.6956522 C87.1304348,72.6086957 85.3913043,67.3913043 83.0434783,65.3043478 L83.0434783,65.3043478 C81.1304348,63.5652174 71.826087,60.8695652 67.5652174,59.7391304 L67.5652174,59.7391304 Z M23.0434783,76.6956522 C25.1304348,77.3913043 35.0434783,80.3478261 49.3913043,81.2173913 L41.4782609,59.7391304 C37.2173913,60.8695652 28,63.5652174 26.0869565,65.3043478 C23.7391304,67.3913043 22,72.6086957 23.0434783,76.6956522 L23.0434783,76.6956522 Z" id="Shape" fill="#1C75BC"></path>
                        <ellipse id="Oval" fill="#E4B465" cx="66.0869565" cy="10.7826087" rx="1.2173913" ry="1.2173913"></ellipse>
                        <ellipse id="Oval" fill="#E4B465" cx="22.2608696" cy="18" rx="0.695652174" ry="0.695652174"></ellipse>
                        <ellipse id="Oval" fill="#E4B465" cx="29.0434783" cy="23.4782609" rx="0.695652174" ry="0.695652174"></ellipse>
                        <ellipse id="Oval" fill="#E4B465" cx="8" cy="66.4347826" rx="0.695652174" ry="0.695652174"></ellipse>
                        <ellipse id="Oval" fill="#E4B465" cx="19.826087" cy="63.6521739" rx="0.695652174" ry="0.695652174"></ellipse>
                        <circle id="Oval" fill="#E4B465" cx="93.3043478" cy="38.9565217" r="1.39130435"></circle>
                        <ellipse id="Oval" fill="#E4B465" cx="95.0434783" cy="34.7826087" rx="0.782608696" ry="0.782608696"></ellipse>
                        <path d="M23.5652174,23.9130435 C22.6086957,23.9130435 21.7391304,23.1304348 21.7391304,22.0869565 C21.7391304,21.1304348 22.5217391,20.2608696 23.5652174,20.2608696 C24.5217391,20.2608696 25.3913043,21.0434783 25.3913043,22.0869565 C25.3913043,23.1304348 24.6086957,23.9130435 23.5652174,23.9130435 L23.5652174,23.9130435 Z M23.5652174,21.1304348 C23.0434783,21.1304348 22.6086957,21.5652174 22.6086957,22.0869565 C22.6086957,22.6086957 23.0434783,23.0434783 23.5652174,23.0434783 C24.0869565,23.0434783 24.5217391,22.6086957 24.5217391,22.0869565 C24.5217391,21.5652174 24.0869565,21.1304348 23.5652174,21.1304348 L23.5652174,21.1304348 Z" id="Shape" fill="#1C75BC"></path>
                        <path d="M95.2173913,70.8695652 C93.9130435,70.8695652 92.8695652,69.826087 92.8695652,68.5217391 C92.8695652,67.2173913 93.9130435,66.173913 95.2173913,66.173913 C96.5217391,66.173913 97.5652174,67.2173913 97.5652174,68.5217391 C97.5652174,69.826087 96.5217391,70.8695652 95.2173913,70.8695652 L95.2173913,70.8695652 Z M95.2173913,67.0434783 C94.3478261,67.0434783 93.7391304,67.7391304 93.7391304,68.5217391 C93.7391304,69.3913043 94.4347826,70 95.2173913,70 C96.0869565,70 96.6956522,69.3043478 96.6956522,68.5217391 C96.6956522,67.7391304 96,67.0434783 95.2173913,67.0434783 L95.2173913,67.0434783 Z" id="Shape" fill="#1C75BC"></path>
                        <path d="M15.3043478,69.4782609 C14,69.4782609 12.9565217,68.4347826 12.9565217,67.1304348 C12.9565217,65.826087 14,64.7826087 15.3043478,64.7826087 C16.6086957,64.7826087 17.6521739,65.826087 17.6521739,67.1304348 C17.6521739,68.4347826 16.6086957,69.4782609 15.3043478,69.4782609 L15.3043478,69.4782609 Z M15.3043478,65.5652174 C14.4347826,65.5652174 13.826087,66.2608696 13.826087,67.0434783 C13.826087,67.9130435 14.5217391,68.5217391 15.3043478,68.5217391 C16.173913,68.5217391 16.7826087,67.826087 16.7826087,67.0434783 C16.7826087,66.2608696 16.0869565,65.5652174 15.3043478,65.5652174 L15.3043478,65.5652174 Z" id="Shape" fill="#1C75BC"></path>
                        <path d="M71.4782609,16.8695652 C70.173913,16.8695652 69.1304348,15.826087 69.1304348,14.5217391 C69.1304348,13.2173913 70.173913,12.173913 71.4782609,12.173913 C72.7826087,12.173913 73.826087,13.2173913 73.826087,14.5217391 C73.826087,15.7391304 72.7826087,16.8695652 71.4782609,16.8695652 L71.4782609,16.8695652 Z M71.4782609,12.9565217 C70.6086957,12.9565217 70,13.6521739 70,14.4347826 C70,15.3043478 70.6956522,15.9130435 71.4782609,15.9130435 C72.2608696,15.9130435 72.9565217,15.2173913 72.9565217,14.4347826 C72.9565217,13.6521739 72.2608696,12.9565217 71.4782609,12.9565217 L71.4782609,12.9565217 Z" id="Shape" fill="#1C75BC"></path>
                        <path d="M46.8695652,43.3043478 C46.2608696,43.3043478 45.7391304,43.2173913 45.1304348,43.0434783 C43.826087,42.6086957 42.9565217,41.7391304 42.5217391,40.4347826 C41.9130435,38.2608696 42.3478261,36.8695652 42.9565217,36 C43.9130435,34.5217391 45.4782609,33.9130435 46.173913,33.826087 C47.1304348,33.6521739 52.9565217,33.6521739 55.4782609,33.6521739 C58,33.6521739 63.826087,33.6521739 64.7826087,33.826087 L64.7826087,33.826087 C65.4782609,33.9130435 67.1304348,34.5217391 68,36 C68.5217391,36.8695652 69.0434783,38.3478261 68.4347826,40.4347826 C68,41.7391304 67.1304348,42.6956522 65.826087,43.0434783 C63.3043478,43.826087 59.7391304,42.4347826 58.7826087,41.7391304 C57.9130435,41.0434783 56.6956522,39.7391304 55.4782609,36.6956522 C54.2608696,39.7391304 53.0434783,40.9565217 52.173913,41.7391304 C51.3913043,42.3478261 49.0434783,43.3043478 46.8695652,43.3043478 L46.8695652,43.3043478 Z M54.3478261,35.3913043 C50.6956522,35.3913043 47.0434783,35.4782609 46.4347826,35.5652174 C46.0869565,35.6521739 45.0434783,36 44.4347826,36.9565217 C43.9130435,37.7391304 43.826087,38.7826087 44.2608696,40 C44.5217391,40.7826087 44.9565217,41.2173913 45.7391304,41.4782609 C47.6521739,42.0869565 50.5217391,40.9565217 51.1304348,40.4347826 C51.9130435,39.826087 52.8695652,38.7826087 53.9130435,36.0869565 C54,35.826087 54.173913,35.5652174 54.3478261,35.3913043 L54.3478261,35.3913043 Z M56.6086957,35.3913043 C56.7826087,35.5652174 56.9565217,35.826087 57.0434783,36.0869565 C58.0869565,38.7826087 59.1304348,39.7391304 59.826087,40.3478261 C60.4347826,40.7826087 63.3913043,42 65.2173913,41.3913043 C66,41.1304348 66.4347826,40.6956522 66.6956522,39.9130435 C67.0434783,38.6956522 66.9565217,37.6521739 66.5217391,36.8695652 C65.9130435,35.9130435 64.7826087,35.4782609 64.5217391,35.4782609 L64.5217391,35.4782609 C64,35.3913043 60.3478261,35.3913043 56.6086957,35.3913043 L56.6086957,35.3913043 Z" id="Shape" fill="#1C75BC"></path>
                        <path d="M55.3913043,56.6086957 C46.6956522,56.6086957 39.6521739,47.5652174 39.6521739,36.3478261 C39.6521739,25.2173913 46.6956522,16.0869565 55.3913043,16.0869565 C64.0869565,16.0869565 71.1304348,25.1304348 71.1304348,36.3478261 C71.1304348,47.5652174 64.0869565,56.6086957 55.3913043,56.6086957 L55.3913043,56.6086957 Z M55.3913043,17.9130435 C47.6521739,17.9130435 41.3913043,26.173913 41.3913043,36.4347826 C41.3913043,46.6086957 47.6521739,54.9565217 55.3913043,54.9565217 C63.1304348,54.9565217 69.3913043,46.6956522 69.3913043,36.4347826 C69.3913043,26.173913 63.1304348,17.9130435 55.3913043,17.9130435 L55.3913043,17.9130435 Z" id="Shape" fill="#1C75BC"></path>
                        <path d="M42.4347826,59.4782609 L41.7391304,57.9130435 C44.9565217,56.5217391 44.3478261,51.0434783 44.3478261,50.9565217 L46.0869565,50.6956522 C46,50.9565217 46.7826087,57.5652174 42.4347826,59.4782609 L42.4347826,59.4782609 Z" id="Shape" fill="#1C75BC"></path>
                        <path d="M67.826087,60.173913 C63.3913043,58.2608696 64.173913,51.6521739 64.2608696,51.3913043 L66,51.6521739 C66,51.7391304 65.3043478,57.2173913 68.6086957,58.6086957 L67.826087,60.173913 L67.826087,60.173913 Z" id="Shape" fill="#1C75BC"></path>
                    </g>
                </g>
            </g>
        </g>
    </g>
</svg>