<?xml version="1.0" encoding="UTF-8"?>
<svg width="110px" height="110px" viewBox="0 0 110 110" version="1.1" xmlns="http://www.w3.org/2000/svg" xmlns:xlink="http://www.w3.org/1999/xlink">
    <!-- Generator: Sketch 39 (31667) - http://www.bohemiancoding.com/sketch -->
    <title>ITS-one</title>
    <desc>Created with Sketch.</desc>
    <defs>
        <polygon id="path-1" points="0.00958786203 0.06423473 0.00958786203 65.8409194 53.3088325 65.8409194 53.3088325 0.06423473 0.00958786203 0.06423473"></polygon>
    </defs>
    <g id="Symbols" stroke="none" stroke-width="1" fill="none" fill-rule="evenodd">
        <g id="ITS-one">
            <g id="Group" transform="translate(28.000000, 31.000000)">
                <polygon id="Fill-1" fill="#E7ECED" points="19.2319729 16.0005501 34.0763803 16.0005501 34.0763803 8.54145264 19.2319729 8.54145264"></polygon>
                <path d="M45.5479376,18.7136645 L45.5479376,20.747336 L7.76201351,20.747336 L7.76201351,18.7136645 C7.76201351,17.2206888 8.97615644,16.0005501 10.4605173,16.0005501 L42.8483152,16.0005501 C43.5904157,16.0005501 44.2646022,16.2992416 44.7515058,16.8010754 C45.2502345,17.2884564 45.5479376,17.966454 45.5479376,18.7136645 L45.5479376,18.7136645 Z" id="Fill-2" fill="#FCB125"></path>
                <path d="M41.499303,8.54145264 L41.499303,16.0005501 L34.0762205,16.0005501 L34.0762205,8.54145264 L19.2319729,8.54145264 L19.2319729,16.0005501 L11.810648,16.0005501 L11.810648,8.54145264 C11.810648,8.54145264 12.4854737,1.08299755 26.6550554,1.08299755 C40.8246371,1.08299755 41.499303,8.54145264 41.499303,8.54145264 L41.499303,8.54145264 Z" id="Fill-3" fill="#D9DDE0"></path>
                <path d="M33.402034,41.5238989 L33.402034,45.8358157 C33.402034,45.8358157 30.6225128,49.2264459 26.6550554,49.2264459 C22.6875981,49.2264459 19.9066387,45.8358157 19.9066387,45.8358157 L19.9066387,41.5238989 C21.877264,42.5532604 24.1444738,43.1241466 26.6550554,43.1241466 C29.1637195,43.1241466 31.4320479,42.5532604 33.402034,41.5238989 L33.402034,41.5238989 Z" id="Fill-4" fill="#FBFBFB"></path>
                <path d="M41.499303,22.7810076 C43.7390276,22.7810076 45.5479376,23.621519 45.5479376,25.4934796 C45.5479376,27.2297444 43.4144785,29.2364374 41.3233658,29.5213184 C41.4449718,28.6536678 41.499303,27.7579145 41.499303,26.8496354 L41.499303,22.7810076 Z" id="Fill-5" fill="#FBFBFB"></path>
                <path d="M11.9848275,29.5213184 C9.89371483,29.2364374 7.76201351,27.2297444 7.76201351,25.4934796 C7.76201351,23.621519 9.56980489,22.7810076 11.810648,22.7810076 L11.810648,26.8496354 C11.810648,27.7585568 11.8649793,28.6536678 11.9848275,29.5213184 L11.9848275,29.5213184 Z" id="Fill-6" fill="#FBFBFB"></path>
                <path d="M41.3233658,29.5213184 C40.5948481,34.8237348 37.7341496,39.2711869 33.402034,41.5238989 C31.4320479,42.5532604 29.1637195,43.1241466 26.6550554,43.1241466 C24.1444738,43.1241466 21.877264,42.5532604 19.9066387,41.5238989 C15.5753221,39.2711869 12.7138247,34.8237348 11.9848275,29.5213184 C11.8649793,28.6536678 11.810648,27.7579145 11.810648,26.8496354 L11.810648,20.747336 L41.499303,20.747336 L41.499303,26.8496354 C41.499303,27.7585568 41.4449718,28.6536678 41.3233658,29.5213184 L41.3233658,29.5213184 Z" id="Fill-7" fill="#FBFBFB"></path>
                <path d="M33.402034,45.8358157 C34.2209972,46.7580658 36.01185,47.9154151 37.4382043,48.7589777 C37.330181,49.9013924 36.3121099,55.3287453 26.6550554,55.3287453 C16.9959236,55.3287453 15.9784917,49.9013924 15.8698292,48.7589777 C17.2961835,47.9154151 19.0876755,46.7580658 19.9066387,45.8358157 C19.9066387,45.8358157 22.6875981,49.2264459 26.6550554,49.2264459 C30.6225128,49.2264459 33.402034,45.8358157 33.402034,45.8358157 L33.402034,45.8358157 Z" id="Fill-8" fill="#FCB125"></path>
                <path d="M52.2944367,61.4310446 L52.2944367,64.8221566 L26.6550554,64.8221566 L26.6550554,55.3287453 C36.3121099,55.3287453 37.330181,49.9013924 37.4382043,48.7589777 C38.57117,49.4315153 39.4743466,49.9044435 39.4743466,49.9044435 C52.2538481,53.9730713 52.2944367,61.4310446 52.2944367,61.4310446 L52.2944367,61.4310446 Z" id="Fill-9" fill="#ECEFF1"></path>
                <g id="Group-13">
                    <mask id="mask-2" fill="white">
                        <use xlink:href="#path-1"></use>
                    </mask>
                    <g id="Clip-11"></g>
                    <path d="M26.6550554,55.3287453 L26.6550554,64.8221566 L1.01375661,64.8221566 L1.01375661,61.4310446 C1.01375661,61.4310446 1.13536266,54.0138604 13.8343261,49.9044435 C13.8343261,49.9044435 14.7376625,49.4315153 15.8698292,48.7589777 C15.9784917,49.9013924 16.9959236,55.3287453 26.6550554,55.3287453 L26.6550554,55.3287453 Z" id="Fill-10" fill="#ECEFF1" mask="url(#mask-2)"></path>
                    <path d="M39.8669695,48.9609959 C39.6298297,48.8349352 38.8639194,48.4215848 37.9525931,47.8808889 C36.3215379,46.9160833 35.0874203,46.0566226 34.4157906,45.4205382 L34.4157906,42.1273842 C38.5161996,39.7706119 41.3201698,35.5433243 42.2159957,30.3700198 C44.5399337,29.7006939 46.5616942,27.5088443 46.5616942,25.4939614 C46.5616942,23.4529029 45.0354664,22.0978712 42.5130597,21.8174866 L42.5130597,21.7660988 L46.5616942,21.7660988 L46.5616942,18.7136645 C46.5616942,17.7087121 46.1733858,16.7747392 45.4680387,16.0795588 C44.7751559,15.3713709 43.8457725,14.9819478 42.8483152,14.9819478 L42.5130597,14.9819478 L42.5130597,8.54145264 L42.5087451,8.44863345 C42.5029924,8.385844 42.4430683,7.8069285 42.1110086,6.99018391 C41.6846684,5.94380015 40.9868318,4.936439 40.0918049,4.07569362 C37.3221911,1.41412758 32.801674,0.06423473 26.6550554,0.06423473 C20.5084369,0.06423473 15.9879197,1.41412758 13.218306,4.07569362 C12.3231193,4.936439 11.6246435,5.94380015 11.1989425,6.99018391 C10.8668828,7.8069285 10.8069587,8.385844 10.8013658,8.44863345 L10.7968914,8.49504304 L10.7968914,14.9819478 L10.4605173,14.9819478 C8.41302934,14.9819478 6.74825689,16.6560655 6.74825689,18.7136645 L6.74825689,21.7660988 L10.7968914,21.7660988 L10.7968914,21.8174866 C8.27384554,22.0985136 6.74825689,23.4529029 6.74825689,25.4939614 C6.74825689,27.5088443 8.76953801,29.7006939 11.0921976,30.3700198 C11.9891421,35.5444484 14.7937515,39.7712543 18.8928821,42.1273842 L18.8928821,45.4205382 C18.2206132,46.0566226 16.9866554,46.9160833 15.3543219,47.8821736 C14.4417172,48.4235118 13.6738892,48.8375046 13.4393062,48.9616383 C0.284599705,53.2517153 0.00559291952,61.08225 0,61.4140224 L0,65.8409194 L53.3088325,65.8409194 L53.3088325,61.4252635 C53.3069149,61.0915641 53.1108432,53.2115686 39.8669695,48.9609959 L39.8669695,48.9609959 Z M26.6550554,54.3099825 C22.8461175,54.3099825 20.0689932,53.4505218 18.401664,51.7563308 C17.5210189,50.8604169 17.1470923,49.9044435 16.9884131,49.2734979 C18.2087882,48.5275721 19.1738065,47.8563191 19.8729214,47.267929 C21.0408828,48.3719634 23.4877052,50.2450482 26.6550554,50.2450482 C29.8216067,50.2450482 32.2679497,48.3726058 33.4357513,47.267929 C34.134227,47.8563191 35.0998845,48.5275721 36.3189812,49.2734979 C36.1604619,49.9063705 35.7865352,50.8610592 34.9063695,51.7563308 C33.2398393,53.4505218 30.4633542,54.3099825 26.6550554,54.3099825 L26.6550554,54.3099825 Z M26.6550554,44.1427488 C28.6880018,44.1427488 30.6094093,43.7915454 32.3877979,43.0989344 L32.3877979,45.4431809 C31.6955543,46.1707998 29.5026505,48.2076831 26.6550554,48.2076831 C23.8255176,48.2076831 21.6163143,46.166464 20.9203954,45.4406115 L20.9203954,43.0982921 C22.7007015,43.7915454 24.6225885,44.1427488 26.6550554,44.1427488 L26.6550554,44.1427488 Z M44.534181,25.4934796 C44.534181,26.3233924 43.641551,27.451836 42.4774248,28.0765187 C42.499317,27.675694 42.5130597,23.8649687 42.5130597,23.8649687 C44.3138199,24.1196594 44.534181,25.0562017 44.534181,25.4934796 L44.534181,25.4934796 Z M12.8244047,8.60600854 C12.8637149,8.34826668 13.1470362,6.90362761 14.7400595,5.43506109 C17.7287559,2.68003352 22.8691283,2.10159978 26.6550554,2.10159978 C30.4408228,2.10159978 35.5811952,2.68003352 38.5692524,5.43506109 C40.1747399,6.91486868 40.4507105,8.37026708 40.485067,8.60231504 L40.485067,14.9819478 L35.0899771,14.9819478 L35.0899771,7.52204747 L18.2182162,7.52204747 L18.2182162,14.9819478 L12.8244047,14.9819478 L12.8244047,8.60600854 Z M20.2462089,14.9819478 L33.0624638,14.9819478 L33.0624638,9.56021545 L20.2462089,9.56021545 L20.2462089,14.9819478 Z M8.77577012,18.7136645 C8.77577012,17.7795309 9.53161324,17.0193129 10.4605173,17.0193129 L42.8483152,17.0193129 C43.2989447,17.0193129 43.7171353,17.1943525 44.0261841,17.5123144 L44.0448804,17.5312637 C44.3601613,17.8391086 44.534181,18.2595249 44.534181,18.7136645 L44.534181,19.7285732 L8.77577012,19.7285732 L8.77577012,18.7136645 Z M8.77577012,25.4934796 C8.77577012,25.0562017 8.99613115,24.1196594 10.7968914,23.8649687 C10.7968914,23.8649687 10.810634,27.6750517 10.8325263,28.0771611 C9.66840007,27.4524783 8.77577012,26.3233924 8.77577012,25.4934796 L8.77577012,25.4934796 Z M12.9891561,29.3812867 C12.8800143,28.592163 12.8244047,27.7404105 12.8244047,26.8496354 L12.8244047,21.7660988 L40.485067,21.7660988 L40.485067,26.8496354 C40.485067,27.7434616 40.4294574,28.5947324 40.3188774,29.3825714 C39.6229584,34.4461951 36.9319652,38.5411592 32.9339865,40.6199556 C31.048853,41.6059587 28.935848,42.1053838 26.6550554,42.1053838 C24.3741031,42.1053838 22.2606187,41.6059587 20.3722892,40.6193133 C16.3760684,38.5405168 13.6852349,34.4449104 12.9891561,29.3812867 L12.9891561,29.3812867 Z M2.02799262,61.4498333 C2.03422473,61.3306779 2.14975847,59.695904 3.59049453,57.6514731 C6.12792222,54.05208 14.6683103,50.6158431 15.188292,50.3259839 C15.9267172,52.4977601 18.2624802,56.0306703 25.6412988,56.3272742 L25.6412988,63.8027514 L2.02799262,63.8027514 L2.02799262,61.4498333 Z M51.2806801,63.8027514 L27.6686523,63.8027514 L27.6686523,56.3272742 C35.0444347,56.0300279 37.3801977,52.4995266 38.1192621,50.3253416 C38.639883,50.6158431 47.2264526,54.0289555 49.7464624,57.6326845 C51.1926316,59.7008822 51.2776439,61.3557294 51.2806801,61.4416434 L51.2806801,63.8027514 Z" id="Fill-12" fill="#78909C" mask="url(#mask-2)"></path>
                </g>
                <polygon id="Fill-14" fill="#78909C" points="29.3533994 31.2550138 27.6686523 31.2550138 27.6686523 26.8496354 25.6412988 26.8496354 25.6412988 33.2931817 29.3533994 33.2931817"></polygon>
                <polygon id="Fill-15" fill="#FCB125" points="21.2574087 61.0941335 23.9552733 61.0941335 23.9552733 59.0566078 21.2574087 59.0566078"></polygon>
                <polygon id="Fill-16" fill="#FCB125" points="29.3533994 61.0941335 32.0525424 61.0941335 32.0525424 59.0566078 29.3533994 59.0566078"></polygon>
            </g>
        </g>
    </g>
</svg>