<?xml version="1.0" encoding="UTF-8"?>
<svg width="110px" height="110px" viewBox="0 0 110 110" version="1.1" xmlns="http://www.w3.org/2000/svg" xmlns:xlink="http://www.w3.org/1999/xlink">
    <!-- Generator: Sketch 39 (31667) - http://www.bohemiancoding.com/sketch -->
    <title>ITS-development</title>
    <desc>Created with Sketch.</desc>
    <defs>
        <polygon id="path-1" points="99.9992188 84.765625 99.9992188 0.154492187 0.01171875 0.154492187 0.01171875 84.765625"></polygon>
    </defs>
    <g id="Symbols" stroke="none" stroke-width="1" fill="none" fill-rule="evenodd">
        <g id="ITS-development">
            <g id="computer" transform="translate(5.000000, 13.000000)">
                <polyline id="Fill-1" fill="#F5F4F2" points="56.1867187 71.5822266 53.3623047 83.0595703 32.7835937 83.0595703 35.6103516 71.5822266 56.1867187 71.5822266"></polyline>
                <path d="M92.1982422,50.3367188 L92.1982422,60.9605469 L59.459375,60.9605469 L43.6578125,43.5681641 L37.2490234,50.6210938 L24.5744141,36.6835938 L9.09375,52.5943359 L9.09375,21.3962891 C9.09375,18.7335938 11.2537109,16.5759766 13.9142578,16.5759766 L63.1328125,16.5759766 L63.1328125,45.1681641 C63.1328125,48.0220703 65.4472656,50.3367188 68.3013672,50.3367188 L92.1982422,50.3367188 L92.1982422,50.3367188 Z" id="Fill-9" fill="#4D94C4"></path>
                <path d="M7.29589844,16.5759766 L13.9142578,16.5759766 C11.2537109,16.5759766 9.09375,18.7335938 9.09375,21.3962891 L9.09375,66.7640625 C9.09375,69.4246094 11.2537109,71.5822266 13.9142578,71.5822266 L7.29589844,71.5822266 C4.20976562,71.5822266 1.70625,69.0810547 1.70625,65.9949219 L1.70625,22.1632813 C1.70625,19.0771484 4.20976562,16.5759766 7.29589844,16.5759766" id="Fill-13" fill="#C7C7C2"></path>
                <path d="M92.1982422,60.9605469 L92.1982422,66.7640625 C92.1982422,69.4246094 90.040625,71.5822266 87.3779297,71.5822266 L13.9142578,71.5822266 C11.2537109,71.5822266 9.09375,69.4246094 9.09375,66.7640625 L9.09375,60.9605469 L92.1982422,60.9605469" id="Fill-14" fill="#F5F4F2"></path>
                <g id="Group-19">
                    <mask id="mask-2" fill="white">
                        <use xlink:href="#path-1"></use>
                    </mask>
                    <g id="Clip-17"></g>
                    <path d="M87.378125,69.8746094 L13.9144531,69.8746094 C12.1976562,69.8746094 10.8009766,68.4791016 10.8009766,66.7634766 L10.8009766,62.6664062 L90.4916016,62.6664062 L90.4916016,66.7634766 C90.4916016,68.4787109 89.0947266,69.8746094 87.378125,69.8746094 L87.378125,69.8746094 Z M52.0242187,81.3515625 L34.9621094,81.3515625 L36.9466797,73.2892578 L54.0087891,73.2892578 L52.0242187,81.3515625 L52.0242187,81.3515625 Z M3.41386719,65.9943359 L3.41386719,22.1634766 C3.41386719,20.0236328 5.15488281,18.2824219 7.29492188,18.2824219 L8.17871094,18.2824219 C7.67402344,19.2083984 7.38710938,20.2691406 7.38710938,21.3955078 L7.38710938,66.7632812 C7.38710938,67.8892578 7.67402344,68.9496094 8.17871094,69.8751953 L7.29492188,69.8751953 C5.15488281,69.8755859 3.41386719,68.134375 3.41386719,65.9943359 L3.41386719,65.9943359 Z M61.4259766,14.8685547 L51.1908203,14.8685547 C51.1886719,14.8685547 13.9144531,14.8683594 13.9144531,14.8683594 C13.9101562,14.8683594 7.29492187,14.8685547 7.29492187,14.8685547 C3.27246094,14.8685547 0,18.1412109 0,22.1634766 L0,65.9943359 C0,70.0167969 3.27246094,73.2892578 7.29492187,73.2892578 L33.4310547,73.2892578 L31.1265625,82.6503906 C31.0955078,82.8195313 31.0919922,82.8396484 31.0894531,82.8601563 C31.0769531,83.1095703 31.0800781,83.1599609 31.084375,83.2097656 C31.1158203,83.4216797 31.1183594,83.4291016 31.1201172,83.4371094 C31.1933594,83.6765625 31.2101562,83.7189453 31.2287109,83.7603516 C31.3234375,83.9396484 31.3337891,83.9572266 31.3451172,83.9746094 C31.4828125,84.1630859 31.5146484,84.1986328 31.5476562,84.2333984 C31.7191406,84.3923828 31.7322266,84.4009766 31.7447266,84.4107422 C31.9392578,84.540625 31.9755859,84.5613281 32.0132812,84.5802734 C32.2769531,84.6880859 32.3191406,84.7 32.3617187,84.7109375 C32.6582031,84.7615234 32.7205078,84.765625 32.7835937,84.765625 L66.8714844,84.765625 C67.8144531,84.765625 68.5785156,84.0013672 68.5785156,83.0585938 C68.5785156,82.1160156 67.8144531,81.3517578 66.8714844,81.3517578 L55.5394531,81.3517578 L57.5240234,73.2896484 L87.3773438,73.2886719 C90.9765625,73.2886719 93.9046875,70.3617188 93.9046875,66.7636719 L93.9992218,21.4571617 C94.0000031,17.6653648 90.915239,14.5809898 87.1238327,14.5809898 L61.4259766,14.8685547 Z" id="Fill-18" fill="#78909C" mask="url(#mask-2)"></path>
                    <rect id="Rectangle" fill="#FBFBFB" mask="url(#mask-2)" x="11" y="18" width="79" height="43"></rect>
                </g>
                <rect id="Rectangle-2" fill="#FCB125" x="76" y="22" width="10" height="10"></rect>
            </g>
            <g id="Group" transform="translate(20.000000, 35.000000)">
                <path d="M0,1 L14.7170042,1" id="Path-11" stroke="#FCB125"></path>
                <path d="M0,5 L25.5,5" id="Path-11-Copy" stroke="#78909C"></path>
                <path d="M-7.10542736e-15,9 L36,9" id="Path-11-Copy-2" stroke="#78909C"></path>
                <path d="M0,13 L28.5,13" id="Path-11-Copy-3" stroke="#78909C"></path>
                <path d="M5,17 L19.7170042,17" id="Path-11-Copy-4" stroke="#78909C"></path>
                <path d="M5,21 L19.7170042,21" id="Path-11-Copy-5" stroke="#78909C"></path>
                <path d="M0,25 L24.7200012,25" id="Path-11-Copy-6" stroke="#78909C"></path>
                <path d="M0,29 L9.72000027,29" id="Path-11-Copy-7" stroke="#78909C"></path>
            </g>
        </g>
    </g>
</svg>