<?xml version="1.0" encoding="UTF-8"?>
<svg width="110px" height="110px" viewBox="0 0 110 110" version="1.1" xmlns="http://www.w3.org/2000/svg" xmlns:xlink="http://www.w3.org/1999/xlink">
    <!-- Generator: Sketch 39 (31667) - http://www.bohemiancoding.com/sketch -->
    <title>ITS-illustration</title>
    <desc>Created with Sketch.</desc>
    <defs>
        <polygon id="path-1" points="53.7085352 74 53.7085352 0.00014453125 0 0.00014453125 0 37.0000723 0 74 26.8542676 74"></polygon>
    </defs>
    <g id="Symbols" stroke="none" stroke-width="1" fill="none" fill-rule="evenodd">
        <g id="ITS-illustration">
            <g id="writing" transform="translate(28.000000, 18.000000)">
                <path d="M36.4652344,6.15312891 L36.7269805,24.8100898 L32.6355898,24.8100898 L32.8973359,6.15312891 C32.9117891,5.17841016 33.7067109,4.39490625 34.6812852,4.39490625 C35.6560039,4.39490625 36.4507813,5.17841016 36.4652344,6.15312891" id="Fill-1" fill="#C7C7C2"></path>
                <polyline id="Fill-2" fill="#FBFBFB" points="49.9421953 19.4453789 48.1196562 24.8100898 40.2338867 24.8100898 42.8721602 17.0448594 49.9421953 19.4453789"></polyline>
                <path d="M49.9711016,7.75410156 C51.9235742,8.41721094 52.9689688,10.5383516 52.3058594,12.4909688 L49.9421953,19.4453789 L42.8721602,17.0448594 L42.8721602,17.043125 L45.2358242,10.0887148 C45.8989336,8.13624219 48.0200742,7.09084766 49.9711016,7.75410156" id="Fill-3" fill="#FBFBFB"></path>
                <path d="M21.8933047,10.7005156 C19.9905508,10.7005156 18.0877969,10.3136055 16.3037031,9.54282031 L16.3021133,9.54282031 L18.9259336,5.63122656 C19.7753438,6.20284766 20.7950117,6.53526953 21.8933047,6.53526953 C22.9931875,6.53526953 24.0144453,6.20125781 24.8622656,5.63122656 L27.4844961,9.54282031 L27.4829063,9.54282031 C25.6988125,10.3136055 23.7960586,10.7005156 21.8933047,10.7005156" id="Fill-4" fill="#FBFBFB"></path>
                <path d="M21.8933047,1.20423438 L24.8622656,5.63122656 C24.0144453,6.20125781 22.9931875,6.53526953 21.8933047,6.53526953 C20.7950117,6.53526953 19.7753437,6.20284766 18.9259336,5.63122656 L21.8933047,1.20423438" id="Fill-5" fill="#EEAC41"></path>
                <path d="M27.4844961,9.54282031 L27.4844961,24.8100898 L21.8933047,24.8100898 L21.8933047,10.7005156 C23.7960586,10.7005156 25.6988125,10.3136055 27.4829062,9.54282031 L27.4844961,9.54282031" id="Fill-6" fill="#FBFBFB"></path>
                <path d="M21.8933047,10.7005156 L21.8933047,24.8100898 L16.3021133,24.8100898 L16.3021133,9.54282031 L16.3037031,9.54282031 C18.0877969,10.3136055 19.9905508,10.7005156 21.8933047,10.7005156" id="Fill-7" fill="#FBFBFB"></path>
                <path d="M13.604582,57.5188125 L13.604582,62.0131562 L7.74355078,62.0131562 C4.13229297,62.0131562 1.20351172,59.084375 1.20351172,55.4731172 L1.20351172,37.8196367 C1.20351172,34.2083789 4.13229297,31.2811875 7.74355078,31.2811875 L13.604582,31.2811875 L13.604582,35.7739414 L8.17714453,35.7739414 C6.80742188,35.7739414 5.69785547,36.8835078 5.69785547,38.2532305 L5.69785547,55.0395234 C5.69785547,56.4092461 6.80742188,57.5188125 8.17714453,57.5188125 L13.604582,57.5188125" id="Fill-8" fill="#D9DDE0"></path>
                <path d="M33.6857539,24.8679023 L33.6857539,39.7593906 C33.6857539,41.0841641 32.6131875,42.1567305 31.2884141,42.1567305 C30.6268945,42.1567305 30.027957,41.888625 29.5943633,41.4550312 C29.1607695,41.021582 28.8926641,40.4210547 28.8926641,39.7593906 L28.8926641,35.8800273 C28.8926641,34.5568437 27.8200977,33.4842773 26.4969141,33.4842773 C25.8338047,33.4842773 25.2348672,33.7523828 24.8012734,34.1859766 C24.3676797,34.6194258 24.0995742,35.2183633 24.0995742,35.8800273 L24.0995742,43.4028789 C24.0995742,44.725918 23.0270078,45.7986289 21.7038242,45.7986289 C21.0423047,45.7986289 20.4433672,45.5303789 20.0081836,45.0969297 C19.5745898,44.6633359 19.3064844,44.0643984 19.3064844,43.4028789 L19.3064844,24.8100898 L32.6355898,24.8100898 L32.634,24.8679023 L33.6857539,24.8679023" id="Fill-10" fill="#FCB125"></path>
                <path d="M50.5379531,24.8100898 L50.5379531,67.023043 C50.5379531,70.2105352 47.9527227,72.7956211 44.7636406,72.7956211 L19.3771602,72.7956211 C16.1898125,72.7956211 13.604582,70.2105352 13.604582,67.023043 L13.604582,24.8100898 L19.3064844,24.8100898 L19.3064844,43.4028789 C19.3064844,44.0643984 19.5745898,44.6633359 20.0081836,45.0969297 C20.4433672,45.5303789 21.0423047,45.7986289 21.7038242,45.7986289 C23.0270078,45.7986289 24.0995742,44.725918 24.0995742,43.4028789 L24.0995742,35.8800273 C24.0995742,35.2183633 24.3676797,34.6194258 24.8012734,34.1859766 C25.2348672,33.7523828 25.8338047,33.4842773 26.4969141,33.4842773 C27.8200977,33.4842773 28.8926641,34.5568437 28.8926641,35.8800273 L28.8926641,39.7593906 C28.8926641,40.4210547 29.1607695,41.021582 29.5943633,41.4550312 C30.027957,41.888625 30.6268945,42.1567305 31.2884141,42.1567305 C32.6131875,42.1567305 33.6857539,41.0841641 33.6857539,39.7593906 L33.6857539,24.8679023 L36.7285703,24.8679023 L36.7269805,24.8100898 L50.5379531,24.8100898 L50.5379531,24.8100898 Z" id="Fill-11" fill="#FBFBFB"></path>
                <g id="Group-15">
                    <mask id="mask-2" fill="white">
                        <use xlink:href="#path-1"></use>
                    </mask>
                    <g id="Clip-13"></g>
                    <path d="M51.1652188,12.1040586 L49.1896211,17.9186953 L44.4002891,16.291418 L46.3758867,10.4767813 C46.5932617,9.83694141 47.0465117,9.32009766 47.6526758,9.02149609 C48.2585508,8.72260547 48.9443516,8.67780078 49.5833242,8.89503125 C50.9043398,9.34351172 51.6136992,10.7831875 51.1652188,12.1040586 L51.1652188,12.1040586 Z M49.3328516,67.0226094 C49.3328516,69.5417891 47.2832539,71.5913867 44.7640742,71.5913867 L19.3778828,71.5913867 C16.8587031,71.5913867 14.8091055,69.5417891 14.8091055,67.0226094 L14.8091055,26.0149023 L18.1028281,26.0149023 L18.1028281,43.4023008 C18.1028281,45.3878711 19.7182539,47.0030078 21.7036797,47.0030078 C23.6889609,47.0030078 25.3043867,45.3878711 25.3043867,43.4023008 L25.3043867,35.8798828 C25.3043867,35.2224102 25.8390078,34.6877891 26.4964805,34.6877891 C27.1538086,34.6877891 27.6885742,35.2224102 27.6885742,35.8798828 L27.6885742,39.7601133 C27.6885742,41.7455391 29.3038555,43.3608203 31.2892812,43.3608203 C33.2745625,43.3608203 34.8898437,41.7455391 34.8898437,39.7601133 L34.8898437,26.0715586 L49.3331406,26.0149023 L49.3331406,67.0226094 L49.3328516,67.0226094 L49.3328516,67.0226094 Z M17.5070703,11.2589844 C18.5471172,11.569582 19.6143359,11.7677344 20.6893594,11.8519961 L20.6893594,23.6061445 L17.5070703,23.6061445 L17.5070703,11.2589844 L17.5070703,11.2589844 Z M19.3193477,7.20705078 C20.1271328,7.55464844 20.9989453,7.73907031 21.8938828,7.73907031 C22.7883867,7.73907031 23.6600547,7.55450391 24.4681289,7.20676172 L25.6288594,8.93810156 C23.1984219,9.67260938 20.5889102,9.67260938 18.1583281,8.93810156 L19.3193477,7.20705078 L19.3193477,7.20705078 Z M21.8937383,3.36714453 L23.0914687,5.15369531 C22.706582,5.27047656 22.303918,5.33074609 21.8938828,5.33074609 C21.4835586,5.33074609 21.08075,5.27062109 20.6958633,5.15383984 L21.8937383,3.36714453 L21.8937383,3.36714453 Z M26.2802617,23.6062891 L23.0981172,23.6062891 L23.0981172,11.8519961 C24.1729961,11.7677344 25.2402148,11.5694375 26.2802617,11.2589844 L26.2802617,23.6062891 L26.2802617,23.6062891 Z M32.2709375,26.0149023 C32.3391562,26.036582 32.409543,26.0513242 32.4810859,26.0604297 L32.4810859,39.7599688 C32.4810859,40.4172969 31.9464648,40.9520625 31.2889922,40.9520625 C30.6316641,40.9520625 30.0968984,40.4172969 30.0968984,39.7599688 L30.0968984,35.8795938 C30.0968984,33.894168 28.4816172,32.2790313 26.4963359,32.2790313 C24.5109102,32.2790313 22.8956289,33.894168 22.8956289,35.8795938 L22.8956289,43.4021563 C22.8956289,44.0596289 22.3607187,44.59425 21.7033906,44.59425 C21.045918,44.59425 20.5112969,44.0596289 20.5112969,43.4021563 L20.5112969,26.0149023 L32.2709375,26.0149023 L32.2709375,26.0149023 Z M34.1021484,6.17076172 C34.1066289,5.85582813 34.3664961,5.59942969 34.6814297,5.59942969 C34.9965078,5.59942969 35.256375,5.85553906 35.2607109,6.17061719 L35.5064141,23.6062891 L33.8563008,23.6062891 L34.1021484,6.17076172 L34.1021484,6.17076172 Z M43.625457,18.571832 L48.4146445,20.1991094 L47.2569492,23.6062891 L41.9149297,23.6062891 L43.625457,18.571832 L43.625457,18.571832 Z M12.4003477,34.569418 L8.17743359,34.569418 C6.14590234,34.569418 4.49304297,36.2221328 4.49304297,38.2539531 L4.49304297,55.0392344 C4.49304297,57.0707656 6.14590234,58.7237695 8.17743359,58.7237695 L12.4003477,58.7237695 L12.4003477,60.8083438 L7.74412891,60.8083438 C4.80190625,60.8083438 2.40846875,58.4147617 2.40846875,55.4725391 L2.40846875,37.8205039 C2.40846875,34.8782813 4.80190625,32.4848438 7.74412891,32.4848438 L12.4003477,32.4848438 L12.4003477,34.569418 L12.4003477,34.569418 Z M12.4003477,56.3151563 L8.17743359,56.3151563 C7.47385547,56.3151563 6.90151172,55.7428125 6.90151172,55.0392344 L6.90151172,38.2539531 C6.90151172,37.550375 7.47385547,36.9780313 8.17743359,36.9780313 L12.4003477,36.9780313 L12.4003477,56.3151563 L12.4003477,56.3151563 Z M51.4513906,7.1433125 L51.964043,5.63397266 C52.1779492,5.00425 51.8409023,4.32032813 51.2113242,4.10627734 C50.5821797,3.89237109 49.8975352,4.22927344 49.6834844,4.85928516 L49.1714102,6.3663125 C48.2899141,6.29303516 47.4017695,6.45967969 46.587625,6.86089844 C45.4044922,7.44437109 44.5192383,8.45319922 44.0953281,9.70180469 L39.3710352,23.6062891 L37.9153164,23.6062891 L37.6690352,6.13694141 C37.6463437,4.51255469 36.3063945,3.19081641 34.6817187,3.19081641 C33.057332,3.19081641 31.7168047,4.51241016 31.6939687,6.13679688 L31.447832,23.6062891 L28.6891641,23.6062891 L28.6891641,9.54339844 C28.6891641,9.30448828 28.6181992,9.07121484 28.4850859,8.87277344 L22.8940391,0.533898438 C22.6703047,0.200320313 22.2953906,0.00014453125 21.8937383,0.00014453125 C21.4922305,0.00014453125 21.1170273,0.200320313 20.893582,0.533898438 L15.3026797,8.87277344 C15.1698555,9.07121484 15.0986016,9.30448828 15.0986016,9.54339844 L15.0986016,23.6062891 L12.1582578,23.6062891 C11.4929805,23.6062891 10.9540234,24.1455352 10.9540234,24.8105234 C10.9540234,25.4756563 11.4929805,26.0149023 12.1582578,26.0149023 L12.4004922,26.0149023 L12.4004922,30.0762305 L7.74427344,30.0762305 C3.47395312,30.0762305 0,33.5501836 0,37.8205039 L0,55.4725391 C0,59.7428594 3.47409766,63.2168125 7.74427344,63.2168125 L12.4004922,63.2168125 L12.4004922,67.0226094 C12.4004922,70.8698867 15.5306055,74 19.3778828,74 L44.7642187,74 C48.6114961,74 51.7416094,70.8698867 51.7416094,67.0226094 L51.7416094,26.0149023 L51.9838437,26.0149023 C52.6491211,26.0149023 53.1882227,25.4756563 53.1882227,24.8105234 C53.1882227,24.1455352 52.6491211,23.6062891 51.9838437,23.6062891 L49.8008437,23.6062891 L53.4460664,12.8788906 C54.1879453,10.6940117 53.3061602,8.34306641 51.4513906,7.1433125 L51.4513906,7.1433125 Z" id="Fill-14" fill="#78909C" mask="url(#mask-2)"></path>
                </g>
                <path d="M34.5496172,51.3607695 C34.5496172,49.947832 33.4047852,48.8028555 31.9917031,48.8028555 C30.5803555,48.8028555 29.4353789,49.947832 29.4353789,51.3607695 C29.4353789,52.7722617 30.5803555,53.9170937 31.9917031,53.9170937 C33.4047852,53.9170937 34.5496172,52.7722617 34.5496172,51.3607695 L34.5496172,51.3607695 Z" id="Path" fill="#FCB125"></path>
            </g>
        </g>
    </g>
</svg>