<?xml version="1.0" encoding="UTF-8"?>
<svg width="110px" height="110px" viewBox="0 0 110 110" version="1.1" xmlns="http://www.w3.org/2000/svg" xmlns:xlink="http://www.w3.org/1999/xlink">
    <!-- Generator: Sketch 39 (31667) - http://www.bohemiancoding.com/sketch -->
    <title>ITS-solution</title>
    <desc>Created with Sketch.</desc>
    <defs>
        <polygon id="path-1" points="0.0087890625 59.7568359 75 59.7568359 75 0.12421875 0.0087890625 0.12421875"></polygon>
        <polygon id="path-3" points="22.4561623 19.7780702 0.00263157895 19.7780702 0.00263157895 0.0315350877 11.2293969 0.0315350877 22.4561623 0.0315350877"></polygon>
    </defs>
    <g id="Symbols" stroke="none" stroke-width="1" fill="none" fill-rule="evenodd">
        <g id="ITS-solution">
            <g id="Group" transform="translate(18.000000, 37.000000)">
                <g id="box">
                    <g id="Group-3">
                        <mask id="mask-2" fill="white">
                            <use xlink:href="#path-1"></use>
                        </mask>
                        <g id="Clip-2"></g>
                        <path d="M67.6410645,56.4455566 L67.6394531,14.1996094 L7.36054688,14.1996094 L7.36054688,56.4455566 L67.6410645,56.4455566 L67.6410645,56.4455566 Z M71.681543,10.879541 L71.6799316,3.44428711 L3.32006836,3.44428711 L3.32006836,10.879541 L71.6799316,10.879541 L71.681543,10.879541 L71.681543,10.879541 Z M75,3.44428711 L75,10.879541 C75,12.7105957 73.5092285,14.1996094 71.6799316,14.1996094 L70.9595215,14.1996094 L70.9595215,56.4455566 C70.9595215,58.2766113 69.46875,59.765625 67.6394531,59.765625 L7.36054687,59.765625 C5.53125,59.765625 4.04047852,58.2766113 4.04047852,56.4455566 L4.04047852,14.1996094 L3.32006836,14.1996094 C1.49077148,14.1996094 0,12.7105957 0,10.879541 L0,3.44428711 C0,1.61323242 1.49077148,0.12421875 3.32006836,0.12421875 L71.6799316,0.12421875 C73.509375,0.12421875 75,1.61323242 75,3.44428711 L75,3.44428711 Z" id="Fill-1" fill="#78909C" mask="url(#mask-2)"></path>
                    </g>
                    <path d="M71.6799316,3.44428711 L71.681543,10.879541 C71.681543,10.879541 71.681543,10.879541 71.6799316,10.879541 L3.32006836,10.879541 L3.32006836,3.44428711 L71.6799316,3.44428711" id="Fill-4" fill="#ECEFF1"></path>
                    <path d="M22.1945801,27.2358398 C22.1945801,26.4106934 21.5255859,25.7416992 20.7005859,25.7416992 L13.4794922,25.7416992 C12.6543457,25.7416992 11.9853516,26.4106934 11.9853516,27.2358398 C11.9853516,28.0608398 12.6543457,28.729834 13.4794922,28.729834 L20.7005859,28.729834 C21.5255859,28.729834 22.1945801,28.0608398 22.1945801,27.2358398 L22.1945801,27.2358398 Z M67.6394531,14.1996094 L67.6410645,56.4455566 L7.36054688,56.4455566 L7.36054688,14.1996094 L67.6394531,14.1996094 L67.6394531,14.1996094 Z" id="Fill-5" fill="#FBFBFB"></path>
                    <path d="M27.9216797,19.2062988 C28.7466797,19.2062988 29.4156738,19.8751465 29.4156738,20.700293 C29.4156738,21.525293 28.7466797,22.1942871 27.9216797,22.1942871 L13.4794922,22.1942871 C12.6543457,22.1942871 11.9853516,21.525293 11.9853516,20.700293 C11.9853516,19.8751465 12.6543457,19.2062988 13.4794922,19.2062988 L27.9216797,19.2062988" id="Fill-9" fill="#FCB125"></path>
                    <path d="M20.7005859,25.7416992 C21.5255859,25.7416992 22.1945801,26.4106934 22.1945801,27.2358398 C22.1945801,28.0608398 21.5255859,28.729834 20.7005859,28.729834 L13.4794922,28.729834 C12.6543457,28.729834 11.9853516,28.0608398 11.9853516,27.2358398 C11.9853516,26.4106934 12.6543457,25.7416992 13.4794922,25.7416992 L20.7005859,25.7416992" id="Fill-10" fill="#FCB125"></path>
                </g>
                <g id="checked" transform="translate(26.250000, 27.000000)">
                    <mask id="mask-4" fill="white">
                        <use xlink:href="#path-3"></use>
                    </mask>
                    <g id="Clip-2"></g>
                    <path d="M20.9233333,3.84925439 C21.3679386,3.40407895 21.3679386,2.68048246 20.9233333,2.23587719 C20.4787719,1.79131579 19.7545614,1.79131579 19.31,2.23587719 L10.577193,10.9686842 C10.3737719,11.1721053 10.1037719,11.2836842 9.81640351,11.2836842 C9.52899123,11.2836842 9.25899123,11.1721053 9.05622807,10.9686842 L5.90328947,7.81635965 C5.68065789,7.59377193 5.38907895,7.48276316 5.09688596,7.48276316 C4.80469298,7.48276316 4.5125,7.59377193 4.28991228,7.81635965 C3.84530702,8.26096491 3.84530702,8.9845614 4.28991228,9.42973684 L9.56798246,14.707807 C9.7047807,14.8446053 9.92798246,14.8446053 10.0647807,14.707807 L20.9233333,3.84925439 L20.9233333,3.84925439 Z M21.7717544,1.3875 C22.6842982,2.30008772 22.6842982,3.78504386 21.7717544,4.69763158 L10.9131579,15.5561842 C10.6107895,15.8585965 10.2135965,16.0097807 9.81640351,16.0097807 C9.41921053,16.0097807 9.02201754,15.8585965 8.71960526,15.5561842 L3.44153509,10.278114 C2.52894737,9.36552632 2.52894737,7.88057018 3.44153509,6.96798246 C4.35412281,6.05539474 5.83907895,6.05539474 6.75166667,6.96798246 L9.81640351,10.0321053 L18.4616228,1.3875 C18.9182018,0.931535088 19.5169737,0.702938596 20.1169737,0.702938596 C20.7157456,0.702938596 21.3157456,0.931535088 21.7717544,1.3875 L21.7717544,1.3875 Z" id="Fill-1" fill="#4E809D" mask="url(#mask-4)"></path>
                    <path d="M20.9233333,2.23587719 C21.3679386,2.68048246 21.3679386,3.40407895 20.9233333,3.84925439 L10.0647807,14.707807 C9.92798246,14.8446053 9.7047807,14.8446053 9.56798246,14.707807 L4.28991228,9.42973684 C3.84530702,8.9845614 3.84530702,8.26096491 4.28991228,7.81635965 C4.5125,7.59377193 4.80469298,7.48276316 5.09688596,7.48276316 C5.38907895,7.48276316 5.68065789,7.59377193 5.90328947,7.81635965 L9.05622807,10.9686842 C9.25899123,11.1721053 9.52899123,11.2836842 9.81640351,11.2836842 C10.1037719,11.2836842 10.3737719,11.1721053 10.577193,10.9686842 L19.31,2.23587719 C19.7545614,1.79131579 20.4787719,1.79131579 20.9233333,2.23587719" id="Fill-3" fill="#FCB125" mask="url(#mask-4)"></path>
                    <path d="M19.7245614,9.19754386 C19.7413596,9.43035088 19.7497807,9.66850877 19.7497807,9.90614035 C19.7497807,15.3510088 15.3200877,19.7807018 9.87517544,19.7807018 C4.43030702,19.7807018 0,15.3510088 0,9.90614035 C0,4.46122807 4.43030702,0.0315350877 9.87517544,0.0315350877 C12.0315351,0.0315350877 14.0799123,0.714298246 15.7982456,2.00548246 C16.0634649,2.20469298 16.1168421,2.58087719 15.9176754,2.84548246 C15.7184649,3.11065789 15.3422807,3.16407895 15.0776754,2.96486842 C13.568114,1.83087719 11.7693421,1.23149123 9.87517544,1.23149123 C5.09149123,1.23149123 1.19995614,5.12302632 1.19995614,9.90614035 C1.19995614,14.6892105 5.09149123,18.5807456 9.87517544,18.5807456 C14.6582895,18.5807456 18.5497807,14.6892105 18.5497807,9.90614035 C18.5497807,9.69732456 18.5420175,9.4879386 18.5275877,9.28394737 C18.5035965,8.95333333 18.7525877,8.66596491 19.0825877,8.64192982 C19.4137719,8.61855263 19.7005702,8.86692982 19.7245614,9.19754386" id="Fill-4" fill="#4E809D" mask="url(#mask-4)"></path>
                </g>
            </g>
        </g>
    </g>
</svg>