<?xml version="1.0" encoding="utf-8"?>
<!-- Generator: Adobe Illustrator 19.0.0, SVG Export Plug-In . SVG Version: 6.00 Build 0)  -->
<svg version="1.1" xmlns="http://www.w3.org/2000/svg" xmlns:xlink="http://www.w3.org/1999/xlink" x="0px" y="0px"
	 viewBox="0 0 2383.9 1392" style="enable-background:new 0 0 2383.9 1392;" xml:space="preserve">
<style type="text/css">
	.st0{fill:#156286;}
	.st1{fill:#FFFFFF;}
	.st2{fill:none;}
	.st3{fill:#698289;}
	.st4{fill:#748F98;}
	.st5{fill:#F1C374;}
</style>
<g id="Layer_1">
	<g>
		<g>
			<path class="st0" d="M311,596.6l-17.2-4.8l-27.9,8.6l5.6-29.2l-6-14.5c4.5-3.7,7.8-4.7,7.8-4.7l-2.5-9c-0.3,0.1-3.9,1.1-9,4.8
				l0-0.1c-39.4,25-14.7,82.5-14.7,82.5c49.3,1.6,66.1-18.5,71-27.3c1.9-2.9,3.9-6.3,5.7-10.3l-8.5-3.9
				C313.9,591.8,312.4,594.4,311,596.6z"/>
			<path class="st0" d="M346.4,554.3l-16.3-4.4l-24.4,7.9l7.1-26l-3.5-15.6c4.2-3.6,8.2-5.3,8.2-5.4l-3.6-8.6
				c-0.4,0.2-7.3,3.1-13.7,9.7c-26.2,23.4-17.1,68.7-17.1,68.7c43.9,8.7,65.7-13.5,71.7-21.1c2-1.8,4-3.7,5.9-5.9l-6.9-6.3
				C351.3,550,348.8,552.3,346.4,554.3z"/>
			<path class="st0" d="M357.5,498.7l-1.8-12.3c4.3-2.6,7.7-3.2,8-3.2l-0.9-8c-0.4,0-5.9,0-12.5,4.2c-32.2,15.4-26.6,59.1-26.6,59.1
				c40.7,13.7,59.7,0.1,66.4-7.1c2.2-1.8,4.4-4.1,6.6-7l-7.5-5.6c-1.6,2.1-3.2,3.8-4.7,5.1l-12.7-5.5l-25.8,3.8L357.5,498.7z"/>
			<path class="st0" d="M236.7,502.5c0,0,18.6-83.5,111.6-145.4c0.5-0.3,0.9-0.6,1.4-0.9l7.6-90.3c0,0-31.3,20-134,122.4
				C236.1,426.8,242.7,466.5,236.7,502.5z"/>
			<g>
				<path class="st1" d="M311,596.6l-17.2-4.8l-27.9,8.6l5.6-29.2l-6-14.5c4.5-3.7,7.8-4.7,7.8-4.7l-2.5-9c-0.3,0.1-3.9,1.1-9,4.8
					l0-0.1c-39.4,25-14.7,82.5-14.7,82.5c49.3,1.6,66.1-18.5,71-27.3c1.9-2.9,3.9-6.3,5.7-10.3l-8.5-3.9
					C313.9,591.8,312.4,594.4,311,596.6z"/>
				<path class="st1" d="M346.4,554.3l-16.3-4.4l-24.4,7.9l7.1-26l-3.5-15.6c4.2-3.6,8.2-5.3,8.2-5.4l-3.6-8.6
					c-0.4,0.2-7.3,3.1-13.7,9.7c-26.2,23.4-17.1,68.7-17.1,68.7c43.9,8.7,65.7-13.5,71.7-21.1c2-1.8,4-3.7,5.9-5.9l-6.9-6.3
					C351.3,550,348.8,552.3,346.4,554.3z"/>
				<path class="st1" d="M357.5,498.7l-1.8-12.3c4.3-2.6,7.7-3.2,8-3.2l-0.9-8c-0.4,0-5.9,0-12.5,4.2
					c-32.2,15.4-26.6,59.1-26.6,59.1c40.7,13.7,59.7,0.1,66.4-7.1c2.2-1.8,4.4-4.1,6.6-7l-7.5-5.6c-1.6,2.1-3.2,3.8-4.7,5.1
					l-12.7-5.5l-25.8,3.8L357.5,498.7z"/>
				<path class="st0" d="M349.7,356.3c-0.5,0.3-0.9,0.6-1.4,0.9c-93,61.9-111.6,145.4-111.6,145.4c6-36.1-0.7-75.7-13.3-114.2
					C190.9,289.6,118.6,199,118.6,199S105.7,279,75.1,473.6C44.5,668.2,186.8,679.7,186.8,679.7l6.9,1.5
					C125.2,993.2,419.9,1024,419.9,1024l-0.2-2c-75.1-22.6-256.7-103.7-205.6-304.6c2.8-13.3,6.3-25.4,8.5-32.5
					c-10.2-10.2-35.5-41.9-6.4-86.1l0,0c4-6.3,7.3-9.5,7.5-9.7l3.2,3.4l3.2,3.4c-0.1,0.1-3.9,3.8-8.3,11.7l10.4,16.3l2.8,34.7
					l24.6-20.5l26.3,3.9c2.3-3.8,4.9-8.3,7.6-13.6l8.3,4.3c-4.8,9.1-9,16.1-12.6,21.5c-6.1,11.9-21.2,29.5-57.8,33.6
					c-0.2,0.8-0.5,1.6-0.8,2.6c-4.6,25-35.8,228.3,177,226.2c-183.8-22-162.6-169.5-149-221.7c161.1,35.4,182.9-157.7,182.9-157.7
					l6.7-41c-11,7.5-20,12-26.4,14.6c-2.6,1.4-5.9,2.6-9.8,3.4c-0.5,0.1-0.9,0.2-0.9,0.2l0,0c-9.9,1.8-24.1,0.5-43.1-9.3
					c0,0,1.1-34.1,26.1-45.8c16.9-10.6,47.7-16.2,63.1-18.4l25.3-154.6C482.6,286.5,431.9,301.8,349.7,356.3z M318,603
					c-4.9,8.7-21.7,28.9-71,27.3c0,0-24.7-57.5,14.7-82.5l0,0.1c5.1-3.7,8.8-4.7,9-4.8l2.5,9c-0.1,0-3.3,1-7.8,4.7l6,14.5l-5.6,29.2
					l27.9-8.6l17.2,4.8c1.4-2.2,2.8-4.8,4.2-7.8l8.5,3.9C321.9,596.7,320,600.1,318,603z M354.7,559.5c-6,7.6-27.8,29.8-71.7,21.1
					c0,0-9.1-45.3,17.1-68.7c6.4-6.5,13.3-9.5,13.7-9.7l3.6,8.6c-0.1,0-4,1.7-8.2,5.4l3.5,15.6l-7.1,26l24.4-7.9l16.3,4.4
					c2.4-2,4.9-4.3,7.4-7l6.9,6.3C358.7,555.8,356.7,557.7,354.7,559.5z M371.8,518.5l12.7,5.5c1.5-1.3,3.1-3,4.7-5.1l7.5,5.6
					c-2.2,2.9-4.4,5.2-6.6,7c-6.7,7.2-25.7,20.8-66.4,7.1c0,0-5.6-43.6,26.6-59.1c6.6-4.1,12-4.2,12.5-4.2l0.9,8
					c-0.3,0-3.7,0.5-8,3.2l1.8,12.3L346,522.2L371.8,518.5z"/>
				<path class="st0" d="M403,475.3l-13.2,18.9l22.9,0.1l12.3,7.7c6-2.2,14.1-5.9,24.4-11.9l2.9-18c-6.5,7-16.6,16-27.2,17.9
					l-17.9-5.7l8.6-16.5c0,0,16.8-11.4,38.3-6.1l2.7-16.8c-12.7,2.5-34.9,7.8-53.6,17.3L403,475.3z"/>
			</g>
		</g>
		<g>
			<g>
				<path class="st0" d="M537.3,833.2c2.3,6.2,3.6,11.3,4,15.3c0.4,4,0,7.4-1.3,10.2c-1.3,2.8-3.5,5.5-6.6,7.9
					c-3.1,2.4-7.1,5-11.9,7.9c-13.6,7.9-28.6,9.8-45.1,5.5c-5.7-1.4-10.4-3-14-4.7c-3.7-1.7-6.7-4-9.1-6.8
					c-2.4-2.8-4.1-6.4-5.1-10.6c-1-4.3-1.6-9.6-1.9-16.2c-0.3-9.9-0.1-19.7,0.6-29.3c0.7-9.6,1.6-19.4,2.8-29.3
					c2-19.3,3.3-38.4,4-57.4c0.7-19,0.4-38.3-1.1-57.8c-0.6-9.9-0.4-19.8,0.4-29.5c0.8-9.8,1.5-19.6,2.1-29.6
					c0.6-9.4,1.2-18.7,1.9-28.1c0.7-9.4,1.5-18.7,2.3-28.1c0.6-8.2,1.3-16.4,2.1-24.7c0.8-8.2,1.5-16.4,2.1-24.7
					c0.6-6,2.1-11.5,4.7-16.8c2.6-5.2,5.4-10.4,8.5-15.5c4.3-7.1,10.6-11.5,19.1-13.2c9.1-1.7,15.7-1,19.8,2.1
					c4.1,3.1,7.4,8.5,10,16.2c3.4,9.6-0.1,14.7-10.6,15.3c-1.4,0.3-2.7,0.3-3.8,0c-1.1-0.3-2.3-0.4-3.4-0.4
					c-8.2,0.9-12.5,4.7-12.8,11.5c-0.6,4-0.8,7.9-0.8,11.9c0,4,0.1,7.9,0.4,11.9c0.8,22.4,1.5,44.7,1.9,67
					c0.4,22.3-0.1,44.7-1.5,67.4c-0.6,8.5-0.6,17.1,0,25.7c0.6,8.7,1,17.4,1.3,26.1c0.3,7.1,0.3,14.1,0,21.1c-0.3,6.9-1.1,14-2.5,21
					c-1.7,11.9-2.9,24-3.6,36.1c-0.7,12.2-1.3,24.4-1.9,36.6c-0.6,4.8,0.7,8.2,3.8,10.2c3.1,2,7.1,2.4,11.9,1.3
					c2.6-0.6,5.1-1.3,7.7-2.3c2.6-1,5.2-1.9,7.9-2.8c2.7-0.8,5.5-1.3,8.3-1.5C530.8,832,533.9,832.4,537.3,833.2z"/>
				<path class="st0" d="M722.3,880.4c-3.7,0.6-6.9,1-9.8,1.3c-2.8,0.3-5.8,0.4-8.9,0.4c-6,0-12-0.1-18.1-0.2
					c-6.1-0.1-12.1-0.1-18.1,0.2c-5.4,0.3-10.3-0.6-14.7-2.6c-4.4-2-9-3.8-13.8-5.5c-1.4-0.6-2.8-1.6-4.3-3c-1.4-1.4-2.4-2.8-3-4.2
					c-1.4-3.4-2.8-6.9-4.2-10.4c-1.4-3.5-2-6.9-1.7-10c0.6-6.5,0.4-12.9-0.4-19.1c-0.9-6.2-1.9-12.6-3-19.1
					c-0.6-2.6-0.3-5.4,0.8-8.5c2.3-7.7,3.4-15.4,3.4-23.2c0-7.8,0-15.7,0-23.6c0.3-5.7,0.6-11.3,1.1-17c0.4-5.7,0.9-11.3,1.5-17
					c0.6-4.8,1.1-9.4,1.5-13.8c0.4-4.4,0.9-9,1.5-13.8c0.8-10.8,1.8-21.4,2.8-31.9c1-10.5,1.8-21.1,2.3-31.9
					c0.6-7.1,1-14.2,1.3-21.3c0.3-7.1,0.7-14.2,1.3-21.3c1.5-10.8,2.9-21.4,4.4-31.9c1.5-10.5,2.9-21.1,4.4-31.9l5.3-35.7
					c0.8-7.7,3.8-14,8.9-19.1c5.1-5.1,11.3-8.1,18.6-8.9c7.6-0.6,15.4-0.6,23.3,0c4.2,0.6,8.4,1.9,12.5,3.8c4.1,2,7.8,4.5,11.2,7.4
					c3.4,3,6.4,6.4,8.9,10.2c2.5,3.8,4.2,7.7,5.1,11.7c0.6,2.8,1.1,5.6,1.7,8.3c0.6,2.7,2,5.2,4.2,7.4c1.1,1.1,1.9,2.6,2.3,4.5
					c0.4,1.8,0.6,3.6,0.6,5.3c-0.6,8.5-1,17-1.3,25.5c-0.3,8.5-0.6,17-0.8,25.5c-0.3,3.7-0.6,7.3-0.9,10.8c-0.3,3.5-0.1,7,0.4,10.4
					c1.7,15.3,2.2,30.5,1.5,45.7c-0.7,15.2-2.8,30.4-6.2,45.7c-2.3,8.5-3.9,17.2-4.9,26.1c-1,8.9-0.9,17.9,0.2,27
					c0.6,2.3,0.7,4.7,0.4,7.2c-0.3,2.6-0.6,5.1-0.8,7.7c-1.4,16.2-2.8,32.4-4.3,48.7c-1.4,16.3-3,32.7-4.7,49.1
					c-0.6,5.7-1.6,11.3-3.2,16.8C725.2,867.9,723.7,873.9,722.3,880.4z M684,483.7c-2,13.9-3.8,27.2-5.5,40
					c-1.7,12.8-3.5,25.5-5.5,38.3c-0.6,6-1.3,11.9-2.1,17.9c-0.8,6-1.6,11.9-2.1,17.9c-0.9,10.8-1.5,21.4-1.9,31.9
					c-0.4,10.5-1.1,21.1-1.9,31.9c-1.1,13.9-2.3,27.7-3.5,41.5c-1.2,13.7-2.4,27.6-3.5,41.5c-0.8,11.6-1.5,23-2,34.2
					c-0.5,11.2-1.1,22.6-1.6,34.2c-0.3,4-0.4,8.1-0.4,12.3c0,4.3,1,8.4,3,12.3c5.6,2.3,11.8,4.5,18.6,6.8c6.8,2,12,2.1,15.6,0.2
					c3.7-1.8,6.5-6.2,8.4-13c1.1-4,2-8.1,2.7-12.3c0.7-4.2,1.2-8.5,1.5-12.8c0.8-9.9,2.2-19.8,4-29.5c1.8-9.8,2.3-19.6,1.5-29.6
					c3.7-19.8,5.5-39.7,5.5-59.5c0-19.8,0.3-39.7,0.8-59.5c0-5.4-0.3-10.8-0.9-16.2c-0.6-5.4-0.6-10.6,0-15.7
					c1.4-17,1.4-33.7,0-50.2c-1.4-16.4-2-33.2-1.7-50.2c0.3-3.7-0.8-6.9-3.4-9.6c-2.6-2.7-5.7-4.3-9.4-4.9c-2.3-0.3-4.7-0.1-7.4,0.4
					C690,482.6,687.1,483.2,684,483.7z"/>
				<path class="st0" d="M833.3,876.2c0-2.6-0.1-5.5-0.2-8.9c-0.1-3.4-0.1-6.8,0.2-10.2c0.6-15.9,1.1-31.6,1.5-47.2
					c0.4-15.6-0.4-31.2-2.3-46.8c-0.6-2.5-0.8-5.1-0.6-7.6s0.4-5,0.6-7.2c2-15,3-30,3.2-44.9c0.1-14.9,0.4-29.8,0.6-44.9
					c0-9.4,0.4-18.6,1.3-27.8c0.8-9.2,1.5-18.4,2.1-27.4c0.3-5.1,0.4-10.1,0.4-15.1c0-5,0-10,0-15.1c-0.3-9.9-0.5-19.8-0.6-29.8
					c-0.1-9.9-0.1-19.8,0.2-29.8c0-4.2,0.5-8.5,1.5-12.8c1-4.2,1.6-8.5,1.9-12.7c0.6-4.3,0.7-8.4,0.4-12.5c-0.3-4.1-0.4-8-0.4-11.7
					c3.1-2.3,5.9-4.1,8.3-5.5c2.4-1.4,5.2-1.7,8.3-0.9c3.1,0.6,5.6,1.9,7.4,3.8c1.8,2,3.5,4.3,4.9,6.8c4.5,9.1,8.2,18.4,11.1,27.8
					c2.8,9.5,5.1,19.2,6.8,29.1c4.5,24.4,8.9,48.6,13,72.7c4.1,24.1,8.1,48.3,12.1,72.7c0.6,2.8,0.8,5.6,0.8,8.3
					c0,2.7,0.3,5.6,0.9,8.7c0.3,1.4,0.7,2.7,1.3,3.8c0.6,1.1,1.1,2.4,1.7,3.8c2.8-0.8,4-2,3.4-3.4c-0.6-1.4-0.8-2.7-0.8-3.8
					c-1.1-12.2-1.3-24.2-0.4-36.1c0.8-11.9,1.8-23.9,3-36.1c1.1-9.6,1.7-19.2,1.7-28.7c0-9.5,0.1-19.1,0.4-28.7
					c0-12.8,0.1-25.4,0.4-38.1c0.3-12.6,2-25.3,5.1-38c0.6-1.4,1-2.8,1.3-4.3c0.3-1.4,0.7-2.8,1.3-4.3c2-5.7,6.2-8.8,12.8-9.4
					c3.4-0.6,6.6-0.3,9.6,0.8c3,1.1,5.2,3.4,6.6,6.8c2.5,5.1,3.8,10.5,3.8,16.2c0.3,5.1,0.3,10.1,0,15.1c-0.3,5-0.4,10-0.4,15.1
					c0,9.1,0,18.3,0,27.6c0,9.4-0.1,18.6-0.4,27.6c-0.3,7.4-0.6,14.8-1.1,22.3c-0.4,7.5-0.9,15.1-1.5,22.7
					c-0.3,7.7-0.6,15.4-0.8,23.2c-0.3,7.8-0.4,15.7-0.4,23.6c0.3,12.8,0.3,25.5,0,38.3c-0.3,12.8-1.1,25.7-2.6,38.7
					c-1.4,10.5-2.1,21.1-2.1,31.7c0,10.6,0.1,21.3,0.4,32.1c0,11.6-0.4,23-1.1,34.2c-0.7,11.2-1.5,22.2-2.3,33
					c-5.7,4.8-11.4,7.6-17.2,8.5c-5.8,0.8-12.1,0.3-18.9-1.7c-3.7-18.7-7.6-37.3-11.7-55.9c-4.1-18.6-8.2-37.3-12.1-56.1
					c-4-18.8-7.7-37.9-11.1-57.2c-3.4-19.3-6.2-39-8.5-59.1c-1.1,3.4-1.9,6-2.4,7.7c-0.5,1.7-0.8,3.3-0.8,4.7
					c-0.5,15.6-1.1,31.2-1.8,46.8c-0.7,15.6-1.1,31.2-1.4,46.8c-0.6,18.4-0.7,36.7-0.4,54.9c0.3,18.1,0.3,36.3,0,54.4
					c0,5.4-0.7,8.9-2.2,10.4c-1.4,1.6-4.7,2.5-9.9,2.8c-1.7,0-3.5,0.3-5.4,0.8c-1.9,0.6-3.7,0.9-5.6,1.1c-1.9,0.1-3.9-0.1-6-0.8
					C837.8,880.3,835.6,878.7,833.3,876.2z"/>
				<path class="st0" d="M1061,876.2c0-2.6-0.1-5.5-0.2-8.9c-0.1-3.4-0.1-6.8,0.2-10.2c0.6-15.9,1.1-31.6,1.5-47.2
					c0.4-15.6-0.4-31.2-2.3-46.8c-0.6-2.5-0.8-5.1-0.6-7.6s0.4-5,0.6-7.2c2-15,3-30,3.2-44.9c0.1-14.9,0.3-29.8,0.6-44.9
					c0-9.4,0.4-18.6,1.3-27.8c0.8-9.2,1.5-18.4,2.1-27.4c0.3-5.1,0.4-10.1,0.4-15.1c0-5,0-10,0-15.1c-0.3-9.9-0.5-19.8-0.6-29.8
					c-0.1-9.9-0.1-19.8,0.2-29.8c0-4.2,0.5-8.5,1.5-12.8c1-4.2,1.6-8.5,1.9-12.7c0.6-4.3,0.7-8.4,0.4-12.5c-0.3-4.1-0.4-8-0.4-11.7
					c3.1-2.3,5.9-4.1,8.3-5.5c2.4-1.4,5.2-1.7,8.3-0.9c3.1,0.6,5.6,1.9,7.4,3.8c1.8,2,3.5,4.3,4.9,6.8c4.5,9.1,8.2,18.4,11.1,27.8
					c2.8,9.5,5.1,19.2,6.8,29.1c4.5,24.4,8.9,48.6,13,72.7c4.1,24.1,8.1,48.3,12.1,72.7c0.6,2.8,0.8,5.6,0.8,8.3
					c0,2.7,0.3,5.6,0.9,8.7c0.3,1.4,0.7,2.7,1.3,3.8c0.6,1.1,1.1,2.4,1.7,3.8c2.8-0.8,4-2,3.4-3.4c-0.6-1.4-0.8-2.7-0.8-3.8
					c-1.1-12.2-1.3-24.2-0.4-36.1c0.8-11.9,1.8-23.9,3-36.1c1.1-9.6,1.7-19.2,1.7-28.7c0-9.5,0.1-19.1,0.4-28.7
					c0-12.8,0.1-25.4,0.4-38.1c0.3-12.6,2-25.3,5.1-38c0.6-1.4,1-2.8,1.3-4.3c0.3-1.4,0.7-2.8,1.3-4.3c2-5.7,6.2-8.8,12.8-9.4
					c3.4-0.6,6.6-0.3,9.6,0.8c3,1.1,5.2,3.4,6.6,6.8c2.5,5.1,3.8,10.5,3.8,16.2c0.3,5.1,0.3,10.1,0,15.1c-0.3,5-0.4,10-0.4,15.1
					c0,9.1,0,18.3,0,27.6c0,9.4-0.1,18.6-0.4,27.6c-0.3,7.4-0.6,14.8-1.1,22.3c-0.4,7.5-0.9,15.1-1.5,22.7
					c-0.3,7.7-0.6,15.4-0.8,23.2c-0.3,7.8-0.4,15.7-0.4,23.6c0.3,12.8,0.3,25.5,0,38.3c-0.3,12.8-1.1,25.7-2.6,38.7
					c-1.4,10.5-2.1,21.1-2.1,31.7c0,10.6,0.1,21.3,0.4,32.1c0,11.6-0.4,23-1.1,34.2c-0.7,11.2-1.5,22.2-2.3,33
					c-5.7,4.8-11.4,7.6-17.2,8.5c-5.8,0.8-12.1,0.3-18.9-1.7c-3.7-18.7-7.6-37.3-11.7-55.9c-4.1-18.6-8.2-37.3-12.1-56.1
					c-4-18.8-7.7-37.9-11.1-57.2c-3.4-19.3-6.2-39-8.5-59.1c-1.1,3.4-1.9,6-2.4,7.7c-0.5,1.7-0.8,3.3-0.8,4.7
					c-0.5,15.6-1.1,31.2-1.8,46.8c-0.7,15.6-1.1,31.2-1.4,46.8c-0.6,18.4-0.7,36.7-0.4,54.9c0.3,18.1,0.3,36.3,0,54.4
					c0,5.4-0.7,8.9-2.2,10.4c-1.4,1.6-4.7,2.5-9.9,2.8c-1.7,0-3.5,0.3-5.4,0.8c-1.9,0.6-3.7,0.9-5.6,1.1c-1.9,0.1-3.9-0.1-6-0.8
					C1065.5,880.4,1063.2,878.8,1061,876.2z"/>
				<path class="st0" d="M1304.4,636.8c5.1,1.1,10.1,2.1,15.1,2.8c5,0.7,9.8,1.6,14.7,2.8c3.1,0.6,6.1,1.1,8.9,1.7s5.8,1.4,8.9,2.6
					c2.6,0.8,4.7,2.2,6.4,4c1.7,1.8,2.6,4.3,2.6,7.4c-2.6,6.5-5.8,11.6-9.8,15.1c-4,3.5-8.5,6.2-13.6,7.9
					c-5.1,1.7-10.5,2.8-16.2,3.4c-5.7,0.6-11.5,1-17.4,1.3c0,8.8,0,17.4,0,25.9c0,8.5-0.1,16.9-0.4,25.1c-0.3,8.2-0.6,16.3-0.8,24.2
					c-0.3,7.9-0.6,15.9-0.8,23.8v50.2c2.3,2.3,4.5,3.1,6.6,2.6c2.1-0.6,4.3-0.8,6.6-0.8c5.4-0.3,10.7-0.6,15.9-1.1
					c5.2-0.4,10.7-0.6,16.4-0.6c7.9,0,13.3,3.5,16.2,10.6c1.4,4,1.4,7.4,0,10.4c-1.4,3-3.5,5.6-6.4,7.9c-3.4,3.4-7.7,6.5-12.8,9.4
					c-8.5,4-17.4,6.5-26.6,7.6c-9.2,1.1-18.4,1.6-27.4,1.3c-6.2-0.6-10.7-2.3-13.4-5.1c-2.7-2.8-4.7-7.4-6.2-13.6
					c-3.1-13.3-4.8-26.6-4.9-39.8c-0.1-13.2,0.2-26.6,1.1-40.2c1.1-16.2,1.6-32.2,1.5-48.3c-0.1-16,0.1-32.1,0.6-48.3
					c0.3-18.1,0.4-36.1,0.4-54c0-17.9,0.3-35.9,0.8-54c0.3-11.6,0.8-23.1,1.5-34.4c0.7-11.3,1.5-22.8,2.3-34.4
					c0.6-6.8,1.4-13.7,2.6-20.6c1.1-6.9,2.4-13.7,3.8-20.2c0.6-2.3,1.4-4.4,2.6-6.4c1.1-2,2.1-3.8,3-5.5c11.3-1.1,21.9,0,31.7,3.4
					c9.8,3.4,19.5,6.8,29.1,10.2c1.4,0.6,2.7,1.4,3.8,2.3c1.1,1,2.1,2.1,3,3.2c4.5,5.1,4.5,9.9,0,14.5c-2.6,2.8-5.3,5.5-8.1,7.9
					c-2.8,2.4-6.4,3.9-10.6,4.5c-4.5,0.6-9,1.4-13.4,2.3c-4.4,1-9,2.1-13.8,3.2c-2.3,3.1-3.5,6.4-3.6,9.8s0,6.8,0.4,10.2
					s0.9,6.7,1.5,10c0.6,3.3,0.7,6.6,0.4,10c-0.8,7.4-1.3,14.7-1.5,21.9c-0.1,7.2-0.4,14.5-0.6,21.9c-0.3,6.8-0.4,13.8-0.2,20.8
					C1304.3,620.5,1304.4,628.3,1304.4,636.8z"/>
				<path class="st0" d="M1536.1,833.2c2.3,6.2,3.6,11.3,4,15.3c0.4,4,0,7.4-1.3,10.2s-3.5,5.5-6.6,7.9c-3.1,2.4-7.1,5-11.9,7.9
					c-13.6,7.9-28.6,9.8-45.1,5.5c-5.7-1.4-10.4-3-14-4.7c-3.7-1.7-6.7-4-9.1-6.8c-2.4-2.8-4.1-6.4-5.1-10.6
					c-1-4.3-1.6-9.6-1.9-16.2c-0.3-9.9-0.1-19.7,0.6-29.3c0.7-9.6,1.6-19.4,2.8-29.3c2-19.3,3.3-38.4,4-57.4s0.4-38.3-1.1-57.8
					c-0.6-9.9-0.4-19.8,0.4-29.5c0.8-9.8,1.5-19.6,2.1-29.6c0.6-9.4,1.2-18.7,1.9-28.1c0.7-9.4,1.5-18.7,2.3-28.1
					c0.6-8.2,1.3-16.4,2.1-24.7c0.8-8.2,1.5-16.4,2.1-24.7c0.6-6,2.1-11.5,4.7-16.8c2.6-5.2,5.4-10.4,8.5-15.5
					c4.3-7.1,10.6-11.5,19.1-13.2c9.1-1.7,15.7-1,19.8,2.1c4.1,3.1,7.4,8.5,10,16.2c3.4,9.6-0.1,14.7-10.6,15.3
					c-1.4,0.3-2.7,0.3-3.8,0c-1.1-0.3-2.3-0.4-3.4-0.4c-8.2,0.9-12.5,4.7-12.8,11.5c-0.6,4-0.8,7.9-0.8,11.9c0,4,0.1,7.9,0.4,11.9
					c0.8,22.4,1.5,44.7,1.9,67c0.4,22.3-0.1,44.7-1.5,67.4c-0.6,8.5-0.6,17.1,0,25.7c0.6,8.7,1,17.4,1.3,26.1
					c0.3,7.1,0.3,14.1,0,21.1c-0.3,6.9-1.1,14-2.5,21c-1.7,11.9-2.9,24-3.6,36.1c-0.7,12.2-1.3,24.4-1.9,36.6
					c-0.6,4.8,0.7,8.2,3.8,10.2c3.1,2,7.1,2.4,11.9,1.3c2.6-0.6,5.1-1.3,7.7-2.3c2.6-1,5.2-1.9,7.9-2.8c2.7-0.8,5.5-1.3,8.3-1.5
					C1529.5,832,1532.7,832.4,1536.1,833.2z"/>
				<path class="st0" d="M1761,489.7c-9.1,4.3-18.1,7.5-27.2,9.8c-9.1,2.3-18.1,4.5-27.2,6.8c-0.6,0.8-1,1.6-1.3,2.3
					c-0.3,0.7-0.6,1.3-0.8,1.9c-1.7,29.2-3.4,58-5.1,86.5c-1.7,28.5-3.4,57.3-5.1,86.5c-0.6,11.3-0.9,22.6-1.1,33.8
					c-0.1,11.2-0.6,22.3-1.5,33.4c-1.1,18.1-2.1,36.2-3,54.2c-0.8,18-1.1,36.1-0.8,54.2c0,4,0,8,0,12.1c0,4.1-2,7.7-6,10.8
					c-3.7,0.3-7.3-0.2-10.8-1.5c-3.5-1.3-7.3-1.2-11.3,0.2c-2.8,1.1-5.6,0.2-8.3-2.8c-2.7-3-4.2-6.3-4.5-10c0-1.4,0-2.8,0-4
					c0-1.3,0.1-2.6,0.4-4c0.6-10.8,1.1-21.6,1.5-32.5c0.4-10.9,0.9-21.8,1.5-32.5c0.6-8.5,1.1-17.1,1.7-25.7
					c0.6-8.6,1.6-17.1,3-25.3c1.4-8.2,2.1-16.4,2.1-24.4c0-8.1,0.1-16.2,0.4-24.4c0.3-11.3,0.6-22.6,0.9-33.8
					c0.3-11.2,1.3-22.3,3-33.4c1.4-8.5,2.2-17,2.3-25.5c0.1-8.5,0.5-17,1.1-25.5c0.6-6.5,1.3-13,2.1-19.3c0.8-6.4,1.6-12.8,2.1-19.3
					c0.6-4.8,0.7-9.8,0.4-14.9c-0.3-5.1-0.4-10.5-0.4-16.2h-27.2c-2.6-2.8-5.2-5.6-7.9-8.3c-2.7-2.7-5.6-5.6-8.7-8.7
					c-2.6-2.6-4-5.3-4.3-8.3c-0.3-3,0.1-5.7,1.3-8.3c1.1-2.6,2.8-4.7,5.1-6.6c2.3-1.8,4.8-2.9,7.7-3.2c4-0.6,8.1-1.1,12.3-1.5
					c4.2-0.4,8.4-0.5,12.3-0.2c4,0.3,8,0.2,12.1-0.2c4.1-0.4,8.1-0.9,12.1-1.5c4.8-0.8,9.8-1.5,14.9-1.9s10.2-0.9,15.3-1.5
					c4-0.3,7.7,0,11.1,0.8c3.4,0.8,6.7,2.8,9.8,6c2,2.3,4.3,3.5,7,3.8c2.7,0.3,5.3,0.9,7.9,1.7c2,0.6,4,1.6,6,3.2
					c2,1.6,3.5,3.3,4.7,5.3c0.9,1.4,1.1,3.2,0.9,5.3C1761.1,485.2,1761,487.4,1761,489.7z"/>
				<g>
					<path class="st0" d="M1931.3,502c5.7-2.3,9.7-4.2,12.1-5.7c2.4-1.6,4.6-3.6,6.6-6.2c2.8-4.3,4-8.8,3.6-13.6
						c-0.4-4.8-2.3-9.2-5.7-13.2c-7.9-8.8-15.6-8.9-23-0.4c-8.5,9.1-12.3,16.2-11.3,21.5C1914.6,489.6,1920.5,495.5,1931.3,502z"/>
				</g>
				<g>
					<path class="st0" d="M1952.5,643.4c-0.6-12.3-1-24.7-1.3-37.2c0-4,0.1-7.9,0.2-11.7c0.1-3.8,0.5-7.6,1.1-11.3
						c1.1-7.7,1.1-15.2-0.2-22.7c-1.3-7.5-1.8-15.1-1.5-22.7c0.3-0.9,0.1-2.1-0.4-3.8c-2.3-6.2-6.1-10.1-11.5-11.5
						c-2.6-0.6-5.4,0-8.5,1.7c-3.1,1.7-5.4,4-6.8,6.8c-0.8,1.1-1.6,3.1-2.1,6c-2.8,6.8-5,13.7-6.6,20.6c-1.6,6.9-1.5,14.1,0.2,21.5
						c-2.3,16.7-3,33.3-2.1,49.7c0.8,16.4,1,33,0.4,49.7c0,3.4-0.1,6.9-0.2,10.4c-0.1,3.5,0.1,7,0.6,10.4c0.6,7.7,0.8,15.2,0.6,22.7
						c-0.1,7.5-0.5,15.1-1.1,22.7c-1.1,11.9-2.1,23.6-3,35.1c-0.8,11.5-1.7,23.2-2.6,35.1h0.8c0,5.7-0.1,11.3-0.2,16.8
						c-0.1,5.5,0.1,11.1,0.6,16.8c0.3,4,0.9,7.9,1.9,11.9c0.5,2.2,1.3,4.3,2,6.5c0.6,1.8,1,3.6,1.7,5.4c0.9,3.1,3.2,5.7,6.9,7.7
						s7.2,2.6,10.3,1.7c7.2-2,11.2-6.2,12.1-12.8c0.6-3.4,1-6.8,1.3-10.2c0.3-3.4,0.6-6.9,0.9-10.6c0.1-3.3,0.3-6.7,0.4-10
						c0.4-9.7,0.8-19.4,1.1-29.1c0.5-13,1.4-26.2,2.7-39.5c1.4-14.7,2.3-29.5,2.6-44.2c0.3-14.7,0.4-29.6,0.4-44.6
						C1953.4,668.1,1953.1,655.7,1952.5,643.4z"/>
				</g>
				<g>
					<path class="st0" d="M2174.1,477.8c-1.1-2-2.7-3.8-4.7-5.3c-2-1.6-4-2.6-6-3.2c-2.6-0.8-5.2-1.4-7.9-1.7c-2.7-0.3-5-1.6-7-3.8
						c-3.1-3.1-6.4-5.1-9.8-6s-7.1-1.1-11.1-0.8c-5.1,0.6-10.2,1.1-15.3,1.5c-5.1,0.4-10.1,1.1-14.9,1.9c-4,0.6-8,1.1-12.1,1.5
						c-4.1,0.4-8.1,0.5-12.1,0.2c-4-0.3-8.1-0.2-12.3,0.2c-4.3,0.4-8.4,0.9-12.3,1.5c-2.8,0.3-5.4,1.4-7.7,3.2c-2.3,1.9-4,4-5.1,6.6
						c-1.1,2.6-1.6,5.3-1.3,8.3c0.3,3,1.7,5.7,4.3,8.3c3.1,3.1,6,6,8.7,8.7c2.7,2.7,5.3,5.5,7.9,8.3h27.2c0,5.7,0.1,11.1,0.4,16.2
						c0.3,5.1,0.1,10.1-0.4,14.9c-0.6,6.5-1.3,13-2.1,19.3c-0.8,6.4-1.6,12.8-2.1,19.3c-0.6,8.5-0.9,17-1.1,25.5
						c-0.1,8.5-0.9,17-2.3,25.5c-1.7,11.1-2.7,22.2-3,33.4c-0.3,11.2-0.6,22.5-0.9,33.8c-0.3,8.2-0.4,16.4-0.4,24.4
						c0,6.8-0.6,13.7-1.6,20.6c-0.2,1.3-0.3,2.5-0.5,3.8c-1.4,8.2-2.4,16.7-3,25.3c-0.6,8.7-1.1,17.2-1.7,25.7
						c-0.6,10.8-1.1,21.6-1.5,32.5c-0.4,10.9-0.9,21.8-1.5,32.5c-0.3,1.4-0.4,2.8-0.4,4c0,1.3,0,2.6,0,4c0.3,3.7,1.8,7,4.5,10
						c2.7,3,5.5,3.9,8.3,2.8c4-1.4,7.7-1.5,11.3-0.2c3.5,1.3,7.2,1.8,10.8,1.5c4-3.1,6-6.7,6-10.8c0-4.1,0-8.2,0-12.1
						c-0.3-18.1,0-36.2,0.8-54.2c0.9-18,1.8-36.1,3-54.2c0.8-11.1,1.3-22.2,1.5-33.4c0-1.9,0.1-3.9,0.2-5.8c0.2-9.3,0.4-18.6,0.9-28
						c1.7-29.2,3.4-58,5.1-86.5c1.7-28.5,3.4-57.3,5.1-86.5c0.3-0.6,0.6-1.2,0.8-1.9c0.3-0.7,0.7-1.5,1.3-2.3
						c9.1-2.3,18.1-4.5,27.2-6.8c9.1-2.3,18.1-5.5,27.2-9.8c0-2.3,0.1-4.5,0.4-6.6C2175.2,481,2174.9,479.2,2174.1,477.8z"/>
				</g>
				<g>
					<path class="st0" d="M2299.5,840.4c-4.5-6-9.9-9-15.9-9.1c-6.1-0.1-11.3,2.6-15.5,8.3c-3.7,4.8-5.6,9.8-5.7,14.9
						c-0.1,5.1,0.8,10.1,2.8,14.9c1.7,4.8,4.5,8,8.3,9.6c3.8,1.6,8.1,2.6,13,3.2c4.8,0.3,8.9-0.4,12.1-1.9c3.3-1.6,6-4.3,8.3-8.3
						c0.6-1.4,1.3-2.8,2.3-4.3c1-1.4,2.2-3.3,3.6-5.5c-2.3-4-4.5-7.7-6.6-11.3C2303.9,847.3,2301.7,843.8,2299.5,840.4z"/>
				</g>
				<g>
					<path class="st0" d="M2303.3,766.5c-0.6-12.8-1.1-25.5-1.7-38.3c-0.6-12.8-1-25.5-1.3-38.3c-0.6-32.9-1-65.5-1.3-98
						c-0.1-7.8-0.2-15.7-0.3-23.5c-0.3-24.7-0.5-49.5-1-74.5c0-3.7-0.1-7.4-0.4-11.1c-0.3-3.7-0.7-7.5-1.3-11.5
						c-0.8-5.7-3.8-9.8-8.7-12.5c-5-2.7-10-2.9-15.1-0.6c-4,1.7-7.3,4-10,6.8c-2.7,2.8-4,6.7-4,11.5c-0.6,10.8-1.2,21.6-1.9,32.5
						c-0.7,10.9-0.9,21.8-0.6,32.5c0.6,19.4,1.4,38.5,2.1,57.7c0.4,10,0.7,20.1,1.1,30.1c1.3,29.1,2.6,58.3,4,87.8
						c0.8,19.8,2.1,39.3,3.8,58.2c0.6,4.5,1.4,9,2.6,13.4c1.1,4.4,2.4,9.1,3.8,14.2c3.1-0.6,5.5-0.9,7.2-1.1
						c1.7-0.1,3.3-0.2,4.7-0.2c4.8-0.3,8.6-1.8,11.3-4.7c2.7-2.8,4.6-6.4,5.7-10.6c0.8-3.1,1.3-6.4,1.5-9.8
						C2303.7,773.3,2303.6,769.9,2303.3,766.5z"/>
				</g>
			</g>
		</g>
		<g>
			<path class="st0" d="M515.2,921.8h14.3v66.6c0,5.4-0.9,10.4-2.6,15.1c-1.8,4.7-4.3,8.8-7.7,12.2c-3.4,3.5-7.6,6.2-12.6,8.1
				c-5,2-10.8,2.9-17.4,2.9c-6.6,0-12.4-1-17.4-2.9c-5-2-9.2-4.7-12.6-8.1c-3.4-3.5-6-7.5-7.7-12.2c-1.8-4.7-2.6-9.7-2.6-15.1v-66.6
				h14.3V989c0,7.7,2.2,14,6.6,18.9c4.4,4.9,10.9,7.3,19.6,7.3c8.7,0,15.2-2.4,19.6-7.3c4.4-4.9,6.6-11.2,6.6-18.9V921.8z"/>
			<path class="st0" d="M764.3,1024.9V921.8h14.3v50l43.1-50h17.2l-44.5,51.1l47.4,52.1h-18l-45.2-51.1v51.1H764.3z"/>
			<path class="st0" d="M1079.8,1024.9h-14.3V921.8h26.8c5.6,0,10.8,0.6,15.6,1.9c4.8,1.2,9,3.1,12.6,5.5c3.6,2.4,6.5,5.5,8.5,9.1
				c2.1,3.7,3.1,7.9,3.1,12.6c0,7.1-2.3,13.3-6.9,18.6c-4.6,5.3-11,9.1-19.3,11.5l36.4,44h-17.5l-33.6-41.5c-0.5,0-1.3,0-2.3,0.1
				c-1,0.1-2.1,0.1-3.3,0.1c-1.1,0-2.2,0-3.3,0c-1.1,0-1.9,0-2.6,0V1024.9z M1117.9,951.2c0-3.2-0.7-6-2.1-8.3
				c-1.4-2.3-3.3-4.2-5.7-5.6c-2.4-1.4-5.1-2.4-8.2-3.1c-3.1-0.7-6.4-1-9.8-1h-12.4v38.9h7.1c4.3,0,8.4-0.4,12.2-1.2
				c3.8-0.8,7.1-2.1,9.8-3.8c2.8-1.7,5-3.9,6.6-6.5C1117.1,957.9,1117.9,954.8,1117.9,951.2z"/>
			<path class="st0" d="M1456,1024.9h-14.6l-9.5-24.9h-48.2l-9.3,24.9h-14.6l41-103.2h13.9L1456,1024.9z M1388.1,988.5h39.7
				l-19.8-53.8L1388.1,988.5z"/>
			<path class="st0" d="M1698.4,1024.9h-14.3V921.8h14.3V1024.9z"/>
			<path class="st0" d="M2006.1,1024.9l-57.8-81v81h-13.6V921.8h13.6l57.8,81v-81h13.6v103.2H2006.1z"/>
			<path class="st0" d="M2255.2,921.8h57.5v11.6h-43.2v33h41.4V978h-41.4v35.3h43.7v11.6h-57.9V921.8z"/>
		</g>
	</g>
</g>
<g id="Layer_2">
	<g>
		<g>
			<path class="st2" d="M279.9-1036.5l-17.2-4.8l-27.9,8.6l5.6-29.2l-6-14.5c4.5-3.7,7.8-4.7,7.8-4.7l-2.5-9c-0.3,0.1-3.9,1.1-9,4.8
				l0-0.1c-39.4,25-14.7,82.5-14.7,82.5c49.3,1.6,66.1-18.5,71-27.3c1.9-2.9,3.9-6.3,5.7-10.3l-8.5-3.9
				C282.8-1041.3,281.3-1038.7,279.9-1036.5z"/>
			<path class="st2" d="M315.2-1078.8l-16.3-4.4l-24.4,7.9l7.1-26l-3.5-15.6c4.2-3.6,8.2-5.3,8.2-5.4l-3.6-8.6
				c-0.4,0.2-7.3,3.1-13.7,9.7c-26.2,23.4-17.1,68.7-17.1,68.7c43.9,8.7,65.7-13.5,71.7-21.1c2-1.8,4-3.7,5.9-5.9l-6.9-6.3
				C320.2-1083,317.7-1080.7,315.2-1078.8z"/>
			<path class="st2" d="M326.4-1134.4l-1.8-12.3c4.3-2.6,7.7-3.2,8-3.2l-0.9-8c-0.4,0-5.9,0-12.5,4.2
				c-32.2,15.4-26.6,59.1-26.6,59.1c40.7,13.7,59.7,0.1,66.4-7.1c2.2-1.8,4.4-4.1,6.6-7l-7.5-5.6c-1.6,2.1-3.2,3.8-4.7,5.1
				l-12.7-5.5l-25.8,3.8L326.4-1134.4z"/>
			<path class="st3" d="M205.6-1130.5c0,0,18.6-83.5,111.6-145.4c0.5-0.3,0.9-0.6,1.4-0.9l7.6-90.3c0,0-31.3,20-134,122.4
				C204.9-1206.3,211.6-1166.6,205.6-1130.5z"/>
			<g>
				<path class="st2" d="M279.9-1036.5l-17.2-4.8l-27.9,8.6l5.6-29.2l-6-14.5c4.5-3.7,7.8-4.7,7.8-4.7l-2.5-9
					c-0.3,0.1-3.9,1.1-9,4.8l0-0.1c-39.4,25-14.7,82.5-14.7,82.5c49.3,1.6,66.1-18.5,71-27.3c1.9-2.9,3.9-6.3,5.7-10.3l-8.5-3.9
					C282.8-1041.3,281.3-1038.7,279.9-1036.5z"/>
				<path class="st2" d="M315.2-1078.8l-16.3-4.4l-24.4,7.9l7.1-26l-3.5-15.6c4.2-3.6,8.2-5.3,8.2-5.4l-3.6-8.6
					c-0.4,0.2-7.3,3.1-13.7,9.7c-26.2,23.4-17.1,68.7-17.1,68.7c43.9,8.7,65.7-13.5,71.7-21.1c2-1.8,4-3.7,5.9-5.9l-6.9-6.3
					C320.2-1083,317.7-1080.7,315.2-1078.8z"/>
				<path class="st2" d="M326.4-1134.4l-1.8-12.3c4.3-2.6,7.7-3.2,8-3.2l-0.9-8c-0.4,0-5.9,0-12.5,4.2
					c-32.2,15.4-26.6,59.1-26.6,59.1c40.7,13.7,59.7,0.1,66.4-7.1c2.2-1.8,4.4-4.1,6.6-7l-7.5-5.6c-1.6,2.1-3.2,3.8-4.7,5.1
					l-12.7-5.5l-25.8,3.8L326.4-1134.4z"/>
				<path class="st4" d="M318.6-1276.8c-0.5,0.3-0.9,0.6-1.4,0.9c-93,61.9-111.6,145.4-111.6,145.4c6-36.1-0.7-75.7-13.3-114.2
					C159.8-1343.5,87.5-1434,87.5-1434s-12.9,79.9-43.5,274.5C13.4-964.9,155.7-953.4,155.7-953.4l6.9,1.5
					C94.1-639.8,388.8-609,388.8-609l-0.2-2C313.5-633.6,132-714.7,183.1-915.6c2.8-13.3,6.3-25.4,8.5-32.5
					c-10.2-10.2-35.5-41.9-6.4-86.1l0,0c4-6.3,7.3-9.5,7.5-9.7l3.2,3.4l3.2,3.4c-0.1,0.1-3.9,3.8-8.3,11.7l10.4,16.3l2.8,34.7
					l24.6-20.5l26.3,3.9c2.3-3.8,4.9-8.3,7.6-13.6l8.3,4.3c-4.8,9.1-9,16.1-12.6,21.5c-6.1,11.9-21.2,29.5-57.8,33.6
					c-0.2,0.8-0.5,1.6-0.8,2.6c-4.6,25-35.8,228.3,177,226.2c-183.8-22-162.6-169.5-149-221.7c161.1,35.4,182.9-157.7,182.9-157.7
					l6.7-41c-11,7.5-20,12-26.4,14.6c-2.6,1.4-5.9,2.6-9.8,3.4c-0.5,0.1-0.9,0.2-0.9,0.2l0,0c-9.9,1.8-24.1,0.5-43.1-9.3
					c0,0,1.1-34.1,26.1-45.8c16.9-10.6,47.7-16.2,63.1-18.4l25.3-154.6C451.5-1346.5,400.8-1331.3,318.6-1276.8z M286.9-1030.1
					c-4.9,8.7-21.7,28.9-71,27.3c0,0-24.7-57.5,14.7-82.5l0,0.1c5.1-3.7,8.8-4.7,9-4.8l2.5,9c-0.1,0-3.3,1-7.8,4.7l6,14.5l-5.6,29.2
					l27.9-8.6l17.2,4.8c1.4-2.2,2.8-4.8,4.2-7.8l8.5,3.9C290.8-1036.4,288.9-1033,286.9-1030.1z M323.6-1073.6
					c-6,7.6-27.8,29.8-71.7,21.1c0,0-9.1-45.3,17.1-68.7c6.4-6.5,13.3-9.5,13.7-9.7l3.6,8.6c-0.1,0-4,1.7-8.2,5.4l3.5,15.6l-7.1,26
					l24.4-7.9l16.3,4.4c2.4-2,4.9-4.3,7.4-7l6.9,6.3C327.6-1077.3,325.6-1075.4,323.6-1073.6z M340.6-1114.6l12.7,5.5
					c1.5-1.3,3.1-3,4.7-5.1l7.5,5.6c-2.2,2.9-4.4,5.2-6.6,7c-6.7,7.2-25.7,20.8-66.4,7.1c0,0-5.6-43.6,26.6-59.1
					c6.6-4.1,12-4.2,12.5-4.2l0.9,8c-0.3,0-3.7,0.5-8,3.2l1.8,12.3l-11.5,23.5L340.6-1114.6z"/>
				<path class="st4" d="M371.9-1157.8l-13.2,18.9l22.9,0.1l12.3,7.7c6-2.2,14.1-5.9,24.4-11.9l2.9-18c-6.5,7-16.6,16-27.2,17.9
					l-17.9-5.7l8.6-16.5c0,0,16.8-11.4,38.3-6.1l2.7-16.8c-12.7,2.5-34.9,7.8-53.6,17.3L371.9-1157.8z"/>
			</g>
		</g>
		<g>
			<g>
				<path class="st5" d="M506.2-799.9c2.3,6.2,3.6,11.3,4,15.3c0.4,4,0,7.4-1.3,10.2s-3.5,5.5-6.6,7.9c-3.1,2.4-7.1,5-11.9,7.9
					c-13.6,7.9-28.6,9.8-45.1,5.5c-5.7-1.4-10.4-3-14-4.7c-3.7-1.7-6.7-4-9.1-6.8c-2.4-2.8-4.1-6.4-5.1-10.6
					c-1-4.3-1.6-9.6-1.9-16.2c-0.3-9.9-0.1-19.7,0.6-29.3c0.7-9.6,1.6-19.4,2.8-29.3c2-19.3,3.3-38.4,4-57.4
					c0.7-19,0.4-38.3-1.1-57.8c-0.6-9.9-0.4-19.8,0.4-29.5c0.8-9.8,1.5-19.6,2.1-29.6c0.6-9.4,1.2-18.7,1.9-28.1
					c0.7-9.4,1.5-18.7,2.3-28.1c0.6-8.2,1.3-16.4,2.1-24.7c0.8-8.2,1.5-16.4,2.1-24.7c0.6-6,2.1-11.5,4.7-16.8
					c2.6-5.2,5.4-10.4,8.5-15.5c4.3-7.1,10.6-11.5,19.1-13.2c9.1-1.7,15.7-1,19.8,2.1c4.1,3.1,7.4,8.5,10,16.2
					c3.4,9.6-0.1,14.7-10.6,15.3c-1.4,0.3-2.7,0.3-3.8,0c-1.1-0.3-2.3-0.4-3.4-0.4c-8.2,0.9-12.5,4.7-12.8,11.5
					c-0.6,4-0.8,7.9-0.8,11.9c0,4,0.1,7.9,0.4,11.9c0.8,22.4,1.5,44.7,1.9,67c0.4,22.3-0.1,44.7-1.5,67.4c-0.6,8.5-0.6,17.1,0,25.7
					c0.6,8.7,1,17.4,1.3,26.1c0.3,7.1,0.3,14.1,0,21.1c-0.3,6.9-1.1,14-2.5,21c-1.7,11.9-2.9,24-3.6,36.1
					c-0.7,12.2-1.3,24.4-1.9,36.6c-0.6,4.8,0.7,8.2,3.8,10.2c3.1,2,7.1,2.4,11.9,1.3c2.6-0.6,5.1-1.3,7.7-2.3c2.6-1,5.2-1.9,7.9-2.8
					c2.7-0.8,5.5-1.3,8.3-1.5C499.7-801.1,502.8-800.7,506.2-799.9z"/>
				<path class="st5" d="M691.2-752.7c-3.7,0.6-6.9,1-9.8,1.3c-2.8,0.3-5.8,0.4-8.9,0.4c-6,0-12-0.1-18.1-0.2
					c-6.1-0.1-12.1-0.1-18.1,0.2c-5.4,0.3-10.3-0.6-14.7-2.6c-4.4-2-9-3.8-13.8-5.5c-1.4-0.6-2.8-1.6-4.3-3c-1.4-1.4-2.4-2.8-3-4.2
					c-1.4-3.4-2.8-6.9-4.2-10.4c-1.4-3.5-2-6.9-1.7-10c0.6-6.5,0.4-12.9-0.4-19.1c-0.9-6.2-1.9-12.6-3-19.1
					c-0.6-2.6-0.3-5.4,0.8-8.5c2.3-7.7,3.4-15.4,3.4-23.2c0-7.8,0-15.7,0-23.6c0.3-5.7,0.6-11.3,1.1-17c0.4-5.7,0.9-11.3,1.5-17
					c0.6-4.8,1.1-9.4,1.5-13.8c0.4-4.4,0.9-9,1.5-13.8c0.8-10.8,1.8-21.4,2.8-31.9c1-10.5,1.8-21.1,2.3-31.9
					c0.6-7.1,1-14.2,1.3-21.3c0.3-7.1,0.7-14.2,1.3-21.3c1.5-10.8,2.9-21.4,4.4-31.9c1.5-10.5,2.9-21.1,4.4-31.9l5.3-35.7
					c0.8-7.7,3.8-14,8.9-19.1c5.1-5.1,11.3-8.1,18.6-8.9c7.6-0.6,15.4-0.6,23.3,0c4.2,0.6,8.4,1.9,12.5,3.8c4.1,2,7.8,4.5,11.2,7.4
					c3.4,3,6.4,6.4,8.9,10.2c2.5,3.8,4.2,7.7,5.1,11.7c0.6,2.8,1.1,5.6,1.7,8.3c0.6,2.7,2,5.2,4.2,7.4c1.1,1.1,1.9,2.6,2.3,4.5
					c0.4,1.8,0.6,3.6,0.6,5.3c-0.6,8.5-1,17-1.3,25.5c-0.3,8.5-0.6,17-0.8,25.5c-0.3,3.7-0.6,7.3-0.9,10.8c-0.3,3.5-0.1,7,0.4,10.4
					c1.7,15.3,2.2,30.5,1.5,45.7c-0.7,15.2-2.8,30.4-6.2,45.7c-2.3,8.5-3.9,17.2-4.9,26.1c-1,8.9-0.9,17.9,0.2,27
					c0.6,2.3,0.7,4.7,0.4,7.2c-0.3,2.6-0.6,5.1-0.8,7.7c-1.4,16.2-2.8,32.4-4.3,48.7c-1.4,16.3-3,32.7-4.7,49.1
					c-0.6,5.7-1.6,11.3-3.2,16.8C694.1-765.2,692.6-759.2,691.2-752.7z M652.9-1149.4c-2,13.9-3.8,27.2-5.5,40
					c-1.7,12.8-3.5,25.5-5.5,38.3c-0.6,6-1.3,11.9-2.1,17.9c-0.8,6-1.6,11.9-2.1,17.9c-0.9,10.8-1.5,21.4-1.9,31.9
					c-0.4,10.5-1.1,21.1-1.9,31.9c-1.1,13.9-2.3,27.7-3.5,41.5c-1.2,13.7-2.4,27.6-3.5,41.5c-0.8,11.6-1.5,23-2,34.2
					c-0.5,11.2-1.1,22.6-1.6,34.2c-0.3,4-0.4,8.1-0.4,12.3c0,4.3,1,8.4,3,12.3c5.6,2.3,11.8,4.5,18.6,6.8c6.8,2,12,2.1,15.6,0.2
					c3.7-1.8,6.5-6.2,8.4-13c1.1-4,2-8.1,2.7-12.3c0.7-4.2,1.2-8.5,1.5-12.8c0.8-9.9,2.2-19.8,4-29.5c1.8-9.8,2.3-19.6,1.5-29.6
					c3.7-19.8,5.5-39.7,5.5-59.5c0-19.8,0.3-39.7,0.8-59.5c0-5.4-0.3-10.8-0.9-16.2c-0.6-5.4-0.6-10.6,0-15.7
					c1.4-17,1.4-33.7,0-50.2c-1.4-16.4-2-33.2-1.7-50.2c0.3-3.7-0.8-6.9-3.4-9.6c-2.6-2.7-5.7-4.3-9.4-4.9c-2.3-0.3-4.7-0.1-7.4,0.4
					C658.9-1150.5,656-1149.9,652.9-1149.4z"/>
				<path class="st5" d="M802.1-756.9c0-2.6-0.1-5.5-0.2-8.9c-0.1-3.4-0.1-6.8,0.2-10.2c0.6-15.9,1.1-31.6,1.5-47.2
					c0.4-15.6-0.4-31.2-2.3-46.8c-0.6-2.5-0.8-5.1-0.6-7.6c0.1-2.6,0.4-5,0.6-7.2c2-15,3-30,3.2-44.9c0.1-14.9,0.4-29.8,0.6-44.9
					c0-9.4,0.4-18.6,1.3-27.8c0.8-9.2,1.5-18.4,2.1-27.4c0.3-5.1,0.4-10.1,0.4-15.1c0-5,0-10,0-15.1c-0.3-9.9-0.5-19.8-0.6-29.8
					c-0.1-9.9-0.1-19.8,0.2-29.8c0-4.2,0.5-8.5,1.5-12.8c1-4.2,1.6-8.5,1.9-12.8c0.6-4.3,0.7-8.4,0.4-12.5c-0.3-4.1-0.4-8-0.4-11.7
					c3.1-2.3,5.9-4.1,8.3-5.5c2.4-1.4,5.2-1.7,8.3-0.9c3.1,0.6,5.6,1.9,7.4,3.8c1.8,2,3.5,4.3,4.9,6.8c4.5,9.1,8.2,18.4,11.1,27.8
					c2.8,9.5,5.1,19.2,6.8,29.1c4.5,24.4,8.9,48.6,13,72.7c4.1,24.1,8.1,48.3,12.1,72.7c0.6,2.8,0.8,5.6,0.8,8.3
					c0,2.7,0.3,5.6,0.9,8.7c0.3,1.4,0.7,2.7,1.3,3.8c0.6,1.1,1.1,2.4,1.7,3.8c2.8-0.8,4-2,3.4-3.4c-0.6-1.4-0.8-2.7-0.8-3.8
					c-1.1-12.2-1.3-24.2-0.4-36.1c0.8-11.9,1.8-23.9,3-36.1c1.1-9.6,1.7-19.2,1.7-28.7c0-9.5,0.1-19.1,0.4-28.7
					c0-12.8,0.1-25.4,0.4-38.1c0.3-12.6,2-25.3,5.1-38c0.6-1.4,1-2.8,1.3-4.3c0.3-1.4,0.7-2.8,1.3-4.3c2-5.7,6.2-8.8,12.8-9.4
					c3.4-0.6,6.6-0.3,9.6,0.8c3,1.1,5.2,3.4,6.6,6.8c2.5,5.1,3.8,10.5,3.8,16.2c0.3,5.1,0.3,10.1,0,15.1c-0.3,5-0.4,10-0.4,15.1
					c0,9.1,0,18.3,0,27.6c0,9.4-0.1,18.6-0.4,27.6c-0.3,7.4-0.6,14.8-1.1,22.3c-0.4,7.5-0.9,15.1-1.5,22.7
					c-0.3,7.7-0.6,15.4-0.8,23.2c-0.3,7.8-0.4,15.7-0.4,23.6c0.3,12.8,0.3,25.5,0,38.3c-0.3,12.8-1.1,25.7-2.6,38.7
					c-1.4,10.5-2.1,21.1-2.1,31.7c0,10.6,0.1,21.3,0.4,32.1c0,11.6-0.4,23-1.1,34.2c-0.7,11.2-1.5,22.2-2.3,33
					c-5.7,4.8-11.4,7.6-17.2,8.5c-5.8,0.8-12.1,0.3-18.9-1.7c-3.7-18.7-7.6-37.3-11.7-55.9c-4.1-18.6-8.2-37.3-12.1-56.1
					c-4-18.8-7.7-37.9-11.1-57.2c-3.4-19.3-6.2-39-8.5-59.1c-1.1,3.4-1.9,6-2.4,7.7c-0.5,1.7-0.8,3.3-0.8,4.7
					c-0.5,15.6-1.1,31.2-1.8,46.8c-0.7,15.6-1.1,31.2-1.4,46.8c-0.6,18.4-0.7,36.7-0.4,54.9c0.3,18.1,0.3,36.3,0,54.4
					c0,5.4-0.7,8.9-2.2,10.4c-1.4,1.6-4.7,2.5-9.9,2.8c-1.7,0-3.5,0.3-5.4,0.8c-1.9,0.6-3.7,0.9-5.6,1.1c-1.9,0.1-3.9-0.1-6-0.8
					C806.7-752.8,804.4-754.4,802.1-756.9z"/>
				<path class="st5" d="M1029.8-756.8c0-2.6-0.1-5.5-0.2-8.9c-0.1-3.4-0.1-6.8,0.2-10.2c0.6-15.9,1.1-31.6,1.5-47.2
					c0.4-15.6-0.4-31.2-2.3-46.8c-0.6-2.5-0.8-5.1-0.6-7.6s0.4-5,0.6-7.2c2-15,3-30,3.2-44.9c0.1-14.9,0.4-29.8,0.6-44.9
					c0-9.4,0.4-18.6,1.3-27.8c0.8-9.2,1.5-18.4,2.1-27.4c0.3-5.1,0.4-10.1,0.4-15.1c0-5,0-10,0-15.1c-0.3-9.9-0.5-19.8-0.6-29.8
					c-0.1-9.9-0.1-19.8,0.2-29.8c0-4.2,0.5-8.5,1.5-12.8c1-4.2,1.6-8.5,1.9-12.7c0.6-4.3,0.7-8.4,0.4-12.5c-0.3-4.1-0.4-8-0.4-11.7
					c3.1-2.3,5.9-4.1,8.3-5.5c2.4-1.4,5.2-1.7,8.3-0.9c3.1,0.6,5.6,1.9,7.4,3.8c1.8,2,3.5,4.3,4.9,6.8c4.5,9.1,8.2,18.4,11.1,27.8
					c2.8,9.5,5.1,19.2,6.8,29.1c4.5,24.4,8.9,48.6,13,72.7c4.1,24.1,8.1,48.3,12.1,72.7c0.6,2.8,0.8,5.6,0.8,8.3
					c0,2.7,0.3,5.6,0.9,8.7c0.3,1.4,0.7,2.7,1.3,3.8c0.6,1.1,1.1,2.4,1.7,3.8c2.8-0.8,4-2,3.4-3.4c-0.6-1.4-0.8-2.7-0.8-3.8
					c-1.1-12.2-1.3-24.2-0.4-36.1c0.8-11.9,1.8-23.9,3-36.1c1.1-9.6,1.7-19.2,1.7-28.7c0-9.5,0.1-19.1,0.4-28.7
					c0-12.8,0.1-25.4,0.4-38.1c0.3-12.6,2-25.3,5.1-38c0.6-1.4,1-2.8,1.3-4.3c0.3-1.4,0.7-2.8,1.3-4.3c2-5.7,6.2-8.8,12.8-9.4
					c3.4-0.6,6.6-0.3,9.6,0.8c3,1.1,5.2,3.4,6.6,6.8c2.5,5.1,3.8,10.5,3.8,16.2c0.3,5.1,0.3,10.1,0,15.1c-0.3,5-0.4,10-0.4,15.1
					c0,9.1,0,18.3,0,27.6s-0.1,18.6-0.4,27.6c-0.3,7.4-0.6,14.8-1.1,22.3c-0.4,7.5-0.9,15.1-1.5,22.7c-0.3,7.7-0.6,15.4-0.8,23.2
					c-0.3,7.8-0.4,15.7-0.4,23.6c0.3,12.8,0.3,25.5,0,38.3c-0.3,12.8-1.1,25.7-2.6,38.7c-1.4,10.5-2.1,21.1-2.1,31.7
					c0,10.6,0.1,21.3,0.4,32.1c0,11.6-0.4,23-1.1,34.2c-0.7,11.2-1.5,22.2-2.3,33c-5.7,4.8-11.4,7.6-17.2,8.5
					c-5.8,0.8-12.1,0.3-18.9-1.7c-3.7-18.7-7.6-37.3-11.7-55.9c-4.1-18.6-8.2-37.3-12.1-56.1c-4-18.8-7.7-37.9-11.1-57.2
					c-3.4-19.3-6.2-39-8.5-59.1c-1.1,3.4-1.9,6-2.4,7.7c-0.5,1.7-0.8,3.3-0.8,4.7c-0.5,15.6-1.1,31.2-1.8,46.8
					c-0.7,15.6-1.1,31.2-1.4,46.8c-0.6,18.4-0.7,36.7-0.4,54.9c0.3,18.1,0.3,36.3,0,54.4c0,5.4-0.7,8.9-2.2,10.4
					c-1.4,1.6-4.7,2.5-9.9,2.8c-1.7,0-3.5,0.3-5.4,0.8c-1.9,0.6-3.7,0.9-5.6,1.1c-1.9,0.1-3.9-0.1-6-0.8
					C1034.4-752.7,1032.1-754.3,1029.8-756.8z"/>
				<path class="st5" d="M1273.2-996.3c5.1,1.1,10.1,2.1,15.1,2.8c5,0.7,9.8,1.6,14.7,2.8c3.1,0.6,6.1,1.1,8.9,1.7
					c2.8,0.6,5.8,1.4,8.9,2.6c2.6,0.8,4.7,2.2,6.4,4c1.7,1.8,2.6,4.3,2.6,7.4c-2.6,6.5-5.8,11.6-9.8,15.1c-4,3.5-8.5,6.2-13.6,7.9
					c-5.1,1.7-10.5,2.8-16.2,3.4c-5.7,0.6-11.5,1-17.4,1.3c0,8.8,0,17.4,0,25.9c0,8.5-0.1,16.9-0.4,25.1c-0.3,8.2-0.6,16.3-0.8,24.2
					c-0.3,7.9-0.6,15.9-0.8,23.8v50.2c2.3,2.3,4.5,3.1,6.6,2.6s4.3-0.8,6.6-0.8c5.4-0.3,10.7-0.6,15.9-1.1
					c5.2-0.4,10.7-0.6,16.4-0.6c7.9,0,13.3,3.5,16.2,10.6c1.4,4,1.4,7.4,0,10.4c-1.4,3-3.5,5.6-6.4,7.9c-3.4,3.4-7.7,6.5-12.8,9.4
					c-8.5,4-17.4,6.5-26.6,7.6c-9.2,1.1-18.4,1.6-27.4,1.3c-6.2-0.6-10.7-2.3-13.4-5.1c-2.7-2.8-4.7-7.4-6.2-13.6
					c-3.1-13.3-4.8-26.6-4.9-39.8c-0.1-13.2,0.2-26.6,1.1-40.2c1.1-16.2,1.6-32.2,1.5-48.3c-0.1-16,0.1-32.1,0.6-48.3
					c0.3-18.1,0.4-36.1,0.4-54c0-17.9,0.3-35.9,0.8-54c0.3-11.6,0.8-23.1,1.5-34.4c0.7-11.3,1.5-22.8,2.3-34.4
					c0.6-6.8,1.4-13.7,2.6-20.6c1.1-6.9,2.4-13.7,3.8-20.2c0.6-2.3,1.4-4.4,2.6-6.4c1.1-2,2.1-3.8,3-5.5c11.3-1.1,21.9,0,31.7,3.4
					c9.8,3.4,19.5,6.8,29.1,10.2c1.4,0.6,2.7,1.4,3.8,2.3c1.1,1,2.1,2.1,3,3.2c4.5,5.1,4.5,9.9,0,14.5c-2.6,2.8-5.3,5.5-8.1,7.9
					c-2.8,2.4-6.4,3.9-10.6,4.5c-4.5,0.6-9,1.4-13.4,2.3c-4.4,1-9,2.1-13.8,3.2c-2.3,3.1-3.5,6.4-3.6,9.8c-0.1,3.4,0,6.8,0.4,10.2
					c0.4,3.4,0.9,6.7,1.5,10c0.6,3.3,0.7,6.6,0.4,10c-0.8,7.4-1.3,14.7-1.5,21.9c-0.1,7.2-0.4,14.5-0.6,21.9
					c-0.3,6.8-0.4,13.8-0.2,20.8C1273.2-1012.6,1273.2-1004.8,1273.2-996.3z"/>
				<path class="st5" d="M1504.9-799.9c2.3,6.2,3.6,11.3,4,15.3c0.4,4,0,7.4-1.3,10.2s-3.5,5.5-6.6,7.9c-3.1,2.4-7.1,5-11.9,7.9
					c-13.6,7.9-28.6,9.8-45.1,5.5c-5.7-1.4-10.4-3-14-4.7c-3.7-1.7-6.7-4-9.1-6.8c-2.4-2.8-4.1-6.4-5.1-10.6
					c-1-4.3-1.6-9.6-1.9-16.2c-0.3-9.9-0.1-19.7,0.6-29.3c0.7-9.6,1.6-19.4,2.8-29.3c2-19.3,3.3-38.4,4-57.4s0.4-38.3-1.1-57.8
					c-0.6-9.9-0.4-19.8,0.4-29.5c0.8-9.8,1.5-19.6,2.1-29.6c0.6-9.4,1.2-18.7,1.9-28.1c0.7-9.4,1.5-18.7,2.3-28.1
					c0.6-8.2,1.3-16.4,2.1-24.7c0.8-8.2,1.5-16.4,2.1-24.7c0.6-6,2.1-11.5,4.7-16.8c2.6-5.2,5.4-10.4,8.5-15.5
					c4.3-7.1,10.6-11.5,19.1-13.2c9.1-1.7,15.7-1,19.8,2.1c4.1,3.1,7.4,8.5,10,16.2c3.4,9.6-0.1,14.7-10.6,15.3
					c-1.4,0.3-2.7,0.3-3.8,0c-1.1-0.3-2.3-0.4-3.4-0.4c-8.2,0.9-12.5,4.7-12.8,11.5c-0.6,4-0.8,7.9-0.8,11.9c0,4,0.1,7.9,0.4,11.9
					c0.8,22.4,1.5,44.7,1.9,67c0.4,22.3-0.1,44.7-1.5,67.4c-0.6,8.5-0.6,17.1,0,25.7c0.6,8.7,1,17.4,1.3,26.1
					c0.3,7.1,0.3,14.1,0,21.1c-0.3,6.9-1.1,14-2.5,21c-1.7,11.9-2.9,24-3.6,36.1c-0.7,12.2-1.3,24.4-1.9,36.6
					c-0.6,4.8,0.7,8.2,3.8,10.2c3.1,2,7.1,2.4,11.9,1.3c2.6-0.6,5.1-1.3,7.7-2.3c2.6-1,5.2-1.9,7.9-2.8c2.7-0.8,5.5-1.3,8.3-1.5
					C1498.4-801.1,1501.5-800.7,1504.9-799.9z"/>
				<path class="st5" d="M1729.9-1143.4c-9.1,4.3-18.1,7.5-27.2,9.8c-9.1,2.3-18.1,4.5-27.2,6.8c-0.6,0.8-1,1.6-1.3,2.3
					c-0.3,0.7-0.6,1.3-0.8,1.9c-1.7,29.2-3.4,58-5.1,86.5c-1.7,28.5-3.4,57.3-5.1,86.5c-0.6,11.3-0.9,22.6-1.1,33.8
					c-0.1,11.2-0.6,22.3-1.5,33.4c-1.1,18.1-2.1,36.2-3,54.2c-0.8,18-1.1,36.1-0.8,54.2c0,4,0,8,0,12.1c0,4.1-2,7.7-6,10.8
					c-3.7,0.3-7.3-0.2-10.8-1.5c-3.5-1.3-7.3-1.2-11.3,0.2c-2.8,1.1-5.6,0.2-8.3-2.8c-2.7-3-4.2-6.3-4.5-10c0-1.4,0-2.8,0-4
					c0-1.3,0.1-2.6,0.4-4c0.6-10.8,1.1-21.6,1.5-32.5c0.4-10.9,0.9-21.8,1.5-32.5c0.6-8.5,1.1-17.1,1.7-25.7
					c0.6-8.6,1.6-17.1,3-25.3c1.4-8.2,2.1-16.4,2.1-24.4c0-8.1,0.1-16.2,0.4-24.4c0.3-11.3,0.6-22.6,0.9-33.8
					c0.3-11.2,1.3-22.3,3-33.4c1.4-8.5,2.2-17,2.3-25.5c0.1-8.5,0.5-17,1.1-25.5c0.6-6.5,1.3-13,2.1-19.3c0.8-6.4,1.6-12.8,2.1-19.3
					c0.6-4.8,0.7-9.8,0.4-14.9c-0.3-5.1-0.4-10.5-0.4-16.2h-27.2c-2.6-2.8-5.2-5.6-7.9-8.3c-2.7-2.7-5.6-5.6-8.7-8.7
					c-2.6-2.6-4-5.3-4.3-8.3c-0.3-3,0.1-5.7,1.3-8.3c1.1-2.6,2.8-4.7,5.1-6.6c2.3-1.8,4.8-2.9,7.7-3.2c4-0.6,8.1-1.1,12.3-1.5
					c4.2-0.4,8.4-0.5,12.3-0.2c4,0.3,8,0.2,12.1-0.2c4.1-0.4,8.1-0.9,12.1-1.5c4.8-0.8,9.8-1.5,14.9-1.9c5.1-0.4,10.2-0.9,15.3-1.5
					c4-0.3,7.7,0,11.1,0.8c3.4,0.8,6.7,2.8,9.8,6c2,2.3,4.3,3.5,7,3.8c2.7,0.3,5.3,0.9,7.9,1.7c2,0.6,4,1.6,6,3.2
					c2,1.6,3.5,3.3,4.7,5.3c0.9,1.4,1.1,3.2,0.9,5.3C1730-1147.9,1729.9-1145.7,1729.9-1143.4z"/>
				<g>
					<path class="st0" d="M1900.2-1131.1c5.7-2.3,9.7-4.2,12.1-5.7c2.4-1.6,4.6-3.6,6.6-6.2c2.8-4.3,4-8.8,3.6-13.6
						c-0.4-4.8-2.3-9.2-5.7-13.2c-7.9-8.8-15.6-8.9-23-0.4c-8.5,9.1-12.3,16.2-11.3,21.5C1883.5-1143.5,1889.4-1137.6,1900.2-1131.1
						z"/>
				</g>
				<g>
					<path class="st0" d="M1921.4-989.7c-0.6-12.3-1-24.7-1.3-37.2c0-4,0.1-7.9,0.2-11.7c0.1-3.8,0.5-7.6,1.1-11.3
						c1.1-7.7,1.1-15.2-0.2-22.7c-1.3-7.5-1.8-15.1-1.5-22.7c0.3-0.9,0.1-2.1-0.4-3.8c-2.3-6.2-6.1-10.1-11.5-11.5
						c-2.6-0.6-5.4,0-8.5,1.7c-3.1,1.7-5.4,4-6.8,6.8c-0.8,1.1-1.6,3.1-2.1,6c-2.8,6.8-5,13.7-6.6,20.6c-1.6,6.9-1.5,14.1,0.2,21.5
						c-2.3,16.7-3,33.3-2.1,49.7c0.8,16.4,1,33,0.4,49.7c0,3.4-0.1,6.9-0.2,10.4c-0.1,3.5,0.1,7,0.6,10.4c0.6,7.7,0.8,15.2,0.6,22.7
						c-0.1,7.5-0.5,15.1-1.1,22.7c-1.1,11.9-2.1,23.6-3,35.1c-0.8,11.5-1.7,23.2-2.6,35.1h0.8c0,5.7-0.1,11.3-0.2,16.8
						c-0.1,5.5,0.1,11.1,0.6,16.8c0.3,4,0.9,7.9,1.9,11.9c0.5,2.2,1.3,4.3,2,6.5c0.6,1.8,1,3.6,1.7,5.4c0.9,3.1,3.2,5.7,6.9,7.7
						s7.2,2.6,10.3,1.7c7.2-2,11.2-6.2,12.1-12.8c0.6-3.4,1-6.8,1.3-10.2c0.3-3.4,0.6-6.9,0.9-10.6c0.1-3.3,0.3-6.7,0.4-10
						c0.4-9.7,0.8-19.4,1.1-29.1c0.5-13,1.4-26.2,2.7-39.5c1.4-14.7,2.3-29.5,2.6-44.2c0.3-14.7,0.4-29.6,0.4-44.6
						C1922.3-965,1922-977.4,1921.4-989.7z"/>
				</g>
				<g>
					<path class="st0" d="M2142.9-1155.3c-1.1-2-2.7-3.8-4.7-5.3c-2-1.6-4-2.6-6-3.2c-2.6-0.8-5.2-1.4-7.9-1.7c-2.7-0.3-5-1.6-7-3.8
						c-3.1-3.1-6.4-5.1-9.8-6s-7.1-1.1-11.1-0.8c-5.1,0.6-10.2,1.1-15.3,1.5c-5.1,0.4-10.1,1.1-14.9,1.9c-4,0.6-8,1.1-12.1,1.5
						c-4.1,0.4-8.1,0.5-12.1,0.2c-4-0.3-8.1-0.2-12.3,0.2c-4.3,0.4-8.4,0.9-12.3,1.5c-2.8,0.3-5.4,1.4-7.7,3.2c-2.3,1.9-4,4-5.1,6.6
						c-1.1,2.6-1.6,5.3-1.3,8.3c0.3,3,1.7,5.7,4.3,8.3c3.1,3.1,6,6,8.7,8.7c2.7,2.7,5.3,5.5,7.9,8.3h27.2c0,5.7,0.1,11.1,0.4,16.2
						c0.3,5.1,0.1,10.1-0.4,14.9c-0.6,6.5-1.3,13-2.1,19.3c-0.8,6.4-1.6,12.8-2.1,19.3c-0.6,8.5-0.9,17-1.1,25.5
						c-0.1,8.5-0.9,17-2.3,25.5c-1.7,11.1-2.7,22.2-3,33.4c-0.3,11.2-0.6,22.5-0.9,33.8c-0.3,8.2-0.4,16.4-0.4,24.4
						c0,6.8-0.6,13.7-1.6,20.6c-0.2,1.3-0.3,2.5-0.5,3.8c-1.4,8.2-2.4,16.7-3,25.3c-0.6,8.7-1.1,17.2-1.7,25.7
						c-0.6,10.8-1.1,21.6-1.5,32.5c-0.4,10.9-0.9,21.8-1.5,32.5c-0.3,1.4-0.4,2.8-0.4,4c0,1.3,0,2.6,0,4c0.3,3.7,1.8,7,4.5,10
						c2.7,3,5.5,3.9,8.3,2.8c4-1.4,7.7-1.5,11.3-0.2c3.5,1.3,7.2,1.8,10.8,1.5c4-3.1,6-6.7,6-10.8c0-4.1,0-8.2,0-12.1
						c-0.3-18.1,0-36.2,0.8-54.2c0.9-18,1.8-36.1,3-54.2c0.8-11.1,1.3-22.2,1.5-33.4c0-1.9,0.1-3.9,0.2-5.8c0.2-9.3,0.4-18.6,0.9-28
						c1.7-29.2,3.4-58,5.1-86.5c1.7-28.5,3.4-57.3,5.1-86.5c0.3-0.6,0.6-1.2,0.8-1.9c0.3-0.7,0.7-1.5,1.3-2.3
						c9.1-2.3,18.1-4.5,27.2-6.8c9.1-2.3,18.1-5.5,27.2-9.8c0-2.3,0.1-4.5,0.4-6.6C2144.1-1152.1,2143.8-1153.9,2142.9-1155.3z"/>
				</g>
				<g>
					<path class="st0" d="M2268.4-792.6c-4.5-6-9.9-9-15.9-9.1c-6.1-0.1-11.3,2.6-15.5,8.3c-3.7,4.8-5.6,9.8-5.7,14.9
						c-0.1,5.1,0.8,10.1,2.8,14.9c1.7,4.8,4.5,8,8.3,9.6c3.8,1.6,8.1,2.6,13,3.2c4.8,0.3,8.9-0.4,12.1-1.9c3.3-1.6,6-4.3,8.3-8.3
						c0.6-1.4,1.3-2.8,2.3-4.3c1-1.4,2.2-3.3,3.6-5.5c-2.3-4-4.5-7.7-6.6-11.3C2272.8-785.8,2270.6-789.2,2268.4-792.6z"/>
				</g>
				<g>
					<path class="st0" d="M2272.2-866.6c-0.6-12.8-1.1-25.5-1.7-38.3c-0.6-12.8-1-25.5-1.3-38.3c-0.6-32.9-1-65.5-1.3-98
						c-0.1-7.8-0.2-15.7-0.3-23.5c-0.3-24.7-0.5-49.5-1-74.5c0-3.7-0.1-7.4-0.4-11.1c-0.3-3.7-0.7-7.5-1.3-11.5
						c-0.8-5.7-3.8-9.8-8.7-12.5c-5-2.7-10-2.9-15.1-0.6c-4,1.7-7.3,4-10,6.8c-2.7,2.8-4,6.7-4,11.5c-0.6,10.8-1.2,21.6-1.9,32.5
						c-0.7,10.9-0.9,21.8-0.6,32.5c0.6,19.4,1.4,38.5,2.1,57.7c0.4,10,0.7,20.1,1.1,30.1c1.3,29.1,2.6,58.3,4,87.8
						c0.8,19.8,2.1,39.3,3.8,58.2c0.6,4.5,1.4,9,2.6,13.4c1.1,4.4,2.4,9.1,3.8,14.2c3.1-0.6,5.5-0.9,7.2-1.1
						c1.7-0.1,3.3-0.2,4.7-0.2c4.8-0.3,8.6-1.8,11.3-4.7c2.7-2.8,4.6-6.4,5.7-10.6c0.8-3.1,1.3-6.4,1.5-9.8
						C2272.5-859.8,2272.5-863.2,2272.2-866.6z"/>
				</g>
			</g>
		</g>
		<g>
			<path class="st4" d="M484.1-711.3h14.3v66.6c0,5.4-0.9,10.4-2.6,15.1c-1.8,4.7-4.3,8.8-7.7,12.2c-3.4,3.5-7.6,6.2-12.6,8.1
				c-5,2-10.8,2.9-17.4,2.9c-6.6,0-12.4-1-17.4-2.9c-5-2-9.2-4.7-12.6-8.1c-3.4-3.5-6-7.5-7.7-12.2c-1.8-4.7-2.6-9.7-2.6-15.1v-66.6
				h14.3v67.2c0,7.7,2.2,14,6.6,18.9c4.4,4.9,10.9,7.3,19.6,7.3c8.7,0,15.2-2.4,19.6-7.3c4.4-4.9,6.6-11.2,6.6-18.9V-711.3z"/>
			<path class="st4" d="M733.2-608.1v-103.2h14.3v50l43.1-50h17.2l-44.5,51.1l47.4,52.1h-18l-45.2-51.1v51.1H733.2z"/>
			<path class="st4" d="M1048.7-608.1h-14.3v-103.2h26.8c5.6,0,10.8,0.6,15.6,1.9c4.8,1.2,9,3.1,12.6,5.5c3.6,2.4,6.5,5.5,8.5,9.1
				c2.1,3.7,3.1,7.9,3.1,12.6c0,7.1-2.3,13.3-6.9,18.6c-4.6,5.3-11,9.1-19.3,11.5l36.4,44h-17.5l-33.6-41.5c-0.5,0-1.3,0-2.3,0.1
				c-1,0.1-2.1,0.1-3.3,0.1c-1.1,0-2.2,0-3.3,0c-1.1,0-1.9,0-2.6,0V-608.1z M1086.8-681.9c0-3.2-0.7-6-2.1-8.3
				c-1.4-2.3-3.3-4.2-5.7-5.6c-2.4-1.4-5.1-2.4-8.2-3.1c-3.1-0.7-6.4-1-9.8-1h-12.4v38.9h7.1c4.3,0,8.4-0.4,12.2-1.2
				c3.8-0.8,7.1-2.1,9.8-3.8c2.8-1.7,5-3.9,6.6-6.5C1086-675.1,1086.8-678.3,1086.8-681.9z"/>
			<path class="st4" d="M1424.9-608.1h-14.6l-9.5-24.9h-48.2l-9.3,24.9h-14.6l41-103.2h13.9L1424.9-608.1z M1357-644.5h39.7
				l-19.8-53.8L1357-644.5z"/>
			<path class="st4" d="M1667.3-608.1H1653v-103.2h14.3V-608.1z"/>
			<path class="st4" d="M1975-608.1l-57.8-81v81h-13.6v-103.2h13.6l57.8,81v-81h13.6v103.2H1975z"/>
			<path class="st4" d="M2224.1-711.3h57.5v11.6h-43.2v33h41.4v11.6h-41.4v35.3h43.7v11.6h-57.9V-711.3z"/>
		</g>
	</g>
</g>
</svg>
