<?xml version="1.0" encoding="UTF-8"?>
<svg width="105px" height="105px" viewBox="0 0 105 105" version="1.1" xmlns="http://www.w3.org/2000/svg" xmlns:xlink="http://www.w3.org/1999/xlink">
    <!-- Generator: Sketch 39 (31667) - http://www.bohemiancoding.com/sketch -->
    <title>BDS-marketing</title>
    <desc>Created with Sketch.</desc>
    <defs>
        <polygon id="path-1" points="0.0127016129 105 105 105 105 0.00846774194 0.0127016129 0.00846774194"></polygon>
    </defs>
    <g id="Symbols" stroke="none" stroke-width="1" fill="none" fill-rule="evenodd">
        <g id="BDS-marketing">
            <g id="marketing">
                <g id="Group-4">
                    <mask id="mask-2" fill="white">
                        <use xlink:href="#path-1"></use>
                    </mask>
                    <g id="Clip-2"></g>
                    <path d="M39,67.6021168 L39,91 L37.9924447,91 C17.0097969,91 0,73.9914349 0,53 C0,32.0131795 17.0171575,15 37.9924447,15 L39,15 L39,40.3978832 C35.8817387,44.0622745 34,48.8113855 34,54 C34,59.1886145 35.8817387,63.9377255 39,67.6021168 Z" id="Combined-Shape" fill="#ECEFF1" mask="url(#mask-2)"></path>
                    <path d="M96.1224194,101.612903 C94.6558065,101.612903 93.2755645,101.042177 92.2391129,100.005726 L73.5237097,81.2903226 L81.2903226,73.5237097 L100.005726,92.2391129 C101.042177,93.2755645 101.612903,94.6558065 101.612903,96.1224194 C101.612903,99.1504839 99.1504839,101.612903 96.1224194,101.612903 L96.1224194,101.612903 Z M65.3641935,73.1308065 C68.5633065,71.2357258 71.2357258,68.5633065 73.1308065,65.3641935 L78.8956452,71.1290323 L71.1290323,78.8956452 L65.3641935,73.1308065 L65.3641935,73.1308065 Z M43.9797581,87.6953226 C46.6877419,85.1465323 50.3322581,81.2327419 53.5703226,76.1791935 C53.778629,76.1842742 53.9835484,76.2096774 54.1935484,76.2096774 C56.9997581,76.2096774 59.673871,75.6609677 62.1447581,74.7007258 L64.5800806,77.1360484 C59.0540323,82.878871 51.7904032,86.5758871 43.9797581,87.6953226 L43.9797581,87.6953226 Z M11.3179839,74.8395968 C13.2164516,73.8827419 16.6001613,72.4567742 21.5182258,71.3068548 C25.1983065,78.7245968 30.3145161,84.3285484 33.8658871,87.6580645 C24.8020161,86.3506452 16.8304839,81.6459677 11.3179839,74.8395968 L11.3179839,74.8395968 Z M33.8641935,17.3419355 C30.3128226,20.6714516 25.1983065,26.2737097 21.5165323,33.6914516 C16.5984677,32.5415323 13.2147581,31.1155645 11.3162903,30.1587097 C16.8304839,23.3540323 24.8020161,18.6493548 33.8641935,17.3419355 L33.8641935,17.3419355 Z M45.7258065,15.2419355 L62.6612903,15.2419355 C65.4624194,15.2419355 67.7419355,17.5214516 67.7419355,20.3225806 L67.7419355,32.1774194 C67.7419355,33.1122581 66.9832258,33.8709677 66.0483871,33.8709677 C65.1135484,33.8709677 64.3548387,33.1122581 64.3548387,32.1774194 L64.3548387,18.6290323 L60.9677419,18.6290323 L60.9677419,30.483871 L47.4193548,30.483871 L47.4193548,18.6290323 L44.0322581,18.6290323 L44.0322581,32.1774194 C44.0322581,33.1122581 43.2735484,33.8709677 42.3387097,33.8709677 C41.403871,33.8709677 40.6451613,33.1122581 40.6451613,32.1774194 L40.6451613,20.3225806 C40.6451613,17.5214516 42.9246774,15.2419355 45.7258065,15.2419355 L45.7258065,15.2419355 Z M40.6451613,86.1440323 L40.6451613,71.5100806 C43.2803226,73.5762097 46.3845968,75.0699194 49.7818548,75.7642742 C46.5522581,80.4604839 43.0059677,84.0237097 40.6451613,86.1440323 L40.6451613,86.1440323 Z M37.2580645,69.4693548 L37.2580645,86.1372581 C34.1114516,83.298871 28.8512903,77.8947581 25.0221774,70.5955645 C28.4922581,69.9841935 32.5669355,69.5557258 37.2580645,69.4693548 L37.2580645,69.4693548 Z M20.37,54.1935484 L32.1774194,54.1935484 C32.1774194,58.5866129 33.4848387,62.6731452 35.7101613,66.1127419 C31.0291935,66.2702419 26.9782258,66.7596774 23.5064516,67.4133871 C21.8027419,63.4403226 20.6020161,59.0049194 20.37,54.1935484 L20.37,54.1935484 Z M16.9812097,54.1935484 C17.1996774,59.2826613 18.3766935,63.9585484 20.0837903,68.1416129 C14.7745161,69.4354839 11.2299194,71.0291129 9.28572581,72.0689516 C5.86137097,66.8934677 3.78508065,60.7729839 3.47346774,54.1935484 L16.9812097,54.1935484 L16.9812097,54.1935484 Z M16.9812097,50.8064516 L3.47346774,50.8064516 C3.78508065,44.2270161 5.86137097,38.1065323 9.28572581,32.9310484 C11.2299194,33.9708871 14.7745161,35.5645161 20.0837903,36.8583871 C18.3766935,41.0414516 17.1996774,45.7173387 16.9812097,50.8064516 L16.9812097,50.8064516 Z M37.2580645,38.9177419 L37.2580645,40.1794355 C34.7533065,43.2041129 33.0682258,46.8689516 32.4483871,50.8064516 L20.37,50.8064516 C20.6020161,45.9950806 21.8027419,41.5596774 23.5064516,37.5866129 C27.3525,38.3097581 31.9250806,38.8245968 37.2580645,38.9177419 L37.2580645,38.9177419 Z M37.2580645,18.8644355 L37.2580645,35.5306452 C32.5669355,35.4425806 28.4922581,35.0158065 25.0221774,34.4044355 C28.8512903,27.1069355 34.1114516,21.701129 37.2580645,18.8644355 L37.2580645,18.8644355 Z M60.9677419,52.5 L55.8870968,52.5 L55.8870968,38.9516129 L52.5,38.9516129 L52.5,52.5 L47.4193548,52.5 L47.4193548,33.8709677 L60.9677419,33.8709677 L60.9677419,52.5 L60.9677419,52.5 Z M55.8870968,59.2741935 L60.9677419,59.2741935 L60.9677419,55.8870968 L55.8870968,55.8870968 L55.8870968,59.2741935 Z M47.4193548,59.2741935 L52.5,59.2741935 L52.5,55.8870968 L47.4193548,55.8870968 L47.4193548,59.2741935 Z M70.0417742,35.2816935 C71.4541935,37.8220161 72.5397581,40.5045968 73.2866129,43.2921774 C71.8894355,40.8551613 70.0333065,38.6891129 67.8029032,36.9278226 C68.6970968,36.5958871 69.4642742,36.0217742 70.0417742,35.2816935 L70.0417742,35.2816935 Z M54.1935484,72.8225806 C43.9221774,72.8225806 35.5645161,64.4649194 35.5645161,54.1935484 C35.5645161,47.8732258 38.816129,42.0101613 44.0322581,38.6027419 L44.0322581,62.6612903 L64.3548387,62.6612903 L64.3548387,38.6027419 C69.5709677,42.0101613 72.8225806,47.8715323 72.8225806,54.1935484 C72.8225806,64.4649194 64.4649194,72.8225806 54.1935484,72.8225806 L54.1935484,72.8225806 Z M54.1935484,3.38709677 C56.0615323,3.38709677 57.5806452,4.90620968 57.5806452,6.77419355 C57.5806452,8.64217742 56.0615323,10.1612903 54.1935484,10.1612903 C52.3255645,10.1612903 50.8064516,8.64217742 50.8064516,6.77419355 C50.8064516,4.90620968 52.3255645,3.38709677 54.1935484,3.38709677 L54.1935484,3.38709677 Z M83.685,71.1290323 L85.8747581,68.9392742 L83.4800806,66.5445968 L81.2903226,68.7343548 L76.2367742,63.6808065 C77.3240323,60.0464516 77.9032258,56.2935484 77.9032258,52.5 C77.9032258,44.6317742 75.5525806,37.0734677 71.1290323,30.5939516 L71.1290323,20.3225806 C71.1290323,15.6534677 67.3304032,11.8548387 62.6612903,11.8548387 L58.6272581,11.8548387 C60.0498387,10.6117742 60.9677419,8.80814516 60.9677419,6.77419355 C60.9677419,3.03822581 57.9295161,0 54.1935484,0 C50.4575806,0 47.4193548,3.03822581 47.4193548,6.77419355 C47.4193548,8.80814516 48.3372581,10.6117742 49.7598387,11.8548387 L45.7258065,11.8548387 C43.8053226,11.8548387 42.0541935,12.5220968 40.6316129,13.6025806 C40.0744355,13.5771774 39.5172581,13.5483871 38.9516129,13.5483871 C17.4723387,13.5483871 0,31.0207258 0,52.5 C0,73.9792742 17.4723387,91.4516129 38.9516129,91.4516129 C49.5345968,91.4516129 59.6450806,87.1262903 66.9747581,79.5307258 L68.7343548,81.2903226 L66.5445968,83.4800806 L68.9392742,85.8747581 L71.1290323,83.685 L89.8444355,102.400403 C91.5210484,104.077016 93.7514516,105 96.1224194,105 C101.016774,105 105,101.016774 105,96.1224194 C105,93.7514516 104.077016,91.5210484 102.400403,89.8444355 L83.685,71.1290323 L83.685,71.1290323 Z" id="Fill-1" fill="#78909C" mask="url(#mask-2)"></path>
                    <path d="M101.612903,18.6290323 C101.612903,19.563871 100.854194,20.3225806 99.9193548,20.3225806 L79.5967742,20.3225806 C78.6619355,20.3225806 77.9032258,19.563871 77.9032258,18.6290323 L77.9032258,5.08064516 C77.9032258,4.14580645 78.6619355,3.38709677 79.5967742,3.38709677 L99.9193548,3.38709677 C100.854194,3.38709677 101.612903,4.14580645 101.612903,5.08064516 L101.612903,18.6290323 L101.612903,18.6290323 Z M99.9193548,0 L79.5967742,0 C76.7956452,0 74.516129,2.27951613 74.516129,5.08064516 L74.516129,18.6290323 C74.516129,21.4301613 76.7956452,23.7096774 79.5967742,23.7096774 L99.9193548,23.7096774 C102.720484,23.7096774 105,21.4301613 105,18.6290323 L105,5.08064516 C105,2.27951613 102.720484,0 99.9193548,0 L99.9193548,0 Z" id="Fill-3" fill="#78909C" mask="url(#mask-2)"></path>
                </g>
                <polygon id="Fill-5" fill="#FCB125" points="81.2903226 10.1612903 98.2258065 10.1612903 98.2258065 6.77419355 81.2903226 6.77419355"></polygon>
                <polygon id="Fill-6" fill="#FCB125" points="81.2903226 16.9354839 91.4516129 16.9354839 91.4516129 13.5483871 81.2903226 13.5483871"></polygon>
                <polygon id="Fill-7" fill="#FCB125" points="94.8387097 16.9354839 98.2258065 16.9354839 98.2258065 13.5483871 94.8387097 13.5483871"></polygon>
            </g>
        </g>
    </g>
</svg>