<?xml version="1.0" encoding="UTF-8"?>
<svg width="100px" height="100px" viewBox="0 0 100 100" version="1.1" xmlns="http://www.w3.org/2000/svg" xmlns:xlink="http://www.w3.org/1999/xlink">
    <!-- Generator: Sketch 39 (31667) - http://www.bohemiancoding.com/sketch -->
    <title>BDS-bix-support</title>
    <desc>Created with Sketch.</desc>
    <defs>
        <polygon id="path-1" points="0.0115789474 99 94.5590877 99 94.5590877 0.192789474 0.0115789474 0.192789474"></polygon>
    </defs>
    <g id="Symbols" stroke="none" stroke-width="1" fill="none" fill-rule="evenodd">
        <g id="BDS-bix-support">
            <path d="M23.2121096,51.8644405 L24.8927608,39.9376677 L29.2571353,26.0175149 L36.6913574,13.8700236 L42.1274129,8.76105686 L30.4607155,11.6309283 L17.3415313,21.0127911 L8.84892445,33.5948051 C8.84892445,33.5948051 5.14404598,43.2617387 5.14404598,44.6429591 C5.14404598,46.0241794 5.04618528,53.1047185 5.04618528,53.1047185 C5.04618528,53.1047185 8.66649928,48.0510633 8.66649934,48.0510643 C8.6664994,48.0510654 13.9945893,47.0192706 13.994589,47.0192722 C13.9945886,47.0192737 17.0314613,47.42431 18.6626508,48.7121559 C20.2938402,50.0000019 23.2121096,51.8644405 23.2121096,51.8644405 Z" id="Path-14" fill="#ECEFF1"></path>
            <g id="support" transform="translate(3.000000, 1.000000)">
                <path d="M72.7829474,20.0915965 C72.0980526,20.5889123 71.9461754,21.5464912 72.4432982,22.231193 C74.1921053,24.639614 75.7322982,27.2987193 77.0210351,30.1342105 C77.2777018,30.6990702 77.8340702,31.0325439 78.4164912,31.0325439 C78.628386,31.0325439 78.8437544,30.9881579 79.0494737,30.8949474 C79.8196667,30.5448772 80.1602807,29.6367018 79.8102105,28.8665088 C78.4361754,25.8436316 76.7919649,23.0056316 74.9223509,20.4310526 C74.4250351,19.7463509 73.4668772,19.5952456 72.7829474,20.0915965" id="Fill-1" fill="#FCB125"></path>
                <g id="Group-5">
                    <mask id="mask-2" fill="white">
                        <use xlink:href="#path-1"></use>
                    </mask>
                    <g id="Clip-3"></g>
                    <path d="M78.6185439,34.0967193 C79.1656491,35.640386 79.6479123,37.2419474 80.0522105,38.8577895 C80.2262807,39.5536842 80.8505789,40.018193 81.5370175,40.018193 C81.6599474,40.018193 81.785193,40.0033333 81.9098596,39.9718772 C82.730614,39.7667368 83.2294737,38.9349825 83.0239474,38.1142281 C82.5962982,36.4044035 82.0858596,34.7084737 81.5061404,33.0731404 C81.2232281,32.2763158 80.3482456,31.8592807 79.5506491,32.1412281 C78.7532456,32.4237544 78.3358246,33.2995088 78.6185439,34.0967193" id="Fill-2" fill="#FCB125" mask="url(#mask-2)"></path>
                    <path d="M83.8777018,44.3066491 C80.6498772,44.3066491 77.6501579,45.7941579 75.6572281,48.1855965 C75.0838772,37.2141579 72.2678772,27.0115614 67.5905614,19.129386 C65.3662456,15.3808947 62.8252456,12.3325439 60.0630877,10.0441579 C76.6451053,15.0613158 89.1434211,29.5728246 91.1979123,47.2282105 C89.2553509,45.4033684 86.6502807,44.3066491 83.8777018,44.3066491 L83.8777018,44.3066491 Z M65.5785263,44.3066491 C62.920386,44.3066491 60.4469298,45.2729123 58.5452807,46.9391228 C58.2843684,36.5408421 57.2775789,26.9127544 55.6528596,19.4466491 C54.6559123,14.8662105 53.4862456,11.3751579 52.1537018,8.98140351 C62.8061404,12.6139123 71.1342982,27.9044912 72.5044737,46.8576842 C70.6153684,45.2491754 68.1795439,44.3066491 65.5785263,44.3066491 L65.5785263,44.3066491 Z M47.2795439,44.3066491 C44.0463158,44.3066491 41.0423509,45.7985965 39.0494211,48.1971754 C39.2564912,37.5374035 40.2528596,27.6628772 41.899386,20.0979649 C43.9550351,10.6532105 46.3173333,8.15775439 47.2795439,8.15775439 C48.2415614,8.15775439 50.6040526,10.6532105 52.6595088,20.0979649 C54.3058421,27.6630702 55.3024035,37.5374035 55.5094737,48.1971754 C53.5165439,45.7985965 50.5127719,44.3066491 47.2795439,44.3066491 L47.2795439,44.3066491 Z M28.9803684,44.3066491 C26.3797368,44.3066491 23.9437193,45.2491754 22.0544211,46.8574912 C23.4244035,27.9042982 31.7525614,12.6135263 42.405386,8.98121053 C41.0726491,11.3747719 39.9031754,14.8660175 38.9062281,19.4464561 C37.2813158,26.9127544 36.2747193,36.5406491 36.013807,46.9389298 C34.1119649,45.2729123 31.6385088,44.3066491 28.9803684,44.3066491 L28.9803684,44.3066491 Z M10.681386,44.3066491 C7.90861404,44.3066491 5.30373684,45.4033684 3.36098246,47.2287895 C5.41566667,29.5732105 17.9137895,15.0617018 34.495614,10.0445439 C31.7336491,12.3327368 29.1926491,15.3812807 26.9683333,19.1295789 C22.2910175,27.0117544 19.4750175,37.2141579 18.9018596,48.1855965 C16.9087368,45.7941579 13.9092105,44.3066491 10.681386,44.3066491 L10.681386,44.3066491 Z M80.7110526,18.942193 C72.1432105,10.3743509 60.8657018,5.50289474 48.8112456,5.1215614 L48.8112456,1.72449123 C48.8112456,0.87845614 48.1255789,0.192789474 47.2795439,0.192789474 C46.4335088,0.192789474 45.7478421,0.87845614 45.7478421,1.72449123 L45.7478421,5.1215614 C33.693193,5.50289474 22.4156842,10.3743509 13.8478421,18.942193 C4.91796491,27.8720702 0,39.7449298 0,52.3738947 C0,53.2199298 0.685859649,53.9055965 1.53170175,53.9055965 L1.91284211,53.9055965 C2.59040351,53.9055965 3.18768421,53.460386 3.38085965,52.810807 C4.33438596,49.6074912 7.33661404,47.3702456 10.681386,47.3702456 C14.0259649,47.3702456 17.028193,49.6074912 17.9819123,52.810807 C18.1752807,53.4605789 18.7723684,53.9055965 19.4499298,53.9055965 L20.2120175,53.9055965 C20.2261053,53.9055965 20.2394211,53.9025088 20.2535088,53.9021228 C20.2760877,53.9030877 20.2982807,53.9055965 20.3210526,53.9055965 L20.5456842,53.9055965 C21.3915263,53.9055965 22.077386,53.2199298 22.077386,52.3738947 C22.077386,52.2158421 22.0522982,52.0637719 22.0077193,51.920193 C23.2140526,49.1744386 25.9399298,47.3702456 28.9803684,47.3702456 C32.0246667,47.3702456 34.726614,49.148193 35.9456842,51.9188421 C35.9452982,52.0703333 35.9447193,52.2216316 35.9447193,52.3738947 C35.9447193,53.2199298 36.6305789,53.9055965 37.4764211,53.9055965 L37.5580526,53.9055965 C37.598,53.9055965 37.6369825,53.9027018 37.6759649,53.899614 C37.7004737,53.9009649 37.7242105,53.9055965 37.7489123,53.9055965 L38.511,53.9055965 C39.1887544,53.9055965 39.7856491,53.460386 39.9790175,52.810807 C40.7843333,50.1067368 43.0491754,48.0908421 45.7478421,47.5284912 L45.7478421,89.1357018 C45.7478421,89.2937544 45.7717719,89.4462105 45.8161579,89.5895965 C46.409386,94.8763509 50.9047193,99 56.3474035,99 C62.1918772,99 66.9467719,94.2451053 66.9467719,88.4004386 C66.9467719,87.5542105 66.2611053,86.8687368 65.4150702,86.8687368 C64.5688421,86.8687368 63.8833684,87.5542105 63.8833684,88.4004386 C63.8833684,92.5559298 60.5027018,95.9365965 56.3474035,95.9365965 C52.1921053,95.9365965 48.8112456,92.5557368 48.8112456,88.4004386 L48.8112456,47.5282982 C51.5097193,48.0906491 53.7749474,50.1065439 54.5798772,52.810614 C54.7734386,53.460386 55.3705263,53.9054035 56.0480877,53.9054035 L56.8101754,53.9054035 C56.8470351,53.9054035 56.8829298,53.8990351 56.9194035,53.8963333 C56.9730526,53.9021228 57.0274737,53.9054035 57.0826667,53.9054035 C57.9287018,53.9054035 58.6143684,53.2197368 58.6143684,52.3737018 C58.6143684,52.2214386 58.6137895,52.0701404 58.6130175,51.9188421 C59.8320877,49.148193 62.5342281,47.3702456 65.5785263,47.3702456 C68.7565614,47.3702456 71.5907018,49.3417544 72.7057544,52.2997895 L72.7063333,52.3738947 C72.7063333,53.2199298 73.391807,53.9055965 74.2380351,53.9055965 C74.260807,53.9055965 74.283,53.9030877 74.305386,53.9021228 C74.3194737,53.9025088 74.3329825,53.9055965 74.3470702,53.9055965 L75.1089649,53.9055965 C75.7867193,53.9055965 76.383614,53.460386 76.5773684,52.810807 C77.5310877,49.6076842 80.5329298,47.3702456 83.8777018,47.3702456 C87.2224737,47.3702456 90.2243158,49.6074912 91.1782281,52.810807 C91.3715965,53.4605789 91.9686842,53.9055965 92.6464386,53.9055965 L93.027193,53.9055965 C93.8734211,53.9055965 94.5590877,53.2199298 94.5590877,52.3738947 C94.5590877,39.7449298 89.6411228,27.8720702 80.7110526,18.942193 L80.7110526,18.942193 Z" id="Fill-4" fill="#78909C" mask="url(#mask-2)"></path>
                </g>
            </g>
        </g>
    </g>
</svg>