<?xml version="1.0" encoding="UTF-8"?>
<svg width="110px" height="110px" viewBox="0 0 110 110" version="1.1" xmlns="http://www.w3.org/2000/svg" xmlns:xlink="http://www.w3.org/1999/xlink">
    <!-- Generator: Sketch 39 (31667) - http://www.bohemiancoding.com/sketch -->
    <title>ITS-design</title>
    <desc>Created with Sketch.</desc>
    <defs>
        <polygon id="path-1" points="99.9992188 84.765625 99.9992188 0.154492187 0.01171875 0.154492187 0.01171875 84.765625"></polygon>
    </defs>
    <g id="Symbols" stroke="none" stroke-width="1" fill="none" fill-rule="evenodd">
        <g id="ITS-design">
            <g id="computer" transform="translate(5.000000, 13.000000)">
                <polyline id="Fill-1" fill="#F5F4F2" points="56.1867187 71.5822266 53.3623047 83.0595703 32.7835937 83.0595703 35.6103516 71.5822266 56.1867187 71.5822266"></polyline>
                <path d="M68.3013672,1.86230469 L73.7634766,1.86230469 C70.909375,1.86230469 68.5949219,4.17695312 68.5949219,7.03085938 L68.5949219,45.1681641 C68.5949219,48.0220703 70.9095703,50.3367188 73.7634766,50.3367188 L68.3013672,50.3367188 C65.4472656,50.3367188 63.1328125,48.0220703 63.1328125,45.1681641 L63.1328125,7.03320313 C63.1328125,4.17695312 65.4472656,1.86230469 68.3013672,1.86230469" id="Fill-2" fill="#C7C6C1"></path>
                <path d="M98.2931641,7.03085938 L98.2931641,10.7498047 L68.5949219,10.7498047 L68.5949219,7.03085938 C68.5949219,4.17695312 70.909375,1.86230469 73.7634766,1.86230469 L93.1244141,1.86230469 C95.9785156,1.86230469 98.2931641,4.17695312 98.2931641,7.03085938" id="Fill-3" fill="#FBFBFB"></path>
                <polyline id="Fill-5" fill="#FBFBFB" points="85.9167969 31.2214844 95.0134766 41.2330078 87.6123047 41.2330078 82.2162109 35.2953125 85.9167969 31.2214844"></polyline>
                <path d="M95.0134766,41.2330078 L98.2931641,41.2330078 L98.2931641,45.1681641 C98.2931641,48.0220703 95.9785156,50.3367187 93.1246094,50.3367187 L73.7634766,50.3367187 C70.909375,50.3367187 68.5949219,48.0220703 68.5949219,45.1681641 L68.5949219,41.2330078 L95.0134766,41.2330078" id="Fill-4" fill="#FBFBFB"></path>
                <path d="M88.2951172,18.1986328 C90.7052734,18.1986328 92.6601562,20.1537109 92.6601562,22.5638672 C92.6601562,24.9740234 90.7052734,26.9291016 88.2951172,26.9291016 C85.8849609,26.9291016 83.9298828,24.9740234 83.9298828,22.5638672 C83.9298828,20.1537109 85.8849609,18.1986328 88.2951172,18.1986328" id="Fill-7" fill="#FBFBFB"></path>
                <path d="M92.6601562,22.5638672 C92.6601562,20.1537109 90.7052734,18.1986328 88.2951172,18.1986328 C85.8849609,18.1986328 83.9298828,20.1537109 83.9298828,22.5638672 C83.9298828,24.9740234 85.8849609,26.9291016 88.2951172,26.9291016 C90.7052734,26.9291016 92.6601562,24.9740234 92.6601562,22.5638672 L92.6601562,22.5638672 Z M98.2931641,10.7498047 L98.2931641,41.2330078 L95.0134766,41.2330078 L85.9167969,31.2214844 L82.2162109,35.2953125 L74.896875,27.2455078 L69.1070312,33.6134766 L68.5949219,33.6134766 L68.5949219,10.7498047 L98.2931641,10.7498047 L98.2931641,10.7498047 Z" id="Fill-8" fill="#FCB125"></path>
                <path d="M55.3308594,28.5791016 C55.3308594,24.4050781 51.9490234,21.0208984 47.775,21.0208984 C43.6009766,21.0208984 40.2167969,24.4050781 40.2167969,28.5791016 C40.2167969,32.753125 43.6009766,36.1351563 47.775,36.1351563 C51.9490234,36.1351563 55.3308594,32.753125 55.3308594,28.5791016 L55.3308594,28.5791016 Z M92.1982422,50.3367188 L92.1982422,60.9605469 L59.459375,60.9605469 L43.6578125,43.5681641 L37.2490234,50.6210938 L24.5744141,36.6835938 L9.09375,52.5943359 L9.09375,21.3962891 C9.09375,18.7335938 11.2537109,16.5759766 13.9142578,16.5759766 L63.1328125,16.5759766 L63.1328125,45.1681641 C63.1328125,48.0220703 65.4472656,50.3367188 68.3013672,50.3367188 L92.1982422,50.3367188 L92.1982422,50.3367188 Z" id="Fill-9" fill="#FBFBFB"></path>
                <path d="M47.775,21.0208984 C51.9490234,21.0208984 55.3308594,24.4050781 55.3308594,28.5791016 C55.3308594,32.753125 51.9490234,36.1351563 47.775,36.1351563 C43.6009766,36.1351563 40.2167969,32.753125 40.2167969,28.5791016 C40.2167969,24.4050781 43.6009766,21.0208984 47.775,21.0208984" id="Fill-10" fill="#FBFBFB"></path>
                <path d="M7.29589844,16.5759766 L13.9142578,16.5759766 C11.2537109,16.5759766 9.09375,18.7335938 9.09375,21.3962891 L9.09375,66.7640625 C9.09375,69.4246094 11.2537109,71.5822266 13.9142578,71.5822266 L7.29589844,71.5822266 C4.20976562,71.5822266 1.70625,69.0810547 1.70625,65.9949219 L1.70625,22.1632813 C1.70625,19.0771484 4.20976562,16.5759766 7.29589844,16.5759766" id="Fill-13" fill="#C7C7C2"></path>
                <path d="M92.1982422,60.9605469 L92.1982422,66.7640625 C92.1982422,69.4246094 90.040625,71.5822266 87.3779297,71.5822266 L13.9142578,71.5822266 C11.2537109,71.5822266 9.09375,69.4246094 9.09375,66.7640625 L9.09375,60.9605469 L92.1982422,60.9605469" id="Fill-14" fill="#F5F4F2"></path>
                <g id="Group-19">
                    <mask id="mask-2" fill="white">
                        <use xlink:href="#path-1"></use>
                    </mask>
                    <g id="Clip-17"></g>
                    <path d="M93.1238281,48.6294922 L73.7501953,48.6289062 C71.8470703,48.6214844 70.3011719,47.071875 70.3011719,45.1671875 L70.3011719,42.9402344 L96.5861328,42.9402344 L96.5861328,45.1671875 C96.5861328,47.0763672 95.0330078,48.6294922 93.1238281,48.6294922 L93.1238281,48.6294922 Z M87.378125,69.8746094 L13.9144531,69.8746094 C12.1976562,69.8746094 10.8009766,68.4791016 10.8009766,66.7634766 L10.8009766,62.6664062 L90.4916016,62.6664062 L90.4916016,66.7634766 C90.4916016,68.4787109 89.0947266,69.8746094 87.378125,69.8746094 L87.378125,69.8746094 Z M52.0242187,81.3515625 L34.9621094,81.3515625 L36.9466797,73.2892578 L54.0087891,73.2892578 L52.0242187,81.3515625 L52.0242187,81.3515625 Z M3.41386719,65.9943359 L3.41386719,22.1634766 C3.41386719,20.0236328 5.15488281,18.2824219 7.29492188,18.2824219 L8.17871094,18.2824219 C7.67402344,19.2083984 7.38710938,20.2691406 7.38710938,21.3955078 L7.38710938,66.7632812 C7.38710938,67.8892578 7.67402344,68.9496094 8.17871094,69.8751953 L7.29492188,69.8751953 C5.15488281,69.8755859 3.41386719,68.134375 3.41386719,65.9943359 L3.41386719,65.9943359 Z M68.3015625,52.0429687 L90.4916016,52.0435547 L90.4916016,59.2525391 L60.2154297,59.2525391 L44.9201172,42.4208984 C44.5964844,42.0648437 44.1378906,41.8619141 43.6566406,41.8619141 C43.1757812,41.8619141 42.7169922,42.0648437 42.3935547,42.4208984 L37.2482422,48.0824219 L25.8375,35.534375 C25.5207031,35.1863281 25.0742187,34.9841797 24.6035156,34.9761719 C24.128125,34.9746094 23.6794922,35.1550781 23.3513672,35.4925781 L10.8009766,48.3916016 L10.8009766,21.3955078 C10.8009766,19.6810547 12.1941406,18.2861328 13.9078125,18.2824219 L61.4259766,18.2824219 L61.4259766,45.1673828 C61.4259766,48.9583984 64.5103516,52.0429687 68.3015625,52.0429687 L68.3015625,52.0429687 Z M64.8398438,7.03242187 C64.8398438,5.2921875 66.1308594,3.85117187 67.8037109,3.60859375 C67.2220703,4.61757812 66.8873047,5.78574219 66.8873047,7.03183594 L66.8873047,45.1673828 C66.8873047,46.4125 67.2216797,47.5806641 67.8029297,48.5890625 C66.1302734,48.3458984 64.8398438,46.9064453 64.8398438,45.1673828 L64.8398438,7.03242187 L64.8398438,7.03242187 Z M95.7697266,39.5263672 L87.1800781,30.0742187 C86.8564453,29.7181641 86.3976562,29.5152344 85.9167969,29.5152344 C85.4359375,29.5152344 84.9769531,29.7181641 84.6533203,30.0742187 L82.2148437,32.7574219 L76.1587891,26.0958984 C75.8353516,25.7402344 75.3765625,25.5371094 74.8957031,25.5371094 C74.4150391,25.5371094 73.95625,25.7402344 73.6328125,26.0960937 L70.3009766,29.7617187 L70.3009766,12.4576172 L96.5859375,12.4576172 L96.5859375,39.5263672 L95.7697266,39.5263672 L95.7697266,39.5263672 Z M70.3011719,34.7005859 L70.3691406,34.7623047 L74.8964844,29.7816406 L83.7552734,39.5263672 L70.3013672,39.5263672 L70.3013672,34.7005859 L70.3011719,34.7005859 L70.3011719,34.7005859 Z M96.5861328,7.03164062 L96.5861328,9.04394531 L70.3011719,9.04394531 L70.3011719,7.03164062 C70.3011719,5.12246094 71.8542969,3.56953125 73.7634766,3.56953125 L93.1238281,3.56953125 C95.0330078,3.56933594 96.5861328,5.12226562 96.5861328,7.03164062 L96.5861328,7.03164062 Z M68.3015625,0.154492187 C64.5103516,0.154492187 61.4259766,3.23984375 61.4259766,7.03222656 L61.4259766,14.8685547 L51.1908203,14.8685547 C51.1886719,14.8685547 13.9144531,14.8683594 13.9144531,14.8683594 C13.9101562,14.8683594 7.29492188,14.8685547 7.29492188,14.8685547 C3.27246094,14.8685547 0,18.1412109 0,22.1634766 L0,65.9943359 C0,70.0167969 3.27246094,73.2892578 7.29492188,73.2892578 L33.4310547,73.2892578 L31.1265625,82.6503906 C31.0847656,82.9007812 31.0826172,82.9417969 31.0808594,82.9835937 C31.0914062,83.2916016 31.1015625,83.3533203 31.1142578,83.4138672 C31.1933594,83.6765625 31.2101562,83.7189453 31.2287109,83.7603516 C31.3673828,84.0097656 31.3912109,84.0433594 31.4160156,84.0765625 C31.6158203,84.3044922 31.6601562,84.3445312 31.7068359,84.3822266 C31.9392578,84.540625 31.9755859,84.5613281 32.0132812,84.5802734 C32.2769531,84.6880859 32.3191406,84.7 32.3617188,84.7109375 C32.6582031,84.7615234 32.7205078,84.765625 32.7835937,84.765625 L66.8714844,84.765625 C67.8144531,84.765625 68.5785156,84.0013672 68.5785156,83.0585937 C68.5785156,82.1160156 67.8144531,81.3517578 66.8714844,81.3517578 L55.5394531,81.3517578 L57.5240234,73.2896484 L87.3773437,73.2886719 C90.9765625,73.2886719 93.9046875,70.3617187 93.9046875,66.7636719 L93.9046875,51.9980469 C97.3294922,51.6085937 99.9992188,48.6949219 99.9992188,45.1675781 L99.9992188,7.03164062 C100,3.23984375 96.9152344,0.15546875 93.1238281,0.15546875 L68.3015625,0.154492187 Z" id="Fill-18" fill="#78909C" mask="url(#mask-2)"></path>
                </g>
            </g>
        </g>
    </g>
</svg>